<svg width="260px" height="240px" viewBox="0 0 260 240" version="1.1" xmlns="http://www.w3.org/2000/svg" xmlns:xlink="http://www.w3.org/1999/xlink">
    <g id="Page-1" stroke="none" stroke-width="1" fill="none" fill-rule="evenodd">
        <g id="Acura_logo" fill="#000000" fill-rule="nonzero">
            <path d="M153.879849,1.13361885 L134.352222,1.13361885 L133.927845,0 L133.927845,1.13361885 L125.467025,1.13361885 L125.459166,0.15114918 L125.107091,1.13361885 L106.049422,1.13361885 C72.0238196,5.70115813 40.7849597,27.7059596 33,73.1845436 L33.5988431,113.82163 C35.3890851,148.910283 58.6920958,168.178654 83.4694235,178.014372 L83.4238422,178.45365 L83.5951648,178.064755 C100.659834,184.816085 118.408222,187.099068 130.301779,186.996727 C150.000729,186.606258 166.086188,183.59902 179.125563,178.181266 L179.894157,179.796673 L179.639531,177.971862 C208.372995,165.823246 222.144813,141.831463 227,108.122047 L227,81.8819193 C225.168892,46.6342454 205.124153,12.8649995 153.879849,1.13361885 Z M134,8 L134,75 L126.513281,75 L126,8 L134,8 Z M45,109.620818 L45,72.7279371 C53.7782101,33.0504502 79.0653696,15.5586642 108.519066,8 L123,8 L93.5385214,91.4517382 L84.9875486,171 C66.9750973,162.166892 51.381323,144.730106 45,109.620818 Z M129.911852,181 C116.096478,180.377442 100.376845,178.973139 86,172.534783 L124.422079,87 L135.988402,87 L176,170.566238 C164.169549,176.423014 149.112611,180.107929 129.911852,181 Z M216,106.918589 C211.691252,133.232212 201.965567,155.853441 178.294919,169 L167.10944,88.7263385 L137,8 L152.015478,8 C196.476425,19.9714916 214.026923,50.1920157 215.99843,82.6569973 L215.99843,106.918589 L216,106.918589 Z" id="circle"></path>
            <g id="Group-52" transform="translate(0.000000, 201.000000)">
                <polygon id="a_1_" points="0 37.9639883 23.4204041 0 33.4491394 0.0671757395 56 37.8711888 45.4781741 37.7403 28.8087802 10.0119553 20.4094787 24.4401961 35.3509603 24.4401961 39.9864305 32.400175 15.0148167 32.400175 11.7552507 38 0 37.9639883"></polygon>
                <path d="M100,0.0807740233 L66.3912721,0.0807740233 C60.7947961,0.0807740233 56,6.05387378 56,9.52019351 L56,28.8042952 C56,32.8200176 60.6440469,37.7367881 64.6857919,38 L99.5929078,38 L99.5929078,30.5144763 L68.8261837,30.5144763 C66.8483825,30.5144763 65.5791717,28.6016639 65.5791717,27.4234772 L65.5791717,11.5548633 C65.7271421,9.82936304 66.5413266,8.72289819 68.0960576,8.30022722 L99.674882,8.30022722 L99.674882,0" id="c"></path>
                <polygon id="u" points="105 0.00831828381 105 29.7371714 113.67275 38 141.32725 38 150 28.1164925 150 0.0582279866 140.167802 0.0582279866 140.167802 26.9214324 137.216673 30.6438644 117.778426 30.6438644 114.42331 27.3214032 114.42331 0"></polygon>
                <path d="M193.213241,0 L156,0 L156,38.4174268 L165.762525,38.4174268 L165.762525,8.61461626 L189.767481,8.61461626 C194.467003,8.61461626 194.845078,17.2292325 189.767481,17.2292325 L167.48471,17.2292325 L167.48471,25.9614905 L189.882154,25.9614905 C190.939929,25.9614905 192.181181,27.8627784 192.181181,29.1040045 L192.181181,39 L202,39 L202,27.5316908 C201.116668,24.9921789 199.361818,23.4804472 197.579168,22.0032332 C199.473711,20.7345339 201.609416,19.665896 201.886717,17.0552354 L201.886717,7.21841302 C201.886022,5.29599191 195.922312,0 193.213241,0 L193.213241,0 Z" id="r"></path>
                <polygon id="a" points="204 37.9639883 227.419998 0 237.449557 0.0671757395 260 37.8711888 249.478043 37.7403 232.807743 10.0119553 224.409035 24.4401961 239.350703 24.4401961 243.986929 32.400175 219.015004 32.400175 215.754699 38 204 37.9639883"></polygon>
            </g>
        </g>
    </g>
</svg>
