<?xml version="1.0" encoding="UTF-8"?>
<svg width="124px" height="18px" viewBox="0 0 124 18" version="1.1" xmlns="http://www.w3.org/2000/svg" xmlns:xlink="http://www.w3.org/1999/xlink">
    <title>acura-logo</title>
    <g id="Page-1" stroke="none" stroke-width="1" fill="none" fill-rule="evenodd">
        <g id="acura-logo" transform="translate(0.059564, 0.000000)" fill="#000000" fill-rule="nonzero">
            <path d="M18.1515199,8.15533981 L18.1515199,8.15533981 C18.0058888,5.16990291 16.9719082,2.97087379 15.5884131,1.77669903 C14.0884131,0.480582524 11.2777335,0 9.09326744,0 C6.90880142,0.0145631068 4.11268492,0.480582524 2.59812181,1.77669903 C1.21462667,2.97087379 0.195209191,5.16990291 0.0204519095,8.15533981 C-0.125179158,10.9514563 0.501034434,13.9951456 2.08841307,15.7572816 C3.61753929,17.461165 6.70491793,18 9.09326744,18 C11.481617,18 14.5689956,17.461165 16.0981218,15.7572816 C17.6855005,14.0242718 18.2971509,10.9368932 18.1515199,8.15533981 Z M8.58355871,0.757281553 C8.88938395,0.757281553 8.94763638,0.757281553 9.09326744,0.757281553 C9.23889851,0.757281553 9.29715094,0.757281553 9.60297618,0.757281553 L9.60297618,7.2815534 L8.5689956,7.2815534 L8.58355871,0.757281553 Z M1.24375288,10.8786408 L1.24375288,10.8786408 C1.15637424,9.77184466 0.821422783,5.67961165 2.43792764,3.33495146 C3.10783055,2.37378641 4.08355871,1.64563107 5.19035482,1.26699029 C6.2097723,0.946601942 7.27287909,0.77184466 8.33598589,0.742718447 C7.65151987,2.38834951 6.26802473,5.89805825 6.02045191,6.69902913 C5.59812181,7.73300971 5.30685968,8.82524272 5.13210239,9.93203883 C4.95734511,11.3446602 4.63695676,14.8834951 4.56414123,16.4271845 C2.64181113,15.4951456 1.47676259,13.7621359 1.24375288,10.8786408 Z M13.4039471,16.5145631 C12.0787043,17.0825243 10.4330733,17.1990291 9.07870434,17.2281553 C7.7243354,17.2572816 6.07870434,17.0825243 4.75346162,16.5145631 C5.19035482,15.3349515 7.31656841,10.2524272 8.48161696,8.27184466 L9.67579172,8.27184466 C10.8554034,10.2524272 12.9670539,15.3349515 13.4039471,16.5145631 L13.4039471,16.5145631 Z M16.9282189,10.8786408 C16.6806461,13.7475728 15.5301606,15.4951456 13.5932674,16.4126214 C13.5058888,14.868932 13.2000636,11.3300971 13.0253063,9.91747573 C12.850549,8.81067961 12.5592869,7.7184466 12.1369568,6.68446602 C11.8748208,5.89805825 10.4913257,2.37378641 9.82142278,0.72815534 C10.8845296,0.757281553 11.9476364,0.932038835 12.9670539,1.25242718 C14.07385,1.63106796 15.035015,2.3592233 15.719481,3.32038835 C17.350549,5.67961165 17.0155975,9.77184466 16.9282189,10.8786408 L16.9282189,10.8786408 Z M29.2486072,1.41262136 L33.3554034,1.41262136 L42.4864713,16.5436893 L38.1757917,16.5436893 L31.2874422,5.11165049 L27.6612286,11.1262136 L33.5592869,11.1262136 L35.2922966,13.9805825 L25.942782,13.9805825 L24.4136558,16.5436893 L20.1466655,16.5436893 L29.2486072,1.41262136 Z M85.6806461,16.5582524 L81.981617,16.5582524 L81.981617,1.42718447 L95.8602577,1.42718447 C100.666083,1.42718447 101.91851,7.83495146 98.5398694,10.0485437 C100.010743,10.6019417 100.258316,12.4514563 100.316568,13.0485437 L100.433073,16.5582524 L96.7777335,16.5582524 L96.6612286,13.4708738 C96.5592869,12.1456311 95.7291898,11.2427184 94.3893839,11.2427184 L87.3408403,11.2427184 L86.6126849,8.08252427 L94.7680247,8.08252427 C96.035015,8.08252427 96.7777335,7.48543689 96.7777335,6.36407767 C96.7777335,5.30097087 96.0495781,4.64563107 94.7680247,4.64563107 L85.6806461,4.64563107 L85.6806461,16.5582524 M70.6223937,16.5582524 L67.2437529,16.5582524 C63.2825878,16.5582524 61.6806461,14.3592233 61.6806461,10.7912621 L61.6806461,1.41262136 L65.4233645,1.41262136 L65.4233645,11.4320388 C65.4379276,13.3398058 66.7486072,13.5873786 67.9573451,13.6165049 L73.3020053,13.6165049 C74.5107432,13.5873786 75.8359859,13.3398058 75.8359859,11.4320388 L75.8359859,1.41262136 L79.5787043,1.41262136 L79.5787043,10.7912621 C79.5787043,14.3592233 77.9767626,16.5582524 74.0155975,16.5582524 L70.6223937,16.5582524 M46.0107432,9.01456311 L46.0107432,10.8932039 C46.0398694,12.1893204 46.3020053,13.4708738 48.1078306,13.4708738 L59.4961801,13.4708738 L59.4961801,16.5582524 L48.0495781,16.5582524 C44.481617,16.5582524 42.2825878,14.9708738 42.2534616,10.9951456 L42.2534616,7.00485437 C42.2971509,3.02912621 44.481617,1.44174757 48.0495781,1.44174757 L59.481617,1.44174757 L59.481617,4.52912621 L48.0932674,4.52912621 C46.2874422,4.51456311 46.0398694,5.7961165 45.9961801,7.09223301 L45.9961801,8.98543689 M110.49618,1.41262136 L114.602976,1.41262136 L123.719481,16.5436893 L119.408801,16.5436893 L112.520452,5.11165049 L108.894238,11.1262136 L114.792297,11.1262136 L116.510743,13.9805825 L107.175792,13.9805825 L105.632102,16.5436893 L101.365112,16.5436893 L110.49618,1.41262136 Z" id="Shape"></path>
        </g>
    </g>
</svg>