<?xml version="1.0" encoding="UTF-8"?>
<svg width="106px" height="42px" viewBox="0 0 106 42" version="1.1" xmlns="http://www.w3.org/2000/svg" xmlns:xlink="http://www.w3.org/1999/xlink">
    <title>aston-martin-logo-1</title>
    <defs>
        <filter id="filter-1">
            <feColorMatrix in="SourceGraphic" type="matrix" values="0 0 0 0 0.200000 0 0 0 0 0.200000 0 0 0 0 0.200000 0 0 0 1.000000 0"></feColorMatrix>
        </filter>
    </defs>
    <g id="Marque-Logos-and-Skins" stroke="none" stroke-width="1" fill="none" fill-rule="evenodd">
        <g id="aston-martin-logo-1" transform="translate(-23.000000, -21.000000)" filter="url(#filter-1)">
            <g transform="translate(23.000000, 21.000000)">
                <path d="M96.8249892,0.583012868 C96.5360166,0.0416443842 95.917918,0 95.7526968,0 L60.1716144,0 C59.1821301,0 58.357538,0.291507764 57.7391103,0.916165548 C57.3267813,1.33260141 56.9969313,1.91561162 56.8320392,2.58191565 C56.8320392,2.58191565 56.7907668,2.74848335 56.4609826,2.74848335 L49.4519164,2.74848335 C49.1632729,2.74848335 49.1220663,2.62355591 49.0808598,2.58191565 C48.9159018,1.91561162 48.6273242,1.33260141 48.1737886,0.916165548 C47.5965676,0.333152015 46.730703,0 45.7412187,0 L10.2012112,0 C9.95377436,0 9.41782566,0.0416443842 9.1291822,0.583012868 C9.00549667,0.832871727 8.88181114,1.24931424 9.21166116,1.87396471 L9.87136122,2.9567046 C10.1187323,3.37314047 10.4485823,3.53971481 11.1082165,3.58136172 C11.1082165,3.58136172 11.39686,3.62300198 11.6442311,3.99779759 L12.3039311,5.16382465 C12.4276166,5.41368617 12.7574009,6.07998355 13.911843,6.2465579 C13.9531154,6.2465579 14.2416931,6.28820481 14.4478576,6.66297381 L15.2724497,8.1205492 C15.5198208,8.57863862 15.8496708,8.74518637 16.4680985,8.95342093 L31.3520297,13.3676344 C31.8467718,13.5341822 32.0942087,14.117199 32.0942087,14.117199 C32.4652653,15.0333779 32.9188008,15.8246293 35.2276194,16.5325736 L47.3904031,19.8640605 C47.555361,19.9056808 48.9571742,20.3221499 49.9878651,19.322664 L52.8327639,16.5741939 C52.8327639,16.5741939 52.9564495,16.4492665 53.080135,16.4492665 C53.2450271,16.4492665 53.3275061,16.5741939 53.3275061,16.5741939 L56.1723391,19.322664 C57.2443024,20.3637702 58.604909,19.9056808 58.7698011,19.8640605 L70.9326506,16.5325736 C73.2411401,15.8246293 73.6946756,15.0749982 74.0659297,14.117199 C74.0659297,14.117199 74.2719625,13.5341822 74.8084378,13.3676344 L89.6921716,8.95342093 C90.2694585,8.74518637 90.5992427,8.57863862 90.887557,8.1205492 L91.7123466,6.66297381 C91.8775679,6.32984507 92.2073521,6.2465579 92.2481637,6.2465579 C93.3612677,6.07998355 93.6917101,5.45532643 93.8562731,5.16382465 L94.5158415,3.99779759 C94.7218743,3.62300198 95.0108469,3.58136172 95.0523168,3.58136172 C95.6704153,3.53971481 96.0001995,3.37314047 96.2891721,2.9567046 L96.9487405,1.87396471 C97.0724919,1.2909545 96.9487405,0.832871727 96.8249892,0.583012868 Z M57.4916734,2.79013026 C57.615359,2.20712005 57.8627958,1.79067754 58.19258,1.41588858 C58.6461156,0.95780581 59.3058157,0.666297381 60.1304078,0.666297381 L76.4988287,0.666297381 C75.9215418,1.08273324 75.6325692,1.62410319 75.6325692,1.6657501 C75.4265364,2.04053906 75.2205035,2.41533466 74.9321892,2.91505769 L57.4504669,2.91505769 C57.4916734,2.87341743 57.4916734,2.79013026 57.4916734,2.79013026 Z M71.0972136,6.70466062 L71.0972136,5.8717623 L72.6645114,6.07998355 C72.4578203,6.32984507 72.2517874,6.6213535 72.0042847,6.87120837 C71.592219,6.82958805 71.3039047,6.78790125 71.0972136,6.70466062 Z M71.592219,7.37091811 C71.4276561,7.57915266 71.2624348,7.74570041 71.0972136,7.95393496 L71.0972136,7.28767747 L71.592219,7.37091811 Z M71.0972136,5.37203926 L71.0972136,4.66410162 L73.653864,4.83066931 C73.4478311,5.08053083 73.2411401,5.37203926 73.0765771,5.62190078 L71.0972136,5.37203926 Z M71.0972136,4.16437193 L71.0972136,3.49807455 L74.5609351,3.49807455 C74.3957139,3.74793607 74.189681,4.08108476 73.9836482,4.37259319 L71.0972136,4.16437193 Z M45.7824253,0.707944292 C46.6070175,0.707944292 47.2667175,0.95780581 47.7202531,1.45752885 C48.0501031,1.79067754 48.2974742,2.24876031 48.4211597,2.83177717 L48.5036387,2.99835151 L31.0221796,2.99835151 C30.7748086,2.58191565 30.321273,1.74903727 30.321273,1.74903727 C30.2800664,1.70739701 29.9914888,1.16602707 29.4554743,0.749591203 C37.8663538,0.707944292 45.7824253,0.707944292 45.7824253,0.707944292 Z M33.9494917,6.91282868 C33.7021206,6.66297381 33.4959561,6.37149198 33.2898574,6.12163046 L34.8565628,5.91340921 L34.8565628,6.74628093 L33.9494917,6.91282868 Z M34.8153562,7.24599067 L34.8153562,7.91231465 C34.6503983,7.74570041 34.4855062,7.53753234 34.3206141,7.37091811 C34.5267128,7.32929779 34.6916707,7.28767747 34.8153562,7.24599067 Z M32.8775284,5.66354769 C32.671364,5.41368617 32.4652653,5.12217774 32.3003074,4.87231622 L34.8153562,4.70574188 L34.8153562,5.37203926 L32.8775284,5.66354769 Z M34.8153562,4.16437193 L31.9292508,4.37259319 C31.7230863,4.08108476 31.5169876,3.78957633 31.3520297,3.49807455 L34.8153562,3.49807455 L34.8153562,4.16437193 Z M11.06701,2.9567046 C10.6134744,2.91505769 10.4897889,2.87341743 10.3661033,2.62355591 C10.3661033,2.62355591 9.78888226,1.62410984 9.74767569,1.54082267 C9.66519672,1.37424167 9.62399015,1.20766733 9.62399015,1.12438016 C9.62399015,0.874518637 9.78888226,0.707944292 10.2012112,0.707944292 L27.9299755,0.707944292 C29.1256243,0.707944292 29.8678033,1.95725853 29.8678033,1.95725853 C30.0326954,2.24876031 30.1975875,2.581909 30.4449586,2.9567046 L11.06701,2.9567046 Z M13.4995799,5.49697334 C13.0460443,5.330399 12.9223588,5.08053748 12.7986732,4.91396313 C12.5513022,4.45588036 12.1802456,3.74793607 11.9740811,3.49807455 L30.733602,3.49807455 C30.8984941,3.78957633 31.1046586,4.08108476 31.3108231,4.41423345 L14.8189142,5.49697334 C14.6127497,5.5386136 13.8706365,5.5386136 13.4995799,5.49697334 Z M16.5505774,7.87069433 C15.9733563,7.95393496 15.7671918,7.74570041 15.7259853,7.70408009 L14.9425997,6.28819816 C14.8601207,6.20491099 14.8189142,6.07998355 14.7364352,6.03833664 C14.8189142,6.03833664 31.6818797,4.91396313 31.6818797,4.91396313 C31.8880442,5.16382465 32.0942087,5.49697334 32.2591008,5.74683486 L16.5505774,7.87069433 Z M20.3436882,9.41151035 C18.7357104,8.91173413 17.3751696,8.53695182 16.7979485,8.37040407 L32.671364,6.20491763 C32.9188008,6.45477915 33.0836929,6.78790125 33.3722706,7.0378226 L22.528887,9.28658292 C22.0753515,9.36982355 20.9209093,9.5780581 20.3436882,9.41151035 Z M25.7447767,10.9939467 C24.5079214,10.6191644 23.2710002,10.2443821 22.0753515,9.91122009 C22.4052015,9.86953329 22.6525725,9.82791297 22.6525725,9.82791297 C22.6525725,9.82791297 30.4862309,8.20378983 33.7845996,7.53753234 C34.1144496,7.91231465 34.4442996,8.28709695 34.8153562,8.62025894 L27.5589189,10.9106396 C27.47644,10.8690193 26.4869557,11.2021812 25.7447767,10.9939467 Z M31.3933021,12.6596901 C31.2283441,12.6180698 29.4966809,12.0766733 27.2702755,11.4520361 C27.47644,11.4103493 27.6413321,11.368729 27.6413321,11.368729 C27.6413321,11.368729 33.743393,9.45313067 35.1452062,9.03666156 C35.6811549,9.53643779 36.2171695,10.0361475 36.8355971,10.5358573 L32.8775284,12.4098353 C32.671364,12.4931424 31.9292508,12.8262379 31.3933021,12.6596901 Z M44.54557,8.95342093 L40.0927592,12.1599804 C39.350646,11.701891 38.5672604,11.1604944 37.8250814,10.6191644 C39.4743315,9.82791297 41.0410369,9.11996868 41.3296145,8.95342093 L44.54557,8.95342093 Z M45.9061108,14.7419027 C44.9991056,14.4920478 44.133241,14.1588858 43.2262357,13.8257239 C45.0815187,11.8684387 47.3079241,9.53643779 47.8439386,8.99504124 L49.2869584,8.99504124 L45.9061108,14.7419027 Z M49.9054519,8.95342093 L51.1423072,8.95342093 L49.3694374,15.449847 C48.3799531,15.3249196 47.4316096,15.116685 46.4421254,14.8668301 C47.7202531,12.6596901 49.4519164,9.74460585 49.9054519,8.95342093 Z M42.7314278,13.6174893 C41.9893146,13.2843273 41.2884079,12.909545 40.5462947,12.5347627 C42.6490146,10.9939467 44.8341476,9.41151035 45.3701621,9.03666156 L47.1018254,9.03666156 L42.7314278,13.6174893 Z M37.3716117,10.2443821 C37.3303393,10.2026953 36.2995826,9.32820323 35.8873194,8.95342093 L40.1339658,8.95342093 L37.3716117,10.2443821 Z M34.5267128,15.5330876 C33.001214,14.9500708 32.7538429,14.3670539 32.5476784,13.7841035 C32.5064719,13.7007964 32.4239929,13.4092547 32.1354153,13.1593999 C32.671364,13.0761592 33.0836929,12.8679247 33.1248995,12.8262379 C33.1248995,12.8262379 35.2276194,11.8684387 37.2479261,10.8690193 C37.9900393,11.4520361 38.7734249,11.9933662 39.5567447,12.4931424 L35.8873194,15.116685 C35.928526,15.1999921 35.1864128,15.7413222 34.5267128,15.5330876 Z M38.938317,16.8240488 L35.6811549,15.9078699 C36.011005,15.7829425 36.258376,15.6163947 36.258376,15.5747744 C36.258376,15.5747744 38.0725183,14.2838133 40.0927592,12.7846176 C40.8348724,13.2010867 41.5770514,13.6174893 42.3603712,13.9506513 L40.2576513,16.2410319 C40.0514868,16.4492665 39.4330591,16.9073559 38.938317,16.8240488 Z M43.4736068,18.0733896 L39.9690737,17.1155904 C40.3401302,16.9073559 40.5875013,16.657501 40.5875013,16.6158142 C40.5875013,16.6158142 41.5770514,15.5330876 42.8551133,14.2421265 C43.7621844,14.6585956 44.6692555,14.9917576 45.6175332,15.2416124 L44.463091,17.1988311 C44.3394055,17.4487524 43.8858699,18.1150099 43.4736068,18.0733896 Z M48.5860518,18.1150099 C48.5860518,18.1150099 48.4623663,18.7396471 48.0088307,19.0311888 C47.802732,19.1561162 47.5965676,19.1561162 47.3079241,19.1144959 L44.21572,18.2816242 C44.5867766,17.9900825 44.8341476,17.5319931 44.87542,17.4487524 C44.87542,17.4487524 45.4113687,16.5325736 46.1122753,15.3249196 C47.1018254,15.5747744 48.1325162,15.7829425 49.1632729,15.9078699 L48.5860518,18.1150099 Z M49.3694374,18.7396471 C49.1220663,18.9895685 48.8746953,19.1144959 48.6273242,19.1561162 C48.9571742,18.7396471 49.0808598,18.2816242 49.0808598,18.2399374 L49.6580809,16.0328638 C50.400194,16.1161045 51.1835796,16.1577913 51.9668994,16.1994116 C51.4309507,16.8240488 49.3694374,18.7396471 49.3694374,18.7396471 Z M52.7090784,15.6997019 C51.7607349,15.6997019 50.7712506,15.6163947 49.822973,15.5330876 L51.5958428,8.99504124 L52.667806,8.99504124 L52.7090784,15.6997019 Z M35.3513049,8.4536447 L35.3513049,3.45642764 L70.6028664,3.45642764 L70.6028664,8.4536447 L35.3513049,8.4536447 Z M56.6670813,8.95342093 L58.1101669,8.95342093 L62.7278698,13.7841035 C61.8620711,14.1588858 60.955,14.450361 60.0479289,14.7002159 L56.6670813,8.95342093 Z M59.5119802,14.8668301 C58.5637025,15.116685 57.5741524,15.2832328 56.5846681,15.449847 L54.8117325,8.95342093 L56.0486536,8.95342093 L59.5119802,14.8668301 Z M58.8110735,8.95342093 L60.542671,8.95342093 L65.3666042,12.4514556 C64.6656976,12.8679247 63.9235186,13.2010867 63.1814054,13.5341822 C61.6147,11.9101255 59.6768723,9.91122009 58.8110735,8.95342093 Z M61.4085355,8.95342093 L64.5832186,8.95342093 L68.0876859,10.6191644 C67.345836,11.2021812 66.6033279,11.701891 65.8200739,12.2016007 C64.1708896,10.9523264 62.3568132,9.66136522 61.4085355,8.95342093 Z M65.8200739,8.95342093 L70.0670494,8.95342093 C69.6543254,9.36982355 68.623503,10.2443821 68.5826914,10.2443821 C67.5518689,9.78629265 66.5625163,9.32820323 65.8200739,8.95342093 Z M53.2450271,15.6997019 L53.2450271,8.99504124 L54.3169903,8.99504124 L56.0898602,15.5330876 C55.1415825,15.6580151 54.1933048,15.6997019 53.2450271,15.6997019 Z M56.1311326,18.3232445 C56.1311326,18.3232445 54.4819483,16.6991213 53.9047272,16.1994116 C54.6880469,16.1577913 55.4714325,16.1161045 56.2135457,16.0328638 L56.7907668,18.2399374 C56.8320392,18.3232445 56.9144523,18.8229542 57.2443024,19.1561162 C56.8320392,19.0728091 56.7083537,18.9062613 56.1311326,18.3232445 Z M58.6461156,19.1144959 C58.3987445,19.1977365 58.1513735,19.1561162 57.945209,19.0311888 C57.5329458,18.7813339 57.3679879,18.1566302 57.3679879,18.1150099 L56.7907668,15.9495567 C57.8215235,15.8246293 58.8522801,15.6163947 59.8417644,15.3665399 L61.0786855,17.4903727 C61.1198921,17.5736799 61.3672631,17.9900825 61.7383856,18.3232445 L58.6461156,19.1144959 Z M62.4804988,18.0733896 C62.0681698,18.1566302 61.5734276,17.4903727 61.4497421,17.1988311 L60.2952999,15.2416124 C61.2435776,14.9917576 62.1919211,14.6585956 63.0577198,14.2421265 L65.3253318,16.6158142 C65.3666042,16.657501 65.5727029,16.8657356 65.9438253,17.1155904 L62.4804988,18.0733896 Z M67.5518689,16.657501 L66.974582,16.8240488 C66.4795765,16.9489762 65.9025529,16.4492665 65.6963884,16.2410319 C65.6963884,16.2410319 64.7893831,15.2832328 63.552462,13.9922716 C64.2945752,13.6174893 65.0779608,13.242707 65.8200739,12.8262379 L69.6543254,15.6163947 C69.6543254,15.6163947 69.9018282,15.7829425 70.2316124,15.9495567 C69.4068227,16.1577913 67.5518689,16.657501 67.5518689,16.657501 Z M73.4063613,13.8257239 C73.1588586,14.4087407 72.9528257,14.9500708 71.4276561,15.5747744 C70.8088993,15.7829425 70.0255795,15.1999256 70.0255795,15.1999256 C70.0255795,15.1999256 68.2937188,13.9506513 66.3558252,12.5347627 C67.1391449,12.035053 67.9231229,11.4936564 68.6649728,10.9106396 L72.8290744,12.8679247 C72.8705442,12.8679247 73.2826099,13.1177796 73.7776154,13.2010867 C73.5301126,13.4925619 73.4063613,13.7841035 73.4063613,13.8257239 Z M74.5609351,12.6596901 C74.0251181,12.7846176 73.2826099,12.4931424 73.0351072,12.368215 C73.0351072,12.368215 71.0972136,11.4520361 69.0770385,10.4942369 C69.6543254,9.99452721 70.2316124,9.49475098 70.7674294,8.99504124 L78.2715011,11.3271087 C78.2715011,11.3271087 78.4367223,11.4103493 78.6427551,11.4103493 L74.5609351,12.6596901 Z M80.2093947,10.9939467 C79.4668865,11.2021812 78.4367223,10.8690193 78.4367223,10.8690193 L71.1801534,8.57863862 C71.5507492,8.20378983 71.8811916,7.82900753 72.2109758,7.49584554 L83.3426737,9.78629265 C83.3841436,9.78629265 83.5901764,9.86953329 83.9199606,9.86953329 L80.2093947,10.9939467 Z M85.6103515,9.41151035 C85.0330646,9.5780581 83.8376792,9.36982355 83.4664251,9.32820323 C83.4664251,9.32820323 76.0452931,7.78738721 72.6230415,7.07944292 C72.8705442,6.82958805 73.0765771,6.49641942 73.3240798,6.2465579 L89.1971661,8.37040407 L85.6103515,9.41151035 Z M91.0113084,6.28819816 C91.0113084,6.28819816 90.35174,7.45422523 90.2279886,7.70408009 C90.187177,7.74570041 89.9804859,7.95393496 89.403199,7.87069433 L73.6123941,5.74683486 C73.8598968,5.45532643 74.0251181,5.16382465 74.2311509,4.91396313 L90.9704967,6.03833664 C91.0113084,6.03833664 91.0527782,6.03833664 91.1765296,6.07998355 C91.1350597,6.12162381 91.0527782,6.20491099 91.0113084,6.28819816 Z M93.8148032,3.6646489 L93.1552348,4.87231622 C93.0729533,5.03889057 92.9077321,5.28875209 92.4541965,5.45532643 C92.0836007,5.5386136 91.3410926,5.49697334 91.0527782,5.45532643 L74.6017467,4.37259319 C74.8084378,4.03943785 75.0144707,3.74793607 75.1790336,3.45642764 L93.8977429,3.45642764 C93.8977429,3.49807455 93.8562731,3.58136172 93.8148032,3.6646489 Z M96.2062324,1.54082267 L95.5881338,2.62355591 C95.4643825,2.83177717 95.382101,2.91505769 94.8870956,2.9567046 L75.5088179,2.9567046 C75.7563206,2.581909 75.9215418,2.24876031 76.0861048,1.95725853 C76.0861048,1.95725853 76.787143,0.707944292 78.0239984,0.707944292 L95.7526968,0.707944292 C95.9587297,0.707944292 96.1654207,0.749591203 96.3299837,0.95780581 C96.3299837,0.999452721 96.4122652,1.04109298 96.4122652,1.16602707 C96.2891721,1.20766733 96.2891721,1.33260141 96.2062324,1.54082267 Z" id="Shape" fill="#FFFFFF" fill-rule="nonzero"></path>
                <path d="M37.6796927,4 L37.5554775,4 L36.0234468,7.40549208 L36.4375413,7.40549208 L36.4375413,7.36391908 C36.5617565,6.94865317 36.6859716,6.57489396 36.8515697,6.15956175 L36.8930188,6.07650194 L38.0524042,6.07650194 C38.2180023,6.45024125 38.3836005,6.82406677 38.5492647,7.36391908 L38.5492647,7.40549208 L39.1289574,7.40549208 L37.6796927,4 Z M36.9757849,5.86885572 C37.017234,5.78579591 37.3898794,4.87213134 37.4312624,4.74753831 C37.4727115,4.83059812 37.8867399,5.78579591 37.9281229,5.86885572 L36.9757849,5.86885572 Z M40.4953239,5.45355003 C40.1226785,5.32896363 39.7914161,5.20437059 39.7914161,4.78907153 C39.7914161,4.49835887 40.0398463,4.24917944 40.3711087,4.24917944 C40.619539,4.24917944 40.8265863,4.37377247 40.9508014,4.6644785 L40.9508014,4.70601172 L41.0336335,4.70601172 L41.1578487,4.29071266 C40.9508014,4.12459303 40.6609881,4.04153322 40.4539409,4.04153322 C39.7914161,4.04153322 39.3773876,4.41529906 39.3773876,4.95519116 C39.3773876,5.53660984 39.7914161,5.7027361 40.2055106,5.86885572 C40.536773,5.99344212 40.8679693,6.11803516 40.8679693,6.53332096 C40.8679693,6.90708017 40.619539,7.19782598 40.2468936,7.19782598 C39.9156312,7.19782598 39.70865,7.07323957 39.5016028,6.74098706 L39.3359385,6.74098706 L39.2531725,7.19782598 C39.4187707,7.40549208 39.8328652,7.48850548 40.0398463,7.48850548 C40.7437541,7.48850548 41.2406808,7.03166657 41.2406808,6.36721459 C41.3234468,5.78578928 40.8679693,5.61966965 40.4953239,5.45355003 Z M44.0148629,4.41529906 L44.0148629,4.04153322 L41.489111,4.04153322 L41.489111,4.37376584 L41.5304941,4.37376584 C41.8203734,4.33223925 42.1101867,4.29071266 42.5242151,4.29071266 L42.5242151,7.32241238 L42.9796927,7.32241238 L42.9796927,4.29071266 C43.3109551,4.29071266 43.6422175,4.33223925 43.9320307,4.37376584 L44.0148629,4.41529906 Z M45.6711087,4 C44.5945555,4 43.8906477,4.70601172 43.8906477,5.74426269 C43.8906477,6.78249376 44.6360046,7.48850548 45.6711087,7.48850548 C46.7476619,7.48850548 47.5344019,6.74098706 47.5344019,5.70272947 C47.5344019,4.53989209 46.5820638,4 45.6711087,4 Z M46.5820638,6.86557347 C46.3336335,7.11474627 46.0437541,7.23933268 45.7125578,7.23933268 C44.9672009,7.23933268 44.4289574,6.65790736 44.4289574,5.78578928 C44.4289574,4.83059812 44.9258179,4.20765285 45.7539409,4.20765285 C46.1679693,4.20765285 46.4992317,4.37377247 46.7062789,4.6644785 C46.9547092,4.95519116 46.9961583,5.2874304 46.9961583,5.70272947 L46.9961583,5.78578928 C46.9961583,6.11802853 46.8718771,6.53332096 46.5820638,6.86557347 Z M50.8055106,4.08305981 L50.5156312,4.08305981 L50.5156312,6.53332096 C50.4742482,6.49181426 48.2383097,4.08305981 48.2383097,4.08305981 L48.0312624,4.08305981 L48.0312624,7.40549208 L48.3625248,7.40549208 L48.3625248,4.83060475 C48.4039739,4.87213134 50.4328652,7.11474627 50.4328652,7.11474627 L50.6812954,7.40549208 L50.8468936,7.40549208 L50.8055106,4.08305981 Z M56.1883427,4.08305981 L56.0641276,4.04153322 L55.2773876,5.49508325 C55.2773876,5.49508325 54.7805271,6.40873455 54.697695,6.49181426 C54.2008344,5.66120287 53.7867399,4.78907153 53.3727115,4.04153322 L53.2070473,4.04153322 L53.2070473,4.08305981 C53.1656643,4.58141869 52.875851,6.57489396 52.7515697,7.36391908 L52.7515697,7.40549208 L53.1656643,7.40549208 L53.1656643,7.36391908 C53.1656643,6.90708017 53.2484964,6.20109497 53.3312624,5.45355003 C53.3312624,5.45355003 53.3727115,5.12131078 53.4140945,4.99671775 C53.4969266,5.07977756 54.0766193,6.28415478 54.3250496,6.78249376 L54.5734798,7.36391908 L54.656312,7.36391908 L54.656312,7.32241238 C54.9047422,6.69948036 55.3187707,5.9519089 55.8570803,4.99671775 C55.9399124,5.57814306 56.0226785,6.69948036 56.1055106,7.36391908 L56.1055106,7.40549208 L56.6023711,7.40549208 L56.6023711,7.36391908 C56.519539,6.57489396 56.3539409,5.49508325 56.1883427,4.08305981 Z M58.4656643,4 L58.3414491,4 L56.8094184,7.40549208 L57.2234468,7.40549208 L57.2234468,7.36391908 C57.3476619,6.94865317 57.4719432,6.57489396 57.6375413,6.15956175 C57.6375413,6.15956175 57.6789243,6.11803516 57.6789243,6.07650194 L58.8383097,6.07650194 C59.0039739,6.45024125 59.1695721,6.86557347 59.3351702,7.36391908 L59.3351702,7.40549208 L59.9148629,7.40549208 L58.4656643,4 Z M57.8031395,5.86885572 C57.8445886,5.78579591 58.217234,4.87213134 58.258617,4.74753831 C58.3000661,4.83059812 58.7140945,5.78579591 58.7554775,5.86885572 L57.8031395,5.86885572 Z M61.4055106,5.78578928 C61.9852032,5.66120287 62.3578487,5.32896363 62.3578487,4.87213134 C62.3578487,4.37377247 61.9852032,4.1245864 61.2812954,4.1245864 L60.2461253,4.1245864 L60.2461253,7.44699878 L60.7016028,7.44699878 L60.7016028,5.8273225 L60.8258179,5.8273225 C60.8258179,5.86884909 61.1984633,6.24262156 61.1984633,6.24262156 L61.778156,6.99015987 L62.0680354,7.40549208 L62.647728,7.40549208 C62.689111,7.40549208 61.4055106,5.8273225 61.4055106,5.78578928 Z M60.7016028,5.57814306 L60.7016028,4.29071266 C60.90865,4.29071266 61.1984633,4.24917944 61.3641276,4.29071266 C61.6953239,4.37377247 61.8609881,4.53989209 61.8609881,4.87213134 C61.8609881,5.20437059 61.6125578,5.45355003 61.2812954,5.53660984 C61.0742482,5.57814306 60.7844349,5.57814306 60.7016028,5.57814306 Z M65.0906477,4.08305981 L62.6062789,4.08305981 L62.6062789,4.41529906 L62.647728,4.41529906 C62.9375413,4.37377247 63.2274207,4.33223925 63.6414491,4.33223925 L63.6414491,7.36391908 L64.0969266,7.36391908 L64.0969266,4.33223925 C64.428189,4.33223925 64.7594514,4.37377247 65.0492647,4.41529906 L65.0906477,4.41529906 L65.0906477,4.08305981 Z M65.5047422,4.08305981 L65.9602198,4.08305981 L65.9602198,7.40549208 L65.5047422,7.40549208 L65.5047422,4.08305981 Z M69.189615,6.53332096 C69.1486286,6.49181426 66.9122273,4.08305981 66.9122273,4.08305981 L66.6643259,4.08305981 L66.6643259,7.40549208 L66.9955222,7.40549208 L66.9955222,4.83060475 C67.0365086,4.87213134 69.0659948,7.11474627 69.0659948,7.11474627 L69.3138962,7.40549208 L69.5208112,7.40549208 L69.5208112,4.08305981 L69.189615,4.08305981 L69.189615,6.53332096 Z M30.5163995,31.1191447 C27.3695721,31.1191447 24.8852032,33.2371136 24.8852032,36.5595724 C24.8852032,39.8403918 27.1211418,41.958427 30.4750165,41.958427 C33.8703404,41.958427 36.2718771,39.7158054 36.2718771,36.3103995 C36.3133262,32.6972613 33.3734798,31.1191447 30.5163995,31.1191447 Z M30.5578487,41.4600814 C28.280461,41.4600814 26.417234,39.8403918 26.417234,36.7671722 C26.417234,33.6524458 28.0320307,31.6174903 30.7234468,31.6174903 C31.9656643,31.6174903 33.1250496,32.1573426 33.8703404,33.0710205 C34.6570803,34.1092847 34.8226785,35.1890556 34.8226785,36.434986 C34.9055106,38.1376889 33.7461253,41.4600814 30.5578487,41.4600814 Z M25.0094184,31.8251564 C25.0094184,31.658997 25.0508014,31.5344106 25.0508014,31.3683175 L17.2249835,31.3683175 C17.2249835,31.5344106 17.2664326,31.658997 17.2664326,31.8251564 C17.2664326,31.9912495 17.2249835,32.1158359 17.2249835,32.281929 C18.0945555,32.1989156 19.0055106,32.1158359 20.5375413,32.1158359 L20.5375413,41.8338406 C20.7445225,41.8338406 20.9515697,41.7923339 21.2,41.7923339 C21.4070473,41.7923339 21.6140945,41.8338406 21.8625248,41.8338406 L21.8625248,32.1158359 C23.2288913,32.1158359 24.3055106,32.1989156 25.0508014,32.281929 C25.0508014,32.1573426 25.0094184,31.9912495 25.0094184,31.8251564 Z M11.7593853,33.5693661 C11.7593853,32.4895951 12.6288913,31.7835834 13.7055106,31.7835834 C14.6163995,31.7835834 15.2789243,32.281929 15.6101867,33.1125272 L15.7757849,33.1125272 C15.9,32.6972613 16.0242151,32.2404223 16.1898794,31.8666631 C15.6101867,31.3683175 14.7406147,31.1191447 14.0367069,31.1191447 C12.2148629,31.1191447 10.641383,32.0743292 10.641383,34.067778 C10.641383,37.5147569 15.4031395,36.2688265 15.4031395,39.0928734 C15.4031395,40.2972308 14.4921844,41.335495 13.2914161,41.335495 C12.0906477,41.335495 11.4281229,40.7540697 10.8484303,39.7158054 L10.6828321,39.7158054 C10.6,40.1726443 10.558617,40.6294833 10.3929527,41.0863222 C10.9312624,41.6677475 12.1320307,42 12.8773215,42 C14.9476619,42 16.6453569,40.712563 16.6453569,38.5530211 C16.5625248,35.2305623 11.7593853,36.3519062 11.7593853,33.5693661 Z M45.878156,31.3683175 L45.878156,39.2174598 L45.7125578,39.2174598 L38.5078156,31.3683175 L37.9281229,31.3683175 L37.9281229,41.7923339 C38.0523381,41.7508272 38.1766193,41.7508272 38.3422175,41.7508272 C38.4664326,41.7508272 38.5906477,41.7923339 38.7562459,41.7923339 L38.7562459,33.5693661 L38.9219101,33.5693661 L45.5055106,40.8786561 C45.836773,41.2524153 46.1265863,41.6262408 46.2922505,41.7923339 L46.7476619,41.7923339 L46.7476619,31.3683175 C46.5820638,31.3683175 46.4578487,31.4098242 46.3336335,31.4098242 C46.1265863,31.4098242 46.0023711,31.3683175 45.878156,31.3683175 Z M4.7617234,31.1191447 L0,41.7923339 C0.165625248,41.7508272 0.331250496,41.7508272 0.53828189,41.7508272 C0.745310641,41.7508272 0.910935228,41.7923339 1.11796927,41.7923339 C1.53203073,40.3388038 2.07031395,39.0097937 2.60859716,37.68085 L6.45937872,37.68085 C7.03907799,39.0928734 7.61877066,40.5048969 8.07424819,41.7923339 C8.32267846,41.7508272 8.61249174,41.7508272 8.86092201,41.7508272 C9.10935228,41.7508272 9.35784865,41.7923339 9.64766193,41.7923339 L5.09297257,31.1606514 L4.7617234,31.1606514 L4.7617234,31.1191447 Z M2.93984633,37.057918 L4.59609881,33.1541002 L6.29375413,37.057918 L2.93984633,37.057918 Z M93.7021067,31.3683175 L93.7021067,41.7923339 C93.9096828,41.7508272 94.1165979,41.7508272 94.3651603,41.7508272 C94.5720754,41.7508272 94.7789904,41.7923339 95.0275529,41.7923339 L95.0275529,31.3683175 C94.7789904,31.3683175 94.5720754,31.4098242 94.3651603,31.4098242 C94.1165979,31.4098242 93.9096828,31.3683175 93.7021067,31.3683175 Z M84.1377396,31.3683175 C84.178726,31.5344106 84.178726,31.658997 84.178726,31.8251564 C84.178726,31.9912495 84.1377396,32.1158359 84.1377396,32.281929 C85.0070473,32.1989156 85.9180023,32.1158359 87.4503636,32.1158359 L87.4503636,41.8338406 C87.6572786,41.8338406 87.8641937,41.7923339 88.1127562,41.7923339 C88.3196712,41.7923339 88.5265863,41.8338406 88.7751487,41.8338406 L88.7751487,32.1158359 C90.1415813,32.1158359 91.217804,32.1989156 91.9634914,32.281929 C91.9634914,32.1158359 91.921844,31.9912495 91.921844,31.8251564 C91.921844,31.658997 91.9634914,31.5344106 91.9634914,31.3683175 L84.1377396,31.3683175 Z M83.1025033,40.5464036 L79.9967944,36.5595724 C81.5291557,36.3103995 83.1025033,35.4382284 83.1025033,33.6524458 C83.1025033,32.1158359 82.067267,31.3683175 79.7072456,31.3683175 L76.4772554,31.3683175 L76.4772554,41.7923339 C76.6841705,41.7508272 76.8917466,41.7508272 77.139648,41.7508272 C77.3472241,41.7508272 77.5541392,41.7923339 77.8027017,41.7923339 L77.8027017,36.6841588 L78.3817994,36.6841588 L79.6239507,38.1376889 L81.4048745,40.4633902 C81.7360707,40.8786561 82.0256196,41.335495 82.3568159,41.7923339 C82.6053784,41.7508272 82.9365747,41.7508272 83.2267846,41.7508272 C83.5163334,41.7508272 83.8065434,41.7923339 84.1377396,41.7923339 L83.8475297,41.4185747 L83.1025033,40.5464036 Z M77.843688,36.1027334 L77.843688,31.9497428 C78.4650942,31.9081698 79.5003305,31.8666631 80.0794282,31.9497428 C81.1979594,32.1573426 81.7360707,32.8218477 81.7360707,33.9016186 C81.7360707,35.1059759 80.9077495,35.8535606 79.7898794,36.0611604 C79.0032056,36.1858131 78.0506031,36.1442567 77.843688,36.1027334 Z M63.8484964,31.3683175 L63.517234,31.3683175 C61.9852032,34.1092847 60.5773876,36.7256655 59.128189,39.3420462 C57.5133262,36.6425858 56.0226785,33.7770322 54.8219101,31.3683175 L54.4078817,31.3683175 C54.2422175,32.9879408 53.3312624,39.3420462 52.958617,41.7923339 C53.1242812,41.7508272 53.3312624,41.7508272 53.5383097,41.7508272 C53.7039739,41.7508272 53.8695721,41.7923339 54.0766193,41.7923339 C54.0766193,39.9234715 54.4906477,36.8917586 54.8219101,33.9431253 C55.8570803,35.8950673 56.9336335,37.9300228 57.8859716,39.9234715 L58.7140945,41.6677475 L58.8797588,41.6677475 C59.7906477,39.5497123 61.1156973,37.1409977 62.8547092,33.9846983 C63.0617565,35.4798014 63.3930188,38.8021939 63.6000661,41.8338406 C63.8484964,41.7923339 64.0555436,41.7923339 64.3039739,41.7923339 C64.5524042,41.7923339 64.7180023,41.8338406 65.0078817,41.8338406 C64.6766193,38.8852073 64.2625248,35.1475489 63.8484964,31.3683175 Z M106,41.7923339 L106,31.4098242 C105.834732,31.4098242 105.710451,31.4513309 105.58617,31.4513309 C105.420241,31.4513309 105.29596,31.4098242 105.171679,31.4098242 L105.171679,39.2590328 L105.006411,39.2590328 L97.8014045,31.4098242 L97.2216457,31.4098242 L97.2216457,41.8338406 C97.3459269,41.7923339 97.4702082,41.7923339 97.6361369,41.7923339 C97.7604181,41.7923339 97.8846993,41.8338406 98.0499669,41.8338406 L98.0499669,33.6109391 L98.1742482,33.6109391 L104.757849,40.9202291 C105.089045,41.2939883 105.379255,41.6677475 105.544522,41.8338406 L106,41.7923339 Z M70.5150612,31.1191447 L65.7531725,41.7508272 C65.9187707,41.7092542 66.0844349,41.7092542 66.2914822,41.7092542 C66.4574108,41.7092542 66.6226785,41.7508272 66.8712409,41.7508272 C67.285071,40.2972308 67.8231824,38.968287 68.3619548,37.6393433 L72.2126901,37.6393433 C72.7924488,39.0513667 73.3722076,40.4633902 73.8276851,41.7508272 C74.0755865,41.7092542 74.324149,41.7092542 74.6143589,41.7092542 C74.8622604,41.7092542 75.1108228,41.7508272 75.4010328,41.7508272 L70.8462575,31.1191447 L70.5150612,31.1191447 Z M68.6931511,37.057918 L70.3491325,33.1541002 L72.0467614,37.057918 L68.6931511,37.057918 Z" id="Shape" fill="#FFFFFF" fill-rule="nonzero"></path>
            </g>
        </g>
    </g>
</svg>