<?xml version="1.0" encoding="UTF-8"?>
<svg width="79px" height="28px" viewBox="0 0 79 28" version="1.1" xmlns="http://www.w3.org/2000/svg" xmlns:xlink="http://www.w3.org/1999/xlink">
    <title>download</title>
    <g id="Marque-Logos-and-Skins" stroke="none" stroke-width="1" fill="none" fill-rule="evenodd">
        <g id="Skin-Audi-Qatar" transform="translate(-35.000000, -36.000000)" fill="#000000" fill-rule="nonzero">
            <g id="download" transform="translate(35.000000, 36.000000)">
                <path d="M64.8735763,0 C61.7243736,0 58.8001139,1.03870968 56.4157175,2.8 C54.0313212,1.03870968 51.1070615,0 47.9578588,0 C44.808656,0 41.8843964,1.03870968 39.5,2.8 C37.1156036,1.03870968 34.2363326,0 31.0421412,0 C27.8929385,0 24.9686788,1.03870968 22.5842825,2.8 C20.2448747,1.03870968 17.320615,0 14.1264237,0 C6.34339408,0 0,6.27741935 0,14 C0,21.7225806 6.34339408,28 14.1264237,28 C17.2756264,28 20.1998861,26.9612903 22.5842825,25.2 C24.9686788,26.9612903 27.8929385,28 31.0421412,28 C34.191344,28 37.1156036,26.9612903 39.5,25.2 C41.8394077,26.9612903 44.7636674,28 47.9578588,28 C51.1070615,28 54.0313212,26.9612903 56.4157175,25.2 C58.7551253,26.9612903 61.679385,28 64.8735763,28 C72.6566059,28 79,21.7225806 79,14 C79,6.27741935 72.6566059,0 64.8735763,0 Z M56.4157175,21.2258065 C54.7061503,19.283871 53.6714123,16.7548387 53.6714123,14 C53.6714123,11.2451613 54.7061503,8.71612903 56.4157175,6.77419355 C58.1252847,8.71612903 59.1600228,11.2451613 59.1600228,14 C59.1600228,16.7548387 58.1252847,19.283871 56.4157175,21.2258065 L56.4157175,21.2258065 Z M39.5,21.2258065 C37.7904328,19.283871 36.7556948,16.7548387 36.7556948,14 C36.7556948,11.2451613 37.7904328,8.71612903 39.5,6.77419355 C41.2095672,8.71612903 42.2443052,11.2451613 42.2443052,14 C42.2443052,16.7548387 41.2095672,19.283871 39.5,21.2258065 Z M22.5842825,21.2258065 C20.8747153,19.283871 19.8399772,16.7548387 19.8399772,14 C19.8399772,11.2451613 20.8747153,8.71612903 22.5842825,6.77419355 C24.2938497,8.71612903 25.3285877,11.2451613 25.3285877,14 C25.3735763,16.7548387 24.2938497,19.283871 22.5842825,21.2258065 Z M2.92425968,14 C2.92425968,7.90322581 7.96298405,2.93548387 14.1264237,2.93548387 C16.4208428,2.93548387 18.5802961,3.61290323 20.3798405,4.83225806 C18.2203872,7.27096774 16.9157175,10.4774194 16.9157175,14 C16.9157175,17.5225806 18.2203872,20.7290323 20.3798405,23.1677419 C18.5802961,24.3419355 16.4658314,25.0645161 14.1264237,25.0645161 C7.96298405,25.0645161 2.92425968,20.0967742 2.92425968,14 Z M24.7887244,23.1677419 C26.9481777,20.7290323 28.2528474,17.5225806 28.2528474,14 C28.2528474,10.4774194 26.9481777,7.27096774 24.7887244,4.83225806 C26.5882688,3.65806452 28.7027335,2.93548387 31.0421412,2.93548387 C33.381549,2.93548387 35.4960137,3.61290323 37.2955581,4.83225806 C35.1361048,7.27096774 33.7864465,10.4774194 33.7864465,14 C33.7864465,17.5225806 35.0911162,20.7290323 37.2955581,23.1677419 C35.4960137,24.3419355 33.381549,25.0645161 31.0421412,25.0645161 C28.7477221,25.0645161 26.5882688,24.3419355 24.7887244,23.1677419 Z M41.7044419,23.1677419 C43.8638952,20.7290323 45.2135535,17.5225806 45.2135535,14 C45.2135535,10.4774194 43.9088838,7.27096774 41.7044419,4.83225806 C43.5039863,3.65806452 45.618451,2.93548387 47.9578588,2.93548387 C50.2972665,2.93548387 52.4117312,3.61290323 54.2112756,4.83225806 C52.0518223,7.27096774 50.702164,10.4774194 50.702164,14 C50.702164,17.5225806 52.0068337,20.7290323 54.2112756,23.1677419 C52.4117312,24.3419355 50.2972665,25.0645161 47.9578588,25.0645161 C45.618451,25.0645161 43.5039863,24.3419355 41.7044419,23.1677419 Z M64.8735763,25.0645161 C62.5791572,25.0645161 60.4197039,24.3870968 58.6201595,23.1677419 C60.7796128,20.7290323 62.1292711,17.5225806 62.1292711,14 C62.1292711,10.4774194 60.8246014,7.27096774 58.6201595,4.83225806 C60.4197039,3.65806452 62.5341686,2.93548387 64.8735763,2.93548387 C71.0370159,2.93548387 76.0757403,7.90322581 76.0757403,14 C76.0757403,20.0967742 71.0370159,25.0645161 64.8735763,25.0645161 Z" id="Shape"></path>
            </g>
        </g>
    </g>
</svg>