<?xml version="1.0" encoding="UTF-8"?>
<svg width="169.924508px" height="11.9901513px" viewBox="0 0 169.924508 11.9901513" version="1.1" xmlns="http://www.w3.org/2000/svg" xmlns:xlink="http://www.w3.org/1999/xlink">
    <title>author-logo</title>
    <g id="Page-1" stroke="none" stroke-width="1" fill="none" fill-rule="evenodd">
        <g id="author-logo" fill-rule="nonzero">
            <g id="connect-logo" transform="translate(0.000000, 0.830151)">
                <path d="M7.78371321,2.89152318 C6.9381503,2.37059603 5.91139533,1.97801702 4.73742182,1.97801702 C3.53325341,1.97801702 2.68013328,2.45364616 2.68013328,3.26523556 C2.68013328,4.05416841 3.60874255,4.29198298 4.89596487,4.50714854 L5.50371321,4.60529424 C7.42132911,4.9186055 8.92371321,5.7415194 8.92371321,7.61383728 C8.92371321,9.98443331 6.83622977,11.1131088 4.5260311,11.1131088 C2.89908123,11.1131088 1.15132533,10.6374797 0,9.7088704 L1.11358076,7.98377106 C1.88742182,8.60661874 3.15576619,9.14264523 4.53358076,9.14264523 C5.72265361,9.14264523 6.64371321,8.67456576 6.64371321,7.84410219 C6.64371321,7.1004598 5.86232249,6.82489689 4.36371321,6.58708232 L3.68046441,6.48138695 C1.78549752,6.18317503 0.40391189,5.34516179 0.40391189,3.40490066 C0.40391189,1.16642384 2.3970207,0 4.68457414,0 C6.18695825,0 7.44020328,0.335960265 8.78781917,1.14377483 L7.78371321,2.89152318 Z" id="Path" fill="#005EA7"></path>
                <path d="M19.1912629,6.63238033 C19.1912629,9.60317503 17.296296,11.1131088 14.5633159,11.1131088 C11.8303357,11.1131088 9.93536884,9.60317503 9.93536884,6.63238033 L9.93536884,0.181184503 L12.0832496,0.181184503 L12.0832496,6.52668497 C12.0832496,8.28953265 13.0798059,9.06714854 14.559541,9.06714854 C16.0392761,9.06714854 17.0358324,8.29330748 17.0358324,6.52668497 L17.0358324,0.181184503 L19.1837132,0.181184503 L19.1837132,6.63238033 L19.1912629,6.63238033 Z" id="Path" fill="#005EA7"></path>
                <path d="M22.8981503,6.99476444 L22.8981503,10.9243671 L20.7578192,10.9243671 L20.7578192,0.184963113 L25.140402,0.184963113 C27.7035145,0.184963113 29.0700046,1.52125073 29.0700046,3.59741344 C29.0700046,5.66224788 27.7035145,6.99476444 25.1555013,6.99476444 L22.8981503,6.99476444 Z M22.8981503,2.15165563 L22.8981503,5.03562536 L25.0988788,5.03562536 C26.2653026,5.03562536 26.873051,4.55999623 26.873051,3.59363861 C26.873051,2.63483066 26.2653026,2.15165563 25.0988788,2.15165563 L22.8981503,2.15165563 Z" id="Shape" fill="#005EA7"></path>
                <polygon id="Path" fill="#005EA7" points="38.1522563 10.9243671 30.1269582 10.9243671 30.1269582 0.184963113 38.0918589 0.184963113 38.0918589 2.14787702 32.2672894 2.14787702 32.2672894 4.52602272 37.8200708 4.52602272 37.8200708 6.48893662 32.2672894 6.48893662 32.2672894 8.95767834 38.1522563 8.95767834"></polygon>
                <path d="M44.1353688,0.181184503 C46.6984814,0.181184503 48.0725212,1.39290258 48.0725212,3.45018735 C48.0725212,5.21304258 46.8457,6.4209896 44.7808655,6.61728099 L48.0876205,10.9205923 L45.4943092,10.9205923 L42.3649715,6.64747967 L41.7345741,6.64747967 L41.7345741,10.9205923 L39.594243,10.9205923 L39.594243,0.181184503 L44.1353688,0.181184503 L44.1353688,0.181184503 Z M41.7345741,2.15164808 L41.7345741,4.78271146 L44.0976205,4.78271146 C45.2640443,4.78271146 45.8717927,4.35238033 45.8717927,3.44641252 C45.8717927,2.55555159 45.2338457,2.15164808 44.0976205,2.15164808 L41.7345741,2.15164808 Z" id="Shape" fill="#005EA7"></path>
                <path d="M56.558349,2.21583159 C55.6901371,1.62695742 54.6105344,1.21172563 53.319541,1.21172563 C51.7001371,1.21172563 50.5412629,1.94026868 50.5412629,3.15199053 C50.5412629,4.14853927 51.3453026,4.69589026 53.0213291,4.89218166 L54.0405344,5.01675119 C55.8109318,5.23191675 57.3925874,5.98310881 57.3925874,7.84032735 C57.3925874,9.96555914 55.4598722,11.0715856 53.1421238,11.0715856 C51.5831172,11.0715856 49.9335145,10.5204598 48.9218589,9.68999623 L49.5975543,8.70853927 C50.3411967,9.33893662 51.7378854,9.90516179 53.1345741,9.90516179 C54.7992761,9.90516179 56.1129185,9.22946642 56.1129185,7.94979755 C56.1129185,6.90794325 55.2145079,6.38324126 53.5120576,6.19449954 L52.4286801,6.06993 C50.5941106,5.86231411 49.261594,5.01297636 49.261594,3.23126205 C49.261594,1.18907662 51.0810642,0.0490747351 53.3270907,0.0490747351 C54.961594,0.0490747351 56.1959649,0.53225543 57.1849715,1.22305013 L56.558349,2.21583159 Z" id="Path" fill="#000000"></path>
                <polygon id="Path" fill="#000000" points="66.6786801 10.9243671 59.1214616 10.9243671 59.1214616 0.184963113 66.6107331 0.184963113 66.6107331 1.34384106 60.3596073 1.34384106 60.3596073 4.9412545 66.4182165 4.9412545 66.4182165 6.09257901 60.3558324 6.09257901 60.3558324 9.76926775 66.6786801 9.76926775"></polygon>
                <path d="M72.9260311,0.181184503 C75.3419251,0.181184503 76.6782165,1.27211166 76.6782165,3.21237656 C76.6782165,5.06959887 75.2362298,6.25112205 72.9411304,6.25112205 L72.7637132,6.25112205 L76.621594,10.9243671 L75.0852364,10.9243671 L71.3028523,6.25112205 L69.9439119,6.25112205 L69.9439119,10.9243671 L68.709541,10.9243671 L68.709541,0.184955563 L72.9260311,0.184955563 L72.9260311,0.181184503 Z M69.9476867,1.3400549 L69.9476867,5.12999623 L72.9109318,5.12999623 C74.5454351,5.12999623 75.3947728,4.46185053 75.3947728,3.21237656 C75.3947728,1.97045603 74.5190112,1.3400549 72.9109318,1.3400549 L69.9476867,1.3400549 L69.9476867,1.3400549 Z" id="Shape" fill="#000000"></path>
                <polygon id="Path" fill="#000000" points="82.891594 10.9243671 81.3665609 10.9243671 77.0557 0.184963113 78.3693424 0.184963113 82.1441768 9.69754589 85.9265609 0.184963113 87.1986801 0.184963113"></polygon>
                <polygon id="Path" fill="#000000" points="89.5051039 10.9243671 88.2707331 10.9243671 88.2707331 0.184963113 89.5051039 0.184963113"></polygon>
                <path d="M101.146693,2.25357238 L100.119938,2.94436709 C99.4140443,1.87608894 98.1872231,1.21927152 96.7678854,1.21927152 C94.359541,1.21927152 92.5174218,2.96701609 92.5174218,5.55277768 C92.5174218,8.13853927 94.359541,9.88628762 96.7678854,9.88628762 C98.1872231,9.88628762 99.398945,9.24079093 100.119938,8.16873795 L101.116495,8.90483066 C100.225634,10.2486717 98.6175543,11.0753605 96.7678854,11.0753605 C93.5743755,11.0753605 91.2188788,8.77271146 91.2188788,5.55277768 C91.2188788,2.32906907 93.5743755,0.030181937 96.7678854,0.030181937 C98.6364284,0.0264196887 100.30113,0.87198298 101.146693,2.25357238 Z" id="Path" fill="#000000"></path>
                <polygon id="Path" fill="#000000" points="110.383713 10.9243671 102.826495 10.9243671 102.826495 0.184963113 110.315766 0.184963113 110.315766 1.34384106 104.06464 1.34384106 104.06464 4.9412545 110.127024 4.9412545 110.127024 6.09257901 104.06464 6.09257901 104.06464 9.76926775 110.387488 9.76926775 110.387488 10.9243671"></polygon>
                <path d="M111.761528,1.34004358 L111.761528,0.385010464 L111.376495,0.385010464 L111.376495,0.17362351 L112.376826,0.17362351 L112.376826,0.385010464 L111.991793,0.385010464 L111.991793,1.34004358 L111.761528,1.34004358 Z M113.701793,1.34004358 L113.701793,0.475610265 L113.388481,1.21925265 L113.146892,1.21925265 L112.833581,0.475610265 L112.833581,1.33627252 L112.603316,1.33627252 L112.603316,0.169848675 L112.927952,0.169848675 L113.263912,0.958789073 L113.596097,0.169848675 L113.924508,0.169848675 L113.924508,1.33627252 L113.701793,1.33627252 L113.701793,1.34004358 Z" id="Shape" fill="#000000"></path>
            </g>
            <g id="Group" transform="translate(116.160000, 0.000000)" fill="#808285">
                <g id="Author" transform="translate(0.000000, 0.150151)">
                    <path d="M4.656,0.32 L5.872,0.32 L10.512,11.68 L8.976,11.68 L7.632,8.352 L2.864,8.352 L1.536,11.68 L-2.27373675e-13,11.68 L4.656,0.32 Z M7.312,7.232 L5.264,1.984 L3.152,7.232 L7.312,7.232 Z" id="Shape"></path>
                    <path d="M14.208,11.84 C13.3333333,11.84 12.672,11.5466667 12.224,10.96 C11.776,10.3733333 11.552,9.49866667 11.552,8.336 L11.552,3.328 L12.96,3.328 L12.96,8.064 C12.96,9.77066667 13.552,10.624 14.736,10.624 C15.312,10.624 15.8533333,10.44 16.36,10.072 C16.8666667,9.704 17.2426667,9.2 17.488,8.56 L17.488,3.328 L18.896,3.328 L18.896,9.952 C18.896,10.2826667 19.0453333,10.4533333 19.344,10.464 L19.344,11.68 C19.184,11.7013333 19.0586667,11.7146667 18.968,11.72 C18.8773333,11.7253333 18.7893333,11.728 18.704,11.728 C18.4266667,11.728 18.1946667,11.6453333 18.008,11.48 C17.8213333,11.3146667 17.7226667,11.1093333 17.712,10.864 L17.68,9.888 C17.3066667,10.5173333 16.816,11 16.208,11.336 C15.6,11.672 14.9333333,11.84 14.208,11.84 Z" id="Path"></path>
                    <path d="M25.568,11.264 C25.4826667,11.3066667 25.3706667,11.3573333 25.232,11.416 C25.0933333,11.4746667 24.936,11.5333333 24.76,11.592 C24.584,11.6506667 24.392,11.6986667 24.184,11.736 C23.976,11.7733333 23.76,11.792 23.536,11.792 C23.024,11.792 22.5813333,11.6506667 22.208,11.368 C21.8346667,11.0853333 21.648,10.6453333 21.648,10.048 L21.648,4.432 L20.512,4.432 L20.512,3.328 L21.648,3.328 L21.648,0.544 L23.056,0.544 L23.056,3.328 L24.928,3.328 L24.928,4.432 L23.056,4.432 L23.056,9.616 C23.0773333,9.92533333 23.1786667,10.1493333 23.36,10.288 C23.5413333,10.4266667 23.7546667,10.496 24,10.496 C24.2773333,10.496 24.5306667,10.4506667 24.76,10.36 C24.9893333,10.2693333 25.1466667,10.1973333 25.232,10.144 L25.568,11.264 Z" id="Path"></path>
                    <path d="M34.128,11.68 L32.72,11.68 L32.72,7.008 C32.72,6.144 32.5706667,5.50133333 32.272,5.08 C31.9733333,4.65866667 31.536,4.448 30.96,4.448 C30.6826667,4.448 30.4053333,4.504 30.128,4.616 C29.8506667,4.728 29.592,4.88 29.352,5.072 C29.112,5.264 28.8986667,5.49333333 28.712,5.76 C28.5253333,6.02666667 28.384,6.32 28.288,6.64 L28.288,11.68 L26.88,11.68 L26.88,4.54747351e-13 L28.288,4.54747351e-13 L28.288,5.12 C28.6186667,4.512 29.0666667,4.03733333 29.632,3.696 C30.1973333,3.35466667 30.816,3.184 31.488,3.184 C31.9786667,3.184 32.3946667,3.27466667 32.736,3.456 C33.0773333,3.63733333 33.3493333,3.88266667 33.552,4.192 C33.7546667,4.50133333 33.9013333,4.872 33.992,5.304 C34.0826667,5.736 34.128,6.19733333 34.128,6.688 L34.128,11.68 Z" id="Path"></path>
                    <path d="M39.968,11.84 C39.3386667,11.84 38.7653333,11.7226667 38.248,11.488 C37.7306667,11.2533333 37.288,10.9386667 36.92,10.544 C36.552,10.1493333 36.2666667,9.69066667 36.064,9.168 C35.8613333,8.64533333 35.76,8.096 35.76,7.52 C35.76,6.93333333 35.864,6.37866667 36.072,5.856 C36.28,5.33333333 36.568,4.87466667 36.936,4.48 C37.304,4.08533333 37.7466667,3.77066667 38.264,3.536 C38.7813333,3.30133333 39.3493333,3.184 39.968,3.184 C40.5866667,3.184 41.1573333,3.30133333 41.68,3.536 C42.2026667,3.77066667 42.648,4.08533333 43.016,4.48 C43.384,4.87466667 43.672,5.33333333 43.88,5.856 C44.088,6.37866667 44.192,6.93333333 44.192,7.52 C44.192,8.096 44.0906667,8.64533333 43.888,9.168 C43.6853333,9.69066667 43.3973333,10.1493333 43.024,10.544 C42.6506667,10.9386667 42.2053333,11.2533333 41.688,11.488 C41.1706667,11.7226667 40.5973333,11.84 39.968,11.84 Z M37.2,7.536 C37.2,7.97333333 37.272,8.37866667 37.416,8.752 C37.56,9.12533333 37.7573333,9.45066667 38.008,9.728 C38.2586667,10.0053333 38.552,10.224 38.888,10.384 C39.224,10.544 39.584,10.624 39.968,10.624 C40.352,10.624 40.712,10.544 41.048,10.384 C41.384,10.224 41.68,10.0026667 41.936,9.72 C42.192,9.43733333 42.392,9.10666667 42.536,8.728 C42.68,8.34933333 42.752,7.94133333 42.752,7.504 C42.752,7.07733333 42.68,6.67466667 42.536,6.296 C42.392,5.91733333 42.192,5.58666667 41.936,5.304 C41.68,5.02133333 41.384,4.8 41.048,4.64 C40.712,4.48 40.352,4.4 39.968,4.4 C39.584,4.4 39.224,4.48266667 38.888,4.648 C38.552,4.81333333 38.2586667,5.03733333 38.008,5.32 C37.7573333,5.60266667 37.56,5.93333333 37.416,6.312 C37.272,6.69066667 37.2,7.09866667 37.2,7.536 Z" id="Shape"></path>
                    <path d="M50.32,4.56 C49.616,4.58133333 48.9946667,4.76266667 48.456,5.104 C47.9173333,5.44533333 47.536,5.92 47.312,6.528 L47.312,11.68 L45.904,11.68 L45.904,3.328 L47.216,3.328 L47.216,5.264 C47.504,4.688 47.8826667,4.22133333 48.352,3.864 C48.8213333,3.50666667 49.3226667,3.30666667 49.856,3.264 C49.9626667,3.264 50.0533333,3.264 50.128,3.264 C50.2026667,3.264 50.2666667,3.26933333 50.32,3.28 L50.32,4.56 Z" id="Path"></path>
                </g>
                <path d="M51.6015278,1.1701949 L51.6015278,0.215161788 L51.2164947,0.215161788 L51.2164947,0.00377483444 L52.2168258,0.00377483444 L52.2168258,0.215161788 L51.8317927,0.215161788 L51.8317927,1.1701949 L51.6015278,1.1701949 Z M53.5417927,1.1701949 L53.5417927,0.305761589 L53.2284814,1.04940397 L52.986892,1.04940397 L52.6735808,0.305761589 L52.6735808,1.16642384 L52.4433159,1.16642384 L52.4433159,0 L52.7679516,0 L53.1039119,0.788940397 L53.4360973,0 L53.7645079,0 L53.7645079,1.16642384 L53.5417927,1.16642384 L53.5417927,1.1701949 Z" id="Shape"></path>
            </g>
        </g>
    </g>
</svg>