<?xml version="1.0" encoding="UTF-8"?>
<svg width="91px" height="25px" viewBox="0 0 91 25" version="1.1" xmlns="http://www.w3.org/2000/svg" xmlns:xlink="http://www.w3.org/1999/xlink">
    <title>Group</title>
    <g id="NW-5056-" stroke="none" stroke-width="1" fill="none" fill-rule="evenodd">
        <g id="Group" fill-rule="nonzero">
            <path d="M78.908,0 L11.848,0 C4.83,0 0,4.8907 0,12 C0,19.1093 4.829,24.006 11.848,24.006 L78.908,24.006 C85.926,24.006 90.756,19.1153 90.756,12.006 C90.756,4.8966 85.92,0 78.908,0 Z" id="Path" fill="#FF733C"></path>
            <path d="M81.031,10.2749 C81.031,7.5298 79.38,6.0164 76.358,6.0164 L71.024,6.0164 C70.921,6.0079 70.817,6.0219 70.72,6.0576 C70.622,6.0932 70.534,6.1496 70.459,6.223 C70.385,6.2963 70.328,6.3849 70.29,6.4828 C70.253,6.5806 70.237,6.6855 70.243,6.7903 L70.243,17.2068 C70.243,17.6824 70.555,17.9806 71.024,17.9806 L73.405,17.9806 C73.508,17.9891 73.612,17.9751 73.709,17.9394 C73.807,17.9038 73.896,17.8474 73.97,17.7741 C74.044,17.7007 74.102,17.6121 74.139,17.5142 C74.176,17.4164 74.193,17.3115 74.187,17.2068 L74.187,14.6198 C74.185,14.5963 74.189,14.5727 74.197,14.5507 C74.205,14.5286 74.218,14.5086 74.234,14.492 C74.251,14.4753 74.27,14.4624 74.292,14.4541 C74.314,14.4458 74.337,14.4423 74.36,14.4438 L75.004,14.4438 C75.213,16.7311 76.329,17.9806 78.426,17.9806 L80.094,17.9806 C80.198,17.9891 80.302,17.9751 80.399,17.9394 C80.496,17.9038 80.585,17.8474 80.659,17.7741 C80.733,17.7007 80.791,17.6121 80.828,17.5142 C80.866,17.4164 80.882,17.3115 80.876,17.2068 L80.876,15.6412 C80.876,15.1655 80.564,14.8673 80.094,14.8673 L79.104,14.8673 C78.6,14.8673 78.287,14.6392 78.235,14.1814 C80.058,13.6894 81.031,12.3862 81.031,10.2749 Z M76.149,11.6168 L74.36,11.6168 C74.337,11.6183 74.314,11.6148 74.292,11.6065 C74.27,11.5982 74.251,11.5853 74.234,11.5687 C74.218,11.552 74.205,11.532 74.197,11.51 C74.189,11.4879 74.185,11.4644 74.187,11.4409 L74.187,9.4652 C74.185,9.4417 74.189,9.4181 74.197,9.3961 C74.205,9.3741 74.218,9.354 74.234,9.3374 C74.251,9.3207 74.27,9.3078 74.292,9.2995 C74.314,9.2912 74.337,9.2877 74.36,9.2893 L76.149,9.2893 C76.913,9.2893 77.296,9.8529 77.296,10.4508 C77.302,10.6051 77.277,10.759 77.222,10.9029 C77.166,11.0468 77.082,11.1775 76.974,11.2867 C76.866,11.3959 76.737,11.4812 76.595,11.5372 C76.453,11.5933 76.301,11.6189 76.149,11.6123 L76.149,11.6168 Z" id="Shape" fill="#1B1B1B"></path>
            <path d="M63.677,9.0268 L68.124,9.0268 C68.227,9.0353 68.331,9.0213 68.429,8.9856 C68.526,8.95 68.615,8.8936 68.689,8.8203 C68.763,8.7469 68.821,8.6583 68.858,8.5605 C68.896,8.4626 68.912,8.3577 68.906,8.253 L68.906,6.7932 C68.906,6.3176 68.594,6.0194 68.124,6.0194 L60.469,6.0194 C60.366,6.0109 60.262,6.0249 60.164,6.0606 C60.067,6.0962 59.978,6.1526 59.904,6.2259 C59.83,6.2993 59.772,6.3879 59.735,6.4858 C59.697,6.5836 59.681,6.6885 59.687,6.7932 L59.687,17.2097 C59.687,17.6854 59.999,17.9836 60.469,17.9836 L68.367,17.9836 C68.47,17.9921 68.574,17.978 68.672,17.9424 C68.769,17.9068 68.858,17.8504 68.932,17.777 C69.006,17.7037 69.064,17.6151 69.101,17.5172 C69.139,17.4193 69.155,17.3145 69.149,17.2097 L69.149,15.75 C69.149,15.2743 68.837,14.9761 68.367,14.9761 L63.677,14.9761 C63.654,14.9777 63.63,14.9742 63.609,14.9659 C63.587,14.9576 63.567,14.9447 63.551,14.928 C63.534,14.9114 63.521,14.8913 63.513,14.8693 C63.505,14.8473 63.502,14.8237 63.503,14.8002 L63.503,13.5686 C63.502,13.5451 63.505,13.5215 63.513,13.4995 C63.521,13.4774 63.534,13.4574 63.551,13.4408 C63.567,13.4241 63.587,13.4112 63.609,13.4029 C63.63,13.3946 63.654,13.3911 63.677,13.3926 L67.325,13.3926 C67.428,13.4011 67.532,13.3871 67.629,13.3515 C67.727,13.3158 67.816,13.2594 67.89,13.1861 C67.964,13.1127 68.022,13.0241 68.059,12.9263 C68.096,12.8284 68.113,12.7235 68.107,12.6188 L68.107,11.2768 C68.107,10.8012 67.794,10.503 67.325,10.503 L63.677,10.503 C63.654,10.5045 63.63,10.501 63.609,10.4927 C63.587,10.4844 63.567,10.4715 63.551,10.4548 C63.534,10.4382 63.521,10.4182 63.513,10.3961 C63.505,10.3741 63.502,10.3505 63.503,10.327 L63.503,9.2058 C63.501,9.1821 63.505,9.1583 63.513,9.136 C63.521,9.1137 63.534,9.0934 63.55,9.0765 C63.566,9.0595 63.586,9.0464 63.608,9.0378 C63.63,9.0292 63.653,9.0255 63.677,9.0268 L63.677,9.0268 Z" id="Path" fill="#1B1B1B"></path>
            <path d="M48.98,6.0179 C48.877,6.0094 48.773,6.0234 48.676,6.0591 C48.578,6.0947 48.49,6.1511 48.416,6.2244 C48.341,6.2978 48.284,6.3864 48.246,6.4843 C48.209,6.5821 48.193,6.687 48.199,6.7917 L48.199,17.2082 C48.199,17.6839 48.511,17.9821 48.98,17.9821 L51.361,17.9821 C51.464,17.9906 51.568,17.9766 51.666,17.9409 C51.763,17.9053 51.852,17.8489 51.926,17.7755 C52,17.7022 52.058,17.6136 52.095,17.5157 C52.132,17.4179 52.149,17.313 52.143,17.2082 L52.143,15.5189 C52.143,15.3743 52.2,15.2357 52.301,15.1334 C52.402,15.0312 52.539,14.9735 52.681,14.9732 L53.949,14.9732 C56.971,14.9732 58.622,13.3897 58.622,10.4866 C58.622,7.5835 56.971,6.0134 53.949,6.0134 L48.98,6.0179 Z M54.887,10.6103 C54.887,11.42 54.366,11.9299 53.562,11.9299 L52.31,11.9299 C52.287,11.9314 52.264,11.928 52.242,11.9197 C52.22,11.9114 52.201,11.8984 52.184,11.8818 C52.168,11.8651 52.155,11.8451 52.147,11.8231 C52.139,11.801 52.135,11.7775 52.137,11.754 L52.137,9.4667 C52.135,9.4432 52.139,9.4196 52.147,9.3976 C52.155,9.3755 52.168,9.3555 52.184,9.3389 C52.201,9.3222 52.22,9.3093 52.242,9.301 C52.264,9.2927 52.287,9.2892 52.31,9.2907 L53.562,9.2907 C54.366,9.2907 54.887,9.8007 54.887,10.6103 Z" id="Shape" fill="#1B1B1B"></path>
            <path d="M43.647,17.9821 L45.818,17.9821 C45.921,17.9906 46.025,17.9766 46.123,17.9409 C46.22,17.9053 46.309,17.8489 46.383,17.7755 C46.457,17.7022 46.515,17.6136 46.552,17.5157 C46.59,17.4179 46.606,17.313 46.6,17.2082 L46.6,6.7917 C46.6,6.3161 46.288,6.0179 45.818,6.0179 L42.743,6.0179 C42.222,6.0179 41.874,6.2818 41.683,6.8618 L40.676,9.8409 C40.65,9.9519 40.588,10.0507 40.5,10.1215 C40.412,10.1922 40.303,10.2307 40.19,10.2307 C40.078,10.2307 39.968,10.1922 39.88,10.1215 C39.792,10.0507 39.73,9.9519 39.704,9.8409 L38.697,6.8588 C38.506,6.2788 38.158,6.0149 37.637,6.0149 L34.562,6.0149 C34.459,6.0064 34.355,6.0205 34.257,6.0561 C34.16,6.0917 34.071,6.1481 33.997,6.2215 C33.923,6.2948 33.865,6.3834 33.828,6.4813 C33.79,6.5791 33.774,6.684 33.78,6.7888 L33.78,17.2053 C33.78,17.6809 34.092,17.9791 34.562,17.9791 L36.733,17.9791 C36.837,17.9876 36.941,17.9736 37.038,17.9379 C37.135,17.9023 37.224,17.8459 37.298,17.7726 C37.372,17.6992 37.43,17.6106 37.468,17.5127 C37.505,17.4149 37.521,17.31 37.515,17.2053 L37.515,11.4901 C37.515,11.4021 37.55,11.3663 37.602,11.3663 C37.627,11.3673 37.65,11.3765 37.669,11.3924 C37.688,11.4083 37.701,11.43 37.707,11.4543 L38.958,15.1133 C39.114,15.589 39.357,15.7813 39.722,15.7813 L40.66,15.7813 C41.025,15.7813 41.268,15.5875 41.424,15.1133 L42.675,11.4543 C42.68,11.4299 42.693,11.408 42.712,11.3921 C42.731,11.3761 42.755,11.3671 42.78,11.3663 C42.831,11.3663 42.866,11.4021 42.866,11.4901 L42.866,17.2082 C42.86,17.3129 42.877,17.4176 42.914,17.5153 C42.951,17.6131 43.009,17.7016 43.083,17.7749 C43.157,17.8483 43.245,17.9047 43.343,17.9404 C43.44,17.9762 43.544,17.9904 43.647,17.9821 L43.647,17.9821 Z" id="Path" fill="#1B1B1B"></path>
            <path d="M25.027,6.0179 L22.524,6.0179 C22.421,6.0094 22.317,6.0234 22.22,6.0591 C22.122,6.0947 22.033,6.1511 21.959,6.2244 C21.885,6.2978 21.827,6.3864 21.79,6.4843 C21.753,6.5821 21.736,6.687 21.742,6.7917 L21.742,13.1615 C21.742,16.4418 23.602,18.2311 27.058,18.2311 C30.515,18.2311 32.374,16.4418 32.374,13.1615 L32.374,6.7917 C32.374,6.3161 32.062,6.0179 31.593,6.0179 L29.09,6.0179 C28.987,6.0094 28.883,6.0234 28.785,6.0591 C28.688,6.0947 28.599,6.1511 28.525,6.2244 C28.451,6.2978 28.393,6.3864 28.356,6.4843 C28.318,6.5821 28.302,6.687 28.308,6.7917 L28.308,13.1779 C28.308,14.0726 27.822,14.6556 27.057,14.6556 C26.291,14.6556 25.806,14.0755 25.806,13.1779 L25.806,6.7917 C25.812,6.6872 25.795,6.5827 25.758,6.485 C25.721,6.3874 25.664,6.299 25.59,6.2256 C25.516,6.1523 25.428,6.0959 25.331,6.06 C25.233,6.0242 25.13,6.0098 25.027,6.0179 L25.027,6.0179 Z" id="Path" fill="#1B1B1B"></path>
            <path d="M20.422,9.1669 C20.422,7.2494 19.032,6.0178 16.843,6.0178 L10.554,6.0178 C10.451,6.0093 10.347,6.0233 10.249,6.059 C10.152,6.0946 10.063,6.151 9.989,6.2244 C9.915,6.2977 9.857,6.3863 9.82,6.4842 C9.782,6.582 9.766,6.6869 9.772,6.7916 L9.772,17.2082 C9.772,17.6838 10.084,17.982 10.554,17.982 L16.912,17.982 C19.275,17.982 20.803,16.6401 20.803,14.5869 C20.803,13.1793 20.16,12.1758 18.944,11.648 C19.917,11.2603 20.422,10.3985 20.422,9.1669 Z M13.663,8.991 C13.662,8.9673 13.665,8.9436 13.673,8.9215 C13.682,8.8993 13.695,8.8792 13.711,8.8625 C13.728,8.8459 13.748,8.833 13.77,8.8248 C13.792,8.8166 13.815,8.8132 13.838,8.815 L15.767,8.815 C16.375,8.815 16.758,9.2027 16.758,9.7827 C16.758,10.3627 16.375,10.7504 15.767,10.7504 L13.838,10.7504 C13.815,10.7519 13.792,10.7484 13.77,10.7401 C13.748,10.7318 13.729,10.7189 13.712,10.7023 C13.696,10.6856 13.683,10.6656 13.675,10.6436 C13.667,10.6215 13.663,10.598 13.665,10.5745 L13.663,8.991 Z M15.939,15.1848 L13.838,15.1848 C13.815,15.1863 13.792,15.1828 13.77,15.1745 C13.748,15.1662 13.729,15.1533 13.712,15.1367 C13.696,15.12 13.683,15.1 13.675,15.078 C13.667,15.0559 13.663,15.0324 13.665,15.0089 L13.665,13.3896 C13.663,13.3661 13.667,13.3425 13.675,13.3205 C13.683,13.2984 13.696,13.2784 13.712,13.2617 C13.729,13.2451 13.748,13.2322 13.77,13.2239 C13.792,13.2156 13.815,13.2121 13.838,13.2136 L15.941,13.2136 C16.549,13.2136 16.931,13.6013 16.931,14.1992 C16.931,14.7971 16.547,15.1848 15.939,15.1848 L15.939,15.1848 Z" id="Shape" fill="#1B1B1B"></path>
        </g>
    </g>
</svg>