<?xml version="1.0" encoding="UTF-8"?>
<svg width="113.924508px" height="34.2641684px" viewBox="0 0 113.924508 34.2641684" version="1.1" xmlns="http://www.w3.org/2000/svg" xmlns:xlink="http://www.w3.org/1999/xlink">
    <title>connect-logo</title>
    <g id="Page-1" stroke="none" stroke-width="1" fill="none" fill-rule="evenodd">
        <g id="connect-logo" fill-rule="nonzero">
            <path d="M41.2325212,20.3274797 L40.2057662,21.0182744 C39.4998722,19.9499962 38.273051,19.293175 36.8537132,19.293175 C34.4453688,19.293175 32.6032496,21.0409234 32.6032496,23.626685 C32.6032496,26.2124466 34.4453688,27.9601949 36.8537132,27.9601949 C38.273051,27.9601949 39.4847728,27.3146982 40.2057662,26.2426452 L41.2023225,26.9787379 C40.3114616,28.322579 38.6996073,29.1492677 36.8537132,29.1492677 C33.6602033,29.1492677 31.3084814,26.8466187 31.3084814,23.626685 C31.3084814,20.4029764 33.6639781,18.1041022 36.8537132,18.1041022 C38.7222563,18.1041022 40.3869582,18.9458903 41.2325212,20.3274797 Z" id="Path" fill="#808285"></path>
            <path d="M49.786296,25.3592962 C49.786296,27.5147267 48.144243,29.1416803 45.9586139,29.1416803 C43.7729847,29.1416803 42.1384814,27.5147267 42.1384814,25.3592962 C42.1384814,23.2114154 43.7729847,21.5844618 45.9586139,21.5844618 C48.144243,21.5844618 49.786296,23.2114154 49.786296,25.3592962 Z M43.3049053,25.3592962 C43.3049053,26.9334022 44.4486801,28.0658525 45.9586139,28.0658525 C47.460998,28.0658525 48.6123225,26.9296274 48.6123225,25.3592962 C48.6123225,23.7927399 47.460998,22.6602896 45.9586139,22.6602896 C44.4449053,22.6602896 43.3049053,23.7965148 43.3049053,25.3592962 Z" id="Shape" fill="#808285"></path>
            <path d="M57.7738457,24.4948591 L57.7738457,28.9982366 L56.6300708,28.9982366 L56.6300708,24.8723426 C56.6300708,23.4907532 55.8637794,22.6791638 54.5350377,22.6791638 C53.3157662,22.6791638 52.3116602,23.5247267 52.3116602,24.9025413 L52.3116602,28.9982366 L51.1603357,28.9982366 L51.1603357,21.7316803 L52.2965609,21.7316803 L52.2965609,22.765985 C52.8892099,21.897773 53.8555675,21.5844618 54.7426536,21.5844618 C56.5357,21.5844618 57.7738457,22.7357863 57.7738457,24.4948591 Z" id="Path" fill="#808285"></path>
            <path d="M66.6031834,24.4948591 L66.6031834,28.9982366 L65.4594086,28.9982366 L65.4594086,24.8723426 C65.4594086,23.4907532 64.6931172,22.6791638 63.3643755,22.6791638 C62.1451039,22.6791638 61.140998,23.5247267 61.140998,24.9025413 L61.140998,28.9982366 L59.9896735,28.9982366 L59.9896735,21.7316803 L61.1258986,21.7316803 L61.1258986,22.765985 C61.7185477,21.897773 62.6849053,21.5844618 63.5719914,21.5844618 C65.3688126,21.5844618 66.6031834,22.7357863 66.6031834,24.4948591 Z" id="Path" fill="#808285"></path>
            <path d="M74.911594,25.3366472 C74.911594,25.4838658 74.9040443,25.6348591 74.888945,25.7669783 L69.0643755,25.7669783 C69.2266933,27.3335346 70.3213953,28.1375744 71.6350377,28.1375744 C72.5334483,28.1375744 73.314839,27.7940644 73.9376867,27.2240644 L74.5529847,28.0054929 C73.6470245,28.8737048 72.6353688,29.1416803 71.5670907,29.1416803 C69.4192099,29.1416803 67.890402,27.6166472 67.890402,25.3668459 C67.890402,23.1434684 69.4229847,21.5844618 71.4953688,21.5844618 C73.4696073,21.5844618 74.8964947,23.1283691 74.911594,25.3366472 Z M69.0794748,24.8383691 L73.7451702,24.8383691 C73.5979516,23.4794287 72.7108655,22.6037048 71.4727198,22.6037048 C70.1326536,22.6074797 69.2644417,23.5285015 69.0794748,24.8383691 Z" id="Shape" fill="#808285"></path>
            <path d="M82.5631834,22.7282366 L81.8270907,23.5020777 C81.2835145,22.9736009 80.6304682,22.6565148 79.8415278,22.6565148 C78.3844417,22.6565148 77.2784152,23.7927399 77.2784152,25.3555214 C77.2784152,26.9296274 78.3844417,28.0620777 79.8415278,28.0620777 C80.6304682,28.0620777 81.3363622,27.7110181 81.8497397,27.2089651 L82.5631834,27.9903558 C81.9025874,28.7339982 80.9437794,29.1341307 79.8717265,29.1341307 C77.6370245,29.1341307 76.1119914,27.507177 76.1119914,25.3517466 C76.1119914,23.2038658 77.6370245,21.5769121 79.8717265,21.5769121 C80.9437794,21.5844618 81.9101371,21.9845942 82.5631834,22.7282366 Z" id="Path" fill="#808285"></path>
            <path d="M89.4447066,22.7660227 L86.3078192,22.7660227 L86.3078192,26.431387 C86.3078192,27.5676121 86.9080179,28.0658903 87.7498059,28.0658903 C88.3084814,28.0658903 88.8558324,27.8582744 89.274839,27.5525128 L89.8108655,28.4207247 C89.2672894,28.8359565 88.546296,29.1417181 87.6554351,29.1417181 C86.0888788,29.1417181 85.1602695,28.2810558 85.1602695,26.4578108 L85.1602695,22.7660227 L83.5710642,22.7660227 L83.5710642,21.7317181 L85.1602695,21.7317181 L85.1602695,19.4215194 L86.3040443,19.4215194 L86.3040443,21.7317181 L89.4447066,21.7317181 L89.4447066,22.7660227 Z" id="Path" fill="#808285"></path>
            <path d="M101.712919,34.2641684 C96.6244417,34.2641684 92.4872231,30.1269499 92.4872231,25.038473 C92.4872231,19.9499962 96.6244417,15.8127777 101.712919,15.8127777 C106.801395,15.8127777 110.938614,19.9499962 110.938614,25.038473 C110.938614,30.123175 106.801395,34.2641684 101.712919,34.2641684 Z M101.712919,16.6583406 C97.0925212,16.6583406 93.3327861,20.4180757 93.3327861,25.038473 C93.3327861,29.6588704 97.0925212,33.4186055 101.712919,33.4186055 C106.333316,33.4186055 110.093051,29.6588704 110.093051,25.038473 C110.093051,20.4180757 106.333316,16.6583406 101.712919,16.6583406 Z" id="Shape" fill="#26247B"></path>
            <path d="M104.185435,21.773279 C104.442124,21.773279 104.64974,21.5656631 104.64974,21.3127492 L104.64974,20.5049346 C104.64974,20.2482459 104.442124,20.04063 104.185435,20.04063 C103.928746,20.04063 103.72113,20.2482459 103.72113,20.5049346 L103.72113,21.3127492 C103.72113,21.5656631 103.928746,21.773279 104.185435,21.773279 Z" id="Path" fill="#26247B"></path>
            <path d="M97.4549053,30.0363916 L96.548945,30.0363916 L96.548945,20.7540737 L98.3608655,20.7767227 L98.3608655,21.3240737 C98.3608655,21.8034777 98.7496735,22.1922856 99.2290775,22.1922856 C99.7084814,22.1922856 100.097289,21.8034777 100.097289,21.3240737 L100.097289,20.7729479 L103.328548,20.7729479 L103.328548,21.3240737 C103.328548,21.8034777 103.717356,22.1922856 104.19676,22.1922856 C104.676164,22.1922856 105.064971,21.8034777 105.064971,21.3240737 L105.064971,20.7729479 L106.865568,20.7729479 L106.876892,30.0326168 L105.970932,30.0363916 L97.4549053,30.0363916 L97.4549053,30.0363916 Z M96.9415278,29.6438088 L106.484309,29.6438088 L106.472985,21.1693055 L105.457554,21.1693055 L105.457554,21.3278485 C105.457554,22.0224181 104.891329,22.5886432 104.19676,22.5886432 C103.50219,22.5886432 102.935965,22.0224181 102.935965,21.3278485 L102.935965,21.1693055 L100.489872,21.1693055 L100.489872,21.3278485 C100.489872,22.0224181 99.923647,22.5886432 99.2290775,22.5886432 C98.5345079,22.5886432 97.9682828,22.0224181 97.9682828,21.3278485 L97.9682828,21.1655307 L96.9415278,21.1542062 L96.9415278,29.6438088 L96.9415278,29.6438088 Z" id="Shape" fill="#26247B"></path>
            <path d="M99.2177529,21.773279 C99.4744417,21.773279 99.6820576,21.5656631 99.6820576,21.3127492 L99.6820576,20.5049346 C99.6820576,20.2482459 99.4744417,20.04063 99.2177529,20.04063 C98.9610642,20.04063 98.7534483,20.2482459 98.7534483,20.5049346 L98.7534483,21.3127492 C98.7572231,21.5656631 98.9610642,21.773279 99.2177529,21.773279 Z" id="Path" fill="#26247B"></path>
            <polygon id="Path" fill="#26247B" points="105.827488 26.7334115 103.577687 26.7334115 103.577687 28.9832128 105.827488 28.9832128"></polygon>
            <polygon id="Path" fill="#26247B" points="102.837819 26.7334115 100.588018 26.7334115 100.588018 28.9832128 102.837819 28.9832128"></polygon>
            <polygon id="Path" fill="#26247B" points="99.8481503 26.7334115 97.598349 26.7334115 97.598349 28.9832128 99.8481503 28.9832128"></polygon>
            <polygon id="Path" fill="#26247B" points="105.827488 23.7437803 103.577687 23.7437803 103.577687 25.9935439 105.827488 25.9935439"></polygon>
            <polygon id="Path" fill="#26247B" points="102.837819 23.7437803 100.588018 23.7437803 100.588018 25.9935439 102.837819 25.9935439"></polygon>
            <path d="M7.78371321,2.89152318 C6.9381503,2.37059603 5.91139533,1.97801702 4.73742182,1.97801702 C3.53325341,1.97801702 2.68013328,2.45364616 2.68013328,3.26523556 C2.68013328,4.05416841 3.60874255,4.29198298 4.89596487,4.50714854 L5.50371321,4.60529424 C7.42132911,4.9186055 8.92371321,5.7415194 8.92371321,7.61383728 C8.92371321,9.98443331 6.83622977,11.1131088 4.5260311,11.1131088 C2.89908123,11.1131088 1.15132533,10.6374797 8.8817842e-16,9.7088704 L1.11358076,7.98377106 C1.88742182,8.60661874 3.15576619,9.14264523 4.53358076,9.14264523 C5.72265361,9.14264523 6.64371321,8.67456576 6.64371321,7.84410219 C6.64371321,7.1004598 5.86232249,6.82489689 4.36371321,6.58708232 L3.68046441,6.48138695 C1.78549752,6.18317503 0.40391189,5.34516179 0.40391189,3.40490066 C0.40391189,1.16642384 2.3970207,0 4.68457414,0 C6.18695825,0 7.44020328,0.335960265 8.78781917,1.14377483 L7.78371321,2.89152318 Z" id="Path" fill="#005EA7"></path>
            <path d="M19.1912629,6.63238033 C19.1912629,9.60317503 17.296296,11.1131088 14.5633159,11.1131088 C11.8303357,11.1131088 9.93536884,9.60317503 9.93536884,6.63238033 L9.93536884,0.181184503 L12.0832496,0.181184503 L12.0832496,6.52668497 C12.0832496,8.28953265 13.0798059,9.06714854 14.559541,9.06714854 C16.0392761,9.06714854 17.0358324,8.29330748 17.0358324,6.52668497 L17.0358324,0.181184503 L19.1837132,0.181184503 L19.1837132,6.63238033 L19.1912629,6.63238033 Z" id="Path" fill="#005EA7"></path>
            <path d="M22.8981503,6.99476444 L22.8981503,10.9243671 L20.7578192,10.9243671 L20.7578192,0.184963113 L25.140402,0.184963113 C27.7035145,0.184963113 29.0700046,1.52125073 29.0700046,3.59741344 C29.0700046,5.66224788 27.7035145,6.99476444 25.1555013,6.99476444 L22.8981503,6.99476444 Z M22.8981503,2.15165563 L22.8981503,5.03562536 L25.0988788,5.03562536 C26.2653026,5.03562536 26.873051,4.55999623 26.873051,3.59363861 C26.873051,2.63483066 26.2653026,2.15165563 25.0988788,2.15165563 L22.8981503,2.15165563 Z" id="Shape" fill="#005EA7"></path>
            <polygon id="Path" fill="#005EA7" points="38.1522563 10.9243671 30.1269582 10.9243671 30.1269582 0.184963113 38.0918589 0.184963113 38.0918589 2.14787702 32.2672894 2.14787702 32.2672894 4.52602272 37.8200708 4.52602272 37.8200708 6.48893662 32.2672894 6.48893662 32.2672894 8.95767834 38.1522563 8.95767834"></polygon>
            <path d="M44.1353688,0.181184503 C46.6984814,0.181184503 48.0725212,1.39290258 48.0725212,3.45018735 C48.0725212,5.21304258 46.8457,6.4209896 44.7808655,6.61728099 L48.0876205,10.9205923 L45.4943092,10.9205923 L42.3649715,6.64747967 L41.7345741,6.64747967 L41.7345741,10.9205923 L39.594243,10.9205923 L39.594243,0.181184503 L44.1353688,0.181184503 L44.1353688,0.181184503 Z M41.7345741,2.15164808 L41.7345741,4.78271146 L44.0976205,4.78271146 C45.2640443,4.78271146 45.8717927,4.35238033 45.8717927,3.44641252 C45.8717927,2.55555159 45.2338457,2.15164808 44.0976205,2.15164808 L41.7345741,2.15164808 Z" id="Shape" fill="#005EA7"></path>
            <path d="M56.558349,2.21583159 C55.6901371,1.62695742 54.6105344,1.21172563 53.319541,1.21172563 C51.7001371,1.21172563 50.5412629,1.94026868 50.5412629,3.15199053 C50.5412629,4.14853927 51.3453026,4.69589026 53.0213291,4.89218166 L54.0405344,5.01675119 C55.8109318,5.23191675 57.3925874,5.98310881 57.3925874,7.84032735 C57.3925874,9.96555914 55.4598722,11.0715856 53.1421238,11.0715856 C51.5831172,11.0715856 49.9335145,10.5204598 48.9218589,9.68999623 L49.5975543,8.70853927 C50.3411967,9.33893662 51.7378854,9.90516179 53.1345741,9.90516179 C54.7992761,9.90516179 56.1129185,9.22946642 56.1129185,7.94979755 C56.1129185,6.90794325 55.2145079,6.38324126 53.5120576,6.19449954 L52.4286801,6.06993 C50.5941106,5.86231411 49.261594,5.01297636 49.261594,3.23126205 C49.261594,1.18907662 51.0810642,0.0490747351 53.3270907,0.0490747351 C54.961594,0.0490747351 56.1959649,0.53225543 57.1849715,1.22305013 L56.558349,2.21583159 Z" id="Path" fill="#000000"></path>
            <polygon id="Path" fill="#000000" points="66.6786801 10.9243671 59.1214616 10.9243671 59.1214616 0.184963113 66.6107331 0.184963113 66.6107331 1.34384106 60.3596073 1.34384106 60.3596073 4.9412545 66.4182165 4.9412545 66.4182165 6.09257901 60.3558324 6.09257901 60.3558324 9.76926775 66.6786801 9.76926775"></polygon>
            <path d="M72.9260311,0.181184503 C75.3419251,0.181184503 76.6782165,1.27211166 76.6782165,3.21237656 C76.6782165,5.06959887 75.2362298,6.25112205 72.9411304,6.25112205 L72.7637132,6.25112205 L76.621594,10.9243671 L75.0852364,10.9243671 L71.3028523,6.25112205 L69.9439119,6.25112205 L69.9439119,10.9243671 L68.709541,10.9243671 L68.709541,0.184955563 L72.9260311,0.184955563 L72.9260311,0.181184503 Z M69.9476867,1.3400549 L69.9476867,5.12999623 L72.9109318,5.12999623 C74.5454351,5.12999623 75.3947728,4.46185053 75.3947728,3.21237656 C75.3947728,1.97045603 74.5190112,1.3400549 72.9109318,1.3400549 L69.9476867,1.3400549 L69.9476867,1.3400549 Z" id="Shape" fill="#000000"></path>
            <polygon id="Path" fill="#000000" points="82.891594 10.9243671 81.3665609 10.9243671 77.0557 0.184963113 78.3693424 0.184963113 82.1441768 9.69754589 85.9265609 0.184963113 87.1986801 0.184963113"></polygon>
            <polygon id="Path" fill="#000000" points="89.5051039 10.9243671 88.2707331 10.9243671 88.2707331 0.184963113 89.5051039 0.184963113"></polygon>
            <path d="M101.146693,2.25357238 L100.119938,2.94436709 C99.4140443,1.87608894 98.1872231,1.21927152 96.7678854,1.21927152 C94.359541,1.21927152 92.5174218,2.96701609 92.5174218,5.55277768 C92.5174218,8.13853927 94.359541,9.88628762 96.7678854,9.88628762 C98.1872231,9.88628762 99.398945,9.24079093 100.119938,8.16873795 L101.116495,8.90483066 C100.225634,10.2486717 98.6175543,11.0753605 96.7678854,11.0753605 C93.5743755,11.0753605 91.2188788,8.77271146 91.2188788,5.55277768 C91.2188788,2.32906907 93.5743755,0.030181937 96.7678854,0.030181937 C98.6364284,0.0264196887 100.30113,0.87198298 101.146693,2.25357238 Z" id="Path" fill="#000000"></path>
            <polygon id="Path" fill="#000000" points="110.383713 10.9243671 102.826495 10.9243671 102.826495 0.184963113 110.315766 0.184963113 110.315766 1.34384106 104.06464 1.34384106 104.06464 4.9412545 110.127024 4.9412545 110.127024 6.09257901 104.06464 6.09257901 104.06464 9.76926775 110.387488 9.76926775 110.387488 10.9243671"></polygon>
            <path d="M111.761528,1.34004358 L111.761528,0.385010464 L111.376495,0.385010464 L111.376495,0.17362351 L112.376826,0.17362351 L112.376826,0.385010464 L111.991793,0.385010464 L111.991793,1.34004358 L111.761528,1.34004358 Z M113.701793,1.34004358 L113.701793,0.475610265 L113.388481,1.21925265 L113.146892,1.21925265 L112.833581,0.475610265 L112.833581,1.33627252 L112.603316,1.33627252 L112.603316,0.169848675 L112.927952,0.169848675 L113.263912,0.958789073 L113.596097,0.169848675 L113.924508,0.169848675 L113.924508,1.33627252 L113.701793,1.33627252 L113.701793,1.34004358 Z" id="Shape" fill="#000000"></path>
        </g>
    </g>
</svg>