<?xml version="1.0" encoding="UTF-8"?>
<svg width="206px" height="29px" viewBox="0 0 206 29" version="1.1" xmlns="http://www.w3.org/2000/svg" xmlns:xlink="http://www.w3.org/1999/xlink">
    <title>cupra</title>
    <g id="Marque-Logos-and-Skins" stroke="none" stroke-width="1" fill="none" fill-rule="evenodd">
        <g id="Skin-Cupra" transform="translate(-37.000000, -152.000000)" fill="#000000" fill-rule="nonzero">
            <g id="cupra" transform="translate(37.000000, 152.000000)">
                <path d="M30.0686183,5.9876058 L23.9030359,8.98286981 L23.9030359,8.98286981 L27.6612454,10.4147521 C28.435254,10.706973 29.3564126,11.0839379 29.6948575,11.9927449 C30.0333024,12.9015518 29.5300496,13.7460701 29.0797708,14.4620113 L27.0196716,17.6530633 C24.5848306,21.4382977 22.1480277,25.22061 19.7092627,29 C19.7092627,27.8311165 19.7092627,26.662233 19.7092627,25.4933495 L19.7092627,25.4933495 C20.6431743,22.5711407 21.5515799,19.6489319 22.4344796,16.7267231 C22.6836534,15.8929195 22.9308653,15.0591159 23.1761152,14.2253124 C23.3232652,13.7226925 23.2290892,13.421705 22.7405514,13.1820838 L18.991171,11.3498589 L15.2565056,13.1791616 C14.7679678,13.4187827 14.6679058,13.7197703 14.8209418,14.2223902 C15.0642297,15.0581419 15.3114416,15.8919455 15.5625774,16.7238009 C16.4415531,19.6576985 17.3499587,22.5799073 18.2877943,25.4904272 L18.2877943,25.4904272 C18.2877943,26.6593108 18.2877943,27.8281943 18.2877943,28.9970778 C15.8451053,25.2176878 13.4083024,21.4353755 10.9773854,17.6501411 L8.91728625,14.4590891 C8.46406444,13.7548368 7.95492565,12.9220073 8.3021995,11.9898227 C8.64947336,11.057638 9.56180297,10.706973 10.3358116,10.4118299 L14.0940211,8.9799476 L14.0940211,8.9799476 L7.92843866,5.9846836 L7.92843866,5.9846836 L9.85021685,9.18450222 L6.67177819,10.3972189 C4.44490913,6.93537552 2.22098306,3.4696359 0,0 C6.32744734,2.2267231 12.6548947,4.47390165 19,6.62756953 C25.3539343,4.47390165 31.6725527,2.2296453 38,0 C35.7829409,3.46573962 33.5599959,6.92758296 31.3311648,10.38553 L28.1527261,9.17281338 L30.0745043,5.97299476" id="Path"></path>
                <path d="M152.601663,10.0668896 L152.601663,13.3532609 L170.857143,13.3532609 C171.228999,13.3664723 171.542218,13.0868252 171.558579,12.7270067 L171.558579,10.6960702 C171.542218,10.3362517 171.228999,10.0566046 170.857143,10.0698161 L152.601663,10.0668896 Z M148,20.9941472 L148,7 L171.667423,7 C173.865457,7 175.649282,8.30225753 175.649282,10.2717391 L175.649282,13.1659699 C175.649282,15.1881271 174.258503,16.5576923 172.849584,16.5576923 L176,21 L170.860166,21 L168.139078,16.7332776 L152.601663,16.7332776 L152.601663,21 L148,20.9941472 Z" id="Shape"></path>
                <path d="M82.2435733,20.9941508 L58.923432,20.9941508 C56.7576499,20.9941508 55,19.3973261 55,17.4290788 L55,10.5679967 C55,8.59974932 56.7576499,7.00292459 58.923432,7.00292459 L82.2435733,7.00292459 L82.2435733,10.8312095 L59.7069268,10.8312095 C59.5268965,10.8224804 59.3509259,10.8856203 59.2190601,11.0062607 C59.0871943,11.1269011 59.0106499,11.2947801 59.0068459,11.4716942 L59.0068459,16.5517025 C59.0229673,16.9112956 59.3315901,17.1907674 59.6979896,17.1775642 L82.2435733,17.1775642 L82.2435733,20.9941508 Z M113.18119,7 L113.18119,17.4290788 C113.18119,19.3973261 111.423541,20.9941508 109.257758,20.9941508 L89.8282794,20.9941508 C87.6624973,20.9941508 85.9048474,19.3973261 85.9048474,17.4290788 L85.9048474,7.00292459 L90.5849626,7.00292459 L90.5849626,16.5400042 C90.5919317,16.7130227 90.6687006,16.8762186 90.7983475,16.9936197 C90.9279945,17.1110209 91.0998763,17.1729894 91.2761063,17.1658659 L107.803973,17.1658659 C108.170373,17.179069 108.478996,16.8995972 108.495117,16.5400042 L108.495117,7.00292459 L113.18119,7 Z M201.59098,13.3375809 L201.59098,10.062043 L183.788072,10.062043 C183.421672,10.0488399 183.11305,10.3283117 183.096928,10.6879047 L183.096928,13.3200334 C183.096928,13.2907875 195.236629,13.322958 201.59098,13.3375809 Z M206,20.9941508 L201.59098,20.9941508 L201.59098,16.7359515 L183.120761,16.7359515 L183.120761,21 L178.711741,21 L178.673013,10.5709212 C178.673013,8.60267391 180.430663,7.00584917 182.596445,7.00584917 L205.916586,7.00584917 C205.958293,7.03509505 205.982126,7.02047211 205.985105,7.00584917 L206,20.9941508 Z M121.218715,13.3492793 L139.41486,13.3492793 C139.781259,13.3624825 140.089882,13.0830106 140.106004,12.7234176 L140.106004,10.6937539 C140.089882,10.3341609 139.781259,10.0546891 139.41486,10.0678922 L121.218715,10.0678922 L121.218715,13.3492793 Z M140.198355,7.00292459 C143.079113,7.00292459 144.121787,8.30436599 144.121787,10.2726133 L144.121787,13.1650303 C144.121787,15.1332776 143.228066,16.7301024 140.198355,16.7301024 L121.218715,16.7301024 L121.218715,20.9941508 L116.800758,20.9941508 L116.800758,7.00292459 L140.198355,7.00292459 Z" id="Shape"></path>
            </g>
        </g>
    </g>
</svg>