<?xml version="1.0" encoding="UTF-8"?>
<svg width="149px" height="20px" viewBox="0 0 149 20" version="1.1" xmlns="http://www.w3.org/2000/svg" xmlns:xlink="http://www.w3.org/1999/xlink">
    <title>dodge</title>
    <g id="Page-1" stroke="none" stroke-width="1" fill="none" fill-rule="evenodd">
        <g id="dodge">
            <rect id="Rectangle" fill="#FFFFFF" opacity="0.01" x="0" y="0" width="148" height="20"></rect>
            <g id="logo" transform="translate(5.000000, 0.000000)" fill-rule="nonzero">
                <g id="Shape" transform="translate(71.683489, 10.000000) scale(-1, 1) rotate(-180.000000) translate(-71.683489, -10.000000) translate(0.000000, 0.000000)">
                    <path d="M123.012025,0 L105.738351,20 L114.201757,20 L131.440745,0.0161868424 L123.012025,0 L123.012025,0 Z M134.938259,0 L117.664586,20 L126.127992,20 L143.366979,0.0161868424 L134.938259,0 L134.938259,0 Z" fill="#D50000" transform="translate(124.552665, 10.000000) scale(-1, 1) rotate(-180.000000) translate(-124.552665, -10.000000) "></path>
                    <path d="M35.759741,6.85755033 C33.3068563,6.85020844 24.6989247,7.06705432 24.6989247,11.0033475 C24.6989247,13.7730319 28.7259799,14.570812 32.0506417,14.9292349 C34.404093,15.1830215 36.3991213,15.1708813 36.3991213,15.1708813 C36.3991213,15.1708813 38.2692797,15.2454564 40.5348595,15.1171179 C44.0497167,14.9170948 48.5242225,14.1250957 48.5242225,11.0021913 C48.5242225,6.8789979 36.8407908,6.86431412 36.3910279,6.86431412 C36.334952,6.86431412 36.1100705,6.85859091 35.759741,6.85755033 Z M12.6518673,6.9726443 L1.23840906,6.97721734 C1.23864031,6.97721734 0.703665164,6.9314317 0.385015609,7.18047784 C0.0874667592,7.41275902 0.0846918719,7.9370971 0.0846918719,7.9370971 L4.10765832e-14,14.1355015 C4.10765832e-14,15.0957282 1.08960573,15.0199969 1.08960573,15.0199969 L13.049948,15.0107472 C13.049948,15.0107472 16.9810383,15.1084464 19.6622731,14.2002489 C21.4197017,13.6053824 22.3232744,12.4647882 22.3232744,11.0160658 C22.3232744,9.39506912 20.7618222,8.27586459 18.6459706,7.68851345 C15.9878599,6.9513762 12.651636,6.9726443 12.651636,6.9726443 L12.6518673,6.9726443 Z M63.5369407,6.9726443 L52.1275292,6.97721734 C52.1275292,6.97721734 51.5922072,6.9314317 51.2736733,7.18047784 C50.975951,7.41275902 50.9736386,7.9370971 50.9736386,7.9370971 L50.8875014,14.1355015 C50.8875014,15.0957282 51.9772228,15.0199969 51.9772228,15.0199969 L63.9416117,15.0107472 C63.9416117,15.0107472 67.866921,15.1084464 70.5493121,14.2002489 C72.3067407,13.6053824 73.21436,12.4647882 73.21436,11.0160658 C73.21436,9.39506912 71.653486,8.27586459 69.5318534,7.68851345 C66.8783674,6.9513762 63.5369407,6.9726443 63.5369407,6.9726443 L63.5369407,6.9726443 Z M97.6853972,6.98172653 C97.5813389,6.98172653 84.4468725,6.99190112 84.4468725,6.99190112 C84.4468725,6.99190112 83.4640999,6.98635135 82.1575905,7.10370595 C79.5387906,7.33829955 75.6077003,8.13712022 75.6077003,11.0033475 C75.6077003,12.3370277 76.3303272,13.2816456 77.5790265,13.8782464 C80.2961036,15.1072902 85.024974,15.015372 85.024974,15.015372 L96.8413689,15.015372 C97.8761707,15.015372 97.9802289,14.4037406 97.9802289,13.9909762 C97.9802289,13.5787898 98.009134,11.9439187 98.009134,11.0033475 C98.009134,10.0633545 96.9916753,10.1431325 96.9916753,10.1431325 L86.4760088,10.1431325 C86.0135276,10.1431325 86.0135276,10.5194766 86.0135276,10.5194766 C86.0135276,10.5194766 85.9904035,11.0039256 85.9904035,11.4340332 C85.9904035,11.8652969 86.4297607,11.8537349 86.4297607,11.8537349 L92.4940456,11.8537349 C92.8929356,11.8537349 92.9391837,12.1757374 92.9391837,12.1757374 L92.9391837,12.9041453 C92.9391837,13.2787551 92.5402937,13.3036135 92.5402937,13.3036135 L85.5799514,13.3036135 C84.5046826,13.3036135 80.7354607,13.3036135 80.7354607,11.0033475 C80.7354607,8.70365971 85.1868424,8.68226995 85.1868424,8.68226995 L97.621806,8.68226995 C98.1247543,8.68226995 98.0553821,8.07699766 98.0553821,8.07699766 L98.0553821,7.31933782 C98.0553821,6.99010901 97.7894554,6.98172653 97.6853972,6.98172653 Z M101.766794,6.98739193 C100.83605,6.98739193 100.535438,7.1392592 100.506533,7.99895396 C100.483408,8.67880134 100.408255,12.9261132 100.408255,13.9088857 C100.408255,14.8905021 100.951671,15.015372 101.599144,15.015372 L120.65337,15.015372 C121.081165,15.015372 121.06392,14.6835418 121.06392,14.6078105 L121.06392,13.6614583 C121.06392,13.3013011 120.53775,13.3036135 120.53775,13.3036135 L106.125679,13.3036135 C105.564921,13.3036135 105.582264,12.9555963 105.582264,12.9555963 C105.582264,12.9555963 105.588045,12.6260785 105.588045,12.2578278 C105.588045,11.8907334 105.923344,11.8311889 106.085212,11.8311889 L119.647474,11.8311889 C120.046364,11.8311889 120.040583,11.4565791 120.040583,11.4565791 L120.040583,10.5194766 C120.040583,10.1142274 119.549196,10.1298361 119.549196,10.1298361 L106.038964,10.1298361 C105.588045,10.1298361 105.582264,9.67255784 105.582264,9.67255784 L105.593826,9.16209421 C105.593826,8.71926845 106.038964,8.68226995 106.038964,8.68226995 L120.329633,8.68226995 C120.751648,8.68226995 120.809458,8.37761045 120.809458,8.07699766 L120.809458,7.31933782 C120.809458,6.95455576 120.306509,6.98739193 120.306509,6.98739193 L101.766794,6.98739193 L101.766794,6.98739193 Z M36.4297607,8.56491534 C37.6241184,8.56491534 43.39878,8.66897361 43.39878,11.0316745 C43.4051335,13.5701183 38.0102902,13.4232805 36.4297607,13.4232805 C34.848653,13.4232805 29.865418,13.3261594 29.865418,11.0316745 C29.865418,8.49265265 35.2348248,8.56491534 36.4297607,8.56491534 L36.4297607,8.56491534 Z M12.7582379,8.68226995 C12.7582379,8.68226995 14.3630478,8.74412681 15.5897792,9.20949853 C16.551162,9.57428059 17.20037,10.2321601 17.20037,11.0068161 C17.20037,11.6589146 16.7777778,12.3162161 16.0135276,12.6665456 C14.7064401,13.2648807 12.7524569,13.3013011 12.7524569,13.3013011 L5.38859984,13.3059532 C5.38859984,13.3059532 4.97306047,13.3163317 4.97306047,12.930738 C4.97306047,12.930738 5.03855937,9.11700229 5.03855937,9.06728556 C5.03855937,9.01699073 5.03376113,8.68689476 5.47300266,8.68689476 C5.97826338,8.68689476 12.7582379,8.68226995 12.7582379,8.68226995 Z M63.6438895,8.68226995 C63.6438895,8.68226995 65.2510117,8.74412681 66.4765869,9.20949853 C67.4420164,9.57428059 68.0894901,10.2321601 68.0894901,11.0068161 C68.0894901,11.6589146 67.667476,12.3162161 66.898601,12.6665456 C65.5920916,13.2648807 63.6381085,13.3013011 63.6381085,13.3013011 L56.2759857,13.3059532 C56.2759857,13.3059532 55.862065,13.3163317 55.862065,12.930738 C55.862065,12.930738 55.9262342,9.11700229 55.9262342,9.06728556 C55.9262342,9.01699073 55.9216094,8.68689476 56.3609666,8.68689476 C56.8656492,8.68689476 63.6438895,8.68226995 63.6438895,8.68226995 L63.6438895,8.68226995 Z" fill="#000000" transform="translate(60.532008, 11.024905) scale(-1, 1) rotate(-180.000000) translate(-60.532008, -11.024905) "></path>
                </g>
            </g>
        </g>
    </g>
</svg>