<?xml version="1.0" encoding="UTF-8"?>
<svg width="67px" height="23px" viewBox="0 0 67 23" version="1.1" xmlns="http://www.w3.org/2000/svg" xmlns:xlink="http://www.w3.org/1999/xlink">
    <title>fca-franchise-logo</title>
    <g id="Marque-Logos-and-Skins" stroke="none" stroke-width="1" fill="none" fill-rule="evenodd">
        <g id="Skin-FCA" transform="translate(-50.000000, -112.000000)" fill="#5B87DA" fill-rule="nonzero">
            <g id="Group-21" transform="translate(33.000000, 15.000000)">
                <g id="fca-franchise-logo" transform="translate(17.000000, 97.000000)">
                    <g transform="translate(0.672269, 0.403361)">
                        <polygon id="Path" points="0.96302521 20.6655462 4.87563025 20.6655462 4.87563025 14.0504202 18.2941176 14.0504202 18.2941176 10.1512605 4.87563025 10.1512605 4.87563025 5.59327731 19.0336134 5.59327731 19.0336134 1.69411765 0.96302521 1.69411765"></polygon>
                        <g id="Group" transform="translate(21.000000, 0.000000)">
                            <path d="M17.1663866,13.1226891 C16.3327731,15.7848739 13.8319328,17.7210084 10.8739496,17.7210084 C7.2302521,17.7210084 4.28571429,14.789916 4.28571429,11.1731092 C4.28571429,7.55630252 7.2302521,4.62521008 10.8739496,4.62521008 C13.8319328,4.62521008 16.3327731,6.56134454 17.1663866,9.22352941 L21.1731092,9.22352941 C20.2588235,4.39663866 15.9966387,0.739495798 10.8739496,0.739495798 C5.0789916,0.739495798 0.373109244,5.40504202 0.373109244,11.1731092 C0.373109244,16.9277311 5.0789916,21.5932773 10.8739496,21.5932773 C15.9966387,21.5932773 20.2588235,17.9361345 21.1731092,13.1092437 L17.1663866,13.1092437 L17.1663866,13.1226891 Z" id="Path"></path>
                            <polygon id="Path" points="32.4941176 0.107563025 20.5411765 20.6655462 25.0722689 20.6655462 32.4941176 7.89243697 39.9294118 20.6655462 44.4605042 20.6655462"></polygon>
                        </g>
                    </g>
                </g>
            </g>
        </g>
    </g>
</svg>