<?xml version="1.0" encoding="UTF-8"?>
<svg width="147px" height="32px" viewBox="0 0 147 32" version="1.1" xmlns="http://www.w3.org/2000/svg" xmlns:xlink="http://www.w3.org/1999/xlink">
    <title>Genesis_2020_Logo-_1_</title>
    <defs>
        <filter id="filter-1">
            <feColorMatrix in="SourceGraphic" type="matrix" values="0 0 0 0 1.000000 0 0 0 0 1.000000 0 0 0 0 1.000000 0 0 0 1.000000 0"></feColorMatrix>
        </filter>
    </defs>
    <g id="Marque-Logos-and-Skins" stroke="none" stroke-width="1" fill="none" fill-rule="evenodd">
        <g id="Skin-Genesis" transform="translate(-37.000000, -92.000000)">
            <g id="Genesis_2020_Logo-_1_" transform="translate(23.000000, 77.000000)" filter="url(#filter-1)">
                <g transform="translate(14.000000, 15.000000)">
                    <g id="Group" transform="translate(73.500000, 16.000000) scale(-1, 1) rotate(-180.000000) translate(-73.500000, -16.000000) " fill="#000000" fill-rule="nonzero">
                        <path d="M71.1860208,30.8159273 C69.4410529,30.5019211 66.9807565,29.8414251 63.6533953,28.801956 C61.9842955,28.2822214 59.7190887,27.5892421 58.6135811,27.264408 L56.6084937,26.6688788 L54.8201725,26.6147398 C51.9263437,26.5389452 36.9261225,27.1453021 8.22627737,28.4879497 C3.73921699,28.7045058 0.0433532404,28.856095 0.0108383101,28.8344394 C-0.0650298607,28.7586448 1.13802256,27.318547 1.54987835,26.9937129 C2.05927892,26.5822564 2.82879894,26.2249389 3.60915727,26.0192106 C4.81220969,25.7052043 8.97412077,25.2612644 20.0833886,24.2651065 C43.1581509,22.207824 45.0548551,22.0237513 47.6668879,21.601467 C51.8829905,20.9301432 53.6929883,20.0206078 55.22119,17.8009081 C55.5246627,17.367796 56.164123,16.3066713 56.6626852,15.4404471 C58.7111259,11.8672721 60.3151958,9.70171149 62.7213006,7.31959483 C64.726388,5.32727908 66.5363858,3.90883688 69.0075205,2.37128886 C70.318956,1.54837583 72.9960186,0.097450227 73.3536828,0.010827803 C73.7980535,-0.097450227 76.8327804,1.53754803 79.3147534,3.21585749 C83.6500774,6.1393643 86.8365406,9.52846664 89.5352798,14.0544883 C91.7896483,17.865875 91.9305463,18.0716032 92.8084495,18.9703109 C94.2174298,20.3995809 95.6155718,20.9842822 99.0946693,21.5581558 C101.880115,22.0129235 102.833886,22.1103737 126.949126,24.2651065 C141.602522,25.5752707 143.304136,25.7918268 144.778146,26.5389452 C145.515152,26.9070905 147.325149,28.8669228 146.93497,28.8669228 C146.86994,28.8669228 142.12276,28.6503667 136.389294,28.3796717 C107.3643,27.0261963 94.9761115,26.5389452 92.1581509,26.6147398 C90.1855784,26.6797066 90.2289317,26.6688788 84.2461845,28.5420887 C78.2742756,30.4044708 76.1174519,30.9133776 73.8414068,30.9891722 C72.660031,31.0216556 72.0747622,30.9783444 71.1860208,30.8159273 Z M74.9252378,28.3688439 C78.079186,27.8274537 85.0048662,25.7052043 87.1725282,24.622424 C88.6248618,23.8969612 89.2643221,23.0523926 89.1342623,22.0020957 C88.982526,20.7027593 87.8336651,17.6060077 86.6197744,15.223891 C84.2245079,10.5137967 80.3769078,6.60495983 74.8493696,3.2483409 L73.5379341,2.45791128 L72.9309887,2.79357317 C71.9772174,3.31330772 69.0400354,5.29479567 68.2054855,5.96611946 C65.3116567,8.2940971 63.0464499,10.7411806 61.4640566,13.2857143 C60.0225614,15.5920363 58.0825039,20.2913028 57.8874143,21.9587845 C57.7573546,23.030737 58.3642999,23.8644778 59.7732802,24.568285 C62.6129175,25.997555 71.2185357,28.4879497 73.4078744,28.5312609 C73.711347,28.5420887 74.3941606,28.4662941 74.9252378,28.3688439 Z" id="Shape"></path>
                        <path d="M62.6345941,21.4607056 C61.756691,21.1683549 61.301482,20.5078589 61.301482,19.5008732 C61.301482,18.6129934 61.6483079,18.0174642 62.3419597,17.7034579 C62.8947136,17.4544184 63.8809998,17.4327628 64.4662685,17.6709745 L64.8998009,17.8442194 L64.8998009,18.7537548 L64.8998009,19.6632903 L64.2495023,19.6632903 C63.7617784,19.6632903 63.5992037,19.6308068 63.5992037,19.511701 C63.5992037,19.4250786 63.6967485,19.3168006 63.8159699,19.2843171 C64.0110595,19.2193503 64.0435744,19.1327279 64.0110595,18.6563046 L63.9785446,18.0932588 L63.469144,18.1040866 C63.0789648,18.1040866 62.8838752,18.1690534 62.6779474,18.3639539 C61.897589,19.1002445 62.1577085,20.6811037 63.1114798,20.9517988 C63.5124972,21.0600768 64.1627958,20.9517988 64.4229153,20.7352428 C64.5638133,20.6269647 64.6071666,20.6269647 64.693873,20.7568984 C64.867286,21.0384212 64.8022561,21.2874607 64.5096218,21.3957387 C64.0110595,21.5906392 63.1331564,21.6122948 62.6345941,21.4607056 Z" id="Path"></path>
                        <path d="M78.0575094,21.493189 C77.2554745,21.3091163 76.8978102,20.6486203 77.2337978,19.9881243 C77.3638576,19.7174293 77.623977,19.511701 78.1767308,19.2193503 C78.7186463,18.9378275 78.9462508,18.7537548 78.9679274,18.5913378 C79.0546339,18.0499476 78.5777483,17.9091862 77.6564919,18.190709 L77.1470914,18.3422983 L77.1470914,17.9849808 C77.1470914,17.6818023 77.1904446,17.6276633 77.483079,17.5626965 C78.8920593,17.2811736 79.965052,17.7575969 79.965052,18.6454768 C79.965052,19.1002445 79.6290644,19.5008732 78.9570891,19.8365351 C78.252599,20.1938526 78.0141562,20.3995809 78.0141562,20.6486203 C78.0141562,21.0600768 78.8270294,21.1575271 79.4556514,20.832693 C79.6940942,20.7135871 79.7049325,20.7135871 79.8024773,21.0925603 C79.8675072,21.3415997 79.8349923,21.3849109 79.5640345,21.4390499 C78.8595443,21.5798114 78.4802035,21.5906392 78.0575094,21.493189 Z" id="Path"></path>
                        <path d="M83.704269,21.5148446 C82.9564256,21.3307719 82.6529529,21.0275934 82.6529529,20.4645477 C82.6529529,19.9881243 82.9564256,19.6308068 83.704269,19.2626615 C84.3870825,18.9161718 84.6255253,18.7104436 84.6255253,18.4614041 C84.6255253,18.0499476 83.9427118,17.9308418 83.1948684,18.190709 C82.8588808,18.3098149 82.7830126,18.3098149 82.7396594,18.1798812 C82.5337315,17.6384911 82.7830126,17.4977297 83.9427118,17.4977297 C84.9073214,17.4977297 85.5142668,17.9416696 85.5142668,18.6454768 C85.5142668,19.1327279 85.1782791,19.4900454 84.2461845,20.00978 C83.4766645,20.4428921 83.3357664,20.778554 83.8343287,20.9734544 C84.0619332,21.0600768 84.2786994,21.049249 84.7013935,20.9301432 C85.3300155,20.7568984 85.384207,20.778554 85.384207,21.1358715 C85.384207,21.3091163 85.3083389,21.3957387 85.0915727,21.4390499 C84.4195974,21.5689836 84.0077417,21.5906392 83.704269,21.5148446 Z" id="Path"></path>
                        <path d="M65.6042911,21.3849109 C65.5609378,21.3307719 65.6042911,21.1900105 65.7018359,21.0817324 C65.8427339,20.9193154 65.8752488,20.5944813 65.8752488,19.1868669 L65.8752488,17.4869019 L67.208361,17.5193853 L68.5306348,17.5518687 L68.5306348,17.8225637 C68.5306348,18.082431 68.5089582,18.0932588 67.6418934,18.1257422 L66.7423136,18.1582256 L66.7423136,18.742927 L66.7423136,19.3384562 L67.5660252,19.3384562 C68.3463835,19.3384562 68.3788985,19.349284 68.3463835,19.5874956 C68.3138686,19.8040517 68.2488388,19.8257073 67.5335103,19.8581907 L66.7423136,19.8906741 L66.7423136,20.4212365 L66.7423136,20.9517988 L67.6527317,20.9842822 C68.5414731,21.0167656 68.5523114,21.0167656 68.465605,21.2658051 C68.3788985,21.493189 68.3247069,21.5040168 67.0241097,21.5040168 C66.1895598,21.5040168 65.6476443,21.4607056 65.6042911,21.3849109 Z" id="Path"></path>
                        <path d="M69.1809334,21.3849109 C69.1375802,21.3307719 69.1809334,21.1900105 69.2784782,21.0817324 C69.4193762,20.9193154 69.4518912,20.5944813 69.4518912,19.1868669 L69.4518912,17.4869019 L69.7553639,17.5193853 L70.0479982,17.5518687 L70.1021898,18.742927 L70.1563813,19.9231575 L71.1318292,18.7104436 C72.0205707,17.5843521 72.1289538,17.4869019 72.4324265,17.5193853 L72.7575758,17.5518687 L72.7575758,19.5008732 L72.7575758,21.4498778 L72.4324265,21.4498778 L72.1072772,21.4498778 L72.0530856,20.226336 L71.998894,19.0027943 L71.0234461,20.2588194 C70.0913515,21.4390499 70.0263216,21.5040168 69.6469808,21.5040168 C69.4302146,21.5040168 69.2134484,21.4498778 69.1809334,21.3849109 Z" id="Path"></path>
                        <path d="M73.5379341,21.3524275 C73.5054192,21.2658051 73.5487724,21.1683549 73.6246406,21.1358715 C73.7547003,21.0925603 73.7872152,20.7135871 73.8088918,19.3168006 L73.8414068,17.5518687 L75.1745189,17.5193853 L76.4967927,17.4869019 L76.4967927,17.8225637 L76.4967927,18.1473978 L75.6297279,18.1473978 L74.7626631,18.1473978 L74.7626631,18.742927 L74.7626631,19.3384562 L75.5213448,19.3384562 C76.2583499,19.3384562 76.2800265,19.349284 76.2800265,19.6091512 C76.2800265,19.8690185 76.2583499,19.8798463 75.5213448,19.8798463 L74.7626631,19.8798463 L74.7626631,20.4212365 L74.7626631,20.9626266 L75.6297279,20.9626266 C76.4859544,20.9626266 76.5618226,20.99511 76.4317629,21.3307719 C76.3342181,21.5689836 73.6246406,21.5906392 73.5379341,21.3524275 Z" id="Path"></path>
                        <path d="M80.5828357,21.3524275 C80.5503207,21.2658051 80.593674,21.1683549 80.6695421,21.1358715 C80.7996019,21.0925603 80.8321168,20.7135871 80.8537934,19.3168006 L80.8863083,17.5518687 L81.2981641,17.5193853 L81.6991816,17.4869019 L81.6991816,19.4900454 L81.6991816,21.5040168 L81.1681044,21.5040168 C80.8104402,21.5040168 80.6153506,21.4498778 80.5828357,21.3524275 Z" id="Path"></path>
                        <path d="M5.18071223,23.2256374 C6.35124972,22.1428571 8.07454103,20.7244149 8.95244415,20.118058 C11.7162132,18.2123647 15.0110595,17.15124 19.9750055,16.5773664 C23.486618,16.1767377 30.6940942,15.7003144 39.0504313,15.3321691 C41.7925238,15.2130632 44.3720416,15.061474 44.7730591,15.007335 C45.4667109,14.8990569 46.0736563,14.6608453 46.4855121,14.3360112 C46.7131166,14.1411107 47.0599425,13.6105484 46.9949126,13.5347538 C46.9623977,13.5022703 42.3452776,13.578065 36.731033,13.7079986 C25.2966158,13.9462103 25.9360761,13.9462103 26.001106,13.8812435 C26.0878124,13.7837932 30.650741,12.4086622 32.818403,11.8239609 C35.1378014,11.1851205 38.7144437,10.3622075 40.3510285,10.0806846 C42.1827029,9.76667831 45.3583278,9.66922808 49.2926344,9.80998952 C52.8909533,9.93992316 52.9343066,9.93992316 53.5412519,9.70171149 C54.0940058,9.49598323 55.0369387,8.74886483 55.0369387,8.51065316 C55.0369387,8.40237513 54.4191551,8.33740831 51.2218536,8.12085225 C49.6828135,8.01257422 48.4255696,7.89346839 48.4255696,7.85015718 C48.4255696,7.80684597 48.5339527,7.75270695 48.6748507,7.72022354 C48.8049104,7.68774013 50.3439505,7.27628362 52.0889184,6.78903248 C56.0015483,5.71707999 59.1446583,5.02410059 62.7213006,4.45022703 L63.1981862,4.37443241 L62.2227383,5.18651764 C60.1417828,6.92979392 58.3642999,9.0087321 56.0123866,12.4628013 C53.4328688,16.2200489 52.8042468,17.0321341 51.7204158,17.9308418 C49.9862862,19.3817674 47.428445,19.8690185 35.2570228,21.0167656 C32.3957089,21.2874607 28.3963725,21.6772616 26.3696085,21.8829899 C19.3355452,22.5976249 5.44083167,23.8861334 4.83388631,23.8861334 L4.47622207,23.8753056 L5.18071223,23.2256374 Z" id="Path"></path>
                        <path d="M136.270073,23.3880545 C133.473789,23.1281872 128.661579,22.6734195 125.594338,22.370241 C120.294404,21.8505065 116.631055,21.493189 108.90334,20.7352428 C100.709578,19.9448131 97.3605397,19.3384562 95.9190445,18.4072651 C94.6834771,17.5951799 93.7730591,16.5015718 91.1935413,12.7118407 C88.7115682,9.07369892 86.9124088,6.95144953 84.8206149,5.19734544 C84.2895377,4.75340552 83.8993585,4.39608802 83.9427118,4.39608802 C84.159478,4.39608802 87.2158814,4.95913378 88.9283344,5.31645127 C90.976775,5.73873559 93.1661137,6.28012574 96.1683256,7.12469438 C97.2413183,7.42787286 98.2276045,7.69856794 98.3685025,7.72022354 C98.4985623,7.75270695 98.6069454,7.80684597 98.6069454,7.85015718 C98.6069454,7.89346839 97.1437735,8.02340203 95.344614,8.15333566 C93.5454545,8.2832693 92.0606061,8.41320293 92.0280911,8.44568634 C91.9088697,8.55396437 92.4616235,9.17114914 92.9168326,9.43101642 C93.7513824,9.92909535 93.8814422,9.93992316 97.7398806,9.79916172 C101.674187,9.66922808 104.86065,9.76667831 106.681486,10.0806846 C108.361424,10.3730353 111.894714,11.1959483 114.376687,11.8672721 C117.032073,12.5927349 121.063924,13.8271044 120.998894,13.8920713 C120.977217,13.9137269 116.262553,13.8271044 110.529086,13.7079986 C104.79562,13.5888928 100.070117,13.5130981 100.037602,13.5455816 C99.9075426,13.6755152 100.319398,14.1952497 100.774607,14.4876004 C101.641672,15.0398184 101.71754,15.0506462 109.174298,15.3863081 C116.154169,15.7003144 122.212785,16.1009431 126.02787,16.4799162 C132.671754,17.1404122 136.205043,18.4180929 139.911745,21.5256724 C140.356116,21.8938177 141.136474,22.5867971 141.645875,23.0523926 L142.556293,23.8861334 L141.960186,23.8753056 C141.635036,23.8644778 139.077195,23.6479218 136.270073,23.3880545 Z" id="Path"></path>
                    </g>
                </g>
            </g>
        </g>
    </g>
</svg>