<?xml version="1.0" encoding="UTF-8"?>
<svg width="44px" height="44px" viewBox="0 0 44 44" version="1.1" xmlns="http://www.w3.org/2000/svg" xmlns:xlink="http://www.w3.org/1999/xlink">
    <title>holden-seeklogo.com</title>
    <defs>
        <filter id="filter-1">
            <feColorMatrix in="SourceGraphic" type="matrix" values="0 0 0 0 0.200000 0 0 0 0 0.200000 0 0 0 0 0.200000 0 0 0 1.000000 0"></feColorMatrix>
        </filter>
    </defs>
    <g id="Marque-Logos-and-Skins" stroke="none" stroke-width="1" fill="none" fill-rule="evenodd">
        <g id="holden-seeklogo.com" transform="translate(-25.000000, -16.000000)" filter="url(#filter-1)">
            <g transform="translate(25.000000, 16.000000)">
                <path d="M25.8666667,30.4603516 C26.6666667,31.1627479 26.2,32.5675406 27,33.2364894 C28.5,34.5409398 32.3333333,33.0023573 34.1666667,33.7047537 C34.5,33.805096 34.7666667,34.0057807 34.9333333,34.3068077 C36.4333333,37.1832879 28.4,40.2270053 26.5666667,40.6283746 C24.6,41.0631914 22.9,40.9962965 20.8333333,40.9962965 C20.8333333,40.8959541 20.8,40.7956118 20.9333333,40.7956118 C21.5,40.1266629 22,39.457714 22.4,38.6884228 C22.7333333,37.9525791 23.1,37.1832879 23.4333333,36.4474441 C23.6,36.3471017 23.7666667,36.213312 23.9333333,36.0795222 C23.9333333,36.1129696 23.9333333,36.1464171 23.9333333,36.1798645 C23.9666667,36.2802069 24.2,36.9491557 24.0333333,36.9491557 C24.0333333,36.9826032 24.0333333,37.0160506 24.0333333,37.0494981 C24.1,37.0494981 24.1666667,37.0494981 24.2333333,37.0494981 C24.2333333,37.0160506 24.2333333,36.9826032 24.2333333,36.9491557 C25.5333333,35.7784952 25.5,32.3334085 25.8666667,30.4603516 L25.8666667,30.4603516 Z M18.0666667,21.1285147 C18.7,23.7708628 20.8666667,25.5770248 23.7,25.5770248 C23.7,25.6104722 23.7,25.6439196 23.7,25.6773671 C21.3,26.1121839 20.6666667,26.1456313 18.7333333,25.1087605 C18.8333333,25.4766824 19.0666667,25.9449466 19.1333333,26.3128685 C18.5333333,26.2794211 17.6666667,24.6739438 17.4333333,23.2357037 C17.3,22.2991752 17.4333333,21.4295417 18.0666667,21.1285147 L18.0666667,21.1285147 Z M21.7,18.6534038 C24.0666667,20.2923286 24.4,23.7374153 28.7666667,24.3729168 C29.5,24.3394693 30.2333333,24.3394693 30.9666667,24.3060219 C29.5666667,25.2759978 28.3666667,25.6439196 27.3,25.5770248 C24.3333333,25.4097875 22.6,21.9647008 21.7,18.6534038 L21.7,18.6534038 Z M24.5333333,15.5093441 C28.6,15.6431339 29.4,20.4261184 32.0666667,22.4998599 C32.3666667,22.6670971 32.6333333,22.8343343 32.9333333,23.0015716 C32.9333333,23.0684664 32.9333333,23.1353613 32.9333333,23.2022562 C28.7666667,23.0684664 28.3666667,20.4595658 26.5,17.6499805 C26.4,16.5462149 25.3666667,16.1448455 24.5333333,15.5093441 L24.5333333,15.5093441 Z M19.6666667,7.81643195 C19.8666667,7.81643195 20.0333333,7.81643195 20.2333333,7.81643195 C20.2333333,7.84987939 20.2333333,7.88332684 20.2333333,7.91677428 C19.8,8.28469616 18.8666667,9.42190926 18.2666667,9.35501438 C18.3,9.08743482 18.0333333,8.75296038 17.2,8.98709249 C17.2,8.9201976 17.2,8.85330271 17.2,8.78640783 C17.2333333,8.78640783 17.2666667,8.78640783 17.3,8.78640783 C17.9333333,8.25124872 18.9,8.15090639 19.6666667,7.81643195 L19.6666667,7.81643195 Z M15.2333333,37.9191316 C15.2333333,37.9191316 14.7666667,37.9860265 14.6333333,38.1198163 C14.5333333,38.2870535 13.9,39.2570294 13.9,39.2570294 C13.9,39.2570294 12.6333333,38.4877382 12.7333333,38.4542907 C12.8333333,38.4208433 13.3666667,37.41742 13.6,37.3505251 C13.8333333,37.2501827 15.9666667,37.0494981 15.9666667,37.0494981 L17.3333333,37.2836302 L17.7333333,37.3170776 C18.0333333,35.5109156 18.3666667,33.8719909 17.7,32.0323815 C16.1,26.4132109 9.46666667,23.7708628 4.43333333,26.94837 C4.26666667,27.0821597 3.96666667,27.2828444 3.76666667,27.3831867 C3.26666667,25.6439196 3,23.8712051 3,22.0650431 C3,11.5625457 11.5333333,3 22,3 C32.4666667,3 41,11.5625457 41,22.0650431 C41,23.637073 40.7666667,25.4097875 40.4,26.9149225 L40.3333333,26.8480276 C39.2666667,26.2794211 34.3333333,24.7073912 34.3,23.3025986 C34.9,23.1353613 35.5,23.0015716 36.1333333,22.8343343 C36.5,22.6336497 37.1333333,22.2322803 37.5333333,22.0315957 C34.6,21.228857 33.4666667,17.382401 32.6333333,15.8438185 C32.0333333,14.7735003 31.0333333,14.0376565 30.8,13.2014704 C31.2,13.3018128 32.0333333,13.46905 32.4333333,13.5693923 C32.3666667,13.4356026 32.3,13.3018128 32.2666667,13.168023 C31.8,11.7632303 29.4666667,11.4622034 28.4333333,10.6260173 C28.3,10.5256749 27.6666667,9.95706837 27.9333333,9.95706837 C28.3333333,9.85672604 28.8333333,9.85672604 29.2666667,9.7563837 C27.9333333,8.58572316 26.4,7.98366917 26.4,5.84303275 C26.3,5.84303275 26.2,5.87648019 26.2,5.74269041 C24.1333333,6.67921885 21.6666667,6.44508674 19.4,7.04714073 C18.3333333,7.44851006 17.2333333,7.84987939 16.1666667,8.21780128 C16.1666667,8.25124872 16.1666667,8.28469616 16.1666667,8.31814361 C16.2666667,8.61917061 16.1666667,8.9201976 16,9.12088227 C15.8,9.28811949 15.5666667,9.48880415 15.3666667,9.65604137 C14.3333333,10.157753 13.3,10.5591224 12.6333333,11.0273866 C11.9,11.5625457 11.6666667,12.1645997 13.2,13.6028398 C13.4666667,13.9038668 13.7333333,14.2383412 14,14.5393682 C14.0666667,14.6062631 14.0333333,14.5728157 14.1,14.6397105 C14.0333333,14.1045514 13.8,13.0676807 14.2333333,12.6663113 C15.7,11.2949661 18.0333333,13.9038668 17.5333333,15.576239 C17.0666667,17.081374 15,16.1113981 15,15.8438185 C14.9666667,15.8438185 14.9333333,15.8438185 14.9,15.8438185 C14.9666667,16.47932 15.9,17.3155061 15.7333333,18.2854819 C16.1,18.2854819 18.3666667,16.2786353 18.6,15.877266 C19.2333333,14.8738426 19.1666667,13.5359449 20,12.5994165 C21,11.4622034 22.9,11.0942815 23.6333333,9.82327859 C23.5666667,9.5222516 21.9,7.51540495 22.2333333,7.51540495 C22.2333333,7.48195751 22.2333333,7.44851006 22.2333333,7.41506262 C22.7,7.38161517 23.2,7.34816773 23.6666667,7.31472029 C24.2,7.18093051 24.7666667,7.04714073 25.3,6.9467984 C25.3,6.98024585 25.3,7.01369329 25.3,7.04714073 C25.2666667,7.04714073 25.2333333,7.04714073 25.2,7.04714073 C25.2,7.08058818 25.2,7.11403562 25.2,7.14748307 C25,7.2478254 23.4,8.05056406 23.4,8.11745894 C23.8666667,8.85330271 25.3,9.68948882 25.1,10.4922275 C24.8333333,11.5290982 21.9,12.2314946 21.0666667,12.9673383 C19.8666667,14.0376565 20.0666667,15.7434762 19.3,17.0479265 C18.8333333,17.8172177 18.1333333,18.2185871 17.4666667,18.7537462 C15.7333333,20.1250914 15.2333333,21.1285147 15.3333333,21.8643585 C15.4666667,23.0015716 15.9333333,23.8712051 16.9,25.3094452 C15.3666667,24.7073912 13.7666667,23.1019139 13.7666667,21.2957519 C12.1666667,20.8274877 9.2,20.6602505 7.6,21.2623045 C6.9,21.6971212 6.16666667,22.0984906 5.46666667,22.5333073 C5.2,22.6670971 4.23333333,23.2357037 4.23333333,23.6036256 C4.43333333,23.6036256 4.4,23.9381 4.33333333,24.0718898 C4.63333333,24.4063642 5.23333333,25.2425503 5.7,25.2425503 C6.13333333,25.0418656 6.36666667,24.1722321 6.46666667,23.7708628 C6.53333333,23.7708628 6.56666667,23.7708628 6.6,23.7708628 C6.73333333,24.0049949 7.06666667,24.5067065 7.06666667,24.540154 C7.96666667,24.7742861 9.1,24.4398117 10.1333333,24.4398117 C12.3666667,24.4732591 14.4,25.2759978 16.0666667,26.346316 C17,26.94837 17.1666667,28.0186882 17.7666667,28.8883217 C18.3333333,29.7245078 19.2333333,30.4603516 19.6333333,31.4303275 C20.2666667,33.0023573 19.4666667,37.3505251 18,37.9860265 C16.9666667,37.9525791 16.1,37.9525791 15.2333333,37.9191316 L15.2333333,37.9191316 Z" id="Shape" fill="#ED1C24"></path>
                <path d="M22,0 C34.1251908,0 44,9.88235294 44,22.0168067 C44,34.1512605 34.1251908,44 22,44 C9.87480916,44 0,34.1176471 0,21.9831933 C0,9.8487395 9.90839695,0 22,0 L22,0 Z M22,1.00840336 C33.5541985,1.00840336 42.9587786,10.4201681 42.9587786,21.9831933 C42.9587786,33.5462185 33.5541985,42.9579832 22,42.9579832 C10.4458015,42.9579832 1.04122137,33.5462185 1.04122137,21.9831933 C1.04122137,10.4537815 10.4458015,1.00840336 22,1.00840336 L22,1.00840336 Z" id="Shape" fill="#ED1C24"></path>
            </g>
        </g>
    </g>
</svg>