<?xml version="1.0" encoding="UTF-8"?>
<svg width="128px" height="18px" viewBox="0 0 128 18" version="1.1" xmlns="http://www.w3.org/2000/svg" xmlns:xlink="http://www.w3.org/1999/xlink">
    <title>Honda</title>
    <g id="Marque-Logos-and-Skins" stroke="none" stroke-width="1" fill="none" fill-rule="evenodd">
        <g id="Skin-Honda" transform="translate(-36.000000, -32.000000)" fill="#000000" fill-rule="nonzero">
            <g id="Honda" transform="translate(36.000000, 32.000000)">
                <path d="M37.201414,4.61538362 L38.6855133,4.80769133 C39.3568907,4.88461326 39.4275621,5.5 39.4275621,5.88461566 L39.4275621,7.76922892 L32.6077743,7.76922892 L32.6077743,5.88461566 C32.6077743,5.5 32.6784453,4.88461326 33.3498231,4.80769133 L34.8339224,4.61538362 L34.8339224,3 L26,3 L26,4.61538362 L27.4840993,4.80769133 C28.1554774,4.88461326 28.2261481,5.5 28.2261481,5.88461566 L28.2261481,12.1153843 C28.2261481,12.5 28.1554771,13.1153867 27.4840993,13.1923087 L26,13.3846164 L26,15 L34.8339224,15 L34.8339224,13.3846164 L33.3498231,13.1923087 C32.678445,13.1153867 32.6077743,12.5 32.6077743,12.1153843 L32.6077743,10.2307711 L39.3922271,10.2307711 L39.3922271,12.1153843 C39.3922271,12.5 39.3215554,13.1153867 38.6501769,13.1923087 L37.1660776,13.3846164 L37.1660776,15 L46,15 L46,13.3846164 L44.5159021,13.1923087 C43.8445233,13.1153867 43.7738519,12.5 43.7738519,12.1153843 L43.7738519,5.88461566 C43.7738519,5.5 43.8445236,4.88461326 44.5159021,4.80769133 L46,4.61538362 L46,3 L37.1660776,3 L37.1660776,4.61538362 L37.201414,4.61538362 Z" id="svg_1"></path>
                <path d="M99.4883697,3 L88.1472846,3 L88.1472846,4.62057809 L89.509692,4.77491666 C89.9883697,4.85209173 90.3197683,5.04501783 90.3197683,5.73954716 L90.3197683,12.1061085 C90.3197683,12.4919607 90.246126,13.1093265 89.5465103,13.1864958 L88,13.3794219 L88,15 L99.4883697,15 C103.612399,15 107,13.2636651 107,8.98070913 C107,4.69775316 103.612399,3 99.4883697,3 M98.6414694,12.7234743 L94.7751908,12.7234743 L94.7751908,5.31511321 L98.6414694,5.31511321 C100.924414,5.31511321 101.697672,6.43408228 101.697672,9.01929087 C101.697672,11.5659177 100.924419,12.7234743 98.6414694,12.7234743" id="svg_2"></path>
                <path d="M126.540676,13.2250833 C125.828811,13.1479141 125.61525,12.646305 125.401689,12.2990346 L120.276267,3.81028615 C119.920335,3.1929261 119.635593,3 119.101695,3 L110.701693,3 L110.701693,4.62057809 L112.730505,4.85209173 C113.015252,4.89067347 113.40678,5.31511321 113.086437,5.85530398 L109.277964,12.5305482 C109.135593,12.8006436 108.922032,13.1093265 108.494914,13.1864958 L107,13.3794219 L107,15 L114.083049,15 L114.083049,13.3794219 L112.872881,13.2636651 C112.338983,13.1864958 112.054236,12.8006436 112.338983,12.3376221 L112.908471,11.3344041 L119.742369,11.3344041 L120.240672,12.144696 C120.70339,12.8778129 120.133896,13.1864958 119.635593,13.2250833 L118.389831,13.3794219 L118.389831,15 L128,15 L128,13.3794219 L126.540676,13.2250833 L126.540676,13.2250833 Z M114.083049,9.21221697 L116.183047,5.50803352 L118.425426,9.21221697 L114.083049,9.21221697 Z" id="svg_3"></path>
                <path d="M79.6775939,4.64856329 L81.2076475,4.84025656 C81.8998183,4.91693272 81.972677,5.5303535 81.972677,5.91374004 L81.972677,11.8945667 L75.9617481,3.53674461 C75.7067401,3.15335807 75.4517321,3.03834095 74.7959933,3.03834095 L67,3.03834095 L67,4.64856329 L68.5300535,4.84025656 C69.2222218,4.91693272 69.2950801,5.5303535 69.2950801,5.91374004 L69.2950801,12.1246009 C69.2950801,12.5079875 69.2222215,13.1214082 68.5300535,13.1980844 L67,13.3897777 L67,15 L74.2859715,15 L74.2859715,13.3897777 L72.7559179,13.1980844 C72.0637525,13.1214082 71.9908939,12.5079875 71.9908939,12.1246009 L71.9908939,6.14376852 L78.0018228,14.4632611 C78.2932574,14.8466477 78.5118388,14.961659 79.1675776,14.961659 L79.2404362,14.961659 L84.704917,14.961659 L84.704917,5.87539909 C84.704917,5.49201254 84.7777756,4.87859752 85.4699465,4.80191561 L87,4.61022234 L87,3 L79.7504522,3 L79.6775936,4.64856329 L79.6775936,4.64856329 L79.6775939,4.64856329 Z" id="svg_4"></path>
                <path d="M57.5,3 C49.9372538,3 48,6.20721016 48,8.98198361 C48,11.756757 49.9372538,15 57.5,15 C65.0627432,15 67,11.7927952 67,9.01801639 C67,6.20721016 65.0627432,3 57.5,3 M57.5,12.8738762 C54.556862,12.8738762 53.3647066,11.6846861 53.3647066,9.0180218 C53.3647066,6.35135754 54.5941165,5.16216737 57.5,5.16216737 C60.443138,5.16216737 61.6352934,6.35135754 61.6352934,9.0180218 C61.6352934,11.6846861 60.4431376,12.8738762 57.5,12.8738762" id="svg_5"></path>
                <g id="Group-30">
                    <path d="M15.5844646,2.11874963 C15.1168098,4.30820641 14.9242445,5.32422933 14.5391181,6.89834869 C14.1677429,8.41522763 13.878898,9.83193419 13.3837325,10.5188231 C12.888569,11.220022 12.2145936,11.3631237 11.7606922,11.4203646 C11.5268649,11.4489845 11.348055,11.4632944 10.8391361,11.4632944 C10.3302172,11.4632944 10.1514073,11.4489845 9.91757997,11.4203646 C9.46367858,11.3631236 8.78970522,11.2200218 8.29453968,10.5188231 C7.79937621,9.83193419 7.51052931,8.41522763 7.15291063,6.89834869 C6.76778211,5.30991887 6.57521888,4.30820655 6.10756318,2.11874963 C6.10756318,2.11874963 5.63990735,2.1330598 5.43358872,2.14737012 C5.14474292,2.1616803 4.92466985,2.1903005 4.69084139,2.218921 C4.69084139,2.218921 4.96593289,6.72662644 5.08972434,8.6441903 C5.21351579,10.6476149 5.44734302,14.0391262 5.65366165,16.6006479 C5.65366165,16.6006479 6.05254461,16.6721987 6.71276463,16.7008187 C7.40049339,16.7437496 7.71684794,16.7437496 7.71684794,16.7437496 C8.00569484,15.6132454 8.34955922,14.0534361 8.74844108,13.3808583 C9.07855006,12.8370712 9.57371559,12.7798313 9.8625625,12.7369003 C10.3027085,12.6796594 10.687837,12.6653495 10.8528915,12.6653495 L10.8528915,12.6653495 L10.8528915,12.6653495 C11.0317014,12.6653495 11.4030745,12.6653495 11.8432205,12.7369003 C12.1320674,12.7798313 12.6272309,12.8370712 12.9573419,13.3808583 C13.3562238,14.0534361 13.7138436,15.6132454 13.9889351,16.7437496 C13.9889351,16.7437496 14.2915353,16.7437496 14.9792641,16.7008187 C15.6394841,16.6578889 16.0383659,16.6006479 16.0383659,16.6006479 C16.2446846,14.0391261 16.4785119,10.6619248 16.6023044,8.6441903 C16.7260947,6.74093647 17.0011862,2.218921 17.0011862,2.218921 C16.7673588,2.1903005 16.5335315,2.1616803 16.25844,2.14737012 C16.0521193,2.13305994 15.5844646,2.11874963 15.5844646,2.11874963" id="svg_6"></path>
                    <path d="M20.8736058,4.43258595 C20.5977599,1.53373709 18.7495914,0.924979038 17.1358935,0.635094036 C16.322149,0.490151608 14.8739583,0.374197665 13.949875,0.330715082 C13.1361285,0.272737966 11.2327916,0.243749625 10.6535157,0.243749625 C10.0742398,0.243749625 8.17090295,0.272738111 7.35715848,0.330715082 C6.43307415,0.374197665 4.98488337,0.490151608 4.17113793,0.635094036 C2.55744004,0.924979038 0.709272618,1.53373709 0.433426755,4.43258595 C0.350673272,5.2297693 0.336881116,6.25886025 0.350673272,7.36042256 C0.378257444,9.20119213 0.529973497,10.4332028 0.612727118,11.3028573 C0.667896566,11.897121 0.902364999,13.6654182 1.20579503,14.5785559 C1.61956383,15.8395546 1.99195644,16.2019107 2.4333094,16.5787607 C3.23326282,17.2599897 4.55732283,17.4774033 4.83316869,17.5353816 C6.32273677,17.8107713 9.3294571,17.8687496 10.6673091,17.8687496 C11.991368,17.8687496 15.0118815,17.8252665 16.5014496,17.5353816 C16.7772954,17.4774033 18.1013543,17.2744848 18.9013077,16.5787607 C19.3426607,16.2019107 19.7150522,15.8395546 20.128821,14.5785559 C20.4322531,13.6654182 20.6667217,11.882627 20.72189,11.3028573 C20.8046446,10.4476967 20.9563586,9.20119213 20.9839448,7.36042256 C20.9701517,6.2443663 20.9425675,5.21527477 20.8736061,4.43258595 M19.8529751,9.30265125 C19.687468,11.6217301 19.4943747,13.0131771 19.2185288,14.0132802 C18.9702671,14.8974287 18.6668371,15.4771984 18.2254841,15.8975317 C17.4807011,16.6077499 16.4600702,16.7526923 15.8532101,16.8541515 C14.5567333,17.0570712 12.3637595,17.1295424 10.653516,17.1295424 C8.92947935,17.1295424 6.75029551,17.0570712 5.45382078,16.8541515 C4.84695961,16.7526922 3.82632977,16.6077498 3.08154567,15.8975317 C2.6401927,15.4771984 2.33676156,14.8829347 2.08850097,14.0132802 C1.81265511,13.0131771 1.60577071,11.6217301 1.45405576,9.30265125 C1.35750902,7.91120422 1.37130117,5.65010191 1.52301723,4.43258595 C1.72990273,2.60631106 2.58502449,1.69317376 4.4193999,1.35980632 C5.27452166,1.20036965 6.43307443,1.08441542 7.52266586,1.02643859 C8.4053718,0.968461621 9.83977153,0.939473136 10.653516,0.939473136 C11.4534694,0.924979183 12.9016602,0.968461766 13.7705751,1.02643859 C14.8601654,1.08441556 16.0187193,1.20036965 16.8738411,1.35980632 C18.7082165,1.70766815 19.5633382,2.6208053 19.7840137,4.43258595 C19.9357297,5.63560796 19.9495228,7.89671027 19.8529751,9.30265125" id="svg_7"></path>
                </g>
            </g>
        </g>
    </g>
</svg>