<svg id="Layer_1" xmlns="http://www.w3.org/2000/svg" viewBox="0 0 290.3 43.3">
  <style>
    .st0{fill:#1c305d}
  </style>
  <path class="st0" d="M40 41.3c21.2 0 38.4-8.8 38.4-19.6C78.3 10.8 61.2 2 40 2S1.6 10.8 1.6 21.6c0 10.9 17.2 19.7 38.4 19.7zm7.2-9.7c-.6 1.5-1.7 4.6-4.3 5.9-.8.4-1.7.6-2.6.6h-.4c-7.1 0-13.6-1-19.2-2.7l-.2-.1c-.5-.2-.8-.4-.8-.7 0-.2.1-.4.3-.6.1-.1.2-.2.4-.3 1.3-1.1 5.1-3.8 12.3-6.6 2.5-1 5.7-2.2 9-2.9 2.1-.3 9.3-1.4 5.5 7.4zm19.4-19.8c.1-.2.3-.4.6-.5.2 0 .4 0 .8.3 4.5 2.8 7.2 6.2 7.2 10 0 6.8-8.7 12.6-21.2 15.1-.8.2-1.3.1-1.5 0-.1-.1-.1-.3 0-.6.1-.1.2-.3.3-.5 6.8-8 11.9-19.8 13.4-23.2.2-.2.3-.4.4-.6zm-33.7-.2c.6-1.5 1.7-4.6 4.3-5.9.8-.4 1.7-.6 2.6-.6h.4c7.1 0 13.6 1 19.2 2.7l.2.1c.4.1.6.3.6.6s-.1.4-.3.6l-.3.3c-1.3 1.1-5.1 3.8-12.3 6.6-2.5 1-5.7 2.2-9 2.9-2 .4-9.2 1.5-5.4-7.3zm-7-5.1c.8-.2 1.3-.2 1.5.1.1.1.2.3 0 .6-.1.2-.2.3-.3.5-6.8 8-11.9 19.8-13.4 23.2-.1.2-.2.5-.3.6-.1.2-.3.4-.6.5-.2 0-.4 0-.8-.3-4.5-2.8-7.2-6.2-7.2-10 0-6.9 8.7-12.7 21.1-15.2zM112.4 7.6v10.7h-12.1V7.6h-6.7v28h6.7V24.4h12.1v11.2h6.7v-28h-6.7zM143.6 7.6l-7 11.1-7-11.1h-7.9l11.5 18.3v9.7h6.7v-9.7l11.5-18.3h-7.8zM172.9 7.6v20.6c0 .8-.6 1.4-1.4 1.4h-10.7v-22h-6.7v28.1h19.7c1.8 0 3.2-.5 4.2-1.6 1-1 1.5-2.4 1.5-4.2V7.6h-6.6zM205.5 7.6h-19.7v28.1h6.7v-22h10.7c.9 0 1.4.7 1.4 1.4v20.6h6.7V13.3c0-1.8-.5-3.2-1.5-4.2-1.1-1-2.5-1.5-4.3-1.5zM237.2 7.6h-19.7v28.1h19.7c1.8 0 3.2-.5 4.2-1.6 1-1 1.6-2.4 1.6-4.2V13.3c0-1.8-.5-3.2-1.6-4.2s-2.5-1.5-4.2-1.5zm-1 7.5v13c0 .8-.6 1.5-1.4 1.5h-10.7V13.7h10.7c.8 0 1.4.6 1.4 1.4zM254.5 7.6c-1.8 0-3.2.5-4.2 1.6-1 1-1.5 2.4-1.5 4.2v22.3h6.7V27h12.1v8.7h6.7V7.6h-19.8zm13.1 6.1v7.2h-12.1v-5.8c0-.7.5-1.4 1.4-1.4h10.7zM287.1 7.6h-6.3v28h6.6v-28h-.3z"/>
</svg>
