<?xml version="1.0" encoding="UTF-8"?>
<svg width="51px" height="24px" viewBox="0 0 51 24" version="1.1" xmlns="http://www.w3.org/2000/svg" xmlns:xlink="http://www.w3.org/1999/xlink">
    <title>Infiniti_logo</title>
    <g id="Page-1" stroke="none" stroke-width="1" fill="none" fill-rule="evenodd">
        <g id="Infiniti_logo" fill="#231F20" fill-rule="nonzero">
            <path d="M8.95774648,18.3042254 L8.95774648,22.9859155 L7.36901408,18.4732394 C7.33521127,18.3549296 7.25070423,18.3042254 7.08169014,18.3042254 L5.61126761,18.3042254 L5.61126761,24 L6.62535211,24 L6.62535211,19.3690141 L8.1971831,23.8140845 C8.23098592,23.9323944 8.33239437,23.9830986 8.45070423,23.9830986 L9.97183099,23.9830986 L9.97183099,18.2873239 L8.95774648,18.2873239 L8.95774648,18.3042254 Z M14.1971831,18.3042254 L14.1971831,24 L15.3802817,24 L15.3802817,21.5661972 L17.4929577,21.5661972 L17.4929577,20.5183099 L15.3802817,20.5183099 L15.3802817,19.3352113 L17.5267606,19.3352113 L17.5267606,18.2873239 L14.1971831,18.2873239 L14.1971831,18.3042254 Z M41.2901408,18.3042254 L41.2901408,19.4028169 L42.5915493,19.4028169 L42.5915493,24 L43.7746479,24 L43.7746479,19.3859155 L45.0760563,19.3859155 L45.0760563,18.2873239 L41.2732394,18.2873239 L41.2901408,18.3042254 Z M21.6338028,24 L22.9014085,24 L22.9014085,18.3042254 L21.6338028,18.3042254 L21.6338028,24 Z M36,24 L37.2676056,24 L37.2676056,18.3042254 L36,18.3042254 L36,24 Z M49.0985915,24 L50.3492958,24 L50.3492958,18.3042254 L49.0985915,18.3042254 L49.0985915,24 Z M0,24 L1.26760563,24 L1.26760563,18.3042254 L0,18.3042254 L0,24 Z M31.656338,18.3042254 L30.6422535,18.3042254 L30.6422535,22.9859155 L29.0535211,18.4732394 C29.0197183,18.3549296 28.9352113,18.3042254 28.7830986,18.3042254 L27.2957746,18.3042254 L27.2957746,24 L28.3098592,24 L28.3098592,19.3690141 L29.8816901,23.8140845 C29.915493,23.9323944 30.0169014,23.9830986 30.1352113,23.9830986 L31.656338,23.9830986 L31.656338,18.2873239 L31.656338,18.3042254 Z M30.3380282,8.95774648 L25.1830986,2.02816901 L20.028169,8.95774648 C18.2873239,8.78873239 15.2957746,7.65633803 15.2957746,5.64507042 C15.2957746,3.10985915 19.6901408,0.743661972 25.2,0.743661972 C30.9971831,0.743661972 35.1042254,3.10985915 35.1042254,5.64507042 C35.1042254,7.67323944 32.0957746,8.8056338 30.371831,8.94084507 M25.1830986,0 C18.0507042,0 13.0816901,2.78873239 13.0816901,6.38873239 C13.0816901,8.07887324 14.1633803,9.97183099 16.4619718,11.1211268 C18.6084507,12.1859155 21.6169014,12.5577465 22.0394366,12.6084507 L25.1830986,3.43098592 L28.3267606,12.6084507 C30.2495814,12.3930482 32.1294625,11.8917466 33.9042254,11.1211268 C36.2028169,9.97183099 37.284507,8.07887324 37.284507,6.38873239 C37.2676056,2.77183099 32.315493,0 25.1830986,0" id="Shape"></path>
        </g>
    </g>
</svg>