<?xml version="1.0" encoding="UTF-8"?>
<svg width="133px" height="22px" viewBox="0 0 133 22" version="1.1" xmlns="http://www.w3.org/2000/svg" xmlns:xlink="http://www.w3.org/1999/xlink">
    <title>Isuzu_wordmark</title>
    <g id="Marque-Logos-and-Skins" stroke="none" stroke-width="1" fill="none" fill-rule="evenodd">
        <g id="Skin-Isuzu" transform="translate(-20.000000, -29.000000)" fill="#FF0000">
            <g id="Isuzu_wordmark" transform="translate(20.000000, 29.000000)">
                <polygon id="polygon2395" transform="translate(3.000000, 11.000000) scale(-1, 1) rotate(-180.000000) translate(-3.000000, -11.000000) " points="6 0 6 22 0 22 0 0"></polygon>
                <path d="M61.3142805,22 L61.5928597,22 L61.8642866,21.9927875 L62.3928557,21.9711498 L62.8928557,21.9278746 L63.3714289,21.8773767 L63.8214228,21.8052513 L64.2571423,21.7186907 L64.6642826,21.6249175 L65.049996,21.5095067 L65.4142826,21.3796709 L65.7642846,21.2426225 L66.0857074,21.091149 L66.3857134,20.9252505 L66.6714248,20.7521292 L66.9357094,20.5573805 L67.1857094,20.3626217 L67.4142826,20.1462354 L67.6214289,19.9298389 L67.8142805,19.6990173 L67.9928577,19.4537707 L68.149998,19.2013116 L68.299996,18.9416398 L68.4285671,18.6747556 L68.5428537,18.3934463 L68.6428557,18.112137 L68.7285631,17.8163924 L68.8071383,17.5134455 L68.8642866,17.2032758 L68.9142826,16.8931164 L68.949994,16.5685217 L68.9785631,16.2439371 L68.9928577,15.9049173 L69,15.5731202 L69,15.5731202 L69,0 L62.3285651,0 L62.3285651,13.3298379 L62.3285651,13.3298379 C62.3285651,15.2918008 61.8642866,16.8714787 58.350002,16.8714787 L58.350002,16.8714787 L54.6428557,16.8714787 L54.6428557,16.8714787 C51.1285711,16.8714787 50.6642926,15.2918008 50.6642926,13.3298379 L50.6642926,13.3298379 L50.6642926,0 L44,0 L44,15.5731202 L44,15.5731202 C44,19.2013116 45.6642926,22 51.6857195,22 L51.6857195,22 L61.3142805,22 Z" id="path2397"></path>
                <path d="M125.314288,22 L125.592857,22 L125.864284,21.9927875 L126.392853,21.9711498 L126.892853,21.9278746 L127.371427,21.8773767 L127.828573,21.8052513 L128.25714,21.7186907 L128.671423,21.6249175 L129.057137,21.5095067 L129.421423,21.3796709 L129.764283,21.2426225 L130.085716,21.091149 L130.392855,20.9252505 L130.678566,20.7521292 L130.942851,20.5573805 L131.185709,20.3626217 L131.414282,20.1462354 L131.628571,19.9298389 L131.821422,19.6990173 L131.992857,19.4537707 L132.15714,19.2013116 L132.299996,18.9416398 L132.428567,18.6747556 L132.542854,18.3934463 L132.642856,18.112137 L132.735715,17.8163924 L132.807138,17.5134455 L132.864287,17.2032758 L132.914283,16.8931164 L132.957136,16.5685217 L132.978573,16.2439371 L132.992858,15.9049173 L133,15.5731202 L133,15.5731202 L133,0 L126.335715,0 L126.335715,13.3298379 L126.335715,13.3298379 C126.335715,15.2918008 125.871426,16.8714787 122.349998,16.8714787 L122.349998,16.8714787 L118.650002,16.8714787 L118.650002,16.8714787 C115.128564,16.8714787 114.671428,15.2918008 114.671428,13.3298379 L114.671428,13.3298379 L114.671428,0 L108,0 L108,15.5731202 L108,15.5731202 C108,19.2013116 109.671426,22 115.685712,22 L115.685712,22 L125.314288,22 Z" id="path2399"></path>
                <path d="M13,16.8714787 L13,22 L34.7212642,22 L34.7212642,22 C38.3450588,22 39.6413136,19.3022973 39.9206256,17.902953 C40.1999276,16.5036088 39.8275216,13.423611 37.4140489,12.4931123 L37.4140489,12.4931123 L21.1213004,6.34032931 L21.1213004,6.34032931 C20.4266261,6.01573461 20.799032,5.12852125 21.6297768,5.12852125 L21.6297768,5.12852125 L37.7864549,5.12852125 L37.7864549,0 L21.1141393,0 L21.1141393,0 C17.5906098,0 14.6185332,1.30557107 13.8737213,3.6859018 C13.2005201,5.83541098 13.279302,9.23279091 16.5306906,10.3508157 L16.5306906,10.3508157 L31.1977347,15.8039316 L31.1977347,15.8039316 C32.1215936,16.1790141 31.8924191,16.8714787 31.1046408,16.8714787 L31.1046408,16.8714787 L13,16.8714787 Z" id="path2401"></path>
                <path d="M99.9495998,16.8714787 L99.9495998,22 L79.5406024,22 L79.5406024,22 C75.9915141,22 75.3519776,19.9514765 75.077892,18.5521323 C74.8038063,17.1527881 75.1692572,14.0800028 77.5376552,13.1495041 L77.5376552,13.1495041 L92.1626954,5.48196612 L92.1626954,5.48196612 C92.4789549,5.33770518 92.5000369,5.12852125 92.1837774,5.12852125 L92.1837774,5.12852125 L75.6260633,5.12852125 L75.6260633,0 L92.2048693,0 L92.2048693,0 C95.6696197,0 98.5580797,0.151473471 99.584149,2.47409374 C100.497781,4.52261723 100.040965,7.64590038 96.8503002,8.76393527 L96.8503002,8.76393527 L83.138882,15.9482027 L83.138882,15.9482027 C82.5063729,16.2222995 82.4150077,16.8714787 83.1880832,16.8714787 L83.1880832,16.8714787 L99.9495998,16.8714787 Z" id="path2403"></path>
            </g>
        </g>
    </g>
</svg>