<?xml version="1.0" encoding="UTF-8"?>
<svg width="247px" height="112px" viewBox="0 0 247 112" version="1.1" xmlns="http://www.w3.org/2000/svg" xmlns:xlink="http://www.w3.org/1999/xlink">
    <title>jaguar</title>
    <defs>
        <polygon id="path-1" points="0.0259365994 0.0458315337 246.589625 0.0458315337 246.589625 110.856916 0.0259365994 110.856916"></polygon>
    </defs>
    <g id="Marque-Logos-and-Skins" stroke="none" stroke-width="1" fill="none" fill-rule="evenodd">
        <g id="Group-4" transform="translate(0.000000, 0.342939)">
            <mask id="mask-2" fill="white">
                <use xlink:href="#path-1"></use>
            </mask>
            <g id="Clip-2"></g>
            <path d="M52.085879,9.7184438 C53.7605187,10.2268012 55.260951,11.1363112 56.5733429,12.1979827 C52.5760807,9.96138329 50.2763689,9.51138329 50.128098,9.48674352 L50.0848703,9.48285303 C49.4580692,9.38775216 48.9393372,9.27536023 48.4664265,9.15605187 C49.2402017,8.99567723 49.9582133,8.75533141 50.6118156,8.45706052 C50.6135447,8.47175793 50.6135447,8.48429395 50.6135447,8.49510086 C50.9182997,9.32939481 51.7262248,9.62161383 52.085879,9.7184438 Z M32.9589337,11.1557637 C32.9589337,11.1557637 33.1301153,10.6595101 33.1742075,10.5389049 C33.2221902,10.4191643 33.6951009,9.12492795 34.8700288,9.00302594 C34.8700288,9.00302594 35.55,8.96152738 36.5978386,8.96152738 C36.5978386,8.96152738 36.0855908,10.609366 34.0681556,10.9646974 C34.0681556,10.9646974 33.2770893,11.1445245 32.9589337,11.1557637 Z M235.616282,64.4412104 C235.202161,65.8798271 233.150144,67.8 230.655476,68.9048991 C228.036311,70.0768012 222.573199,70.3841499 219.417147,69.8693084 C219.408069,69.8693084 213.296542,69.2485591 207.941931,63.6536023 C206.25389,61.8881844 204.175504,59.8854467 202.257061,57.9073487 C201.413689,57.0224784 199.336599,54.9462536 195.884438,54.4854467 C192.287464,54.0012968 183.506196,53.7618156 180.20317,52.6664265 C177.995965,51.9306916 175.333573,50.4350144 171.792795,45.1897695 C170.087464,42.6778098 168.876657,41.9883285 166.557493,40.5168588 C166.557493,40.5168588 168.335447,41.9299712 169.343516,43.7157061 C170.797262,46.3067723 171.531268,48.1932277 172.322334,49.573487 C173.114265,50.9597983 174.010375,52.1878963 175.359078,53.2737752 C177.038473,54.6229107 178.087176,54.8753602 179.905764,55.1770893 C181.648271,55.4675793 187.525937,55.4144092 192.568876,55.3396254 C197.530548,55.2605187 199.744236,56.8629683 201.374352,58.2367435 C202.883862,59.5054755 205.469741,63.1391931 207.059222,64.7351585 C208.955187,66.620317 210.341931,68.5495677 214.090634,70.439049 C215.390922,71.1 217.521182,72.7188761 217.412248,74.2815562 C215.728098,75.9682997 213.635879,76.4118156 208.618444,75.0717579 C208.972911,75.4188761 211.599424,78.1772334 216.093804,76.8726225 C214.737752,78.004755 213.409366,78.4867435 212.022622,78.4123919 C207.320317,78.1517291 202.71268,72.3592219 200.130692,70.2185879 C198.167723,68.595389 197.940778,68.1873199 194.607493,65.8798271 C189.544236,62.3744957 178.184438,63.3622478 178.184438,63.3622478 L169.84755,63.795389 C153.611239,65.0221902 146.792507,50.6403458 144.995533,47.639049 C144.368732,46.5976945 143.80634,45.7569164 143.266859,45.0752161 C142.438617,43.970317 138.002161,38.2149856 133.516427,36.325072 C133.516427,36.325072 137.924784,40.1191643 137.664121,42.6285303 C137.664121,42.6285303 135.836455,41.7808357 130.8683,42.4897695 C109.479683,45.5386167 102.200144,40.1848703 102.200144,40.1848703 C103.193084,35.8988473 100.200865,31.4991354 100.200865,31.4991354 C101.850432,32.0230548 112.365562,35.5759366 122.352882,33.5481268 C122.352882,33.5481268 106.101009,33.6350144 94.7057637,24.5451009 C94.7057637,24.5451009 101.797262,33.4305476 100.114409,39.2485591 C100.114409,39.2485591 98.9507205,45.4482709 86.5889049,42.948415 C85.2695965,42.6881844 83.7164265,42.24683 65.2128242,37.1131124 C60.8636888,35.8106628 59.3615274,37.8881844 58.5769452,39.1357349 C58.5436599,40.9651297 56.3883285,43.0997118 55.301585,43.7684438 C49.5760807,42.7370317 51.8567723,37.4243516 51.8567723,37.4243516 C48.2528818,42.5783862 52.0275216,44.8551873 53.221902,45.0177233 C52.5082133,45.3644092 51.831268,45.6142651 51.2580692,45.826513 C51.2580692,45.826513 46.5786744,43.0400576 49.1926513,38.473487 C52.840634,32.107781 56.5551873,30.0661383 63.3652738,29.4436599 C66.3440922,29.1587896 68.8270893,28.9474063 70.7178674,29.2067723 C75.6579251,29.8889049 78.7538905,32.6783862 86.1523055,33.39683 C70.4485591,28.771902 70.4144092,19.6772334 70.3608069,19.5051873 C70.3582133,19.5034582 70.3543228,19.4861671 70.3543228,19.4861671 C69.4841499,22.4883285 69.9631124,25.0162824 70.7291066,27.1512968 C70.5116715,27.0747839 67.0785303,24.8174352 65.7695965,24.0220461 C60.1309798,20.5785303 55.6806916,19.9776657 55.6806916,19.9776657 C53.8106628,19.7403458 52.9396254,17.4682997 52.9396254,17.4682997 C52.8752161,17.3520173 52.8082133,17.2456772 52.7433718,17.1367435 C50.1419308,12.6951009 47.5716138,12.6069164 47.5716138,12.6069164 C48.490634,13.8570605 48.8386167,15.4456772 48.9691643,16.4368876 C49.0439481,17.0074928 49.1165706,18.0501441 49.1139769,18.3635447 C49.0672911,23.1060519 43.573487,24.6017291 43.573487,24.6017291 C39.7435159,29.460951 39.9432277,29.5616715 39.0925072,29.6870317 C38.2365994,29.8067723 36.3695965,28.8553314 36.3695965,28.8553314 C36.2243516,28.7775216 36.185879,28.5661383 36.2100865,28.4273775 C36.2567723,28.1334294 36.4962536,27.9475504 36.4962536,27.9475504 C37.2146974,27.3786744 37.8004323,26.8119597 37.8004323,26.8119597 C41.8469741,22.6733429 42.3324207,20.6528818 41.8327089,17.9697406 C40.8099424,12.5878963 36.9635447,13.2142651 36.9635447,13.2142651 C35.0909222,13.3927954 34.337464,14.9373199 34.337464,14.9373199 C33.6951009,15.9289625 32.3334294,18.9635447 32.3334294,18.9635447 C31.4974063,20.7730548 30.645389,21.1815562 30.20317,21.2632565 C30.0099424,21.2974063 29.6541787,21.2909222 29.5370317,21.287464 C28.2363112,21.2412104 27.2472622,20.0399135 27.2472622,20.0399135 C27.1871758,19.9776657 27.129683,19.9136888 27.0851585,19.8618156 C25.8946686,18.5840058 26.7574928,16.9154179 26.7574928,16.9154179 C28.3608069,13.1788184 31.4762248,12.6363112 31.89683,12.5822767 C32.3334294,12.5273775 33.7659942,12.3190202 33.7659942,12.3190202 C37.7221902,11.6533141 39.5900576,7.53371758 39.5900576,7.53371758 C36.9229107,7.50086455 35.6200288,7.67680115 35.6200288,7.67680115 C32.9961095,8.13587896 32.1030259,11.2275216 32.1030259,11.2227666 C29.8815562,11.7306916 29.9386167,9.82175793 30.3285303,9.23818444 C30.6769452,8.69956772 31.9824207,6.40936599 40.5151297,4.43472622 C40.5151297,4.43472622 44.7229107,3.16815562 53.7159942,3.57492795 C53.7159942,3.57492795 53.7159942,3.57492795 53.3451009,4.26397695 C52.5505764,5.76829971 49.3966859,8.86902017 44.1838617,7.7204611 C44.1838617,7.7204611 44.2288184,10.0361671 49.8829971,10.8657061 C49.8829971,10.8657061 54.9963977,11.7791066 63.6674352,18.7469741 C63.6674352,18.7469741 59.5197406,10.5103746 52.4822767,8.37795389 C52.4822767,8.37795389 51.6038905,8.18904899 52.0340058,7.63832853 C52.0340058,7.63832853 56.1929395,3.73054755 61.9716138,3.73400576 C61.9716138,3.73400576 79.998415,4.12089337 91.44683,16.0979827 C91.44683,16.0979827 90.945389,14.0152738 89.1432277,11.064121 C89.1432277,11.064121 89.1432277,11.064121 88.3871758,9.83429395 C88.3871758,9.83429395 89.0736311,9.91210375 90.9553314,10.220317 C90.9553314,10.220317 97.8363112,11.0779539 114.000865,16.6595101 C114.000865,16.6595101 126.110231,20.6368876 132.738761,23.2668588 C142.69928,27.2338617 167.655908,36.9017291 183.564553,45.5757925 C186.40634,47.1207493 215.182133,62.1263689 215.182133,62.1263689 C223.15072,65.7051873 228.667003,63.5295389 228.667003,63.5295389 C230.460519,62.8482709 233.713833,60.3479827 235.13732,61.7623919 C235.870461,62.4933718 235.968156,63.4789625 235.616282,64.4412104 Z M38.8059078,15.4694524 C37.9742075,14.8867435 37.0430836,14.773487 36.2010086,14.9083573 C36.5727666,14.6325648 37.164121,14.5966859 37.164121,14.5966859 C37.5527378,14.5504323 39.3976945,14.4791066 40.2523055,17.367147 C39.8865994,16.5389049 39.3886167,15.8775216 38.8059078,15.4694524 Z M25.1835735,16.2804035 C27.0030259,13.5976945 29.3753602,11.5768012 29.4017291,11.5560519 C29.4332853,11.5275216 29.468732,11.5028818 29.4903458,11.4717579 C29.5244957,11.4363112 29.5525937,11.3991354 29.5902017,11.364121 C29.7319885,11.5314121 29.9195965,11.7017291 30.1677233,11.842219 C28.7853026,12.4305476 25.1835735,16.2804035 25.1835735,16.2804035 Z M50.9057637,1.56311239 C81.9030259,-0.272334294 126.919452,19.3206052 127.357781,19.5198847 L127.38804,19.5276657 L127.413545,19.5345821 C131.185159,21.0345821 134.769164,22.5004323 138.127522,23.9018732 C137.334726,23.5897695 133.247983,21.9652738 133.241499,21.9652738 C126.660086,19.3517291 114.56196,15.3717579 114.457781,15.3380403 C98.5945245,9.86412104 91.6599424,8.89884726 91.1658501,8.83573487 C89.2876081,8.529683 88.5717579,8.44798271 88.5432277,8.44711816 L85.6845821,8.11772334 C85.6845821,8.11772334 87.2524496,10.6569164 87.2623919,10.6733429 C76.0646974,2.75057637 62.659366,2.35158501 62.0010086,2.33559078 L61.9716138,2.33559078 C59.2720461,2.33559078 56.9122478,3.1037464 55.0837176,3.98386167 C55.2929395,3.59956772 55.9971182,2.28242075 55.9971182,2.28242075 L53.7778098,2.18559078 C49.8095101,2.00619597 46.7416427,2.14495677 44.521902,2.36368876 C48.0674352,1.70835735 50.8309798,1.56311239 50.9057637,1.56311239 Z M237.346254,60.9458213 C236.179539,58.3495677 232.965562,59.1933718 232.965562,59.1933718 C231.445677,59.5097983 229.713112,61.2505764 227.135879,62.0131124 C221.605331,63.6518732 217.188329,61.7463977 217.188329,61.7463977 C208.672478,58.0659942 181.293804,42.3916427 167.372334,35.5443804 C167.372334,35.5443804 151.402305,27.5364553 127.930115,18.2433718 C127.930115,18.2433718 82.5224784,-1.70878963 50.8206052,0.17074928 C50.8206052,0.17074928 34.3863112,0.90129683 29.2456772,8.36757925 C29.2456772,8.36757925 28.3681556,9.3648415 28.8670029,10.4442363 C28.8670029,10.4442363 28.9638329,10.7541787 28.7580692,10.9599424 C28.7580692,10.9599424 25.995389,13.4364553 24.5891931,15.6371758 C24.0951009,16.4368876 23.5461095,17.7804035 24.5597983,18.721902 C24.5597983,18.721902 25.0162824,19.0768012 25.2073487,19.3871758 C25.6089337,20.0425072 25.9811239,21.0177233 26.4791066,21.6 C27.1945245,22.4563401 28.6469741,23.9373199 30.6907781,23.5815562 C31.4446686,23.4501441 31.6067723,23.1661383 31.6067723,23.1661383 C32.6295389,24.182853 34.2912104,24.1512968 34.2912104,24.1512968 C34.0824207,23.4998559 33.3704611,22.2246398 33.2684438,21.4530259 C33.1590778,20.6040346 33.4059078,19.7917867 33.4059078,19.7917867 C33.6951009,18.8278098 34.2682997,17.6148415 34.9007205,17.0023055 C35.45317,16.4524496 36.8710375,15.8243516 38.0131124,16.6132565 C38.9239193,17.2595101 40.0106628,19.3621037 39.1054755,22.3642651 C39.0648415,22.5916427 38.0675793,24.7210375 36.9989914,25.0439481 C36.9989914,25.0439481 36.8987032,25.0763689 36.693804,25.0763689 C35.974928,25.0763689 34.6348703,24.3242075 34.6348703,24.3242075 C34.6348703,24.3242075 34.5994236,24.5148415 34.7904899,25.2925072 C34.9097983,25.7386167 35.0675793,26.2227666 35.1955331,26.6014409 C35.1955331,26.6014409 34.9348703,27.0674352 34.7662824,27.3384726 C34.507781,27.8018732 34.2903458,28.6863112 34.8432277,29.0891931 C34.8432277,29.0891931 37.2146974,30.7024496 39.5157061,30.8433718 C41.1012968,30.9389049 41.7017291,29.8694524 41.7017291,29.8694524 C42.8667147,28.2622478 43.7481268,26.890634 44.9775216,25.7710375 C48.3410663,22.6897695 53.064121,21.8628242 53.064121,21.8628242 C53.3775216,21.8221902 58.535879,20.387464 67.3037464,27.4002882 C64.7995677,27.6012968 61.8190202,28.1982709 59.5426513,28.6028818 C53.0476945,29.760951 48.8792507,35.8897695 47.6662824,38.3827089 C44.509366,44.8880403 50.9628242,47.1306916 50.9628242,47.1306916 C51.0233429,47.0714697 57.1149856,46.5920749 60.0570605,40.1152738 C60.0570605,40.1152738 61.1338617,37.2466859 63.9929395,38.176513 C65.8621037,38.7825648 82.385879,44.5582133 86.1064841,45.5364553 C86.1064841,45.5364553 97.1710375,48.4167147 101.338184,43.3288184 C107.998271,45.5139769 114.248127,46.5721902 130.624063,44.4587896 C133.46585,44.0887608 135.701153,44.173487 135.701153,44.173487 C139.526801,44.4605187 143.017435,47.0334294 144.076081,48.7223343 C148.380692,55.6145533 153.844236,69.3043228 172.807781,67.6378963 L181.383718,66.8602305 C186.617723,66.5494236 190.879107,66.3440922 195.201441,68.6204611 C197.083573,69.6082133 198.129683,69.9704611 201.321182,73.0175793 C205.690202,77.1739193 209.712536,81.6721902 215.056772,79.2181556 C216.954035,78.3449568 219.086455,74.9550432 219.086455,74.9550432 C218.880259,73.4074928 218.19121,71.9191643 216.491499,70.65 C221.348559,71.8041787 232.305476,72.551585 236.546974,65.1384726 C237.642363,63.4110951 237.761239,61.8730548 237.346254,60.9458213 Z M46.5138329,6.09942363 C46.7243516,6.10634006 46.9599424,6.11239193 47.2404899,6.11714697 C48.3782421,6.13573487 49.6608069,5.66714697 50.514121,5.26945245 C51.1223343,4.98458213 51.5161383,4.73688761 51.4646974,4.73688761 C50.6753602,4.72867435 49.4113833,4.71700288 48.9393372,4.71700288 C46.8873199,4.71700288 45.8087896,5.87982709 45.7997118,5.98746398 C45.7919308,6.05403458 46.0742075,6.08170029 46.5138329,6.09942363 L46.5138329,6.09942363 Z" id="Fill-1" fill="#1A1919" mask="url(#mask-2)"></path>
            <path d="M159.000865,90.6142651 L159.000865,100.37853 C159.000865,102.906484 158.723343,104.904035 157.448991,106.573919 C155.376657,109.294236 151.576081,110.856052 140.974496,110.856052 L140.864265,110.856916 C130.320173,110.856916 126.500576,109.291643 124.429971,106.578242 C123.15562,104.906628 122.880259,102.906484 122.880259,100.380259 L122.880259,90.6168588 L130.175793,90.6168588 L130.175793,100.102305 C130.175793,102.647983 130.49611,104.144092 131.429395,105.456916 C133.007205,107.680115 135.731412,108.482853 140.629971,108.482853 L141.249424,108.482853 C146.373199,108.482853 148.87219,107.680115 150.45,105.456052 C151.383285,104.139769 151.704899,102.579683 151.704899,100.109222 L151.704899,90.6142651 L159.000865,90.6142651 Z M231.559798,93.0855908 C234.293948,93.0855908 235.506052,93.3397695 236.338184,93.9626801 C237.128386,94.5544669 237.410663,95.4587896 237.410663,96.8645533 L237.410663,97.232853 C237.410663,98.501585 237.108069,99.5317003 236.176945,100.177522 C235.261383,100.810807 233.979683,100.950865 231.648415,100.950865 L217.187032,100.950865 L217.187032,93.0855908 L231.559798,93.0855908 Z M235.108357,103.288617 C237.850288,103.197406 240.174207,102.783718 241.964697,101.818876 C243.822622,100.818156 244.707925,98.9295389 244.707925,96.9708934 C244.707925,94.3525937 243.537752,92.6753602 241.406196,91.7381844 C239.511527,90.9030259 237.171182,90.6168588 232.50951,90.6168588 L209.892363,90.6168588 L209.892363,110.211095 L217.187032,110.211095 L217.187032,103.419597 L226.770173,103.419597 L237.702017,110.211095 L246.589625,110.211095 L235.108357,103.288617 Z M107.570317,107.591066 L107.570317,101.21196 L114.830403,101.21196 L114.830403,110.207637 L93.7193084,110.207637 C89.760951,110.207637 86.6420749,109.747695 84.2878963,108.79928 C80.3658501,107.217147 78.5723343,104.326513 78.5723343,100.375072 C78.5723343,96.6440922 80.5253602,94.0556196 83.010951,92.6632565 C85.6543228,91.1818444 88.6318444,90.6142651 93.5913545,90.6142651 L114.08732,90.6142651 L114.08732,93.2308357 L95.8634006,93.2308357 C91.957781,93.2308357 89.8301153,93.8208934 88.2086455,95.1397695 C86.7674352,96.3099424 86.0001441,98.0632565 86.0001441,100.410519 C85.9988473,102.836888 86.8067723,104.628674 88.3469741,105.80317 C89.9731988,107.039914 92.1635447,107.589769 95.923487,107.589769 L107.570317,107.591066 Z M31.2864553,90.6142651 L31.2864553,100.169741 C31.2864553,103.260951 30.5770893,105.135303 29.1082133,106.638761 C26.5443804,109.261383 21.6268012,110.208501 14.6693084,110.208501 L0,110.208501 L0,107.57853 L13.5051873,107.57853 C17.6489914,107.57853 20.4492795,106.892939 22.1377522,105.223919 C23.4164265,103.961671 23.9913545,102.201441 23.9913545,99.5848703 L23.9913545,90.6142651 L31.2864553,90.6142651 Z M191.641643,106.036167 L170.027378,106.036167 L166.445101,110.208501 L162.216138,110.208501 L179.212824,90.6142651 L186.403746,90.6142651 L203.415562,110.208501 L195.236023,110.208501 L191.641643,106.036167 Z M172.200432,103.50389 L189.460807,103.50389 L180.817435,93.4690202 L172.200432,103.50389 Z M64.0413545,106.036167 L42.4270893,106.036167 L38.8443804,110.208501 L34.6158501,110.208501 L51.6146974,90.6142651 L58.8021614,90.6142651 L75.8157061,110.208501 L67.6365994,110.208501 L64.0413545,106.036167 Z M44.6014409,103.50389 L61.8605187,103.50389 L53.2180115,93.4690202 L44.6014409,103.50389 L44.6014409,103.50389 Z" id="Fill-3" fill="#1A1919" mask="url(#mask-2)"></path>
        </g>
    </g>
</svg>