<?xml version="1.0" encoding="UTF-8"?>
<svg width="50px" height="20px" viewBox="0 0 50 20" version="1.1" xmlns="http://www.w3.org/2000/svg" xmlns:xlink="http://www.w3.org/1999/xlink">
    <title>jeep-logo</title>
    <g id="Page-1" stroke="none" stroke-width="1" fill="none" fill-rule="evenodd">
        <g id="jeep-logo" transform="translate(0.000000, 0.000000)" fill="#455D22" fill-rule="nonzero">
            <g id="g2993" transform="translate(24.986216, 10.000000) scale(-1, 1) rotate(-180.000000) translate(-24.986216, -10.000000) translate(0.000000, 0.000000)">
                <g id="g3045" transform="translate(37.951015, 0.000000)">
                    <path d="M3.74233141,9.32147433 C3.70166126,7.09082948 4.18631385,5.90930534 6.03612771,5.90930534 C7.88289133,5.90930534 8.14792516,7.92197294 8.14792516,9.45354091 C8.14792516,10.9861196 7.79748406,12.4738899 5.85717905,12.4738899 C4.66689943,12.4738899 3.78808533,11.5544775 3.74233141,9.32147433 Z M1.74244436e-16,8.90582672e-17 L1.74244436e-16,15.0993869 L3.78808533,15.0993869 C3.78808533,15.0993869 3.78808533,14.8807358 3.78808533,14.4868945 C3.78808533,13.669901 4.11954703,14.0068055 4.38661433,14.3251803 C4.43135149,14.3784112 5.27559597,15.4056331 7.17692538,15.4056331 C9.07249315,15.4056331 12.0214178,14.0930531 12.0214178,9.45354091 C12.0214178,5.8648339 10.262095,3.23933698 7.22369601,3.23933698 C5.54944163,3.23933698 4.58149212,3.89461628 4.36017873,4.15908633 C4.13852643,4.41985043 3.83078898,4.46533254 3.83078898,4.15908633 C3.83078898,3.85216631 3.83078898,8.90582672e-17 3.83078898,8.90582672e-17 L1.74244436e-16,8.90582672e-17 L1.74244436e-16,8.90582672e-17 Z" id="path3047"></path>
                </g>
                <g id="g3049" transform="translate(0.000000, 3.632168)">
                    <path d="M8.67257002,16.3678324 L12.7673761,16.3678324 C12.7673761,16.3678324 12.7673761,7.52813157 12.7673761,5.68930668 C12.7673761,3.85250321 11.9739693,2.78791097e-16 6.2953999,2.78791097e-16 C0.616152733,2.78791097e-16 -1.54883943e-16,3.5907284 -1.54883943e-16,5.6023853 L-1.54883943e-16,7.57159226 L3.96262804,7.57159226 C3.96262804,7.57159226 3.96262804,6.82770706 3.96262804,5.64685669 C3.96262804,4.46533254 4.755357,3.37174046 6.25134062,3.37174046 C7.74800203,3.37174046 8.67257002,4.20288392 8.67257002,5.6023853 C8.67257002,7.00289739 8.67257002,16.3678324 8.67257002,16.3678324" id="path3051"></path>
                </g>
                <g id="g3053" transform="translate(13.497750, 3.413554)">
                    <path d="M7.83307042,7.52775822 C7.83307042,8.62303485 7.21793444,9.67316621 5.80905276,9.67316621 C4.44423037,9.67316621 3.95957778,8.71130381 3.95957778,7.52775822 L7.83307042,7.52775822 Z M5.41421337,12.1234728 C8.62986641,12.1234728 11.4462741,10.898488 11.4462741,5.252642 L3.83045006,5.252642 C3.83045006,3.45828851 4.57810294,2.71406642 5.89886601,2.71406642 C7.21996795,2.71406642 7.65988335,3.76520853 7.65988335,3.76520853 L11.4032315,3.76520853 C11.4032315,2.14537158 9.15756155,-0.0428232883 5.76668798,0.000637394877 C1.89353429,0.000637394877 2.47814309e-16,2.84545918 2.47814309e-16,5.77787616 C2.47814309e-16,8.71130381 1.67188198,12.1234728 5.41421337,12.1234728 L5.41421337,12.1234728 Z" id="path3055"></path>
                </g>
                <g id="g3057" transform="translate(25.671678, 3.413554)">
                    <path d="M7.83408718,7.52775822 C7.83408718,8.62303485 7.21827336,9.67316621 5.80939168,9.67316621 C4.44524713,9.67316621 3.95957778,8.71130381 3.95957778,7.52775822 L7.83408718,7.52775822 Z M5.41523012,12.1234728 C8.63054422,12.1234728 11.4462741,10.898488 11.4462741,5.252642 L3.83078898,5.252642 C3.83078898,3.45828851 4.57911969,2.71406642 5.90089949,2.71406642 C7.22064576,2.71406642 7.66123905,3.76520853 7.66123905,3.76520853 L11.4045872,3.76520853 C11.4045872,2.14537158 9.1585783,-0.0428232883 5.76872152,0.000637394877 C1.89353429,0.000637394877 -1.85860732e-16,2.84545918 -1.85860732e-16,5.77787616 C-1.85860732e-16,8.71130381 1.67391549,12.1234728 5.41523012,12.1234728 L5.41523012,12.1234728 Z" id="path3059"></path>
                </g>
                <g id="g3061" transform="translate(47.339040, 0.598006)">
                    <path d="M0.126077458,1.21218247 C0.126077458,1.810188 0.615813815,2.29600432 1.21942659,2.29600432 C1.82100585,2.29600432 2.30972546,1.810188 2.30972546,1.21218247 C2.30972546,0.615187659 1.82100585,0.126339196 1.21942659,0.126339196 C0.615813815,0.126339196 0.126077458,0.615187659 0.126077458,1.21218247 Z M3.09767886e-17,1.21218247 C3.09767886e-17,0.54309009 0.544979979,3.09767886e-17 1.21942659,3.09767886e-17 C1.88946727,3.09767886e-17 2.43749751,0.54309009 2.43749751,1.21218247 C2.43749751,1.88127485 1.88946727,2.42436494 1.21942659,2.42436494 C0.544979979,2.42436494 3.09767886e-17,1.88127485 3.09767886e-17,1.21218247 L3.09767886e-17,1.21218247 Z" id="path3063"></path>
                </g>
                <g id="g3065" transform="translate(48.119567, 1.190284)">
                    <path d="M1,0 L0.726973683,0.594299579 C0.813596489,0.621925748 0.842470756,0.641466211 0.888523389,0.686948323 C0.948464908,0.746243519 0.986111107,0.839902975 0.986111107,0.924802916 C0.986111107,1.13907419 0.807383041,1.28495385 0.548245611,1.28495385 L3.34061015e-17,1.28495385 L3.34061015e-17,0 L0.162646198,0 L0.162646198,0.556566271 L0.558845031,0.556566271 L0.819078948,0 L1,0 Z M0.158260234,0.686948323 L0.158260234,1.14513847 L0.544956138,1.14513847 C0.706505844,1.14513847 0.809210524,1.06023853 0.809210524,0.928845769 C0.809210524,0.779597067 0.700292396,0.686948323 0.52229532,0.686948323 L0.158260234,0.686948323 L0.158260234,0.686948323 Z" id="path3067"></path>
                </g>
            </g>
        </g>
    </g>
</svg>