<svg xmlns="http://www.w3.org/2000/svg" viewBox="0 0 1204.03 131.34"><defs><style>.cls-1{fill:#05141f;}.cls-2{isolation:isolate;}</style></defs><g id="Layer_2" data-name="Layer 2"><g id="Layer_1-2" data-name="Layer 1"><g id="Page-1"><g id="Group-8"><g id="Kia_Logo_B" data-name="Kia Logo B"><path id="Path" class="cls-1" d="M262.45,96.66a2.1,2.1,0,0,0,1.09-.39L404,5a13.48,13.48,0,0,1,8.1-2.49h30.92A7.52,7.52,0,0,1,451,10.43V69.34c0,7.08-1.56,11.21-7.94,15L405.6,106.85a2.53,2.53,0,0,1-1.25.47c-.47,0-.86-.31-.86-1.63V36.89c0-.78-.23-1.33-.78-1.33a2.13,2.13,0,0,0-1.09.39L298.9,102.65a13.38,13.38,0,0,1-7.86,2.41H222.89A7.51,7.51,0,0,1,215,97.13V12.29c0-.62-.31-1.16-.78-1.16a2,2,0,0,0-1.09.39l-67.76,40.7c-.7.39-.85.78-.85,1.09s.07.54.62,1l48.36,48.33c.63.62,1.09,1.17,1.09,1.64s-.7.85-1.55.85H149.22c-3.43,0-6.08-.54-7.95-2.41L111.91,73.39a1.2,1.2,0,0,0-.85-.47,2.71,2.71,0,0,0-.94.31l-49.06,29.5a13.61,13.61,0,0,1-8,2.33H7.94A7.51,7.51,0,0,1,0,97.13V39.3c0-7.16,1.56-11.21,7.94-15L45.64,1.63a1.91,1.91,0,0,1,1-.31c.54,0,.86.62.86,1.87V80.55c0,.78.23,1.17.78,1.17a2.62,2.62,0,0,0,1.09-.47L176.71,4.74a14.07,14.07,0,0,1,8.41-2.33h68.53a7.52,7.52,0,0,1,8,7.94l.08,85C261.68,96.19,261.91,96.66,262.45,96.66Z"/></g><g id="MyService" class="cls-2"><g class="cls-2"><path class="cls-1" d="M543,102.3H525.82V2h23.76l28,69L606.08,2h21V102.3H609.91V29.57L580.08,102.3h-7.53L543,29.83Z"/><path class="cls-1" d="M670.5,102,642.12,30.23h18.21l18.88,51.61,19.4-51.61H715L674.72,131.34H657.43Z"/><path class="cls-1" d="M727.78,72.73a39.4,39.4,0,0,0,13,12.21,32.27,32.27,0,0,0,16.7,4.82q8.32,0,12.87-4a12.62,12.62,0,0,0,4.56-9.83,10.67,10.67,0,0,0-3.11-7.52q-3.09-3.3-10.75-7.4L746.39,53.2q-9.37-5-13.92-10.89T727.91,26.8a25.22,25.22,0,0,1,14.52-23Q749.83,0,760.52,0q15.57,0,28.91,10V30a42.93,42.93,0,0,0-13.6-11.81,32.52,32.52,0,0,0-15.31-3.89q-6.35,0-10,3.36a10.59,10.59,0,0,0-3.7,8.12,10.28,10.28,0,0,0,2.38,6.73q2.37,2.91,8.84,6.21l15.58,8q10.29,5.42,15.24,12.08t4.95,16.69a25.9,25.9,0,0,1-4.49,15.18,29.07,29.07,0,0,1-12.73,10,47.86,47.86,0,0,1-19.08,3.56,45.34,45.34,0,0,1-17.69-3.37q-8-3.36-12-7.45Z"/><path class="cls-1" d="M806.58,64.81A40.69,40.69,0,0,1,810.87,46a32.05,32.05,0,0,1,12-13.07,33.53,33.53,0,0,1,17.75-4.68q15.71,0,24.35,10t8.65,27.39v6.6H823.35q.92,9.12,6.2,14.06t14.26,4.95a33.78,33.78,0,0,0,13.07-2.51,36.36,36.36,0,0,0,11.88-8.44V96.49a35.1,35.1,0,0,1-11.42,5.74,48,48,0,0,1-14.19,2q-11.62,0-19.87-4.69a30.53,30.53,0,0,1-12.47-13,41.62,41.62,0,0,1-4.23-19.14Zm50.16-5.54q0-8.58-4.42-13.4t-11.81-4.82a15.57,15.57,0,0,0-11.68,5q-4.83,5-5.35,13.2Z"/><path class="cls-1" d="M891.06,102.3V30.23h16l.79,11.88A19.39,19.39,0,0,1,916,32a24.48,24.48,0,0,1,13.52-3.76,20.54,20.54,0,0,1,5.68.66V44.09A18.3,18.3,0,0,0,928.81,43a21.42,21.42,0,0,0-13.06,4.29,20,20,0,0,0-7.66,11.42V102.3Z"/><path class="cls-1" d="M971.19,102.3,944,30.23h18.22l19,54.25,19.14-54.25h16.1L989.14,102.3Z"/><path class="cls-1" d="M1047.61,19.27h-17V1.19h17Zm0,83h-17V30.23h17Z"/><path class="cls-1" d="M1065,64.94a36.74,36.74,0,0,1,4.75-18.34,34.88,34.88,0,0,1,13.46-13.4,39.93,39.93,0,0,1,20.07-5A36.86,36.86,0,0,1,1114.93,30a33.75,33.75,0,0,1,9.24,4.55V52a23,23,0,0,0-8.78-7.72,24.22,24.22,0,0,0-10.89-2.58,20.8,20.8,0,0,0-10.75,2.91,21.34,21.34,0,0,0-7.92,8.18,24.35,24.35,0,0,0-3,12.14v2.64a23.56,23.56,0,0,0,3,11.82,22.17,22.17,0,0,0,8,8.31,20.45,20.45,0,0,0,10.56,3q11.22,0,19.67-9.9v16.9a30.44,30.44,0,0,1-9.11,4.75,37.93,37.93,0,0,1-12.27,1.85,38.71,38.71,0,0,1-19.6-5A35.09,35.09,0,0,1,1069.79,86,36.41,36.41,0,0,1,1065,67.72Z"/><path class="cls-1" d="M1137,64.81A40.69,40.69,0,0,1,1141.26,46a32.05,32.05,0,0,1,12-13.07A33.53,33.53,0,0,1,1171,28.25q15.71,0,24.35,10T1204,65.6v6.6h-50.29q.91,9.12,6.2,14.06t14.26,4.95a33.78,33.78,0,0,0,13.07-2.51,36.36,36.36,0,0,0,11.88-8.44V96.49a35.1,35.1,0,0,1-11.42,5.74,48,48,0,0,1-14.19,2q-11.62,0-19.87-4.69a30.53,30.53,0,0,1-12.47-13A41.62,41.62,0,0,1,1137,67.45Zm50.16-5.54q0-8.58-4.42-13.4t-11.81-4.82a15.57,15.57,0,0,0-11.68,5q-4.83,5-5.35,13.2Z"/></g></g></g></g></g></g></svg>