<?xml version="1.0" encoding="utf-8"?>
<!-- Generator: Adobe Illustrator 25.2.3, SVG Export Plug-In . SVG Version: 6.00 Build 0)  -->
<svg version="1.1" id="Layer_1" xmlns="http://www.w3.org/2000/svg" xmlns:xlink="http://www.w3.org/1999/xlink" x="0px" y="0px"
	 viewBox="0 0 196 77" style="enable-background:new 0 0 196 77;" xml:space="preserve">
<style type="text/css">
	.st0{enable-background:new    ;}
	.st1{fill:#05141F;}
</style>
<g>
	<g>
		<g class="st0">
			<path class="st1" d="M3.6,72.3H2V58.6h2.1l4.5,10.7l4.6-10.7h1.9v13.7h-1.6V61.5L8.9,72.3H8.2L3.6,61.5V72.3z"/>
			<path class="st1" d="M17.3,67.2c0-1,0.2-1.9,0.6-2.6c0.4-0.8,0.9-1.4,1.6-1.8c0.7-0.4,1.5-0.6,2.4-0.6c0.9,0,1.7,0.2,2.4,0.6
				c0.7,0.4,1.2,1,1.6,1.8c0.4,0.8,0.6,1.6,0.6,2.6v0.3c0,1-0.2,1.9-0.6,2.6c-0.4,0.8-0.9,1.4-1.6,1.8s-1.5,0.6-2.4,0.6
				c-0.9,0-1.7-0.2-2.4-0.6s-1.2-1-1.6-1.8c-0.4-0.8-0.6-1.6-0.6-2.6V67.2z M18.9,67.5c0,1.1,0.3,2.1,0.8,2.7c0.5,0.7,1.2,1,2.2,1
				c0.9,0,1.6-0.3,2.2-1c0.5-0.7,0.8-1.6,0.8-2.7v-0.3c0-1.1-0.3-2.1-0.8-2.7c-0.5-0.7-1.3-1-2.2-1c-0.9,0-1.6,0.3-2.2,1
				c-0.5,0.7-0.8,1.6-0.8,2.7V67.5z"/>
			<path class="st1" d="M30.8,72.3L27,62.4h1.7l3,8.1l3-8.1h1.5l-3.7,9.8H30.8z"/>
			<path class="st1" d="M36.9,67.1c0-0.9,0.2-1.8,0.6-2.6c0.4-0.8,0.9-1.3,1.6-1.8c0.7-0.4,1.4-0.6,2.3-0.6c1.3,0,2.4,0.4,3.1,1.3
				c0.8,0.9,1.1,2.1,1.1,3.8v0.6h-7.1c0.1,1,0.4,1.8,0.9,2.4c0.5,0.6,1.2,1,2.1,1c1.4,0,2.5-0.5,3.5-1.5v1.6
				c-0.4,0.4-0.9,0.6-1.5,0.8c-0.6,0.2-1.2,0.3-2,0.3c-1,0-1.8-0.2-2.5-0.6c-0.7-0.4-1.2-1-1.6-1.8c-0.4-0.8-0.5-1.6-0.5-2.6V67.1z
				 M44,66.6c0-1.1-0.3-1.9-0.7-2.4c-0.5-0.5-1.1-0.8-1.9-0.8c-0.5,0-1,0.1-1.4,0.4s-0.8,0.6-1,1.1c-0.3,0.5-0.4,1-0.4,1.7H44z"/>
			<path class="st1" d="M47.5,72.3v-9.8h1.4l0.1,1.8c0.4-0.6,0.8-1.1,1.4-1.5c0.5-0.4,1.2-0.6,1.9-0.6c0.7,0,1.3,0.2,1.8,0.6
				c0.5,0.4,0.8,0.9,1,1.6c0.4-0.7,0.9-1.2,1.4-1.6c0.6-0.4,1.2-0.6,1.9-0.6c0.9,0,1.6,0.3,2.1,0.9c0.5,0.6,0.8,1.4,0.8,2.5v6.7
				h-1.6v-6.6c0-0.8-0.1-1.4-0.4-1.7c-0.3-0.4-0.7-0.6-1.3-0.6c-0.4,0-0.8,0.1-1.2,0.4c-0.4,0.2-0.7,0.6-1.1,1
				c-0.3,0.4-0.5,0.8-0.7,1.3v6.2h-1.6v-6.6c0-0.8-0.1-1.3-0.4-1.7s-0.7-0.5-1.3-0.5c-0.4,0-0.7,0.1-1.1,0.4s-0.7,0.6-1,1
				c-0.3,0.4-0.5,0.8-0.7,1.3v6.2H47.5z"/>
			<path class="st1" d="M62.9,67.1c0-0.9,0.2-1.8,0.6-2.6c0.4-0.8,0.9-1.3,1.6-1.8c0.7-0.4,1.4-0.6,2.3-0.6c1.3,0,2.4,0.4,3.1,1.3
				c0.8,0.9,1.1,2.1,1.1,3.8v0.6h-7.1c0.1,1,0.4,1.8,0.9,2.4c0.5,0.6,1.2,1,2.1,1c1.4,0,2.5-0.5,3.5-1.5v1.6
				c-0.4,0.4-0.9,0.6-1.5,0.8c-0.6,0.2-1.2,0.3-2,0.3c-1,0-1.8-0.2-2.5-0.6c-0.7-0.4-1.2-1-1.6-1.8c-0.4-0.8-0.5-1.6-0.5-2.6V67.1z
				 M69.9,66.6c0-1.1-0.3-1.9-0.7-2.4c-0.5-0.5-1.1-0.8-1.9-0.8c-0.5,0-1,0.1-1.4,0.4s-0.8,0.6-1,1.1c-0.3,0.5-0.4,1-0.4,1.7H69.9z"
				/>
			<path class="st1" d="M73.4,72.3v-9.8h1.4l0.1,2c0.4-0.6,0.8-1.2,1.4-1.6c0.6-0.4,1.3-0.7,2.1-0.7c1,0,1.8,0.3,2.4,0.9
				s0.8,1.5,0.8,2.7v6.5h-1.6v-6.3c0-0.8-0.1-1.4-0.4-1.9c-0.3-0.4-0.8-0.6-1.4-0.6c-0.4,0-0.9,0.1-1.3,0.4S76,64.5,75.7,65
				s-0.6,1-0.7,1.5v5.8H73.4z"/>
			<path class="st1" d="M85,63.7h-2.2v-1.3H85v-3h1.6v3h2.2v1.3h-2.2v8.5H85V63.7z"/>
			<path class="st1" d="M95.7,63.7h-2.2v-1.3h2.2v-3h1.6v3h2.2v1.3h-2.2v8.5h-1.6V63.7z"/>
			<path class="st1" d="M100.8,72.3V58.5h1.6v5.9c0.4-0.6,0.8-1.1,1.4-1.6c0.6-0.4,1.3-0.6,2-0.6c1,0,1.8,0.3,2.4,0.9
				s0.8,1.5,0.8,2.7v6.5h-1.6v-6.3c0-0.8-0.1-1.4-0.4-1.9c-0.3-0.4-0.8-0.6-1.4-0.6c-0.4,0-0.9,0.1-1.3,0.4s-0.8,0.6-1.2,1.1
				s-0.6,0.9-0.7,1.5v5.8H100.8z"/>
			<path class="st1" d="M111.3,68c0.3-0.4,0.7-0.7,1.3-0.9c0.6-0.2,1.3-0.4,2.3-0.6l2.4-0.4c0-0.9-0.2-1.5-0.7-1.9
				c-0.4-0.4-1.1-0.6-1.9-0.6c-0.6,0-1.2,0.1-1.8,0.4c-0.6,0.3-1,0.7-1.4,1.2v-1.6c0.4-0.4,0.8-0.7,1.4-0.9s1.2-0.4,1.9-0.4
				c1.2,0,2.2,0.3,3,0.9s1.1,1.6,1.1,2.8v6.3h-1.2l-0.3-1.5c-0.5,0.6-1,1-1.6,1.3c-0.6,0.3-1.3,0.5-2,0.5c-0.9,0-1.6-0.3-2.2-0.8
				s-0.8-1.2-0.8-2.1C110.8,69,111,68.4,111.3,68z M112.8,70.8c0.3,0.3,0.7,0.4,1.2,0.4c0.6,0,1.2-0.2,1.8-0.6
				c0.6-0.4,1.1-0.9,1.4-1.6v-1.9l-1.6,0.3c-0.9,0.2-1.6,0.3-2,0.5c-0.5,0.1-0.8,0.4-1,0.6c-0.2,0.3-0.3,0.6-0.3,1
				C112.4,70.1,112.5,70.5,112.8,70.8z"/>
			<path class="st1" d="M122.3,63.7h-2.2v-1.3h2.2v-3h1.6v3h2.2v1.3h-2.2v8.5h-1.6V63.7z"/>
			<path class="st1" d="M133.7,60.8h-1.6v-2h1.6V60.8z M133.7,72.3h-1.6v-9.8h1.6V72.3z"/>
			<path class="st1" d="M136.2,72.3v-9.8h1.4l0.1,2c0.4-0.6,0.8-1.2,1.4-1.6c0.6-0.4,1.3-0.7,2.1-0.7c1,0,1.8,0.3,2.4,0.9
				c0.6,0.6,0.8,1.5,0.8,2.7v6.5h-1.6v-6.3c0-0.8-0.1-1.4-0.4-1.9c-0.3-0.4-0.8-0.6-1.4-0.6c-0.4,0-0.9,0.1-1.3,0.4
				s-0.8,0.7-1.2,1.1s-0.6,1-0.7,1.5v5.8H136.2z"/>
			<path class="st1" d="M146.5,69.8c0.8,1,1.8,1.5,3.1,1.5c0.7,0,1.2-0.1,1.6-0.4c0.4-0.3,0.6-0.6,0.6-1.1c0-0.3-0.1-0.6-0.3-0.9
				c-0.2-0.2-0.6-0.5-1.1-0.7l-1.3-0.5c-0.8-0.3-1.4-0.7-1.8-1.2c-0.4-0.4-0.6-1-0.6-1.6c0-0.5,0.1-0.9,0.4-1.3s0.6-0.7,1.1-1
				s1.1-0.4,1.8-0.4c0.6,0,1.1,0.1,1.7,0.3s1,0.5,1.3,0.8V65c-0.4-0.5-0.9-0.9-1.4-1.1c-0.5-0.3-1-0.4-1.6-0.4c-0.6,0-1,0.1-1.3,0.4
				s-0.4,0.6-0.4,0.9c0,0.3,0.1,0.6,0.4,0.8c0.2,0.2,0.6,0.4,1.2,0.7l1.3,0.5c0.8,0.3,1.4,0.7,1.8,1.2s0.6,1,0.6,1.7
				c0,0.9-0.3,1.6-1,2.1c-0.7,0.5-1.6,0.8-2.7,0.8c-0.7,0-1.3-0.1-1.8-0.3c-0.5-0.2-1-0.5-1.3-0.8V69.8z"/>
			<path class="st1" d="M155.2,76.2V62.4h1.4l0.1,1.6c0.3-0.6,0.8-1,1.3-1.3c0.6-0.3,1.2-0.5,1.8-0.5c0.8,0,1.6,0.2,2.2,0.6
				c0.7,0.4,1.2,1,1.5,1.8s0.6,1.7,0.6,2.7c0,1-0.2,2-0.6,2.7s-0.9,1.4-1.5,1.8s-1.4,0.6-2.2,0.6c-0.6,0-1.2-0.2-1.8-0.5
				c-0.6-0.3-1-0.7-1.4-1.3v5.4H155.2z M156.8,68.9c0.2,0.7,0.6,1.2,1.2,1.7c0.5,0.4,1.1,0.7,1.7,0.7c0.6,0,1-0.2,1.5-0.5
				c0.4-0.3,0.8-0.8,1.1-1.4c0.3-0.6,0.4-1.3,0.4-2.1s-0.1-1.5-0.4-2.1c-0.3-0.6-0.6-1-1-1.4c-0.4-0.3-0.9-0.5-1.5-0.5
				c-0.6,0-1.2,0.2-1.7,0.7c-0.5,0.4-0.9,1-1.2,1.7V68.9z"/>
			<path class="st1" d="M167.7,60.8h-1.6v-2h1.6V60.8z M167.7,72.3h-1.6v-9.8h1.6V72.3z"/>
			<path class="st1" d="M170.2,72.3v-9.8h1.4l0.1,1.7c0.3-0.6,0.7-1.1,1.2-1.4c0.5-0.4,1.1-0.5,1.8-0.5c0.2,0,0.3,0,0.5,0
				c0.2,0,0.3,0.1,0.4,0.1v1.4c-0.3-0.1-0.6-0.1-1-0.1c-0.6,0-1.2,0.2-1.7,0.6s-0.9,1-1.1,1.7v6.4H170.2z"/>
			<path class="st1" d="M176.3,67.1c0-0.9,0.2-1.8,0.6-2.6c0.4-0.8,0.9-1.3,1.6-1.8c0.7-0.4,1.4-0.6,2.3-0.6c1.3,0,2.4,0.4,3.1,1.3
				c0.8,0.9,1.1,2.1,1.1,3.8v0.6h-7.1c0.1,1,0.4,1.8,0.9,2.4c0.5,0.6,1.2,1,2.1,1c1.4,0,2.5-0.5,3.5-1.5v1.6
				c-0.4,0.4-0.9,0.6-1.5,0.8c-0.6,0.2-1.2,0.3-2,0.3c-1,0-1.8-0.2-2.5-0.6s-1.2-1-1.6-1.8c-0.4-0.8-0.5-1.6-0.5-2.6V67.1z
				 M183.3,66.6c0-1.1-0.3-1.9-0.7-2.4c-0.5-0.5-1.1-0.8-1.9-0.8c-0.5,0-1,0.1-1.4,0.4s-0.8,0.6-1,1.1c-0.3,0.5-0.4,1-0.4,1.7H183.3
				z"/>
			<path class="st1" d="M186.4,69.8c0.8,1,1.8,1.5,3.1,1.5c0.7,0,1.2-0.1,1.6-0.4c0.4-0.3,0.6-0.6,0.6-1.1c0-0.3-0.1-0.6-0.3-0.9
				c-0.2-0.2-0.6-0.5-1.1-0.7l-1.3-0.5c-0.8-0.3-1.4-0.7-1.8-1.2c-0.4-0.4-0.6-1-0.6-1.6c0-0.5,0.1-0.9,0.4-1.3s0.6-0.7,1.1-1
				s1.1-0.4,1.8-0.4c0.6,0,1.1,0.1,1.7,0.3s1,0.5,1.3,0.8V65c-0.4-0.5-0.9-0.9-1.4-1.1c-0.5-0.3-1-0.4-1.6-0.4c-0.6,0-1,0.1-1.3,0.4
				s-0.4,0.6-0.4,0.9c0,0.3,0.1,0.6,0.4,0.8c0.2,0.2,0.6,0.4,1.2,0.7l1.3,0.5c0.8,0.3,1.4,0.7,1.8,1.2s0.6,1,0.6,1.7
				c0,0.9-0.3,1.6-1,2.1c-0.7,0.5-1.6,0.8-2.7,0.8c-0.7,0-1.3-0.1-1.8-0.3c-0.5-0.2-1-0.5-1.3-0.8V69.8z"/>
		</g>
		<path class="st1" d="M114.1,40.8c0,0.4,0.1,0.6,0.4,0.6c0.1,0,0.3-0.1,0.4-0.2l60.8-39.6c1.1-0.7,2-1.1,3.5-1.1h13.4
			c2,0,3.4,1.4,3.4,3.5v25.5c0,3.1-0.7,4.9-3.4,6.5l-16.2,9.8c-0.2,0.1-0.4,0.2-0.6,0.2s-0.3-0.1-0.3-0.7V15.4
			c0-0.3-0.1-0.5-0.4-0.5c-0.1,0-0.3,0-0.4,0.1l-44.5,29c-1.2,0.8-2.2,1-3.4,1H97.4c-2.1,0-3.5-1.4-3.5-3.4V4.8
			c0-0.3-0.1-0.5-0.3-0.5c-0.2,0-0.3,0-0.5,0.1L63.8,22.1c-0.3,0.2-0.3,0.3-0.3,0.5c0,0.1,0,0.2,0.2,0.4l20.9,21
			c0.3,0.2,0.5,0.5,0.5,0.7s-0.3,0.4-0.7,0.4H65.5c-1.5,0-2.6-0.3-3.4-1.1L49.4,31.3c-0.1-0.2-0.2-0.2-0.4-0.2c-0.1,0-0.3,0-0.4,0.1
			L27.4,44c-1.3,0.8-2.2,1-3.4,1H4.4c-2,0-3.4-1.4-3.4-3.4V16.5c0-3.1,0.7-4.9,3.4-6.5l16.3-9.9C20.9,0,21,0,21.2,0
			c0.2,0,0.3,0.3,0.3,0.8v33.6c0,0.3,0.1,0.5,0.4,0.5c0.1,0,0.3-0.1,0.4-0.2L77.4,1.5c1.3-0.8,2.1-1,3.6-1h29.7c2,0,3.4,1.4,3.4,3.4
			V40.8L114.1,40.8z"/>
	</g>
</g>
</svg>
