<?xml version="1.0" encoding="UTF-8"?>
<svg width="93px" height="22px" viewBox="0 0 93 22" version="1.1" xmlns="http://www.w3.org/2000/svg" xmlns:xlink="http://www.w3.org/1999/xlink">
    <title>Kia_Logo_B</title>
    <g id="Marque-Logos-and-Skins" stroke="none" stroke-width="1" fill="none" fill-rule="evenodd">
        <g id="Skin-Kia" transform="translate(-23.000000, -31.000000)" fill="#05141F" fill-rule="nonzero">
            <g id="Kia_Logo_B" transform="translate(23.000000, 31.000000)">
                <path d="M53.9595925,19.5124816 C53.9595925,19.6901615 54.0077707,19.7870778 54.1201865,19.7870778 C54.2004835,19.7870778 54.2647211,19.7547724 54.3450181,19.7063142 L83.3161803,0.75917768 C83.8300812,0.419970631 84.2958038,0.242290749 84.9863581,0.242290749 L91.3619409,0.242290749 C92.3415645,0.242290749 93,0.904552129 93,1.88986784 L93,14.1174743 C93,15.5873715 92.6788119,16.4434655 91.3619409,17.2349486 L83.6373683,21.9030837 C83.5410119,21.9676946 83.4446555,22 83.3804179,22 C83.2840615,22 83.2037645,21.9353891 83.2037645,21.660793 L83.2037645,7.38179148 C83.2037645,7.22026432 83.1555863,7.1071953 83.0431704,7.1071953 C82.9628734,7.1071953 82.8986358,7.13950073 82.8183388,7.18795888 L61.6359869,21.030837 C61.041789,21.4185022 60.5600069,21.5315712 60.0139872,21.5315712 L45.96201,21.5315712 C44.9823865,21.5315712 44.323951,20.8693098 44.323951,19.8839941 L44.323951,2.27753304 C44.323951,2.14831131 44.2597133,2.03524229 44.1633569,2.03524229 C44.0830599,2.03524229 44.0188223,2.06754772 43.9385253,2.11600587 L29.9668451,10.5638767 C29.8223105,10.6446402 29.7901917,10.7254038 29.7901917,10.7900147 C29.7901917,10.8546256 29.8062511,10.9030837 29.9186669,11 L39.8915559,21.030837 C40.0200311,21.1600587 40.1163875,21.2731278 40.1163875,21.3700441 C40.1163875,21.4831131 39.9718529,21.5477239 39.7951994,21.5477239 L30.7698152,21.5477239 C30.0632015,21.5477239 29.5171818,21.4346549 29.1317562,21.0469897 L23.0773614,14.9574156 C23.0131238,14.8928047 22.9649456,14.8604993 22.900708,14.8604993 C22.8525298,14.8604993 22.7722328,14.8928047 22.7079952,14.9251101 L12.5905716,21.0469897 C11.9803143,21.4185022 11.5627698,21.5315712 10.9525125,21.5315712 L1.63805906,21.5315712 C0.658435503,21.5315712 0,20.8693098 0,19.8839941 L0,7.8825257 C0,6.39647577 0.32118805,5.55653451 1.63805906,4.7650514 L9.41080988,0.0646108664 C9.49110689,0.0161527166 9.5553445,0 9.61958211,0 C9.73199793,0 9.79623554,0.129221733 9.79623554,0.387665198 L9.79623554,16.4434655 C9.79623554,16.6049927 9.84441375,16.6857562 9.95682956,16.6857562 C10.0210672,16.6857562 10.1013642,16.6372981 10.1816612,16.5888399 L36.4387843,0.71071953 C37.065101,0.339207048 37.4505267,0.226138032 38.1731998,0.226138032 L52.305474,0.226138032 C53.2850976,0.226138032 53.9435331,0.888399413 53.9435331,1.87371512 L53.9595925,19.5124816 L53.9595925,19.5124816 Z" id="Path"></path>
            </g>
        </g>
    </g>
</svg>