<?xml version="1.0" encoding="UTF-8"?>
<svg width="67px" height="30px" viewBox="0 0 67 30" version="1.1" xmlns="http://www.w3.org/2000/svg" xmlns:xlink="http://www.w3.org/1999/xlink">
    <title>lexus-franchise-logo</title>
    <g id="Marque-Logos-and-Skins" stroke="none" stroke-width="1" fill="none" fill-rule="evenodd">
        <g id="Skin-Lexus" transform="translate(-23.000000, -23.000000)" fill="#000000" fill-rule="nonzero">
            <g id="lexus-franchise-logo" transform="translate(23.000000, 23.000000)">
                <path d="M34.1364632,1.53836396 C32.7712791,3.21907033 28.8773976,8.64520959 28.433646,9.34778747 C27.57931,10.6939511 27.5038266,11.3462905 27.4786653,11.7809297 C27.4538854,12.2075764 27.4538854,12.9767583 28.1488673,13.6039785 C29.3131433,14.6407186 30.9459507,14.4732569 32.3950054,14.4732569 L44.3294053,14.4732569 C44.8402532,14.4732569 44.9912203,14.3225414 45.267612,13.9548868 C46.2222114,12.4998731 46.6495701,10.9196438 46.6495701,9.50649549 C46.6495701,6.4796255 44.6816617,2.66720796 39.6982252,0.944636151 L39.1366737,1.74731046 C43.0896459,3.6198366 44.7232158,6.06972496 44.7232158,9.4977418 C44.7483769,10.4176393 44.5051523,11.412514 43.9020467,12.3324114 L32.2939793,12.3324114 C31.5989974,12.3324114 31.4983528,11.5464833 31.7495831,11.1030904 C32.7447637,9.33493253 33.8553976,7.63406001 35.0742886,6.01149396 C36.2469516,4.44801076 37.4024591,2.98462397 38.6170575,1.4546331 C38.9437715,1.02836699 38.725708,0.618466457 38.0726613,0.484877703 C36.7158643,0.20057343 35.3007391,0 33.58368,0 C24.0617023,0 20.5772616,5.45963159 20.5772616,9.50649549 C20.5772616,13.8962752 24.0864823,18.9882523 33.6088411,18.9882523 C38.8934491,18.9882523 42.3527286,17.2904191 44.3541852,15.1084696 L42.3355732,15.1084696 C40.5849658,16.7221911 37.5782062,17.868162 33.6088411,17.868162 C25.5435427,17.868162 22.5707125,13.3444129 22.5707125,9.4478839 C22.6290406,5.96962854 25.8199344,1.17032883 33.8101304,1.01162083 C34.1116833,1.00324774 34.3465208,1.27917893 34.1364632,1.53836396 L34.1364632,1.53836396 Z M62.7794044,26.5963413 C63.2567042,26.6633259 63.6253534,27.0393534 63.6253534,27.483127 C63.6253534,27.9839897 63.1732149,28.3855171 62.6200503,28.3855171 L52.3863167,28.3855171 L52.3863167,21.7049376 L49.3707887,21.7049376 L49.3707887,28.4026439 L43.8265632,28.4026439 C42.3275674,28.4026439 42.0180088,27.4911194 42.0180088,26.6549529 L42.0180088,21.6634527 L37.0181795,21.6634527 C36.5237244,21.9979956 36.0464247,22.3660307 35.5355767,22.6750736 L32.5707523,24.4977419 L28.7184248,21.688572 L22.7212983,21.688572 L22.7212983,23.3692784 L24.890496,23.3692784 L24.890496,22.4490003 L29.9909699,26.103471 L26.5069105,28.2850401 L22.7212983,28.2850401 L22.7212983,29.9657464 L27.1012478,29.9657464 C27.5701605,29.6483304 28.0142932,29.3137877 28.4999801,29.0211103 L31.5482938,27.1733229 L35.4173954,29.9326347 L39.8232686,29.9326347 L34.001889,25.5596011 L36.9922559,23.6120979 C37.6289097,23.1934436 38.2991117,22.8429159 38.9521584,22.4585151 L38.9521584,26.8562874 C38.9521584,28.712448 39.4294582,30 43.1731352,30 L64.3203354,29.9501421 C65.9531428,29.9745001 67,28.8464173 67,27.4838881 C67,26.1285903 65.7937887,25.016873 64.3203354,25.016873 L56.6823956,25.016873 C56.7830404,24.088983 57.5862917,23.3118086 58.3986924,23.3118086 L66.1288898,23.3118086 L66.104491,21.6980869 L57.9049997,21.6980869 C55.3084434,21.6980869 53.2318844,23.8469249 53.173175,26.3470517 C53.1651692,26.5225059 53.2818255,26.6309753 53.4747279,26.6309753 L62.7794044,26.5963413 L62.7794044,26.5963413 Z M22.7216794,26.5716026 L22.7216794,24.8574039 L24.2122881,24.8574039 L24.2122881,26.5716026 L22.7216794,26.5716026 Z M22.7216794,21.688572 L17.0600352,21.688572 C15.5274912,21.688572 14.3464412,22.0900994 13.4757122,22.77517 C11.9096201,24.0128641 11.4071591,25.3167817 11.4239333,25.902517 L13.4673252,25.902517 C12.5710538,26.5716026 11.9679482,27.3735157 11.6500026,28.3021669 L4.94950696,28.3021669 C3.74367698,28.3021669 2.96444321,27.4496346 2.96444321,26.6214604 L2.96444321,21.6299604 L0,21.6299604 L0,26.8140414 C0,28.6781944 1.77576857,29.9657464 4.62279299,29.9657464 L22.7216794,29.9657464 L22.7216794,28.2850401 L15.5358783,28.2850401 C15.5694265,27.4325079 16.4820907,26.5716026 17.3112656,26.5716026 L22.7216794,26.5716026 L22.7216794,24.8574039 L15.4520078,24.8574039 C15.3517442,24.35578 16.2895696,23.3692784 17.0097128,23.3692784 L22.7216794,23.3692784 L22.7216794,21.688572 L22.7216794,21.688572 Z" id="Shape"></path>
            </g>
        </g>
    </g>
</svg>