<?xml version="1.0" encoding="UTF-8"?>
<svg width="108px" height="44px" viewBox="0 0 108 44" version="1.1" xmlns="http://www.w3.org/2000/svg" xmlns:xlink="http://www.w3.org/1999/xlink">
    <title>maserati_logo_original (1)</title>
    <g id="Marque-Logos-and-Skins" stroke="none" stroke-width="1" fill="none" fill-rule="evenodd">
        <g id="Skin-Template" transform="translate(-25.000000, -16.000000)" fill="#231F20" fill-rule="nonzero">
            <g id="maserati_logo_original-(1)" transform="translate(25.000000, 16.000000)">
                <g id="Group" transform="translate(0.000000, 34.000000)">
                    <path d="M102.34199,3.54154912 C101.571315,3.54202105 100.800629,3.54237368 100.029952,3.54272456 C100.084392,3.43502105 100.138712,3.3272 100.19302,3.2193807 C100.570023,2.4708614 100.966323,2.23044035 101.824192,2.23008596 C102.217159,2.22985088 102.610115,2.22961754 103.002961,2.22938246 C102.782717,2.66677018 102.562355,3.10415965 102.34199,3.54154912 Z" id="Path"></path>
                    <path d="M99.8462722,8.61134912 C100.554537,7.20651053 101.262803,5.80155088 101.971068,4.39671404 C101.200393,4.39706491 100.429707,4.39730351 99.6590301,4.39765439 C99.0477305,5.61034211 98.4365395,6.82303158 97.8252399,8.03559825 C97.6187002,8.44527193 97.3362739,8.61252456 96.8506422,8.61287544 C94.9777799,8.61369474 93.1049265,8.6145193 91.2320748,8.61534386 C91.9895338,7.1127807 92.7469821,5.61022632 93.5044428,4.10778772 C93.8247473,3.47295789 93.9457678,3.42762281 94.6940513,3.42762281 C94.9179885,3.42750175 95.1419346,3.42738772 95.3658718,3.42738772 C96.021478,3.42703684 96.3303491,3.25321053 96.5897858,2.73842105 C96.6943643,2.53064386 96.799062,2.32275789 96.9037704,2.11498246 C96.1052074,2.11533509 95.3065465,2.11580702 94.5079941,2.1162807 C94.8515178,1.43411579 95.1950503,0.752075439 95.5385846,0.0700350877 C95.0349683,0.0702701754 94.5313431,0.0705070175 94.0277269,0.0707438596 C93.3696119,0.0709789474 93.0608617,0.243277193 92.8038022,0.753601754 C92.5748706,1.20814035 92.3459267,1.66268246 92.1169844,2.11709825 C91.6976936,2.11733684 91.2784152,2.11745088 90.8591243,2.11757193 C90.6387669,2.5549614 90.4183971,2.99222982 90.198038,3.42950351 C90.6174427,3.42938772 91.0368474,3.42926842 91.4562504,3.42902982 C91.1980076,3.94135263 89.3900699,7.52774211 89.1317079,8.04006491 C88.9254012,8.44926842 88.6438112,8.6161614 88.1596029,8.61652105 C86.4955649,8.61722281 84.831397,8.61781053 83.1673536,8.61839825 C84.0520231,7.02364035 84.9368171,5.42888246 85.8214865,3.83424035 C85.2103008,3.83377368 84.5999567,3.83424035 83.9887763,3.83424035 C83.5607921,3.83412456 83.3773576,3.97154211 83.1099339,4.28702281 C83.1081529,3.94230351 82.9826042,3.83412632 82.6469395,3.83388947 C82.223245,3.83342281 81.8000291,3.83248421 81.3757386,3.83283509 C79.2899081,3.83424035 78.1243532,4.46894737 77.2184859,6.10164386 C76.8583975,6.75045088 76.4984319,7.39925088 76.1383435,8.04793684 C75.9127338,8.45478947 75.6313841,8.62074386 75.1675463,8.62074386 C74.0955048,8.62110175 73.0233495,8.62133333 71.9513081,8.62156842 C70.786118,8.6219193 70.3302637,8.45655088 70.2012615,7.85437719 C70.0622529,7.20569123 70.3574185,6.67915789 71.9168833,5.65955789 C72.211097,5.46705614 72.5054317,5.27467193 72.7997717,5.08228596 C73.210597,4.81355439 73.3764081,4.67367193 73.3214954,4.38238596 C73.2724203,4.12199825 73.1125607,3.83482807 71.8382657,3.83494912 C69.8218826,3.83530175 67.8054923,3.8355386 65.7889829,3.83576842 C65.1489752,3.83576842 64.8508241,4.00313509 64.5616118,4.52474211 C63.9093327,5.70078246 63.2569415,6.87682632 62.6046625,8.05286842 C62.38001,8.45760351 62.098783,8.62274211 61.6337514,8.62274211 C58.3973792,8.62285789 55.1611281,8.6229807 51.924877,8.62309298 C52.0630547,8.22270175 52.2012271,7.82230877 52.3392803,7.42180351 C53.9554371,7.42180351 55.5716011,7.42180351 57.187644,7.42168246 C58.1440187,7.42168246 58.5407915,7.17773684 58.8855197,6.37718421 C59.0398885,6.01884386 59.1942644,5.66049825 59.3485141,5.30215614 C59.4647715,5.03224737 59.5619715,4.64911754 59.3655468,4.35643509 C59.1370867,4.01605965 58.5509172,3.8362386 57.6704183,3.83635439 C56.1186967,3.83635439 54.5668541,3.83647719 53.015024,3.83647719 C51.5267929,3.83647719 50.8477131,4.24555789 50.3252778,5.4583614 C50.0030677,6.20641228 49.6807366,6.95457895 49.3585319,7.70274386 C49.0285785,8.46887895 48.5049422,8.62285614 47.7665531,8.62285614 C46.6565089,8.62274035 45.5464753,8.62274035 44.4365555,8.62262632 C44.5063552,8.51914737 44.5761584,8.41567368 44.6459599,8.31220175 C45.3047901,7.33605965 45.1782878,6.24998421 44.2990984,5.33233684 C43.4357443,4.43137018 42.2897344,4.11283509 41.2741554,3.8355386 C40.410924,3.83541579 39.5476909,3.83530351 38.6845841,3.8351807 C38.0907922,4.90563509 37.4969968,5.97597544 36.9033224,7.04631053 C36.1603981,8.3852614 35.3531559,8.6209807 33.9288939,8.62086842 C32.8841318,8.62086842 31.8394836,8.62051579 30.7947232,8.62027895 C31.6798677,7.02493158 32.5648948,5.42958772 33.4499308,3.83424211 C32.8364837,3.83377544 32.223871,3.83424211 31.6103065,3.83424211 C31.1823222,3.83412632 30.9988877,3.97154386 30.7314712,4.28702456 C30.7296848,3.94230526 30.6041344,3.83412807 30.2684679,3.83389123 C29.8470401,3.83342456 29.4260857,3.83248596 29.0040565,3.83283684 C26.9183399,3.83424211 25.7527975,4.46894912 24.846802,6.10164561 C24.4867155,6.75045263 24.1267516,7.39925263 23.7666615,8.0479386 C23.5393864,8.45784561 23.2673278,8.61781404 22.7956347,8.61757544 C21.2035332,8.61710877 19.6115545,8.61652281 18.0194495,8.61593509 C19.3691488,6.18257368 20.7188534,3.74920877 22.068551,1.31573158 C22.3055887,0.888442105 21.9919599,0.366840351 21.4979836,0.366840351 C15.1762845,0.366840351 8.85469404,0.366840351 2.53311064,0.366840351 C1.2459517,0.366840351 0.609397562,0.68854386 -1.77924221e-06,1.71048596 C2.73310636,1.71177544 5.46609173,1.71306667 8.19919987,1.71435614 C6.67559743,4.46014561 5.15210353,7.20592807 3.62849397,9.95171228 C4.41525707,9.95171228 5.20201483,9.95171228 5.98877081,9.95171228 C7.51214016,7.20627719 9.03550952,4.46084737 10.5588807,1.7154193 C11.653321,1.71588596 12.7477524,1.71647193 13.8421874,1.71694561 C12.3191721,4.46190351 10.7961604,7.20674386 9.27314689,9.95171228 C10.05991,9.95171228 10.8466677,9.95171228 11.6334219,9.95171228 C13.156197,7.20710351 14.6789686,4.46249298 16.2018664,1.71788596 C17.2962996,1.71823684 18.3907311,1.71871053 19.4852888,1.7190614 C18.2282631,3.98493509 16.9711164,6.25081228 15.7140836,8.51680702 C15.5418441,8.82734737 15.3744921,9.26121053 15.5564944,9.56364912 C15.7090822,9.81746491 16.0927544,9.95171228 16.6657006,9.95171228 C18.738911,9.95171228 20.8121142,9.95171228 22.8853245,9.95171228 C23.1906158,9.95171228 23.3212851,9.85352281 23.5113954,9.62942281 C23.5127031,9.87513684 23.7217516,9.95171228 23.9604637,9.95171228 C27.5258337,9.95171228 31.0912019,9.95171228 34.656563,9.95171228 C36.7782524,9.95171228 37.9061567,9.34037544 38.8184631,7.69605439 C39.2881421,6.84934737 39.7579297,6.0026386 40.2277261,5.15581053 C40.2438016,5.15886491 40.3564881,5.18000526 40.3725636,5.18305965 C42.0579383,5.49935614 42.9127058,6.11551053 42.9853647,7.06662807 C43.0151439,7.45586667 42.8913904,7.81009825 42.6277868,8.09139825 C42.3133182,8.4267193 41.8301828,8.6202807 41.3021464,8.62215965 C40.2247459,8.62603509 39.7929541,9.03829298 39.3741436,9.95171228 C42.3926511,9.95171228 45.411276,9.95171228 48.4299044,9.95171228 C48.7352011,9.95171228 48.8658704,9.85352281 49.0559788,9.62942281 C49.0571727,9.87513684 49.2662159,9.95171228 49.5049261,9.95171228 C53.9697333,9.95171228 58.4345458,9.95171228 62.8993548,9.95171228 C63.8030888,9.95171228 64.1948602,9.71657193 64.6460671,8.90345789 C65.1688654,7.96102982 65.6916654,7.01859123 66.2145829,6.0761614 C66.5725273,5.43111579 67.0163504,5.17976842 67.7977491,5.17976842 C68.5846225,5.1795386 69.3716186,5.17941754 70.1584974,5.17930175 C69.7613652,5.45272807 69.3149267,5.80226667 68.9753245,6.14381053 C68.5274519,6.59694386 68.0950586,7.22319123 68.0165603,8.03348772 C67.9617685,8.5991386 68.1022041,9.08209825 68.422868,9.42987368 C68.7375697,9.77130351 69.1998577,9.95171228 69.7595806,9.95171228 C71.5949187,9.95171228 73.4302444,9.95171228 75.2654633,9.95171228 C75.5707546,9.95171228 75.7014239,9.85352105 75.8915324,9.62942105 C75.8927263,9.87513509 76.101894,9.95171228 76.3404797,9.95171228 C80.2024476,9.95171228 84.0644101,9.95171228 87.9263763,9.95171228 C88.2315537,9.95171228 88.3623422,9.85352105 88.5524507,9.62942105 C88.5536445,9.87513509 88.762693,9.95171228 89.001398,9.95171228 C94.7128703,9.95171228 100.42446,9.95171228 106.135943,9.95171228 C107.168064,9.95171228 107.691835,9.62061053 107.88694,8.8449614 C107.906846,8.76591754 107.926729,8.68675439 107.946625,8.60771404 C105.246496,8.60899825 102.54639,8.61017368 99.8462722,8.61134912 Z M52.9094811,5.77770877 C53.1428376,5.1182193 53.6830244,5.0630193 54.1705671,5.0630193 C55.0508329,5.0630193 55.9310934,5.0630193 56.8114784,5.0630193 C56.7506052,5.23942632 56.6898565,5.41572456 56.6289869,5.59201754 C56.4149387,6.21263333 55.9299031,6.26466316 55.4920316,6.26466316 C54.5737736,6.26466316 53.6555049,6.26466316 52.7372416,6.26466316 C52.7946559,6.10234912 52.8520721,5.94002632 52.9094811,5.77770877 Z M28.8970885,7.71695614 C28.5321232,8.37468246 28.1034255,8.61968421 27.3139277,8.61921471 C26.8786735,8.6188614 26.4434246,8.61863333 26.0081792,8.61827368 C26.4789258,7.76992456 26.9496688,6.92145614 27.4204154,6.0731 C27.7780039,5.42840877 28.2215903,5.17706667 29.0020335,5.17706667 C29.436802,5.17706667 29.8715777,5.17706667 30.3063462,5.17706667 C29.8365551,6.02377368 29.3667586,6.87036316 28.8970885,7.71695614 Z M81.2687705,7.71695614 C80.9037946,8.37468246 80.4749866,8.61968421 79.6856044,8.61921471 C79.2503555,8.6188614 78.8151066,8.61863333 78.3798577,8.61827368 C78.8506007,7.76992456 79.3213491,6.92145614 79.7920885,6.0731 C80.1497998,5.42840877 80.593388,5.17706667 81.3737067,5.17706667 C81.8084823,5.17706667 82.2432544,5.17706667 82.6780246,5.17706667 C82.2082371,6.02377368 81.7384442,6.87036316 81.2687705,7.71695614 Z" id="Shape"></path>
                </g>
                <g id="Group" transform="translate(44.000000, 0.000000)">
                    <path d="M7.9892648,29.4642947 C7.9892648,29.0625681 7.9892648,28.6607801 7.9892648,28.2589939 C8.99095296,28.2589939 9.99263408,28.2589939 10.9942624,28.2589939 L10.9943803,28.2589939 C11.9960685,28.2589939 12.9977496,28.2589939 13.9994378,28.2589939 C13.9994378,28.6607801 13.9994378,29.0625699 13.9994378,29.4642947 C12.9977496,29.4642947 11.9960685,29.4642947 10.9943803,29.4642947 L10.9942624,29.4642947 C9.99263584,29.4642947 8.99095296,29.4642947 7.9892648,29.4642947 Z" id="Path"></path>
                    <path d="M10.9943821,31.9608515 C11.6259053,31.9608515 12.2573686,31.9608515 12.8888954,31.9608515 C12.8888954,31.3365279 12.8888954,30.7122007 12.8888954,30.0879403 C12.2573669,30.0879403 11.6259035,30.0879403 10.9943821,30.0879403 L10.9942642,30.0879403 C10.3628008,30.0879403 9.7312776,30.0879403 9.09981424,30.0879403 C9.09981424,30.7122007 9.09981424,31.3365279 9.09981424,31.9608515 C9.7312776,31.9608515 10.3628008,31.9608515 10.9942642,31.9608515" id="Path"></path>
                    <path d="M9.09981424,27.6354079 C9.09428256,26.6012692 8.8321992,25.5918897 8.02719632,24.9047069 C9.01619664,24.9047069 10.0052621,24.9047069 10.9942642,24.9047069 L10.9943821,24.9047069 C11.9834475,24.9047069 12.9724478,24.9047069 13.961508,24.9047069 C13.1565051,25.5918897 12.8943637,26.6012692 12.8888954,27.6354079 C12.2573669,27.6354079 11.6259035,27.6354079 10.9943821,27.6354079 L10.9942642,27.6354079 C10.3628008,27.6354079 9.7312776,27.6354079 9.09981424,27.6354079 Z" id="Path"></path>
                    <path d="M4.08122528,22.9158979 C4.08122528,22.6192651 4.08122528,22.3226938 4.08122528,22.0260592 C6.38556864,22.0260592 8.68991376,22.0260592 10.9942642,22.0260592 L10.9943821,22.0260592 C13.2987254,22.0260592 15.6031357,22.0260592 17.907479,22.0260592 C17.907479,22.3226938 17.907479,22.6192651 17.907479,22.9158979 C15.6031357,22.9158979 13.2987254,22.9158979 10.9943821,22.9158979 L10.9942642,22.9158979 C8.68991376,22.9158979 6.3855704,22.9158979 4.08122528,22.9158979 Z" id="Path"></path>
                    <path d="M4.6998248,26.1235923 C5.50699248,25.9459471 6.3780552,25.4808081 6.95553936,24.9047069 C6.15414448,24.9047069 5.3528112,24.9047069 4.55141104,24.9047069 C4.60088464,25.311002 4.6503512,25.717299 4.6998248,26.1235923 Z" id="Path"></path>
                    <path d="M17.2888795,26.1235923 C16.4817118,25.9459471 15.6106491,25.4808081 15.033165,24.9047069 C15.8345598,24.9047069 16.6359002,24.9047069 17.4372933,24.9047069 C17.3878197,25.311002 17.3383531,25.717299 17.2888795,26.1235923 Z" id="Path"></path>
                    <path d="M3.84811504,20.0743611 C3.09036112,15.4642007 1.62768672,10.6639223 0.01755776,7.50648768 C1.74580032,8.47023548 3.60352608,9.99909243 5.590728,12.0931218 C4.76636688,11.8647195 3.94200576,11.6854056 3.11765168,11.5551186 C4.26696864,14.3467046 5.21647632,17.1960823 6.07960496,20.0743611 C5.33579552,20.0743611 4.59192448,20.0743611 3.84811504,20.0743611 Z" id="Path"></path>
                    <path d="M18.1405312,20.0743611 C18.8982851,15.4642007 20.360963,10.6639223 21.9710885,7.50648768 C20.2428424,8.47023548 18.3851202,9.99909243 16.3979182,12.0931218 C17.2222794,11.8647195 18.0466405,11.6854056 18.8709946,11.5551186 C17.7216776,14.3467046 16.7721699,17.1960823 15.9090413,20.0743611 C16.6528507,20.0743611 17.39672,20.0743611 18.1405312,20.0743611 Z" id="Path"></path>
                    <path d="M3.34829616,21.5621532 C3.34829616,21.2616913 3.34829616,20.9612927 3.34829616,20.6608307 C5.89698736,20.6608307 8.44562576,20.6608307 10.9942624,20.6608307 L10.9943803,20.6608307 C13.5430768,20.6608307 16.0917152,20.6608307 18.6403466,20.6608307 C18.6403466,20.9612927 18.6403466,21.2616913 18.6403466,21.5621532 C16.0917134,21.5621532 13.5430768,21.5621532 10.9943803,21.5621532 L10.9942624,21.5621532 C8.44562576,21.5621532 5.89698912,21.5621532 3.34829616,21.5621532 Z" id="Path"></path>
                    <path d="M8.41761536,7.01924158 C9.59812832,4.93262463 10.6112987,2.56079548 10.9943222,0.104005424 C11.3773458,2.56079729 12.390576,4.93262463 13.5710291,7.01924158 C13.1507358,6.82430554 12.7053168,6.61881311 12.2119272,6.3938061 C11.7845974,6.19893333 11.6029426,6.31390554 11.6174274,6.76632588 C11.7595298,11.1980981 12.3938197,16.2369663 14.645569,20.0743593 C13.7613362,20.0743593 12.8771685,20.0743593 11.992941,20.0743593 C11.5773962,19.0534942 11.244559,18.0459064 10.9943205,17.0516556 C10.74414,18.0459064 10.4112448,19.0534942 9.9957,20.0743593 C9.11153232,20.0743593 8.22729952,20.0743593 7.34313184,20.0743593 C9.59482304,16.2369645 10.229171,11.1980981 10.3712154,6.76632588 C10.38576,6.31390554 10.2040453,6.19893333 9.77671552,6.3938061 C9.28338752,6.61881311 8.83796848,6.82430554 8.41761536,7.01924158 Z" id="Path"></path>
                    <path d="M3.34829616,24.2811227 C3.34829616,23.9806608 3.34829616,23.680264 3.34829616,23.379802 C5.89698736,23.379802 8.44562576,23.379802 10.9942624,23.379802 L10.9943803,23.379802 C13.5430768,23.379802 16.0917152,23.379802 18.6403466,23.379802 C18.6403466,23.680264 18.6403466,23.9806608 18.6403466,24.2811227 C16.0917134,24.2811227 13.5430768,24.2811227 10.9943803,24.2811227 L10.9942624,24.2811227 C8.44562576,24.2811227 5.89698912,24.2811227 3.34829616,24.2811227 Z" id="Path"></path>
                </g>
            </g>
        </g>
    </g>
</svg>