<?xml version="1.0" encoding="UTF-8"?>
<svg width="152px" height="23px" viewBox="0 0 152 23" version="1.1" xmlns="http://www.w3.org/2000/svg" xmlns:xlink="http://www.w3.org/1999/xlink">
    <title>mclaren-logo</title>
    <g id="Marque-Logos-and-Skins" stroke="none" stroke-width="1" fill="none" fill-rule="evenodd">
        <g id="mclaren-logo" fill="#333333" fill-rule="nonzero">
            <path d="M135.028221,22.007362 C135.028221,22.007362 135.028221,17.9142515 135.028221,16.2721054 C135.028221,12.7182071 133.202487,11.7133117 127.953503,11.7133117 C127.902788,11.7133117 117.607679,11.7133117 117.607679,11.7133117 L117.607679,22.007362 L124.149891,22.007362 L124.149891,15.0466233 C124.149891,15.0466233 125.443119,15.0466233 125.899552,15.0466233 C127.852073,15.0466233 128.511366,16.1495572 128.511366,17.3260201 C128.511366,17.9387612 128.511366,22.007362 128.511366,22.007362 L135.028221,22.007362 L135.028221,22.007362 Z M116.365165,15.1201522 C116.365165,14.997604 116.365165,14.8505461 116.365165,14.7034882 C116.365165,13.0123228 115.350869,11.7133117 110.811892,11.7133117 C109.594736,11.7133117 105.53755,11.7133117 104.117535,11.7133117 C99.8828473,11.7133117 98.1331859,13.1103614 98.1331859,16.1495572 C98.1331859,16.7377886 98.1331859,17.399549 98.1331859,17.9632708 C98.1331859,20.5367834 99.8828473,22.007362 103.635744,22.007362 L115.579086,22.007362 L115.579086,18.9926758 L105.943269,18.9926758 C105.005045,18.9926758 104.650041,18.7230698 104.650041,18.0122901 L104.650041,17.9142515 C105.410763,17.9142515 110.330101,17.9142515 112.130477,17.9142515 C114.767648,17.9142515 116.365165,17.056414 116.365165,15.1201522 L116.365165,15.1201522 Z M110.177957,15.3652486 C110.177957,15.8309318 109.975097,16.0760283 109.214375,16.0760283 L104.624683,16.0760283 L104.624683,15.7083836 C104.624683,15.1201522 104.878258,14.7279979 105.613622,14.7279979 C106.348987,14.7279979 109.189018,14.7279979 109.189018,14.7279979 C109.772238,14.7034882 110.177957,14.924075 110.177957,15.3652486 L110.177957,15.3652486 Z M93.3406348,14.8260365 L97.4231784,14.8260365 L97.4231784,11.7133117 C97.4231784,11.7133117 92.3263385,11.7133117 89.0298747,11.7133117 C87.685932,11.7133117 86.8491375,12.3995818 86.8491375,13.5270254 C86.8491375,14.0662375 86.8491375,22.007362 86.8491375,22.007362 L93.3406348,22.007362 L93.3406348,14.8260365 L93.3406348,14.8260365 Z M85.4291223,18.0122901 C85.4291223,17.4240586 85.4291223,16.3211247 85.4291223,15.7819125 C85.4291223,13.2084 83.6794608,11.7378214 79.9265638,11.7378214 L68.2621541,11.7378214 L68.2621541,14.7279979 L77.6443966,14.7279979 C78.582621,14.7279979 78.9376247,15.0221136 78.9376247,15.7083836 L78.9376247,15.8064222 C78.1769024,15.8064222 73.2575643,15.8064222 71.4571881,15.8064222 C68.2875114,15.8064222 67.2478575,17.1054333 67.2478575,18.772089 C67.2478575,18.8946373 67.2478575,18.9436565 67.2478575,19.0907143 C67.2478575,19.8505133 67.4760742,20.4877641 67.9325077,20.904428 C68.8453745,21.7622656 70.5950361,22.007362 72.9786328,22.007362 C74.1957885,22.007362 78.0501152,22.007362 79.4701303,22.007362 C83.6794608,22.007362 85.4291223,21.0514858 85.4291223,18.0122901 L85.4291223,18.0122901 Z M78.9122672,18.0122901 C78.9122672,18.6005215 78.6586932,18.9926758 77.9233282,18.9926758 C77.1879632,18.9926758 74.3986479,18.9926758 74.3986479,18.9926758 C73.7900699,18.9926758 73.4350662,18.8211083 73.4350662,18.3554251 C73.4350662,17.8897419 73.6632829,17.5956262 74.3986479,17.5956262 L78.9122672,17.5956262 L78.9122672,18.0122901 L78.9122672,18.0122901 Z M66.2589185,22.007362 L66.2589185,18.8946373 L61.2381509,18.8946373 L61.2381509,10.0711656 L54.7212958,10.0711656 L54.7212958,22.007362 L66.2589185,22.007362 M42.7525972,22.007362 C44.3754716,22.007362 53.2759233,22.007362 53.2759233,22.007362 L53.2759233,18.8946373 C53.2759233,18.8946373 45.4151255,18.8946373 44.6544032,18.8946373 C43.8176086,18.8946373 42.980814,18.4534637 42.980814,16.9093561 L42.980814,16.6887694 C42.980814,15.340739 43.6908214,14.8015268 44.6036883,14.8015268 C45.0094069,14.8015268 51.0698285,14.8015268 53.2759233,14.8015268 L53.2759233,11.6888021 C50.182319,11.6888021 42.5750954,11.6888021 42.549738,11.6888021 C38.1882631,11.6888021 36.4132442,13.5270254 36.4132442,16.370144 L36.4132442,17.3260201 C36.3878867,20.6838413 38.2896926,22.007362 42.7525972,22.007362 L42.7525972,22.007362 Z M28.5270888,22.007362 L35.0693012,22.007362 L35.0693012,10.0711656 C35.0693012,10.0711656 33.1928528,10.0711656 31.2656894,10.0711656 C29.6935299,10.0711656 28.5778037,10.7084164 27.5127925,11.6152732 C26.320994,12.6201685 22.0102339,16.2475958 22.0102339,16.2475958 L22.0102339,10.0711656 C22.0102339,10.0711656 20.2605726,10.0711656 18.1559073,10.0711656 C15.9751698,10.0711656 14.8848011,10.7819453 13.6676453,11.7133117 C12.8308507,12.3505625 0,22.007362 0,22.007362 L7.75936818,22.007362 L15.4426641,15.9044608 L15.4426641,22.007362 L21.6552302,22.007362 L28.5270888,15.9534801 L28.5270888,22.007362 L28.5270888,22.007362 Z" id="Shape"></path>
            <path d="M147.05305,0 C143.738708,0 139.043391,1.00573506 133.971444,2.84120155 C129.753192,4.40009089 125.560047,6.36127425 121.040491,9.22761917 C123.676899,8.14645399 128.924606,6.91442854 133.218185,6.91442854 C139.043391,6.91442854 143.186318,9.15218905 137.059808,16.9717791 C155.112926,5.15439218 154.610753,0 147.05305,0" id="Path"></path>
        </g>
    </g>
</svg>