<?xml version="1.0" encoding="UTF-8"?>
<svg width="105px" height="46px" viewBox="0 0 105 46" version="1.1" xmlns="http://www.w3.org/2000/svg" xmlns:xlink="http://www.w3.org/1999/xlink">
    <title>MINI_logo (2)</title>
    <g id="Marques-and-logos" stroke="none" stroke-width="1" fill="none" fill-rule="evenodd">
        <g id="MINI_logo-(2)" fill="#120A08" fill-rule="nonzero">
            <path d="M52.4998099,0 C44.64063,0.00133424413 37.325166,4.00827714 33.097401,10.6273976 L0,10.6273976 L3.29491234,13.9193011 L31.3780848,13.9193011 C30.8450696,15.1582127 30.4221439,16.441558 30.1141956,17.7545052 L7.13360498,17.7545052 L10.3883243,21.0062523 L29.5814129,21.0062523 C29.5184121,21.6691056 29.4842511,22.3343796 29.4790262,23.0001943 C29.4850896,23.6150564 29.51583,24.2294282 29.5711733,24.8418291 L14.2273955,24.8418291 L17.4821149,28.0935841 L30.0717247,28.0935841 C30.3635799,29.4049549 30.7698712,30.6882574 31.2859385,31.9287723 L21.3208075,31.9287723 L24.6157199,35.2206838 L33.0299023,35.2206838 C37.2343038,41.9181082 44.586895,45.9887956 52.4998099,46 C60.4128614,45.9889274 67.7656275,41.9182236 71.9701016,35.2206838 L80.3842905,35.2206838 L83.6791965,31.9287723 L73.7140607,31.9287723 C74.2301299,30.6882576 74.636423,29.404955 74.9282801,28.0935841 L87.5178907,28.0935841 L90.7726037,24.8418291 L75.4288354,24.8418291 C75.4841766,24.2294282 75.5149149,23.6150563 75.5209761,23.0001943 C75.5158777,22.3343851 75.4818435,21.6691112 75.4189697,21.0062523 L94.6116789,21.0062523 L97.8663918,17.7545052 L74.8858091,17.7545052 C74.5778608,16.441558 74.1549352,15.1582127 73.62192,13.9193011 L101.705094,13.9193011 L105,10.6273976 L71.9026053,10.6273976 C67.6747665,4.00816153 60.3591272,0.00120241286 52.4998099,0 L52.4998099,0 Z M52.4998099,3.11764666 C57.7778005,3.11764666 62.839619,5.21240625 66.5717228,8.94110737 C70.3038266,12.6698085 72.4005018,17.7270133 72.4005018,23.0001943 C72.4005018,28.2733752 70.3038266,33.3305801 66.5717228,37.0592812 C62.839619,40.7879823 57.7778005,42.8827419 52.4998099,42.8827419 C41.5089662,42.8827419 32.5991252,33.9810225 32.5991252,23.0001943 C32.5991252,12.0193661 41.5089662,3.11764666 52.4998099,3.11764666 L52.4998099,3.11764666 Z M36.6687546,17.8469426 L36.6687546,28.1530574 L38.8199862,28.1530574 L38.8199862,20.0405405 L41.089149,28.1530574 L43.3188744,28.1530574 L45.5956234,20.0405405 L45.5956234,28.1530574 L47.7472335,28.1530574 L47.7472335,17.8469426 L44.2733345,17.8469426 L42.2157668,24.8770611 L40.1346888,17.8469426 L36.6687546,17.8469426 Z M49.9925059,17.8469426 L49.9925059,28.1530574 L52.3083121,28.1530574 L52.3083121,17.8469426 L49.9925059,17.8469426 Z M54.5300759,17.8469426 L54.5300759,28.1530574 L56.6816853,28.1530574 L56.6816853,21.4324698 L61.3057163,28.1530574 L63.6294809,28.1530574 L63.6294809,17.8469426 L61.4778771,17.8469426 L61.4778771,24.7293056 L56.7836917,17.8469426 L54.5300759,17.8469426 Z M66.0154408,17.8469426 L66.0154408,28.1530574 L68.3312454,28.1530574 L68.3312454,17.8469426 L66.0154408,17.8469426 Z" id="circle828"></path>
        </g>
    </g>
</svg>