<?xml version="1.0" encoding="UTF-8" standalone="no"?>
<!-- Generator: Adobe Illustrator 22.0.1, SVG Export Plug-In . SVG Version: 6.00 Build 0)  -->

<svg
   xmlns:dc="http://purl.org/dc/elements/1.1/"
   xmlns:cc="http://creativecommons.org/ns#"
   xmlns:rdf="http://www.w3.org/1999/02/22-rdf-syntax-ns#"
   xmlns:svg="http://www.w3.org/2000/svg"
   xmlns="http://www.w3.org/2000/svg"
   xmlns:sodipodi="http://sodipodi.sourceforge.net/DTD/sodipodi-0.dtd"
   xmlns:inkscape="http://www.inkscape.org/namespaces/inkscape"
   version="1.1"
   id="レイヤー_1"
   x="0px"
   y="0px"
   viewBox="0 0 158.6 170.00001"
   xml:space="preserve"
   sodipodi:docname="mitsubishi-motors-logo.svg"
   width="158.59999"
   height="170"
   inkscape:version="0.92.2 (5c3e80d, 2017-08-06)"><metadata
     id="metadata51"><rdf:RDF><cc:Work
         rdf:about=""><dc:format>image/svg+xml</dc:format><dc:type
           rdf:resource="http://purl.org/dc/dcmitype/StillImage" /><dc:title></dc:title></cc:Work></rdf:RDF></metadata><defs
     id="defs49" /><sodipodi:namedview
     pagecolor="#ffffff"
     bordercolor="#666666"
     borderopacity="1"
     objecttolerance="10"
     gridtolerance="10"
     guidetolerance="10"
     inkscape:pageopacity="0"
     inkscape:pageshadow="2"
     inkscape:window-width="1366"
     inkscape:window-height="705"
     id="namedview47"
     showgrid="false"
     fit-margin-top="0"
     fit-margin-left="0"
     fit-margin-right="0"
     fit-margin-bottom="0"
     inkscape:zoom="1.3649509"
     inkscape:cx="78.449997"
     inkscape:cy="84.750003"
     inkscape:window-x="-8"
     inkscape:window-y="-8"
     inkscape:window-maximized="1"
     inkscape:current-layer="レイヤー_1" /><g
     id="g44"
     transform="translate(-8,-1.2)"><g
       id="g34"><polygon
         points="25.4,142.6 25.4,127.8 19.1,138.4 12.7,127.8 12.7,142.6 8,142.6 8,121.6 14.1,121.6 19.1,130.2 23.9,121.6 30.1,121.6 30.1,142.6 "
         id="polygon2"
         style="fill:#231916;fill-opacity:1" /><rect
         x="34.099998"
         y="121.6"
         width="4.6999998"
         height="21"
         id="rect4"
         style="fill:#231916;fill-opacity:1" /><polygon
         points="40.9,121.6 57,121.6 57,126 51.3,126 51.3,142.6 46.5,142.6 46.5,126 40.9,126 "
         id="polygon6"
         style="fill:#231916;fill-opacity:1" /><path
         d="M 58.7,142.4 V 138 c 1,0.2 3.3,0.6 6.2,0.6 2.4,0 3.6,-0.3 3.6,-1.7 0,-1.5 -1,-1.7 -4.4,-3.3 -3.3,-1.5 -5.8,-2.8 -5.8,-6.4 0,-4.4 2.7,-5.9 7.9,-5.9 2.7,0 4.6,0.2 5.9,0.4 v 4.4 c -1.2,-0.1 -3.3,-0.4 -5.7,-0.4 -2.8,0 -3.4,0.3 -3.4,1.5 0,1.2 1.5,1.8 3.8,2.8 3.5,1.6 6.3,2.9 6.3,6.9 0,4.2 -2.6,6.1 -8.2,6.1 -2.2,-0.1 -4.2,-0.3 -6.2,-0.6"
         id="path8"
         style="fill:#231916;fill-opacity:1"
         inkscape:connector-curvature="0" /><path
         d="m 76,135.5 v -13.9 h 4.7 v 13.7 c 0,2.4 1.4,3.2 3.7,3.2 2.2,0 3.7,-0.8 3.7,-3.2 v -13.7 h 4.7 v 13.9 c 0,5.1 -3.3,7.4 -8.4,7.4 -5.1,0 -8.4,-2.3 -8.4,-7.4"
         id="path10"
         style="fill:#231916;fill-opacity:1"
         inkscape:connector-curvature="0" /><path
         d="m 96.8,121.6 h 9.2 c 4.3,0 6.7,1.6 6.7,5.4 0,3 -1.7,4 -3.3,4.6 1.9,0.6 3.9,1.6 3.9,5.1 0,3.7 -2.2,5.9 -6.9,5.9 h -9.5 v -21 z m 8.5,8.5 c 1.9,0 2.6,-1 2.6,-2.4 0,-1.7 -0.8,-2.1 -2.6,-2.1 h -3.8 v 4.5 z m 0.3,8.6 c 1.9,0 2.7,-0.7 2.7,-2.5 0,-1.6 -0.7,-2.3 -2.5,-2.3 h -4.3 v 4.8 z"
         id="path12"
         style="fill:#231916;fill-opacity:1"
         inkscape:connector-curvature="0" /><rect
         x="116"
         y="121.6"
         width="4.6999998"
         height="21"
         id="rect14"
         style="fill:#231916;fill-opacity:1" /><path
         d="M 124.1,142.4 V 138 c 1,0.2 3.3,0.6 6.2,0.6 2.4,0 3.6,-0.3 3.6,-1.7 0,-1.5 -1,-1.7 -4.4,-3.3 -3.3,-1.5 -5.8,-2.8 -5.8,-6.4 0,-4.4 2.7,-5.9 7.9,-5.9 2.7,0 4.6,0.2 5.9,0.4 v 4.4 c -1.2,-0.1 -3.3,-0.4 -5.7,-0.4 -2.8,0 -3.4,0.3 -3.4,1.5 0,1.2 1.5,1.8 3.8,2.8 3.5,1.6 6.3,2.9 6.3,6.9 0,4.2 -2.6,6.1 -8.2,6.1 -2.1,-0.1 -4.2,-0.3 -6.2,-0.6"
         id="path16"
         style="fill:#231916;fill-opacity:1"
         inkscape:connector-curvature="0" /><polygon
         points="153.3,142.6 153.3,134.3 145.8,134.3 145.8,142.6 141.1,142.6 141.1,121.6 145.8,121.6 145.8,129.9 153.3,129.9 153.3,121.6 158,121.6 158,142.6 "
         id="polygon18"
         style="fill:#231916;fill-opacity:1" /><rect
         x="161.89999"
         y="121.6"
         width="4.6999998"
         height="21"
         id="rect20"
         style="fill:#231916;fill-opacity:1" /><polygon
         points="47.4,170.9 47.4,156.1 41.1,166.7 34.8,156.1 34.8,170.9 30,170.9 30,149.9 36.1,149.9 41.1,158.4 46,149.9 52.2,149.9 52.2,170.9 "
         id="polygon22"
         style="fill:#231916;fill-opacity:1" /><path
         d="m 55.4,160.4 c 0,-7.5 2.9,-10.8 9.1,-10.8 6.2,0 9.1,3.3 9.1,10.8 0,7.5 -2.9,10.8 -9.1,10.8 -6.2,0 -9.1,-3.3 -9.1,-10.8 m 13.2,0 c 0,-4.3 -0.7,-6.5 -4.2,-6.5 -3.4,0 -4.2,2.2 -4.2,6.5 0,4.3 0.7,6.5 4.2,6.5 3.5,0 4.2,-2.2 4.2,-6.5"
         id="path24"
         style="fill:#231916;fill-opacity:1"
         inkscape:connector-curvature="0" /><polygon
         points="74.3,149.9 90.4,149.9 90.4,154.3 84.7,154.3 84.7,170.9 80,170.9 80,154.3 74.3,154.3 "
         id="polygon26"
         style="fill:#231916;fill-opacity:1" /><path
         d="m 91.2,160.4 c 0,-7.5 2.9,-10.8 9.1,-10.8 6.2,0 9.1,3.3 9.1,10.8 0,7.5 -2.9,10.8 -9.1,10.8 -6.2,0 -9.1,-3.3 -9.1,-10.8 m 13.2,0 c 0,-4.3 -0.7,-6.5 -4.2,-6.5 -3.5,0 -4.2,2.2 -4.2,6.5 0,4.3 0.7,6.5 4.2,6.5 3.5,0 4.2,-2.2 4.2,-6.5"
         id="path28"
         style="fill:#231916;fill-opacity:1"
         inkscape:connector-curvature="0" /><path
         d="m 112.5,149.9 h 8.5 c 4.5,0 7.4,1.7 7.4,6.7 0,3.3 -1.6,5.4 -4.3,6 l 5.2,8.3 h -5.5 l -4.4,-7.5 h -2.1 v 7.5 h -4.7 v -21 z m 8.3,9.4 c 2.1,0 2.8,-1.1 2.8,-2.7 0,-1.6 -0.7,-2.7 -2.8,-2.7 h -3.5 v 5.4 z"
         id="path30"
         style="fill:#231916;fill-opacity:1"
         inkscape:connector-curvature="0" /><path
         d="m 131.2,170.6 v -4.4 c 1,0.2 3.3,0.6 6.2,0.6 2.4,0 3.6,-0.3 3.6,-1.7 0,-1.5 -1,-1.7 -4.4,-3.3 -3.3,-1.5 -5.8,-2.8 -5.8,-6.4 0,-4.4 2.7,-5.9 7.9,-5.9 2.7,0 4.6,0.2 5.9,0.4 v 4.4 c -1.2,-0.1 -3.3,-0.4 -5.7,-0.4 -2.8,0 -3.4,0.3 -3.4,1.4 0,1.2 1.5,1.8 3.8,2.8 3.5,1.6 6.3,2.9 6.3,6.9 0,4.2 -2.6,6.1 -8.2,6.1 -2.1,0.1 -4.2,-0.1 -6.2,-0.5"
         id="path32"
         style="fill:#231916;fill-opacity:1"
         inkscape:connector-curvature="0" /></g><g
       id="g42"><polygon
         points="107.2,36 87,1.2 66.9,36 87,70.9 "
         id="polygon36"
         style="fill:#e60013;fill-opacity:1" /><polygon
         points="107.2,105.7 147.4,105.7 127.3,70.9 87,70.9 "
         id="polygon38"
         style="fill:#e60013;fill-opacity:1" /><polygon
         points="66.9,105.7 26.7,105.7 46.8,70.9 87,70.9 "
         id="polygon40"
         style="fill:#e60013;fill-opacity:1" /></g></g></svg>