<?xml version="1.0" encoding="UTF-8"?>
<svg width="48px" height="40px" viewBox="0 0 48 40" version="1.1" xmlns="http://www.w3.org/2000/svg" xmlns:xlink="http://www.w3.org/1999/xlink">
    <title>nissan-logo</title>
    <defs>
        <filter id="filter-1">
            <feColorMatrix in="SourceGraphic" type="matrix" values="0 0 0 0 0.000000 0 0 0 0 0.000000 0 0 0 0 0.000000 0 0 0 1.000000 0"></feColorMatrix>
        </filter>
    </defs>
    <g id="Marque-Logos-and-Skins" stroke="none" stroke-width="1" fill="none" fill-rule="evenodd">
        <g id="nissan-logo" transform="translate(-36.000000, -144.000000)" filter="url(#filter-1)">
            <g transform="translate(36.000000, 144.000000)">
                <path d="M28.302168,21.7482759 C28.2642276,21.7586207 28.1124661,21.7586207 28.0460705,21.7586207 L23.1517615,21.7586207 L23.1517615,23 L28.1314363,23 C28.1693767,23 28.4634146,23 28.5203252,22.9896552 C29.5352304,22.8862069 30,21.9655172 30,21.1586207 C30,20.3310345 29.5162602,19.4413793 28.596206,19.3482759 C28.4159892,19.3275862 28.2642276,19.3275862 28.197832,19.3275862 L24.9444444,19.3275862 C24.802168,19.3275862 24.6409214,19.3172414 24.5840108,19.2965517 C24.3279133,19.2241379 24.2330623,18.9758621 24.2330623,18.7689655 C24.2330623,18.5827586 24.3279133,18.3344828 24.5934959,18.2517241 C24.6693767,18.2310345 24.7547425,18.2206897 24.9349593,18.2206897 L29.6300813,18.2206897 L29.6300813,17 L24.8590786,17 C24.6598916,17 24.5081301,17.0103448 24.3848238,17.0310345 C23.5691057,17.1551724 23,17.8689655 23,18.7793103 C23,19.5241379 23.4268293,20.3931034 24.3658537,20.537931 C24.5365854,20.5586207 24.7737127,20.5586207 24.8780488,20.5586207 L28.0460705,20.5586207 C28.102981,20.5586207 28.2452575,20.5586207 28.2737127,20.5689655 C28.6341463,20.6206897 28.7574526,20.9103448 28.7574526,21.1689655 C28.7574526,21.4172414 28.6151762,21.6862069 28.302168,21.7482759 Z" id="Path" fill="#FFFFFF" fill-rule="nonzero"></path>
                <path d="M19.302168,21.7482759 C19.2642276,21.7586207 19.1124661,21.7586207 19.0555556,21.7586207 L14.1517615,21.7586207 L14.1517615,23 L19.1314363,23 C19.1693767,23 19.4634146,23 19.5203252,22.9896552 C20.5352304,22.8862069 21,21.9655172 21,21.1586207 C21,20.3310345 20.5162602,19.4413793 19.596206,19.3482759 C19.4159892,19.3275862 19.2642276,19.3275862 19.197832,19.3275862 L15.9444444,19.3275862 C15.802168,19.3275862 15.6409214,19.3172414 15.5840108,19.2965517 C15.3279133,19.2241379 15.2330623,18.9758621 15.2330623,18.7689655 C15.2330623,18.5827586 15.3279133,18.3344828 15.5934959,18.2517241 C15.6693767,18.2310345 15.7547425,18.2206897 15.9349593,18.2206897 L20.6300813,18.2206897 L20.6300813,17 L15.8590786,17 C15.6598916,17 15.5081301,17.0103448 15.3848238,17.0310345 C14.5691057,17.1551724 14,17.8689655 14,18.7793103 C14,19.5241379 14.4268293,20.3931034 15.3658537,20.537931 C15.5365854,20.5586207 15.7737127,20.5586207 15.8780488,20.5586207 L19.0460705,20.5586207 C19.102981,20.5586207 19.2452575,20.5586207 19.2737127,20.5689655 C19.6341463,20.6206897 19.7574526,20.9103448 19.7574526,21.1689655 C19.7574526,21.4172414 19.6246612,21.6862069 19.302168,21.7482759 Z" id="Path" fill="#FFFFFF" fill-rule="nonzero"></path>
                <rect id="Rectangle" fill="#FFFFFF" fill-rule="nonzero" x="10" y="17" width="1" height="6"></rect>
                <polygon id="Path" fill="#FFFFFF" fill-rule="nonzero" points="7 23 7 17 5.75342466 17 5.75342466 21.4770017 1.60136986 17 0 17 0 23 1.24657534 23 1.24657534 18.5025554 5.42739726 23"></polygon>
                <polygon id="Path" fill="#FFFFFF" fill-rule="nonzero" points="46.7613169 17 46.7613169 21.4770017 42.6035665 17 41 17 41 23 42.2482853 23 42.2482853 18.5025554 46.4252401 23 48 23 48 17"></polygon>
                <path d="M34.7775229,17 L31,23 L32.6307339,23 L33.3016055,21.9267462 L37.7087156,21.9267462 L38.3795872,23 L40,23 L36.2224771,17 L34.7775229,17 L34.7775229,17 Z M37.0172018,20.7921635 L33.9931193,20.7921635 L35.5103211,18.3798978 L37.0172018,20.7921635 Z" id="Shape" fill="#FFFFFF" fill-rule="nonzero"></path>
                <path d="M7.45195954,13.9247817 C9.93615676,6.73203492 16.7819216,1.89926125 24.5,1.89926125 C32.2180784,1.89926125 39.0733249,6.73203492 41.5480405,13.9247817 L41.5670038,13.9811954 L47,13.9811954 L47,13.3324379 L44.7433628,13.0691739 C43.3495575,12.9093351 43.0556258,12.2981867 42.676359,11.5271995 L42.5815424,11.3391538 C39.3198483,4.45668234 32.2180784,0 24.5,0 C16.7724399,0 9.68015171,4.45668234 6.41845765,11.3579584 L6.32364096,11.546004 C5.94437421,12.3169913 5.65044248,12.9281397 4.25663717,13.0879785 L2,13.3512424 L2,14 L7.42351454,14 L7.45195954,13.9247817 Z" id="Path" fill="#FFFFFF" fill-rule="nonzero"></path>
                <path d="M41.5575221,26.0094023 L41.5385588,26.065816 C39.0543616,33.2585628 32.2085967,38.0819342 24.4905183,38.0819342 L24.4905183,38.0819342 C16.7724399,38.0819342 9.91719343,33.2491605 7.44247788,26.0564137 L7.42351454,26 L2,26 L2,26.6487576 L4.25663717,26.9120215 C5.65044248,27.0718603 5.94437421,27.6830087 6.32364096,28.453996 L6.41845765,28.6420416 C9.68015171,35.5433177 16.7819216,40 24.5,40 L24.5,40 C32.2180784,40 39.3198483,35.5433177 42.5815424,28.6514439 L42.676359,28.4633983 C43.0556258,27.692411 43.3495575,27.0812626 44.7433628,26.9214238 L47,26.6581598 L47,26.0094023 L41.5575221,26.0094023 Z" id="Path" fill="#FFFFFF" fill-rule="nonzero"></path>
            </g>
        </g>
    </g>
</svg>