<?xml version="1.0" encoding="UTF-8"?>
<svg width="42px" height="46px" viewBox="0 0 42 46" version="1.1" xmlns="http://www.w3.org/2000/svg" xmlns:xlink="http://www.w3.org/1999/xlink">
    <title>peugeot-new-logo-freelogovectors.net_</title>
    <g id="Marque-Logos-and-Skins" stroke="none" stroke-width="1" fill="none" fill-rule="evenodd">
        <g id="Skin-Peugeot" transform="translate(-362.000000, -58.000000)" fill-rule="nonzero">
            <g id="peugeot-new-logo-freelogovectors.net_" transform="translate(362.000000, 58.000000)">
                <path d="M20.8381139,0 C27.7783875,0.00602810118 34.705473,0.605472428 41.5438828,1.79180056 C41.6493288,4.62412531 41.7688344,9.00187805 41.5681673,12.7173045 C41.1208205,21.0005425 39.2982016,27.4299069 35.837015,32.9505725 C32.3860535,38.4539599 27.0440929,43.1894328 20.8387529,46 C14.634052,43.1887929 9.29145236,38.4552398 5.84112994,32.9505725 C2.37930432,27.4305469 0.558602597,21.0011825 0.109338537,12.7179444 C-0.0926066165,9.00251798 0.0275379686,4.62476524 0.132344947,1.79244049 C6.97073994,0.605925712 13.8978232,0.00626749266 20.8381139,0 Z" id="Path" fill="#010101"></path>
                <path d="M20.8396918,1.38345865 C27.4339727,1.3893415 34.0157096,1.95735663 40.5131869,3.08131485 C40.6128837,5.76432325 40.7266403,9.9122989 40.5361939,13.4317934 C40.1086481,21.2798322 38.3786536,27.370038 35.0899385,32.6001497 C31.8120878,37.8149482 26.7352217,42.2985392 20.8384136,44.962406 C14.9428837,42.2991772 9.86601761,37.8162243 6.58688872,32.6001497 C3.29881269,27.3681238 1.56817908,21.2791942 1.14127242,13.4317934 C0.949547867,9.9122989 1.06394352,5.76432325 1.16364028,3.08131485 C7.66196241,1.95723964 14.2445584,1.38922418 20.8396918,1.38345865 L20.8396918,1.38345865 Z" id="Path" fill="#FFFFFF"></path>
                <path d="M20.9233758,2.07518797 C14.5847574,2.08136994 8.25748748,2.61146185 2.00614561,3.66005326 C1.86762565,7.64392698 1.86762565,10.8117419 2.00614561,13.3352664 C2.4236205,21.0546203 4.11586201,27.0358585 7.32671633,32.1569785 C10.5375706,37.2780984 15.3576822,41.5071728 20.9233758,44.0977444 C26.486516,41.5058958 31.3047125,37.2761827 34.5200352,32.1569785 C37.7353579,27.0377742 39.425046,21.0546203 39.844436,13.3352664 C39.9816792,10.8136576 39.9816792,7.64392698 39.844436,3.66005326 C33.5918284,2.61128622 27.2632716,2.08119383 20.9233758,2.07518797 L20.9233758,2.07518797 Z" id="Path" fill="#010101"></path>
                <path d="M20.7099567,24.9022556 C20.7099567,24.9022556 20.8344905,25.6413499 20.8725604,25.855822 C20.8969198,25.9453977 20.8953541,26.0399995 20.8680436,26.1287282 C20.7680295,26.5140076 20.3060285,28.5322293 19.9362987,30.6005372 L19.8788712,30.9273826 C19.7278821,31.7981139 19.5975411,32.6611396 19.5214013,33.4028024 C19.4781693,33.8227569 19.4923649,33.9235716 19.6039936,34.2966505 C19.9195222,35.3503895 21.0880748,38.1038526 21.3126227,38.606 C21.3366322,38.6612328 21.3524972,38.7196279 21.3597262,38.7793757 L21.3597262,38.7793757 L21.443609,39.4285714 C21.0693625,38.8660636 19.035526,35.1423387 18.2367031,33.080452 C18.1424962,32.8370839 18.1244292,32.7176473 18.2283149,32.2713654 C18.7838774,29.9018973 20.2873162,25.8763703 20.7099567,24.9022556 Z" id="Path" fill="#FFFFFF"></path>
                <path d="M17.7558725,19.3684211 C17.7558725,19.3684211 17.9117725,19.8724794 18.0625187,20.4188633 L18.1147002,20.6112519 C18.2009313,20.9181807 18.2708186,21.2294287 18.32407,21.5436957 C18.3601563,21.7041054 18.3418053,21.8718984 18.2718886,22.0208197 C18.0869989,22.5126934 17.745565,23.3034109 17.3815836,24.1108021 L17.2289047,24.457743 C16.7779543,25.4376427 16.3270038,26.3854776 16.1073266,26.7952655 C15.9995595,26.9962429 15.8599002,27.1785797 15.6937406,27.3352364 C15.2292617,27.8065886 14.3408894,28.6967069 13.7894414,29.1949936 C13.5890906,29.3764803 13.5356208,29.5310325 13.494391,29.7657467 C13.4299695,30.1421872 13.365548,30.7847654 13.3455774,31.1163153 C13.3301162,31.4081048 13.3777881,31.5447007 13.5388418,31.833925 C14.5096737,33.5583689 17.7494303,37.5267061 18.6725902,38.3597491 C18.7523952,38.4315876 18.8386519,38.495987 18.9302762,38.5521378 C19.0655613,38.6419192 19.5100696,38.927937 19.5100696,38.927937 C19.5278431,38.940271 19.5427761,38.9562294 19.5538762,38.9747516 L19.5538762,38.9747516 L19.7142857,39.2556391 L19.6724117,39.2351176 L19.6028365,39.2004877 L19.3889572,39.0972391 L19.1828084,38.9946318 C18.8677874,38.8368731 18.4915659,38.6470496 18.2944361,38.5412358 C18.2129906,38.49773 18.1361557,38.4461659 18.0650956,38.3873248 C16.984103,37.4927175 13.6721943,33.630194 12.6981414,32.0179769 C12.4552724,31.6152432 12.430148,31.4850602 12.4623588,31.1041306 C12.5267802,30.3948577 12.6182588,29.5008916 12.7013625,29.1116252 C12.7349779,28.8935995 12.8337484,28.6906968 12.984817,28.5293288 C13.5942443,27.8296753 14.3376683,26.9068509 15.0630542,25.9596573 L15.3175191,25.6242597 C16.4159055,24.1710838 17.4273229,22.7166254 17.8048328,21.975929 C17.8748565,21.86015 17.9082997,21.7260898 17.9008208,21.5911516 C17.9053303,21.1294188 17.7578051,20.2303223 17.718508,20.0033037 C17.7125065,19.9677179 17.7109916,19.9315255 17.7139985,19.895566 L17.7139985,19.895566 L17.7558725,19.3684211 Z" id="Path" fill="#FFFFFF"></path>
                <path d="M26.8461078,18.5037594 L27.1264886,18.6244205 C27.2099551,18.6600892 27.2853122,18.7119782 27.3480798,18.7770025 C29.0697726,20.5543598 30.449065,22.3974741 30.7229854,22.8833106 C30.7766778,22.9734631 30.8116015,23.0733083 30.8257055,23.1769832 C31.135158,25.7689625 30.8689901,28.5154391 30.2371643,30.9018476 C30.1796669,31.1176331 30.1157091,31.2280795 29.9063926,31.3838536 C29.2312823,31.8856506 28.2266923,32.6862275 27.2227483,33.5027648 L26.9068354,33.7581322 C25.7000354,34.7457657 24.5539629,35.7136082 24.0674959,36.158586 C23.945307,36.2702792 23.8390318,36.3978515 23.751583,36.5378066 C23.5235314,36.9100046 23.1746706,37.5382085 23.0015322,37.8574177 L22.9537254,37.9455195 L22.8994581,38.0451128 C22.6726986,37.5554458 22.177833,36.3603262 22.0085709,35.8776818 C21.9530116,35.7199924 21.9439671,35.6376364 22.0014645,35.4263199 C22.278615,34.4246412 23.5861971,31.5134526 23.8407363,30.9867573 L23.8407363,30.9867573 L23.8407363,31.2025428 C23.840643,31.2337633 23.8356299,31.2647791 23.8258774,31.294475 C23.7108826,31.6385826 23.0079926,33.9330589 22.864572,34.9283534 C22.8342138,35.0932013 22.8342138,35.2621105 22.864572,35.4269583 C22.9291759,35.8910886 23.2082646,36.7433774 23.2082646,36.7433774 C23.3051059,36.5460979 23.4129446,36.3542777 23.5312839,36.1688007 C23.600971,36.0623691 23.6836383,35.9648102 23.7774246,35.8783202 C24.4066661,35.2628847 25.4790902,34.3116411 26.5967369,33.3552901 L26.9921125,33.0182051 C27.8506978,32.2897696 28.707991,31.5804865 29.3824553,31.0391076 C29.5581778,30.8980171 29.6240737,30.8041696 29.662836,30.5366722 C29.8566476,29.2183379 29.913499,26.8529972 29.796566,25.1311824 C29.7748503,24.8060904 29.6665309,24.4924536 29.4825913,24.2220743 C29.0620202,23.5957857 28.557464,23.0078023 27.7822177,22.2531915 C27.672081,22.1452293 27.5977339,22.0067491 27.569025,21.8560952 C27.3448496,20.6711904 26.8435237,18.5037594 26.8435237,18.5037594 L26.8461078,18.5037594 Z" id="Path" fill="#FFFFFF"></path>
                <path d="M12.4182111,21.1272304 C12.5239212,21.0926294 12.6371478,21.0883904 12.7451268,21.1149912 C13.2322954,21.2328734 14.2630415,21.4866742 15.0425112,21.6876535 C15.1663499,21.7259118 15.2735191,21.8054345 15.3463505,21.9131111 L15.3463505,21.9131111 L15.5162185,22.1971877 C15.5756779,22.2964049 15.5798007,22.4194799 15.5271157,22.5224908 C15.3854522,22.7988374 15.1835337,23.1724528 14.9694359,23.5583074 L14.8079011,23.8481814 C14.5104718,24.3796172 14.2143246,24.891728 14.0463797,25.1609888 C13.9354847,25.3394224 13.8739476,25.4186546 13.6765162,25.4882244 C12.9073027,25.7594177 11.957965,26.0834324 11.391952,26.2683076 C11.275929,26.3056692 11.2368273,26.3765273 11.2592627,26.5053602 C11.3002874,26.7404803 11.4304127,27.5360235 11.4804116,27.7711435 C11.4890064,27.8183796 11.5174375,27.8596038 11.5584337,27.8842731 C11.5994299,27.9089425 11.6490156,27.9146648 11.6945093,27.8999765 C12.0291172,27.83556 12.9194819,27.6171882 12.9194819,27.6171882 C12.9194819,27.6171882 12.6566673,27.8613266 12.4996195,28.0036869 C12.4712211,28.0305177 12.4373022,28.0507492 12.4002627,28.0629501 C12.1579605,28.144759 11.5669481,28.3115976 11.3804138,28.3528241 C11.2368273,28.383744 11.1445217,28.3270576 11.107984,28.1627956 C11.107984,28.1627956 10.8554256,27.0812433 10.763761,26.7134254 C10.7496587,26.657383 10.7349155,26.6090707 10.7176082,26.5536725 C10.64902,26.3404541 10.4849211,25.9223913 10.3919745,25.7027312 C10.3811396,25.6772964 10.3756825,25.6498766 10.3759398,25.6222106 C10.3791542,25.3716306 10.424666,24.8131399 10.424666,24.8131399 C10.424666,24.8131399 10.9701666,25.3284716 11.2336222,25.5127026 C11.2797553,25.5530317 11.3438972,25.5653327 11.4015672,25.5449109 C11.7643796,25.4508628 12.5976942,25.1738721 13.0547352,25.0018801 C13.1591466,24.9621131 13.2513255,24.8954711 13.3220369,24.8086308 C13.8591234,24.1411369 14.3313546,23.4234815 14.7322617,22.6654953 C14.779453,22.5728841 14.7888803,22.4654395 14.7585432,22.3659588 L14.7585432,22.3659588 L14.6848269,22.1218204 C14.6558327,22.0420401 14.5959471,21.9774451 14.518805,21.9427427 C13.7124128,21.6341879 13.0771706,21.4048653 12.3297515,21.149132 L12.3297515,21.149132 L12.4182111,21.1272304 Z" id="Path" fill="#FFFFFF"></path>
                <path d="M28.324924,14.2266098 C28.5009155,14.161093 28.6950038,14.1654596 28.8679252,14.2388262 C30.2120444,14.8084995 32.4713627,16.1490963 33.7275309,17.0929793 C33.8351156,17.1589778 33.9086979,17.2691545 33.9289258,17.3945333 C34.2233701,18.7486325 34.3355393,20.8427926 34.1500776,22.6026072 C34.1379021,22.7209477 34.1025935,22.8356792 34.0461936,22.9401675 C33.2501743,24.5836042 32.3547322,26.130595 31.4114907,27.3233083 L31.4114907,27.3233083 L31.4114907,27.3040191 C31.4242372,27.1754247 31.4917937,26.4604397 31.4956176,26.0727276 C31.4958159,26.0292633 31.5160805,25.988375 31.5504276,25.9621364 C31.7256921,25.8245403 31.9659637,25.6297198 32.101714,25.5120559 C32.1558488,25.4675127 32.2023564,25.4142936 32.2393763,25.3545277 C32.6217715,24.7276299 33.3100828,23.4159669 33.586682,22.6263972 C33.6544402,22.434027 33.6809424,22.2293356 33.6644357,22.0258612 C33.5758475,20.9263789 33.4050443,19.4018921 33.1501142,18.4078573 C33.107671,18.2380956 32.9951339,18.0948318 32.8410114,18.0143583 C32.6217715,17.9005523 32.1903022,17.7025169 31.2088212,17.307089 C31.0727697,17.2519514 30.9462745,17.1753384 30.8340739,17.0801199 C30.1903753,16.5342366 29.1840386,15.7157331 28.5575478,15.2444346 C28.3752649,15.1067645 28.1422926,15.0567017 27.9202225,15.1074815 C27.4638975,15.211643 26.8832941,15.3575977 26.5563462,15.4469708 C26.4695454,15.4751663 26.3772765,15.4817838 26.2873949,15.46626 C26.2274863,15.4591873 26.15037,15.4514716 26.0694297,15.4443989 L25.9464259,15.4334684 L25.617566,15.4064635 L25.593985,15.4064635 C26.6589556,14.8991586 27.6837748,14.4632235 28.324924,14.2266098 Z" id="Path" fill="#FFFFFF"></path>
                <path d="M14.0075188,23 C13.702114,23.5309222 13.3636402,24.0405614 12.9942588,24.5256631 C12.9546307,24.5748371 12.9032223,24.6122966 12.8452131,24.6342674 C12.5220721,24.7604305 11.9835038,24.9496752 11.5864662,25.075188 L11.5864662,25.075188 L14.0075188,23 Z" id="Path" fill="#FFFFFF"></path>
                <path d="M9.68421053,22.3095685 L9.48781245,23.6917293 L8.81954887,22.8922823 C8.94134118,22.623637 9.29715328,22.3699163 9.68421053,22.3082707 L9.68421053,22.3095685 Z" id="Path" fill="#FFFFFF"></path>
                <path d="M13.3712211,14.6998917 L13.1867835,14.9270587 L13.1558289,14.9573048 C12.9933175,15.0770019 12.3090928,15.6008376 12.1240103,15.7475631 C12.0763557,15.7808402 12.0451621,15.8327985 12.0382404,15.8904274 C11.9963227,16.1220992 11.9273199,16.5629192 11.909263,16.8068181 C11.9084198,16.8724981 11.8629977,16.9292228 11.7989874,16.9445341 C11.4817032,17.0732407 11.1050894,17.2096697 10.8007029,17.3306538 C10.7566366,17.3448749 10.7153915,17.3666519 10.6788193,17.3950071 C10.6485096,17.4188178 10.2441657,17.7811268 10.2441657,17.7811268 C10.2441657,17.7811268 11.1231462,17.5648998 11.4455895,17.4921806 C11.5062074,17.4733015 11.5719906,17.4807771 11.6268027,17.5127736 C11.6912913,17.5436632 11.8047914,17.5874234 11.8628312,17.60866 C11.9381742,17.6392148 12.0217828,17.6428522 12.0995046,17.6189565 C12.4625758,17.5378714 13.0739283,17.3930765 13.3989512,17.3081302 C13.5453933,17.2736451 13.683075,17.2092217 13.8032951,17.1189315 C13.9593577,17.0101745 14.3533835,16.7147929 14.3533835,16.7147929 C14.3533835,16.7147929 14.3462897,16.7669191 14.3411306,16.7958781 C14.3372496,16.8178919 14.3269281,16.8382677 14.3114658,16.8544395 C14.2314999,16.9509695 14.0909146,17.1079915 14.0212668,17.1794236 C13.8970232,17.3180485 13.7404138,17.4239302 13.565332,17.4876758 C12.6412094,17.8737955 11.0625269,18.4690634 9.87787006,18.8789938 C9.81263265,18.8983887 9.75426076,18.9358825 9.70955465,18.9871073 C9.64506598,19.0514606 9.56381026,19.1428423 9.56381026,19.1428423 C9.56381026,19.1428423 10.5311402,19.2129873 10.8239188,19.246451 C10.912279,19.2547577 10.9954461,19.2918442 11.0605922,19.3519904 C11.3030696,19.5598515 12.1053086,20.3848606 12.3452064,20.6712327 C12.3452064,20.6712327 10.0648872,21.04963 9.00856285,21.3147655 C8.89669295,21.3373794 8.80841987,21.423202 8.78285252,21.5342102 C8.69579282,21.8405319 8.48942909,22.8270677 8.48942909,22.8270677 C8.42840418,22.805392 8.3696539,22.7778028 8.31401992,22.7446955 C8.24447578,22.7039094 8.18251538,22.6514407 8.13087211,22.5896041 C7.821952,22.2546388 7.53523002,21.8999445 7.27252797,21.5277749 C7.21448817,21.4415415 7.18998248,21.3314974 7.26285467,21.2433334 C7.47695704,20.9801285 7.90774133,20.4994094 8.14441473,20.2522928 C8.1813351,20.2100115 8.21215741,20.1627921 8.23598864,20.1120027 C8.31595458,19.9536936 8.42107111,19.5521291 8.45782965,19.4073343 L8.46943761,19.3603564 L8.46943761,19.3603564 L8.46943761,19.3545646 L8.46298874,19.3584258 L8.41913645,19.3854541 L8.22567045,19.5077254 C8.17914713,19.5302225 8.14245585,19.5688963 8.12248858,19.6164824 C8.08379539,19.6975676 8.01672717,19.8243435 7.96513624,19.9125075 C7.94136626,19.9475155 7.91245257,19.9787548 7.87936632,20.0051762 C7.57691447,20.2362045 7.2422183,20.4846082 7.00361024,20.6487091 C6.9871592,20.65901 6.96566949,20.656024 6.95266419,20.6416302 C6.92235452,20.6113842 6.79466696,20.4665893 6.77209593,20.4331256 C6.75379979,20.4068902 6.74411105,20.3756366 6.7443609,20.3436745 C6.7443609,20.2831824 6.75016978,20.1769995 6.75597376,20.0984885 C6.76306751,20.0051762 6.79015275,19.9607725 6.9036528,19.8410754 C7.03263014,19.7123688 7.16934611,19.5707916 7.31509049,19.4285708 C7.6723577,19.128041 8.57519902,18.3989183 10.1861259,17.2482816 C10.2168821,17.2271362 10.2439052,17.2010398 10.2660918,17.1710577 C10.435697,16.9432471 10.9161376,16.3203073 11.0347967,16.1722948 C11.0515581,16.151383 11.070591,16.13239 11.0915468,16.1156639 C11.2426367,15.9933975 11.401622,15.8811806 11.5674731,15.7797397 C12.0188938,15.4972288 12.8856214,14.9824026 13.3731557,14.6992481 L13.3712211,14.6998917 Z" id="Path" fill="#FFFFFF"></path>
                <path d="M22.8997762,14.0122832 C22.9673256,14.0007816 23.0367895,14.0102218 23.0987825,14.0393283 L23.0987825,14.0393283 L23.5704533,14.2647039 C23.6170351,14.28705 23.6509923,14.3291749 23.662849,14.3793235 C23.7274615,14.6484863 23.8056425,15.0045797 23.8566863,15.3078709 C23.8783674,15.4333588 23.8555217,15.5624544 23.7920739,15.6729794 C23.5982366,16.0110428 23.1963473,16.6195569 22.9721422,16.9466734 C22.9258941,17.0212908 22.9112536,17.1111512 22.9314363,17.1965184 C23.0328778,17.7567377 23.4567354,19.7142857 23.4567354,19.7142857 L23.4567354,19.7142857 L23.189886,19.4721679 C23.138829,19.4268373 23.1007109,19.3688546 23.0793988,19.3041021 C22.8900844,18.7503221 22.534716,17.5931794 22.3686621,17.0303844 C22.3425,16.9381099 22.362984,16.8389199 22.4235826,16.7644412 C22.7020622,16.4276656 23.1071821,15.8893399 23.3443098,15.547413 C23.4092784,15.4690375 23.427944,15.3623196 23.3934152,15.2666594 C23.3384946,15.1552594 23.246745,14.9859058 23.1588721,14.8320064 C23.1349245,14.7894086 23.0956792,14.7574288 23.049031,14.7425001 L23.049031,14.7425001 L22.7317839,14.6426909 C22.6762433,14.6240423 22.6161016,14.6240423 22.560561,14.6426909 C21.864039,14.8951116 20.9265126,15.2589322 20.3527543,15.4958985 C20.2841922,15.5288344 20.2061635,15.536588 20.1324259,15.5177922 C19.9663719,15.4933228 19.4824248,15.4070362 19.2452972,15.362605 C19.2257021,15.3580083 19.2093763,15.3445723 19.2011417,15.3262653 C19.1929072,15.3079582 19.1937049,15.2868722 19.2032991,15.2692351 L19.2032991,15.2692351 L19.4843632,14.7830677 C19.5224116,14.7176376 19.5860978,14.6709685 19.660109,14.6542817 C20.5653292,14.4495119 21.7593669,14.2125455 22.8997762,14.0122832 Z" id="Path" fill="#FFFFFF"></path>
                <path d="M13.1799612,16.4289323 C13.2229217,16.4252664 13.2634126,16.4498083 13.280672,16.4899741 C13.3318205,16.6236953 13.3269219,16.7728719 13.2671148,16.9028268 C13.2380553,16.959431 13.1870189,17.0010848 13.1263779,17.0176905 L13.1263779,17.0176905 L12.6744708,17.1194268 C12.6617486,17.1220852 12.6485328,17.1186043 12.6386804,17.11 C12.6288281,17.1013958 12.6234498,17.0886381 12.6241154,17.0754505 L12.6241154,17.0754505 L12.6660782,16.5359195 C12.6700367,16.5014739 12.6967565,16.4743078 12.7306364,16.4702832 L12.7306364,16.4702832 L13.1799612,16.4289323 Z" id="Path" fill="#FFFFFF"></path>
                <path d="M18.0889032,13.1430752 C18.1133753,13.1410806 18.1368496,13.1528922 18.1492241,13.1734267 C18.1615985,13.1939613 18.1606651,13.2195552 18.1468256,13.239194 L18.1468256,13.239194 L17.0647572,15.0488141 C17.0043969,15.1552652 16.9034287,15.2346495 16.7834194,15.2700105 L16.7834194,15.2700105 L14.7497672,15.8861563 C14.5284514,15.9526661 14.2998921,15.9940206 14.0687005,16.0093854 C13.6174143,16.0420411 12.2781955,16.0827068 12.2781955,16.0827068 L12.2781955,16.0827068 L12.307475,16.0210922 C12.3212859,15.9920057 12.3457933,15.9689414 12.3762182,15.9563969 L12.3762182,15.9563969 L13.012729,15.6957672 C13.0597747,15.6762396 13.1012603,15.6460152 13.1336661,15.6076584 L13.1336661,15.6076584 L14.1126198,14.4369814 C14.1650569,14.3723769 14.2298966,14.3181896 14.3035731,14.2773996 C15.144142,13.8610327 16.01284,13.5001747 16.9037199,13.197296 C16.9873885,13.1717649 17.0744286,13.1580682 17.1621433,13.1566304 L17.1621433,13.1566304 L18.0889032,13.1430752 Z" id="Path" fill="#FFFFFF"></path>
                <path d="M17.0421512,10.724069 C19.2812703,10.5263576 22.3129082,10.4697778 25.2048392,10.6922826 C25.3690078,10.7048086 25.5300643,10.7438825 25.6817474,10.8079851 C26.6298486,11.2078581 28.3120457,12.0794413 30.1828469,13.1544575 C30.2652528,13.2018777 30.342692,13.2574651 30.4139981,13.3203825 C30.9099573,13.7577634 32.1654135,15.0451128 32.1654135,15.0451128 L32.1654135,15.0451128 L31.7735994,14.967554 C31.7190839,14.9567056 31.6672732,14.9350941 31.621192,14.9039811 C30.680616,14.2770957 29.7053412,13.7040235 28.7000496,13.1875153 C28.5851035,13.1299008 28.4608026,13.0933016 28.3330017,13.0794416 C27.8611737,13.029219 27.2242376,12.9847181 26.8089274,12.9681891 C26.6176015,12.9645947 26.4299948,12.9146423 26.2621657,12.8226074 C25.877972,12.6274389 24.9463816,12.204044 24.484079,12.0266759 C24.3285771,11.9587145 24.1595035,11.9276038 23.9900249,11.9357667 C23.192426,11.9472099 21.3768725,12.0056968 20.4497273,12.0629124 C20.4183313,12.0649384 20.3868075,12.0634458 20.3557427,12.0584623 L20.3557427,12.0584623 L19.9112211,11.9891679 C21.1647722,11.7730204 24.2624532,11.4964786 25.5445807,11.4290915 L25.5445807,11.4290915 L25.0225853,11.2542662 C24.921948,11.2206981 24.8168377,11.2024818 24.7107851,11.2002294 C24.4320065,11.1932364 23.8134863,11.1811575 23.0095371,11.1798861 L22.7377439,11.1798861 C21.5210245,11.1798861 19.9550382,11.2123082 18.5109778,11.3210177 C18.3847194,11.3303662 18.2609989,11.3613302 18.1451999,11.4125625 C17.5622415,11.6668538 16.1397722,12.442442 14.7128576,13.2364664 L14.3953421,13.4125631 C14.0263891,13.618539 13.6618813,13.8238791 13.3157895,14.0190477 L13.5278898,13.7450489 C13.5489952,13.7149676 13.5765499,13.6899891 13.6085387,13.6719401 C13.6663266,13.6344322 13.8625511,13.5047436 14.0594107,13.3737837 L14.2054679,13.2765173 C14.3235836,13.197687 14.4296338,13.1264854 14.4893267,13.0857988 C14.5185381,13.0660913 14.537589,13.0514695 14.5744208,13.022226 C15.0037018,12.697369 15.6819148,12.1252137 16.0857945,11.7711132 C16.1769581,11.690976 16.2555272,11.5975326 16.3188509,11.4939357 C16.4458571,11.2822383 16.5919142,11.0527404 16.6795485,10.9249591 C16.7640218,10.806739 16.8972284,10.7329395 17.0421512,10.724069 Z" id="Path" fill="#FFFFFF"></path>
                <path d="M7.44010699,5.71583041 C7.99188374,5.65781698 8.30075188,5.87568964 8.30075188,6.44486584 L8.30075188,6.44486584 L8.30075188,6.75942754 C8.30075188,7.33956184 7.99188374,7.5767723 7.44010699,7.63478573 C6.67607589,7.71600453 5.9124676,7.804099 5.14928213,7.89906913 L5.14928213,7.89906913 L5.14928213,8.75895707 L4.66917293,8.81954887 L4.66917293,8.81954887 L4.66917293,6.04328399 C5.59133776,5.92295984 6.51498244,5.81380865 7.44010699,5.71583041 Z" id="Path" fill="#FFFFFF"></path>
                <path d="M33.3759398,5.53383459 C34.5877284,5.65199203 35.7982548,5.78738952 37.0075188,5.94002707 L37.0075188,5.94002707 L37.0075188,6.38154064 C36.484935,6.31552385 35.96172,6.25245048 35.4378739,6.19232054 L35.4378739,6.19232054 L35.4378739,8.47368421 L34.9594698,8.42007185 L34.9594698,8.42007185 L34.9594698,6.13618524 C34.4322577,6.07815774 33.9044143,6.02349416 33.3759398,5.97219449 L33.3759398,5.97219449 L33.3759398,5.53383459 Z" id="Path" fill="#FFFFFF"></path>
                <path d="M12.7969925,5.18796992 L12.7969925,5.62267519 C11.8000872,5.68353393 10.803182,5.7555708 9.80627669,5.83878581 L9.80627669,5.83878581 L9.80627669,6.49519077 C10.6928825,6.41984185 11.5794882,6.35463606 12.466094,6.29957339 L12.466094,6.29957339 L12.466094,6.73427866 C11.5794882,6.79016934 10.6928825,6.85516813 9.80627669,6.92927503 L9.80627669,6.92927503 L9.80627669,7.65274879 C10.802761,7.56994779 11.7996662,7.49791092 12.7969925,7.43663817 L12.7969925,7.43663817 L12.7969925,7.87134344 C11.6430578,7.94131029 10.4901756,8.02680232 9.33834586,8.12781955 L9.33834586,8.12781955 L9.33834586,5.44568805 C10.4910176,5.34508483 11.6438998,5.2597998 12.7969925,5.18983295 L12.7969925,5.18796992 Z" id="Path" fill="#FFFFFF"></path>
                <path d="M28.7067669,5.901554 C28.7067669,5.27803139 29.0126862,5.14971599 29.7018028,5.19678646 C30.3072546,5.2397732 30.9122807,5.28619887 31.516881,5.33606349 C32.1159462,5.38571317 32.5112782,5.55594064 32.5112782,6.19171447 L32.5112782,6.19171447 L32.5112782,7.43295648 C32.5112782,8.05776869 32.1695939,8.16996407 31.516881,8.11580078 C30.9118549,8.06464656 30.3068288,8.01843582 29.7018028,7.97716856 C29.0427033,7.93203248 28.7067669,7.80371707 28.7067669,7.14279601 L28.7067669,7.14279601 L28.7067669,5.901554 Z" id="Path" fill="#FFFFFF"></path>
                <path d="M23.8652921,4.84210526 C25.0185946,4.87069165 26.1712667,4.91552029 27.3233083,4.9765912 L27.3233083,4.9765912 L27.3233083,5.43137457 C26.3271979,5.37853307 25.330457,5.3380357 24.3330857,5.30988244 L24.3330857,5.30988244 L24.3330857,5.99920409 C25.2199182,6.02389233 26.1063304,6.0578928 26.9923222,6.1012055 L26.9923222,6.1012055 L26.9923222,6.55598887 C26.1059101,6.51267617 25.2192877,6.47780944 24.3324553,6.45138869 L24.3324553,6.45138869 L24.3324553,7.20567939 C25.3298266,7.23339952 26.3265674,7.2738969 27.3226778,7.32717152 L27.3226778,7.32717152 L27.3226778,7.78195489 C26.1702159,7.7213171 25.0175439,7.67648846 23.8646617,7.64746895 L23.8646617,7.64746895 L23.8652921,4.84210526 Z" id="Path" fill="#FFFFFF"></path>
                <path d="M17.8120301,4.84210526 L17.8120301,6.89786392 C17.8120301,7.5486124 17.4901345,7.68904749 16.8419933,7.71212368 C16.2777439,7.73146372 15.7134945,7.75344104 15.149245,7.77805564 C14.5477104,7.80706571 14.1804511,7.68509157 14.1804511,7.0415956 L14.1804511,7.0415956 L14.1804511,4.98715558 L14.1804511,4.98715558 L14.6409234,4.96210144 L14.6409234,7.10489028 C14.6425247,7.17060768 14.6698138,7.23265828 14.7162535,7.27617767 C14.7626931,7.31969706 14.8240996,7.34076461 14.8857629,7.33433352 C15.6260814,7.29829071 16.3657784,7.26862133 17.104854,7.24532537 C17.1669817,7.24550209 17.2266037,7.21934976 17.2704763,7.17267758 C17.314349,7.1260054 17.3388395,7.06267788 17.338508,6.99676186 L17.338508,6.99676186 L17.338508,4.85463234 C17.4963487,4.8500171 17.653568,4.84540186 17.8120301,4.84210526 L17.8120301,4.84210526 Z" id="Path" fill="#FFFFFF"></path>
                <path d="M29.3153016,5.70856225 C29.2471234,5.70011574 29.1786381,5.72174548 29.1280705,5.76769549 C29.077503,5.8136455 29.0499826,5.87925474 29.052833,5.94706364 L29.052833,5.94706364 L29.052833,7.32881623 C29.0582199,7.47209448 29.1707044,7.58902839 29.3153016,7.601667 C30.1223925,7.65437927 30.9288272,7.71443668 31.7346058,7.78183925 C31.8706094,7.78590904 31.9850635,7.68206731 31.9924812,7.54787457 L31.9924812,7.54787457 L31.9924812,6.16612198 C31.987162,6.0235322 31.8779533,5.90578573 31.7346058,5.88808639 C30.9283898,5.82068383 30.121955,5.76084245 29.3153016,5.70856225 Z" id="Path" fill="#010101"></path>
                <path d="M19.911041,5.01838185 C20.7650882,5.01199061 21.6185092,5.01476014 22.4713041,5.02669046 L22.4713041,5.02669046 L22.4713041,5.4740774 C21.5596526,5.46214708 20.6473749,5.45980363 19.7344711,5.46704704 C19.60437,5.46833354 19.4969,5.57109014 19.487148,5.70352299 L19.487148,5.70352299 L19.487148,7.08403126 C19.4958134,7.21918751 19.6019805,7.32645974 19.7344711,7.33392882 C20.5526199,7.32668542 21.3707687,7.32796366 22.1889176,7.33776357 L22.1889176,7.33776357 L22.1889176,6.58998826 C21.7143078,6.58487526 21.239698,6.58231876 20.7650882,6.58231876 L20.7650882,6.58231876 L20.7650882,6.13493183 C21.3941444,6.13493183 22.0238268,6.13961874 22.6541353,6.14899256 L22.6541353,6.14899256 L22.6541353,7.78195489 C21.7696163,7.76874632 20.8846798,7.76469853 19.9993259,7.76981153 C19.351903,7.7742854 19.0225564,7.66052129 19.0225564,7.01756234 L19.0225564,7.01756234 L19.0225564,5.81984359 C19.0244348,5.2203451 19.3187179,5.02285572 19.911041,5.01838185 Z" id="Path" fill="#FFFFFF"></path>
                <path d="M7.75001822,6.05359586 L7.71382879,6.05359586 C6.92951995,6.13343494 6.1452111,6.21986074 5.36090226,6.31287327 L5.36090226,6.31287327 L5.36090226,7.26315789 C6.14480218,7.16974617 6.92911103,7.08332037 7.71382879,7.00388049 C7.83650484,6.99130583 7.95488722,6.88412187 7.95488722,6.77154877 L7.95488722,6.77154877 L7.95488722,6.2494012 C7.95110604,6.19165574 7.92310534,6.13798648 7.87748511,6.1010437 C7.83186487,6.06410092 7.77266116,6.04715298 7.71382879,6.05419465 L7.75001822,6.05359586 Z" id="Path" fill="#010101"></path>
            </g>
        </g>
    </g>
</svg>