<?xml version="1.0" encoding="UTF-8"?>
<svg width="368px" height="53px" viewBox="0 0 368 53" version="1.1" xmlns="http://www.w3.org/2000/svg" xmlns:xlink="http://www.w3.org/1999/xlink">
    <title>Group 13</title>
    <g id="Page-1" stroke="none" stroke-width="1" fill="none" fill-rule="evenodd">
        <g id="Group-13" transform="translate(0.000000, 0.335938)" fill-rule="nonzero">
            <g id="triage-logo" transform="translate(0.000000, 15.664062)">
                <path d="M342.613976,36.6169154 C332.508069,36.6086425 324.321543,28.4080058 324.327052,18.2984749 C324.332567,8.18894402 332.528031,-0.00275400074 342.633941,6.9455572e-07 C352.739851,0.00275677966 360.930853,8.19892259 360.930853,18.308455 C360.922595,28.4165144 352.733391,36.6086538 342.628953,36.6169154 M342.628953,1.67801871 C335.904299,1.6749902 329.840114,5.72494373 327.264602,11.9390708 C324.689089,18.1531978 326.109559,25.3074726 330.863537,30.065297 C335.617514,34.8231213 342.768585,36.2473243 348.981645,33.6736885 C355.194705,31.1000528 359.24594,25.0355195 359.24594,18.308455 C359.233575,9.13177148 351.802342,1.69452434 342.628953,1.67801871" id="Shape" fill="#CE181E"></path>
                <polygon id="Path" fill="#CE181E" points="342.336901 30.7887721 339.918115 13.9410931 337.619145 22.3162399 328.123723 22.3162399 328.123723 20.6382141 336.338611 20.6382141 340.434822 5.71577007 342.89105 22.8331318 345.332302 14.3905643 348.177933 20.6382141 354.363437 20.6382141 354.363437 22.3162399 347.099589 22.3162399 345.684262 19.2073974"></polygon>
                <path d="M354.363437,23.9718034 C355.753061,23.9718034 356.879573,22.8448756 356.879573,21.4547534 C356.879573,20.0646313 355.753061,18.9377147 354.363437,18.9377147 C352.973813,18.9377147 351.847288,20.0646313 351.847288,21.4547534 C351.845303,22.122924 352.109754,22.7643039 352.582055,23.2367739 C353.054355,23.709244 353.695505,23.9737897 354.363437,23.9718034" id="Path" fill="#CE181E"></path>
                <path d="M15.4188271,11.049495 C13.613204,9.89246214 11.5197292,9.26445411 9.37560539,9.23662784 C6.98677303,9.23662784 5.29437141,10.1805174 5.29437141,11.7986137 C5.29437141,13.4167101 7.13654308,13.8362165 9.72007651,14.2332494 L10.9182369,14.4280203 C14.7223963,15.05728 17.7103089,16.6753763 17.7103089,20.4209697 C17.7103089,25.1254349 13.5691669,27.3652998 8.98620325,27.3652998 C5.75865858,27.3652998 2.29148183,26.4214103 0,24.5785783 L2.24655081,21.155106 C4.18022541,22.6295498 6.53993276,23.436554 8.97122624,23.4549003 C11.3301046,23.4549003 13.1572993,22.5259931 13.1572993,20.8854232 C13.1572993,19.3871859 11.6071792,18.8628028 8.66419763,18.3908581 L7.31626714,18.1736136 C3.57201579,17.5818099 0.816246795,15.9262576 0.816246795,12.0682964 C0.816246795,7.62602269 4.77017622,5.32622836 9.30820886,5.32622836 C12.1808568,5.27881263 15.0065192,6.05894376 17.4482113,7.57358439 L15.4188271,11.049495 Z" id="Path" fill="#005EA7"></path>
                <path d="M38.0490823,18.4807523 C38.0490823,24.3688251 34.3048309,27.372791 28.8756664,27.372791 C23.446502,27.372791 19.6947621,24.3763163 19.6947621,18.4807523 L19.6947621,5.67831414 L23.9482317,5.67831414 L23.9482317,18.2635079 C23.9482317,21.7693833 25.9326849,23.3050766 28.8681779,23.3050766 C31.803671,23.3050766 33.7806357,21.7693833 33.7806357,18.2635079 L33.7806357,5.67831414 L38.0415937,5.67831414 L38.0490823,18.4807523 Z" id="Path" fill="#005EA7"></path>
                <path d="M45.4027919,19.192415 L45.4027919,26.9682669 L41.1717879,26.9682669 L41.1717879,5.67831414 L49.8509625,5.67831414 C54.9356559,5.67831414 57.6390053,8.32270306 57.6390053,12.4203822 C57.6390053,16.5180614 54.9356559,19.1624503 49.8809165,19.1624503 L45.4027919,19.192415 Z M45.4027919,9.58871362 L45.4027919,15.3119803 L49.7760775,15.3119803 C52.0900248,15.3119803 53.2881853,14.3680908 53.2881853,12.450347 C53.2881853,10.5326032 52.0900248,9.58871362 49.7760775,9.58871362 L45.4027919,9.58871362 Z" id="Shape" fill="#005EA7"></path>
                <polygon id="Path" fill="#005EA7" points="75.6638313 26.9682669 59.7432746 26.9682669 59.7432746 5.67831414 75.5440153 5.67831414 75.5440153 9.57373125 63.9892556 9.57373125 63.9892556 14.2931789 75.0123316 14.2931789 75.0123316 18.188596 63.9892556 18.188596 63.9892556 23.0953233 75.6638313 23.0953233"></polygon>
                <path d="M87.5405966,5.67831414 C92.6178015,5.67831414 95.3436165,8.08298508 95.3436165,12.1581907 C95.3436165,15.6640661 92.9098531,18.0537547 88.8136421,18.4507875 L95.3735705,26.9682669 L90.2289691,26.9682669 L84.0210004,18.4882435 L82.7704204,18.4882435 L82.7704204,26.9682669 L78.5244394,26.9682669 L78.5244394,5.67831414 L87.5405966,5.67831414 Z M82.7704204,9.58871362 L82.7704204,14.8325443 L87.4582231,14.8325443 C89.7721704,14.8325443 90.9778194,13.9785491 90.9778194,12.1806642 C90.9778194,10.3827794 89.7122624,9.61118718 87.4582231,9.61118718 L82.7704204,9.58871362 Z" id="Shape" fill="#005EA7"></path>
                <path d="M112.177771,9.73853736 C110.291927,8.43479236 108.05248,7.73945243 105.760124,7.74588168 C102.547556,7.74588168 100.248586,9.19168072 100.248586,11.5963517 C100.248586,13.574025 101.843637,14.6602471 105.168532,15.0497888 L107.190428,15.2969979 C110.702536,15.7239956 113.840218,17.2147417 113.840218,20.9004056 C113.840218,25.1179438 110.006105,27.3129914 105.408164,27.3129914 C102.394932,27.3258517 99.4582249,26.3641164 97.0360181,24.5710871 L98.3764601,22.6233786 C100.3967,24.1539712 102.858964,24.9872874 105.393187,24.9980848 C108.695617,24.9980848 111.301616,23.6571623 111.301616,21.1101588 C111.301616,19.0425913 109.519352,18.0088075 106.142037,17.626757 L103.992837,17.3795478 C100.353425,16.9750238 97.7099833,15.2820156 97.7099833,11.7461754 C97.7099833,7.70093456 101.311953,5.43110497 105.775101,5.43110497 C108.508422,5.37749034 111.1882,6.19325324 113.42835,7.76086405 L112.177771,9.73853736 Z" id="Path" fill="#231F20"></path>
                <polygon id="Path" fill="#231F20" points="132.254446 26.9682669 117.277441 26.9682669 117.277441 5.67831414 132.13463 5.67831414 132.13463 7.97061728 119.718693 7.97061728 119.718693 15.1172094 131.73774 15.1172094 131.73774 17.4020214 119.718693 17.4020214 119.718693 24.7209109 132.254446 24.7209109"></polygon>
                <path d="M144.647918,5.67831414 C149.44056,5.67831414 152.09149,7.83577592 152.09149,11.6712635 C152.09149,15.3569274 149.230882,17.6642129 144.677872,17.6642129 L144.325913,17.6642129 L152.001628,26.9682669 L148.953807,26.9682669 L141.465305,17.6941777 L138.769444,17.6941777 L138.769444,26.9682669 L136.275772,26.9682669 L136.275772,5.67831414 L144.647918,5.67831414 Z M138.73949,7.97061728 L138.73949,15.461804 L144.617964,15.461804 C147.860486,15.461804 149.552888,14.1433552 149.552888,11.6562812 C149.552888,9.16920716 147.815555,7.91068779 144.617964,7.91068779 L138.73949,7.97061728 Z" id="Shape" fill="#231F20"></path>
                <polygon id="Path" fill="#231F20" points="164.417565 26.9682669 161.422164 26.9682669 152.84034 5.67831414 155.438851 5.67831414 162.927353 24.5561048 170.415856 5.67831414 172.969436 5.67831414"></polygon>
                <polygon id="Path" fill="#231F20" points="177.544911 26.9682669 175.088682 26.9682669 175.088682 5.67831414 177.544911 5.67831414"></polygon>
                <path d="M200.631965,9.78348448 L198.595092,11.1543717 C197.096151,8.96198368 194.592386,7.67443496 191.937813,7.73089931 C187.160148,7.73089931 183.505759,11.1993188 183.505759,16.3307817 C183.505759,21.4622446 187.197591,24.9381553 191.937813,24.9381553 C194.591603,24.9990529 197.096308,23.7138392 198.595092,21.5221741 L200.572056,22.9829555 C198.600337,25.7797697 195.357424,27.4004005 191.937813,27.2978791 C185.610028,27.2978791 180.937202,22.7282552 180.937202,16.3307817 C180.937202,9.93330821 185.610028,5.37117548 191.937813,5.37117548 C195.65211,5.37117548 198.95454,7.04171013 200.631965,9.78348448 Z" id="Path" fill="#231F20"></path>
                <polygon id="Path" fill="#231F20" points="218.956331 26.9682669 203.979325 26.9682669 203.979325 5.67831414 218.836515 5.67831414 218.836515 7.97061728 206.420577 7.97061728 206.420577 15.1172094 218.439624 15.1172094 218.439624 17.4020214 206.420577 17.4020214 206.420577 24.7209109 218.956331 24.7209109"></polygon>
                <path d="M222.835375,8.98941868 L222.835375,6.21767958 L221.727077,6.21767958 L221.727077,5.61089346 L224.640104,5.61089346 L224.640104,6.21767958 L223.531806,6.21767958 L223.531806,8.98941868 L222.835375,8.98941868 Z M228.421798,8.98941868 L228.421798,6.47987112 L227.523178,8.62984172 L226.834235,8.62984172 L225.928127,6.48736231 L225.928127,8.98941868 L225.269138,8.98941868 L225.269138,5.61089346 L226.205201,5.61089346 L227.178707,7.85824948 L228.144723,5.61089346 L229.088275,5.61089346 L229.088275,8.98941868 L228.421798,8.98941868 Z" id="Shape" fill="#231F20"></path>
                <polygon id="Path" fill="#808285" points="248.655732 7.94065254 241.257092 7.94065254 241.257092 26.9682669 238.823328 26.9682669 238.823328 7.94065254 231.424688 7.94065254 231.424688 5.62587583 248.648244 5.62587583"></polygon>
                <path d="M259.596435,12.7350121 L259.087217,14.9823681 C258.310842,14.5940706 257.454047,14.3939091 256.586057,14.3980555 C254.339506,14.3980555 252.721989,16.1659756 252.721989,18.8927676 L252.721989,26.9682669 L250.475439,26.9682669 L250.475439,12.5177676 L252.721989,12.5177676 L252.721989,14.5478793 C253.656429,13.09408 255.270199,12.220466 256.997924,12.2331025 C257.890148,12.2109112 258.776605,12.3821329 259.596435,12.7350121 L259.596435,12.7350121 Z" id="Path" fill="#808285"></path>
                <path d="M265.078019,7.40128709 C265.078326,7.83307784 264.902867,8.24637994 264.592056,8.5459967 C264.281244,8.84561346 263.861877,9.00571279 263.430548,8.98941868 C263.003084,8.99988274 262.590117,8.83409448 262.288472,8.53092517 C261.986828,8.22775587 261.823035,7.81386858 261.835497,7.38630472 C261.825271,6.9587007 261.989539,6.54536562 262.290463,6.24150742 C262.591387,5.93764923 263.003021,5.76946685 263.430548,5.77569956 C263.867225,5.76340165 264.289994,5.92996926 264.601007,6.2368508 C264.912019,6.54373234 265.084316,6.96432619 265.078019,7.40128709 L265.078019,7.40128709 Z M264.576289,26.9682669 L262.292296,26.9682669 L262.292296,12.5177676 L264.576289,12.5177676 L264.576289,26.9682669 Z" id="Shape" fill="#808285"></path>
                <path d="M282.773351,26.9682669 L280.5268,26.9682669 L280.5268,24.7958227 C279.268155,26.3978986 277.320483,27.3024988 275.284848,27.2304584 C271.241057,27.2304584 268.088397,24.0616864 268.088397,19.7392717 C268.088397,15.4168569 271.241057,12.2480849 275.284848,12.2480849 C277.319249,12.1821225 279.26431,13.08551 280.5268,14.6827206 L280.5268,12.5177676 L282.773351,12.5177676 L282.773351,26.9682669 Z M270.357413,19.754254 C270.291593,21.1614613 270.806985,22.5338517 271.782738,23.5496224 C272.758492,24.5653931 274.108783,25.1352008 275.516992,25.1254349 C278.512393,25.1254349 280.646616,22.8106582 280.646616,19.754254 C280.749397,17.849348 279.79194,16.0434502 278.157838,15.0600712 C276.523736,14.0766922 274.480294,14.0766922 272.846192,15.0600712 C271.21209,16.0434502 270.254632,17.849348 270.357413,19.754254 L270.357413,19.754254 Z" id="Shape" fill="#808285"></path>
                <path d="M298.52916,14.6827206 L298.52916,12.5177676 L300.813154,12.5177676 L300.813154,25.9494655 C300.813154,30.6539308 297.645517,33.2608638 293.189858,33.2608638 C291.005822,33.3097171 288.868144,32.6267859 287.116682,31.3206464 L288.120142,29.500288 C289.581474,30.5994139 291.36156,31.1912349 293.189858,31.185805 C296.312564,31.185805 298.52916,29.4029026 298.52916,26.0393597 L298.52916,24.5411224 C297.329079,26.163741 295.400209,27.0821782 293.384559,26.9907404 C289.340768,26.9907404 286.248016,23.9942657 286.248016,19.5894479 C286.248016,15.1846301 289.340768,12.210629 293.384559,12.210629 C295.402952,12.1310513 297.32967,13.0568806 298.52916,14.6827206 L298.52916,14.6827206 Z M288.561963,19.6119215 C288.561963,22.4211266 290.838458,24.6984373 293.646657,24.6984373 C296.454855,24.6984373 298.73135,22.4211266 298.73135,19.6119215 C298.73135,16.8027164 296.454855,14.5254057 293.646657,14.5254057 C290.838458,14.5254057 288.561963,16.8027164 288.561963,19.6119215 L288.561963,19.6119215 Z" id="Shape" fill="#808285"></path>
                <path d="M318.246416,19.6793422 C318.247158,19.9621265 318.232158,20.2447336 318.201457,20.5258463 L306.616743,20.5258463 C306.665361,21.8276044 307.231004,23.0561981 308.188296,23.9393035 C309.145588,24.8224088 310.415451,25.2870768 311.716414,25.2303116 C313.410571,25.2295308 315.040994,24.5840911 316.276912,23.4249356 L317.497538,24.9756112 C315.911188,26.5000888 313.772088,27.3116693 311.574132,27.2229672 C307.313174,27.2229672 304.287819,24.1890366 304.287819,19.7317805 C304.287819,15.2745244 307.328151,12.24058 311.439339,12.24058 C315.348337,12.2331025 318.178991,15.2895067 318.246416,19.6793422 Z M306.68414,18.6830143 L315.939929,18.6830143 C315.647878,15.9936783 313.880591,14.255723 311.446828,14.255723 C308.728501,14.2332494 307.013634,16.0835725 306.646697,18.6830143 L306.68414,18.6830143 Z" id="Shape" fill="#808285"></path>
                <path d="M361.7471,9.0942953 L361.7471,6.33753857 L360.638802,6.33753857 L360.638802,5.73075244 L363.521875,5.73075244 L363.521875,6.33753857 L362.428554,6.33753857 L362.428554,9.0942953 L361.7471,9.0942953 Z M367.333523,9.0942953 L367.333523,6.60722129 L366.434903,8.74970071 L365.745961,8.74970071 L364.839852,6.60722129 L364.839852,9.0942953 L364.180864,9.0942953 L364.180864,5.73075244 L365.116926,5.73075244 L366.090432,7.97810847 L367.056449,5.73075244 L368,5.73075244 L368,9.0942953 L367.333523,9.0942953 Z" id="Shape" fill="#808285"></path>
            </g>
            <g id="Powered-By" transform="translate(2.086914, 0.000000)" fill="#000000">
                <path d="M1.66113281,6.890625 L1.66113281,10.6640625 L0,10.6640625 L0,0.7109375 L3.88964844,0.7109375 C4.98795573,0.7109375 5.84814453,0.994628906 6.47021484,1.56201172 C7.09228516,2.12939453 7.40332031,2.87565104 7.40332031,3.80078125 C7.40332031,4.73502604 7.09228516,5.4835612 6.47021484,6.04638672 C5.84814453,6.60921224 4.98795573,6.890625 3.88964844,6.890625 L1.66113281,6.890625 Z M1.66113281,5.55761719 L3.88964844,5.55761719 C4.50488281,5.55761719 4.96744792,5.39355469 5.27734375,5.06542969 C5.58723958,4.73730469 5.7421875,4.3203125 5.7421875,3.81445312 C5.7421875,3.30859375 5.58723958,2.88704427 5.27734375,2.54980469 C4.96744792,2.2125651 4.50488281,2.04394531 3.88964844,2.04394531 L1.66113281,2.04394531 L1.66113281,5.55761719 Z" id="Shape"></path>
                <path d="M8.42871094,6.89746094 C8.42871094,5.79915365 8.72949219,4.8968099 9.33105469,4.19042969 C9.94173177,3.48404948 10.7688802,3.13085938 11.8125,3.13085938 C12.874349,3.13085938 13.7060547,3.48404948 14.3076172,4.19042969 C14.913737,4.8922526 15.2167969,5.79459635 15.2167969,6.89746094 L15.2167969,7.04101562 C15.2167969,8.15299479 14.913737,9.05989583 14.3076172,9.76171875 C13.7060547,10.4589844 12.8789062,10.8076172 11.8261719,10.8076172 C10.7688802,10.8076172 9.93717448,10.4567057 9.33105469,9.75488281 C8.72949219,9.0530599 8.42871094,8.1484375 8.42871094,7.04101562 L8.42871094,6.89746094 Z M10.0898438,7.04101562 C10.0898438,7.76106771 10.2311198,8.34895833 10.5136719,8.8046875 C10.7916667,9.25585938 11.2291667,9.48144531 11.8261719,9.48144531 C12.4049479,9.48144531 12.8378906,9.25585938 13.125,8.8046875 C13.4166667,8.34895833 13.5625,7.76106771 13.5625,7.04101562 L13.5625,6.89746094 C13.5625,6.19108073 13.4166667,5.61002604 13.125,5.15429688 C12.8378906,4.69401042 12.4003906,4.46386719 11.8125,4.46386719 C11.233724,4.46386719 10.8007812,4.69401042 10.5136719,5.15429688 C10.2311198,5.61458333 10.0898438,6.19563802 10.0898438,6.89746094 L10.0898438,7.04101562 Z" id="Shape"></path>
                <polygon id="Path" points="23.1738281 8.53125 23.2148438 8.52441406 24.3701172 3.26757812 25.9628906 3.26757812 23.9394531 10.6640625 22.5791016 10.6640625 21.0068359 5.61230469 20.9931641 5.54394531 20.9863281 5.61230469 19.4277344 10.6640625 18.0673828 10.6640625 16.0439453 3.26757812 17.6367188 3.26757812 18.8193359 8.44921875 18.8603516 8.45605469 20.3984375 3.26757812 21.6083984 3.26757812"></polygon>
                <path d="M30.296875,10.8076172 C29.2486979,10.8076172 28.4135742,10.464681 27.7915039,9.77880859 C27.1694336,9.0929362 26.8583984,8.21223958 26.8583984,7.13671875 L26.8583984,6.86328125 C26.8583984,5.78776042 27.1671549,4.89567057 27.784668,4.18701172 C28.402181,3.47835286 29.1757812,3.12630208 30.1054688,3.13081569 C31.1035156,3.13081569 31.8680013,3.43277995 32.3989258,4.03662109 C32.9298503,4.64046224 33.1953125,5.45052083 33.1953125,6.46679688 L33.1953125,7.44433594 L28.5810547,7.44433594 L28.5673828,7.47851562 C28.5947266,8.06640625 28.7667643,8.54720052 29.0834961,8.92089844 C29.4002279,9.29459635 29.8388672,9.48144531 30.3994141,9.48144531 C30.8460286,9.48144531 31.2288411,9.42675781 31.5478516,9.31738281 C31.866862,9.20800781 32.1744792,9.05078125 32.4707031,8.84570312 L33.0039062,9.93261719 C32.7259115,10.1787109 32.3567708,10.3860677 31.8964844,10.5546875 C31.4361979,10.7233073 30.9029948,10.8076172 30.296875,10.8076172 Z M30.1054688,4.46386719 C29.6953125,4.46386719 29.3580729,4.62679036 29.09375,4.95263672 C28.8294271,5.27848307 28.6653646,5.69205729 28.6015625,6.19335938 L28.6152344,6.22753906 L31.5478516,6.22753906 L31.5478516,6.05664062 C31.5478516,5.58723958 31.4282227,5.20442708 31.1889648,4.90820312 C30.949707,4.61197917 30.5885417,4.46386719 30.1054688,4.46386719 Z" id="Shape"></path>
                <path d="M38.2197266,4.76464844 L37.5087891,4.73730469 C37.1852214,4.73730469 36.9152018,4.80566406 36.6987305,4.94238281 C36.4822591,5.07910156 36.3147786,5.27278646 36.1962891,5.5234375 L36.1962891,10.6640625 L34.5351562,10.6640625 L34.5351562,3.26757812 L36.0527344,3.26757812 L36.1621094,4.34082031 C36.3489583,3.9625651 36.5893555,3.66634115 36.8833008,3.45214844 C37.1772461,3.23795573 37.515625,3.13085938 37.8984375,3.13085938 C37.9986979,3.13085938 38.0921224,3.13883464 38.1787109,3.15478516 C38.2652995,3.17073568 38.3450521,3.19010417 38.4179688,3.21289062 L38.2197266,4.76464844 Z" id="Path"></path>
                <path d="M42.5537109,10.8076172 C41.5055339,10.8076172 40.6704102,10.464681 40.0483398,9.77880859 C39.4262695,9.0929362 39.1152344,8.21223958 39.1152344,7.13671875 L39.1152344,6.86328125 C39.1152344,5.78776042 39.4239909,4.89567057 40.0415039,4.18701172 C40.6590169,3.47835286 41.4326172,3.12630208 42.3623047,3.13081569 C43.3603516,3.13081569 44.1248372,3.43277995 44.6557617,4.03662109 C45.1866862,4.64046224 45.4521484,5.45052083 45.4521484,6.46679688 L45.4521484,7.44433594 L40.8378906,7.44433594 L40.8242188,7.47851562 C40.8515625,8.06640625 41.0236003,8.54720052 41.340332,8.92089844 C41.6570638,9.29459635 42.0957031,9.48144531 42.65625,9.48144531 C43.1028646,9.48144531 43.4856771,9.42675781 43.8046875,9.31738281 C44.1236979,9.20800781 44.4313151,9.05078125 44.7275391,8.84570312 L45.2607422,9.93261719 C44.9827474,10.1787109 44.6136068,10.3860677 44.1533203,10.5546875 C43.6930339,10.7233073 43.1598307,10.8076172 42.5537109,10.8076172 Z M42.3623047,4.46386719 C41.9521484,4.46386719 41.6149089,4.62679036 41.3505859,4.95263672 C41.086263,5.27848307 40.9222005,5.69205729 40.8583984,6.19335938 L40.8720703,6.22753906 L43.8046875,6.22753906 L43.8046875,6.05664062 C43.8046875,5.58723958 43.6850586,5.20442708 43.4458008,4.90820312 C43.206543,4.61197917 42.8453776,4.46386719 42.3623047,4.46386719 Z" id="Shape"></path>
                <path d="M46.484375,7.06835938 C46.484375,5.88802083 46.7373047,4.9366862 47.2431641,4.21435547 C47.7490234,3.49202474 48.4599609,3.13085938 49.3759766,3.13085938 C49.7770182,3.13085938 50.1359049,3.2117513 50.4526367,3.37353516 C50.7693685,3.53531901 51.0439453,3.76660156 51.2763672,4.06738281 L51.2763672,0 L52.9375,0 L52.9375,10.6640625 L51.5429688,10.6640625 L51.3789062,9.74804688 C51.1419271,10.094401 50.8570964,10.3575846 50.5244141,10.5375977 C50.1917318,10.7176107 49.804362,10.8076172 49.3623047,10.8076172 C48.4554036,10.8076172 47.7490234,10.4772135 47.2431641,9.81640625 C46.7373047,9.15559896 46.484375,8.2874349 46.484375,7.21191406 L46.484375,7.06835938 Z M48.1455078,7.21191406 C48.1455078,7.89550781 48.2765299,8.44010417 48.5385742,8.84570312 C48.8006185,9.25130208 49.2164714,9.45410156 49.7861328,9.45410156 C50.1370443,9.45410156 50.4344076,9.37890625 50.6782227,9.22851562 C50.9220378,9.078125 51.1214193,8.86393229 51.2763672,8.5859375 L51.2763672,5.359375 C51.1214193,5.0859375 50.9208984,4.87288411 50.6748047,4.72021484 C50.4287109,4.56754557 50.1370443,4.49121094 49.7998047,4.49121094 C49.2347005,4.49121094 48.8177083,4.72932943 48.5488281,5.20556641 C48.2799479,5.68180339 48.1455078,6.30273438 48.1455078,7.06835938 L48.1455078,7.21191406 Z" id="Shape"></path>
                <path d="M58.4199219,10.6640625 L58.4199219,0.7109375 L61.7285156,0.7109375 C62.8313802,0.7109375 63.6927083,0.93766276 64.3125,1.39111328 C64.9322917,1.8445638 65.2421875,2.52246094 65.2421875,3.42480469 C65.2421875,3.87597656 65.1123047,4.27929688 64.8525391,4.63476562 C64.5927734,4.99023438 64.2327474,5.25455729 63.7724609,5.42773438 C64.3649089,5.55989583 64.820638,5.84472656 65.1396484,6.28222656 C65.4586589,6.71972656 65.6181641,7.22786458 65.6181641,7.80664062 C65.6181641,8.74088542 65.3128255,9.45068359 64.7021484,9.93603516 C64.0914714,10.4213867 63.2483724,10.6640625 62.1728516,10.6640625 L58.4199219,10.6640625 Z M60.0810547,6.13867188 L60.0810547,9.33789062 L62.1728516,9.33789062 C62.7470703,9.33789062 63.1891276,9.20686849 63.4990234,8.94482422 C63.8089193,8.68277995 63.9638672,8.30338542 63.9638672,7.80664062 C63.9638672,7.27799479 63.8339844,6.86783854 63.5742188,6.57617188 C63.3144531,6.28450521 62.9088542,6.13867188 62.3574219,6.13867188 L60.0810547,6.13867188 Z M60.0810547,4.90136719 L61.9130859,4.90136719 C62.4280599,4.90136719 62.8347982,4.77945964 63.1333008,4.53564453 C63.4318034,4.29182943 63.5810547,3.94661458 63.5810547,3.5 C63.5810547,3.0078125 63.4238281,2.64208984 63.109375,2.40283203 C62.7949219,2.16357422 62.3346354,2.04394531 61.7285156,2.04394531 L60.0810547,2.04394531 L60.0810547,4.90136719 Z" id="Shape"></path>
                <path d="M69.6308594,7.69726562 L69.7949219,8.43554688 L69.8359375,8.43554688 L71.4560547,3.26757812 L73.2744141,3.26757812 L70.2119141,11.7851562 C70.0159505,12.3001302 69.7402344,12.7399089 69.3847656,13.1044922 C69.0292969,13.4690755 68.5257161,13.6513672 67.8740234,13.6513672 C67.7373047,13.6513672 67.590332,13.6376953 67.4331055,13.6103516 C67.2758789,13.5830078 67.124349,13.5511068 66.9785156,13.5146484 L67.1630859,12.2294922 C67.2223307,12.2340495 67.3066406,12.2408854 67.4160156,12.25 C67.5253906,12.2591146 67.6074219,12.2636719 67.6621094,12.2636719 C67.9628906,12.2636719 68.2032878,12.1611328 68.3833008,11.9560547 C68.5633138,11.7509766 68.7102865,11.5139974 68.8242188,11.2451172 L69.0976562,10.5751953 L66.4111328,3.26757812 L68.2226562,3.26757812 L69.6308594,7.69726562 Z" id="Path"></path>
            </g>
        </g>
    </g>
</svg>