<?xml version="1.0" encoding="UTF-8"?>
<svg width="334px" height="36px" viewBox="0 0 334 36" version="1.1" xmlns="http://www.w3.org/2000/svg" xmlns:xlink="http://www.w3.org/1999/xlink">
    <title>sea-doo-logo</title>
    <g id="NW-5056-" stroke="none" stroke-width="1" fill="none" fill-rule="evenodd">
        <g id="sea-doo-logo" fill="#000000" fill-rule="nonzero">
            <g id="Group">
                <path d="M62.1,35.6 C62.1,35.6 95.1,35.6 96.2,35.6 C97.3,35.6 98.4,34.5 98.4,33.2 C98.4,32 98.4,29.2 98.4,27.9 C98.4,26.6 97.3,25.6 96.1,25.6 C94.9,25.6 69.7,25.6 69.7,25.6 C68.7,25.6 67.9,24.8 67.9,23.8 C67.9,22.8 68.7,22 69.7,22 C69.7,22 94.7,22 96.1,22 C97.3,22 98.4,20.9 98.4,19.6 C98.4,18.3 98.4,17.6 98.4,16.4 C98.4,15.2 97.3,14.1 96.1,14.1 C94.9,14.1 69.7,14.1 69.7,14.1 C68.7,14.1 67.9,13.3 67.9,12.3 C67.9,11.3 68.7,10.5 69.7,10.5 C69.7,10.5 94.9,10.5 96.1,10.5 C97.2,10.5 98.4,9.4 98.4,8.1 C98.4,6.8 98.4,3.5 98.4,2.3 C98.4,1.1 97.3,0 96.1,0 C94.9,0 62.1,0 62.1,0 C57.8,0 54.3,3.5 54.3,7.8 L54.3,27.9 C54.3,32.1 57.8,35.6 62.1,35.6 L62.1,35.6 Z" id="Path"></path>
                <path d="M110.2,35.6 L134.6,35.6 C134.6,35.6 137.3,35.6 135.2,33.2 C134.3,32.2 131.6,29.2 129.9,27.4 C128.2,25.5 127.6,25.6 126.7,25.6 C125.8,25.6 119.3,25.6 119.3,25.6 C118,25.6 117,24.5 117,23.3 L117,12.8 C117,11.5 118.9,10.5 120.6,12.3 C120.6,12.3 139.4,33.3 140.6,34.5 C141.8,35.7 143.1,35.6 143.1,35.6 C143.1,35.6 154.8,35.6 157.2,35.6 C158.1,35.6 159.2,34.4 158.1,33.2 L129.8,1.7 C128.2,0.1 127.6,0 126.3,0 C125,0 110.2,0 110.2,0 C105.9,0 102.4,3.5 102.4,7.8 L102.4,27.9 C102.4,32.1 105.9,35.6 110.2,35.6 L110.2,35.6 Z" id="Path"></path>
                <path d="M204.2,25.7 C204.2,25.7 175.3,25.7 174.4,25.7 C173.5,25.7 172.9,25.6 171.2,27.5 C169.5,29.4 166.8,32.3 165.9,33.3 C163.8,35.7 166.5,35.7 166.5,35.7 L213.3,35.7 C217.6,35.7 221.1,32.2 221.1,27.9 L221.1,7.8 C221.1,3.5 217.6,0 213.3,0 C213.3,0 198.5,0 197.2,0 C195.9,0 195.3,0.2 193.7,1.7 L176.6,20.8 C175.5,21.9 176.6,23.1 177.5,23.1 C179.9,23.1 191.6,23.1 191.6,23.1 C191.6,23.1 192.9,23.2 194.1,22 C195.3,20.8 203.1,12.3 203.1,12.3 C204.7,10.4 206.7,11.5 206.7,12.8 L206.7,23.4 C206.5,24.6 205.5,25.7 204.2,25.7 L204.2,25.7 Z" id="Path"></path>
                <path d="M162,25.5 C168.1,25.5 173,20.6 173,14.5 C173,8.4 168.1,3.5 162,3.5 C155.9,3.5 151,8.4 151,14.5 C151,20.5 155.9,25.5 162,25.5 L162,25.5 Z" id="Path"></path>
                <path d="M233.2,35.6 L264.4,35.6 C268.7,35.6 272.2,32.1 272.2,27.8 L272.2,7.8 C272.2,3.5 268.7,0 264.4,0 L233.2,0 C228.9,0 225.4,3.5 225.4,7.8 L225.4,27.9 C225.5,32.1 228.9,35.6 233.2,35.6 L233.2,35.6 Z M242.2,12.3 C242.2,11.3 243,10.4 244.1,10.4 L253.6,10.4 C254.6,10.4 255.5,11.2 255.5,12.3 L255.5,24 C255.5,25 254.7,25.9 253.6,25.9 L244.1,25.9 C243.1,25.9 242.2,25.1 242.2,24 L242.2,12.3 L242.2,12.3 Z" id="Shape"></path>
                <path d="M284.2,35.6 L315.4,35.6 C319.7,35.6 323.2,32.1 323.2,27.8 L323.2,7.8 C323.2,3.5 319.7,0 315.4,0 L284.2,0 C279.9,0 276.4,3.5 276.4,7.8 L276.4,27.9 C276.4,32.1 279.9,35.6 284.2,35.6 L284.2,35.6 Z M293.2,12.3 C293.2,11.3 294,10.4 295.1,10.4 L304.6,10.4 C305.6,10.4 306.5,11.2 306.5,12.3 L306.5,24 C306.5,25 305.7,25.9 304.6,25.9 L295,25.9 C294,25.9 293.1,25.1 293.1,24 L293.1,12.3 L293.2,12.3 Z" id="Shape"></path>
                <path d="M2.3,35.6 C3.6,35.6 42.1,35.6 42.1,35.6 C46.4,35.6 49.9,32.1 49.9,27.8 C49.9,27.8 49.9,17.7 49.9,16.4 C49.9,15.1 48.9,14.1 47.6,14.1 C46.2,14.1 22.2,14.1 22.2,14.1 C21.1,14.1 20.2,13.3 20.2,12.3 C20.2,11.3 21.1,10.5 22.2,10.5 C22.2,10.5 46.3,10.5 47.6,10.5 C48.9,10.5 49.9,9.4 49.9,8.1 C49.9,6.9 49.9,3.6 49.9,2.4 C49.9,1.1 48.8,0.1 47.6,0.1 C46.3,0.1 13.7,0.1 13.7,0.1 C9.2,4.16333634e-17 5.7,3.5 5.7,7.8 C5.7,7.8 5.7,17.4 5.7,19.7 C5.7,21.2 6.7,22.1 8,22.1 C9.3,22.1 30.8,22.1 30.8,22.1 C32,22.1 32.9,22.9 32.9,23.9 C32.9,24.9 31.9,25.7 30.8,25.7 C30.8,25.7 3.4,25.7 2.2,25.7 C1,25.7 0,26.8 0,28 C0,29.2 0,32 0,33.3 C0,34.7 1,35.6 2.3,35.6 L2.3,35.6 Z" id="Path"></path>
            </g>
            <g id="Group" transform="translate(325.700000, 28.400000)">
                <path d="M3.7,7.2 C5.7,7.2 7.4,5.6 7.4,3.6 C7.4,1.6 5.7,0 3.7,0 C1.7,0 0,1.6 0,3.6 C0,5.6 1.6,7.2 3.7,7.2 Z M3.7,0.7 C5.4,0.7 6.7,2 6.7,3.7 C6.7,5.3 5.4,6.7 3.7,6.7 C2,6.7 0.7,5.4 0.7,3.7 C0.6,2 2,0.7 3.7,0.7 Z" id="Shape"></path>
                <path d="M3,4 L3.6,4 L4.6,5.7 L5.4,5.7 L4.3,4 C4.9,3.9 5.3,3.6 5.3,2.9 C5.3,2.1 4.8,1.7 3.8,1.7 L2.2,1.7 L2.2,5.8 L3,5.8 L3,4 Z M3,2.2 L3.6,2.2 C4.1,2.2 4.6,2.2 4.6,2.8 C4.6,3.4 4.1,3.4 3.6,3.4 L3,3.4 L3,2.2 Z" id="Shape"></path>
            </g>
        </g>
    </g>
</svg>