<?xml version="1.0" encoding="UTF-8"?>
<svg width="137px" height="30px" viewBox="0 0 137 30" version="1.1" xmlns="http://www.w3.org/2000/svg" xmlns:xlink="http://www.w3.org/1999/xlink">
    <title>SkodaLogo</title>
    <defs>
        <linearGradient x1="50%" y1="0%" x2="50%" y2="100%" id="linearGradient-1">
            <stop stop-color="#FFFFFF" offset="0%"></stop>
            <stop stop-color="#C4BFBF" offset="100%"></stop>
        </linearGradient>
    </defs>
    <g id="Marques-and-logos" stroke="none" stroke-width="1" fill="none" fill-rule="evenodd">
        <g id="SkodaLogo" fill-rule="nonzero">
            <g id="White_Backing" fill="#FFFFFF">
                <path d="M14.7,29 C12.813811,28.9824112 10.9478625,28.6092215 9.2,27.9 C5.8000891,26.4998663 3.10013365,23.7999109 1.7,20.4 C0.981067928,18.6550646 0.607499401,16.7872219 0.6,14.9 C0.617588795,13.013811 0.990778495,11.1478625 1.7,9.4 C3.10013365,6.0000891 5.8000891,3.30013365 9.2,1.9 C10.9449354,1.18106793 12.8127781,0.807499401 14.7,0.8 C16.586189,0.817588795 18.4521375,1.1907785 20.2,1.9 C23.5999109,3.30013365 26.2998663,6.0000891 27.7,9.4 C28.4189321,11.1449354 28.7925006,13.0127781 28.8,14.9 C28.7824112,16.786189 28.4092215,18.6521375 27.7,20.4 C26.2998663,23.7999109 23.5999109,26.4998663 20.2,27.9 C18.4550646,28.6189321 16.5872219,28.9925006 14.7,29 Z" id="Path"></path>
            </g>
            <g id="Outline_Ring">
                <path d="M14.7,0.7 C6.85755655,0.7 0.5,7.05755655 0.5,14.9 C0.5,22.7424434 6.85755655,29.1 14.7,29.1 C22.5424434,29.1 28.9,22.7424434 28.9,14.9 C28.8725705,7.06894637 22.5310536,0.727429512 14.7,0.7 Z M14.7,28.9 C6.9680135,28.9 0.7,22.6319865 0.7,14.9 C0.7,7.1680135 6.9680135,0.9 14.7,0.9 C22.4319865,0.9 28.7,7.1680135 28.7,14.9 C28.7,18.6130309 27.2250042,22.1739856 24.5994949,24.7994949 C21.9739856,27.4250042 18.4130309,28.9 14.7,28.9 Z" id="Shape" fill="#000000"></path>
                <circle id="Oval" fill="url(#linearGradient-1)" cx="14.7" cy="14.9" r="14"></circle>
            </g>
            <g id="Inner_Ring" transform="translate(1.000000, 1.000000)">
                <path d="M13.7,26.7 C10.278866,26.7096781 6.99828893,25.3397668 4.6,22.9 C2.16689489,20.4972101 0.798206194,17.2195609 0.8,13.8 C0.771912254,10.3752293 2.14470439,7.08775344 4.6,4.7 C7.00278989,2.26689489 10.2804391,0.898206194 13.7,0.9 C17.1247707,0.871912254 20.4122466,2.24470439 22.8,4.7 C25.2331051,7.10278989 26.6017938,10.3804391 26.6,13.8 C26.6280877,17.2247707 25.2552956,20.5122466 22.8,22.9 C20.4122466,25.3552956 17.1247707,26.7280877 13.7,26.7 Z" id="Path" fill="#FFFFFF"></path>
                <path d="M13.7,26.5 C10.3557705,26.5172915 7.14634126,25.1830344 4.8,22.8 C2.4003632,20.4648967 1.06303233,17.2480737 1.1,13.9 C1.11649341,6.94805541 6.74805541,1.31649341 13.7,1.3 C20.6519446,1.31649341 26.2835066,6.94805541 26.300166,13.9 C26.3172915,17.2442295 24.9830344,20.4536587 22.6,22.8 C20.2648967,25.1996368 17.0480737,26.5369677 13.7,26.5 Z" id="Path" fill="#222221"></path>
                <path d="M13.7,25.5 C9.00975304,25.4980287 4.78221274,22.6718029 2.98759964,18.3384688 C1.19298653,14.0051348 2.18447989,9.01749105 5.5,5.7 C7.67392216,3.52361815 10.62387,2.30073257 13.7,2.30073257 C16.77613,2.30073257 19.7260778,3.52361815 21.9,5.7 C25.2155201,9.01749105 26.2070135,14.0051348 24.4124004,18.3384688 C22.6177873,22.6718029 18.390247,25.4980287 13.7,25.5 L13.7,25.5 Z" id="Path" fill="#FFFFFF"></path>
            </g>
            <g id="Group" transform="translate(5.000000, 5.000000)" fill="#222221">
                <path d="M4,14.5 L5.8,15.1 C6.09359483,15.2144974 6.42670633,15.1528529 6.65988441,14.9408729 C6.89306249,14.7288928 6.98608111,14.4031462 6.9,14.1 C6.4,11.1 4.5,9.3 0.7,8.6 C0.6,8.6 0.6,8.6 0.6,8.5 C0.698601899,7.6534569 0.97095566,6.83639562 1.4,6.1 C1.4,6.04477153 1.44477153,6 1.5,6 L1.5,5.2 C1.4,5.2 1.4,5.3 1.3,5.4 C0.77089388,6.36829815 0.399565799,7.41476819 0.2,8.5 C0.2,8.7 0.3,8.9 0.5,8.9 C4.2,9.5 6.1,11.2 6.5,14.1 C6.5,14.3 6.5,14.4 6.4,14.5 C6.31999883,14.5765403 6.20992511,14.6132315 6.1,14.6 C5.95904018,14.6149638 5.81733451,14.5795374 5.7,14.5 L4.1,13.7 L3.9,13.7 L4,14.4 C3.9,14.5 3.9,14.5 4,14.5 Z" id="Path"></path>
                <path d="M18.1,15.4 L17.3,15.5 L17.3,15.6 C16.7356617,16.1075202 16.0446192,16.4530415 15.3,16.6 C15.2,16.6 15.2,16.6 15.2,16.5 L15.2,16.4 C15.1854832,16.1853864 15.0146136,16.0145168 14.8,16 L5.5,16 C5.39007489,15.9867685 5.28000117,16.0234597 5.2,16.1 C4.9,16.3 4.5,16.5 4.2,16.7 C4.11999883,16.7765403 4.00992511,16.8132315 3.9,16.8 L3,16.8 C2.9,16.8 2.8,16.8 2.8,16.7 C2.4,16 2,15.5 1.5,14.7 C1.4,14.6 1.4,14.6 1.5,14.5 L1.5,14.5 L0.9,13.9 C0.845694603,13.9539389 0.810567858,14.0241924 0.8,14.1 C0.88327478,14.3291901 1.02046867,14.5349809 1.2,14.7 C1.3,14.8 1.4,15 1.5,15.1 L1.8,15.5 C2.05581055,15.8518693 2.28959106,16.2192387 2.5,16.6 L2.6,16.8 C2.7,16.9 2.7,17 2.9,17 L4.1,17 C4.20992511,17.0132315 4.31999883,16.9765403 4.4,16.9 L5.5,16.3 C5.55190467,16.2429464 5.62321432,16.2072916 5.7,16.2 L14.7,16.2 C14.9,16.2 14.9,16.4 14.9,16.5 L14.9,16.8 C14.9093007,16.9063667 14.9936333,16.9906993 15.1,17 L15.1,17 C16.2053376,16.8040754 17.2398409,16.3213072 18.1,15.6 L18.1,15.4 Z" id="Path"></path>
                <path d="M14.8,14 L14.8,14.4 C14.8,14.5 14.7,14.7 14.6,14.7 L14.4,14.7 C14.2900749,14.7132315 14.1800012,14.6765403 14.1,14.6 C14,14.5 14,14.2 14,14.1 L14.1,13.9 C14.6940429,11.855911 14.9308516,9.72463287 14.8,7.6 C14.7905557,8.48963383 14.6211934,9.37031792 14.3,10.2 C14.1877092,11.5517068 13.953422,12.8904912 13.6,14.2 C13.4,14.8 13.8,15.1 14.3,15.1 L14.8,15.1 C15.0146136,15.0854832 15.1854832,14.9146136 15.2,14.7 L15.2,14.5 L15,13.9 C14.8,13.8 14.8,13.9 14.8,14 Z" id="Path"></path>
                <path d="M11.2,10.4999719 C10.721794,10.4973209 10.2623988,10.6861028 9.92425077,11.0242508 C9.58610279,11.3623988 9.39732091,11.821794 9.4,12.3 C9.3788718,12.705705 9.523208,13.1026296 9.8,13.4 L10.6,12.8 C10.4890756,12.6175783 10.4207135,12.412492 10.4,12.2 C10.4,11.5924868 10.8924868,11.1 11.5,11.1 C12.1075132,11.1 12.6,11.5924868 12.6,12.2 C12.6159605,12.518314 12.4642275,12.82178 12.2,13 L12.6,13.4 C12.8348877,13.0786519 12.9736101,12.6971655 13.0000281,12.3 C13.0026791,11.821794 12.8138972,11.3623988 12.4757492,11.0242508 C12.1376012,10.6861028 11.678206,10.4973209 11.2,10.4999719 Z" id="Path"></path>
                <path d="M2.7,4.1 C3.87096798,4.75056575 4.94758585,5.55802915 5.9,6.5 C5.84477153,6.5 5.8,6.54477153 5.8,6.6 C6.1113165,6.85712259 6.38114985,7.1606851 6.6,7.5 C7,8 7.2,8.3 7.4,8.5 L7.4,8.5 C7.7,8.5 7.9,8.5 8,8.4 C8.1,8.3 8.1,8.3 7.9,8.1 C7.9,8 7.8,8 7.8,7.9 C7.8,7.8 7.6,7.6 7.5,7.5 L7.5,7.5 C7.4,7.4 7.3,7.2 7.2,7.1 L7.2,7.1 C7.07647812,6.98604602 6.9748097,6.85048812 6.9,6.7 L6.9,6.7 L6.6,6.4 L6.6,6.4 L6.3,6.1 L6.3,6.1 L6,5.8 L6,5.8 L5.7,5.5 L5.7,5.5 L5.4,5.2 L5.4,5.2 C5.3,5.1 5.2,5 5.1,5 L5.1,5 C5,4.9 4.9,4.9 4.8,4.8 L4.8,4.8 C4.7,4.7 4.6,4.7 4.5,4.6 L4.5,4.6 C4.4,4.5 4.3,4.5 4.2,4.4 L4.2,4.4 C4.1,4.3 4,4.3 3.9,4.2 L3.9,4.2 C3.8,4.1 3.7,4.1 3.6,4 L3.6,4 C3.54809533,3.94294641 3.47678568,3.90729159 3.4,3.9 L3.4,3.9 C3.32419236,3.88943214 3.25393887,3.8543054 3.2,3.8 C3.1,3.7 3,3.7 3.2,3.5 C3.6826005,3.00771345 4.21934718,2.57160677 4.8,2.2 L4.9,2.2 L5.3,1.6 L5.3,1.6 C5.2,1.6 5.1,1.6 5.1,1.7 C4.2096359,2.25008072 3.40162046,2.92342691 2.7,3.7 C2.6,3.8 2.6,3.8 2.6,3.9 C2.4,3.8 2.5,3.9 2.7,4.1 Z" id="Path"></path>
                <path d="M6.9,1.1 C8.08505661,2.02721766 9.07131678,3.18352268 9.8,4.5 L9.6,4.5 C10.0569137,5.33924787 10.4577895,6.20781216 10.8,7.1 L10.8,7.2 L11.2,7.2 C11.3,7.2 11.3,7.2 11.3,7.1 L11.3,7 C10.7716289,5.16638855 9.81147684,3.48612247 8.5,2.1 L8.5,2.1 L8.4,2 L8.4,2 L8.3,1.9 L8.3,1.9 L8.2,1.8 L8.2,1.8 L8.1,1.7 L8.1,1.7 L8,1.6 L8,1.6 C7.94477153,1.6 7.9,1.55522847 7.9,1.5 L7.8,1.4 L7.7,1.3 L7.6,1.2 C7.5,1.1 7.5,1 7.7,1 C8.32616327,0.8589332 8.9608349,0.75872189 9.6,0.7 L10,0.7 L10.7,0.4 L9.9,0.4 C8.9510199,0.37843814 8.00498357,0.513586187 7.1,0.8 C6.9,0.8 6.9,0.9 6.9,1 C6.8,0.9 6.8,1 6.9,1.1 Z" id="Path"></path>
            </g>
            <g id="Figure_P362C" transform="translate(5.000000, 5.000000)" fill="#4BA82E">
                <path d="M17.2,15.4 C16.6107263,14.9302744 15.9293447,14.5895836 15.2,14.4 C15.1,14.4 15.1,14.4 15.1,14.5 L15.1,14.6 C15.0854832,14.8146136 14.9146136,14.9854832 14.7,15 L14.2,15 C13.9809443,14.9898592 13.7772997,14.8843551 13.6426685,14.7112578 C13.5080373,14.5381605 13.4559073,14.3148117 13.5,14.1 C15.3,7.5 13.3,3.4 10.4,0.8 C10.1,0.5 9.9,0.6 9.5,0.6 C8.8550188,0.601837455 8.21416987,0.703024128 7.6,0.9 C7.4,0.9 7.4,1 7.5,1.1 C9.35871629,2.67563206 10.7146481,4.76168106 11.4,7.1 C11.4,7.2 11.4,7.2 11.3,7.2 C10.7743574,7.20887821 10.2819325,6.94372632 10,6.5 C8.58790687,4.75637597 6.85717507,3.2971315 4.9,2.2 C4.86400438,2.15370101 4.80864539,2.12661904 4.75,2.12661904 C4.69135461,2.12661904 4.63599562,2.15370101 4.6,2.2 C3.98357677,2.51966102 3.43907718,2.96206693 3,3.5 C2.95370101,3.53599562 2.92661904,3.59135461 2.92661904,3.65 C2.92661904,3.70864539 2.95370101,3.76400438 3,3.8 C5.00197943,4.87509052 6.74308518,6.37722096 8.1,8.2 C8.17654029,8.28000117 8.21323153,8.39007489 8.2,8.5 C7.61799145,8.67805672 6.98590808,8.5665126 6.5,8.2 C4.93879219,7.31557426 3.29832141,6.57903636 1.6,6 C1.4,5.9 1.3,6 1.3,6.1 C0.914691196,6.85544046 0.645017236,7.66446235 0.5,8.5 C0.5,8.6 0.5,8.6 0.6,8.6 C4.4,9.4 6.3,11.1 6.8,14.1 C6.88608111,14.4031462 6.79306249,14.7288928 6.55988441,14.9408729 C6.32670633,15.1528529 5.99359483,15.2144974 5.7,15.1 L3.9,14.5 L1.3,14.5 C1.2,14.5 1.1,14.6 1.2,14.7 C1.7,15.5 2.1,16 2.5,16.7 C2.5,16.8 2.6,16.8 2.7,16.8 L3.6,16.8 C3.70992511,16.8132315 3.81999883,16.7765403 3.9,16.7 C4.2,16.5 4.6,16.3 4.9,16.1 C4.98000117,16.0234597 5.09007489,15.9867685 5.2,16 L14.5,16 C14.7146136,16.0145168 14.8854832,16.1853864 14.9,16.4 L14.9,16.5 C14.9,16.6 14.9,16.6 15,16.6 C15.7371403,16.4316722 16.4230536,16.0887156 17,15.6 C17.3,15.5 17.3,15.4 17.2,15.4 Z M11.2,14.2 C10.2058875,14.2 9.4,13.3941125 9.4,12.4 C9.4,11.4058875 10.2058875,10.6 11.2,10.6 C12.1941125,10.6 13,11.4058875 13,12.4 C12.9688365,13.3809143 12.1809143,14.1688365 11.2,14.2 L11.2,14.2 Z" id="Shape"></path>
                <path d="M17.2,15.4 C16.6107263,14.9302744 15.9293447,14.5895836 15.2,14.4 C15.1,14.4 15.1,14.4 15.1,14.5 L15.1,14.6 C15.0854832,14.8146136 14.9146136,14.9854832 14.7,15 L14.2,15 C13.9809443,14.9898592 13.7772997,14.8843551 13.6426685,14.7112578 C13.5080373,14.5381605 13.4559073,14.3148117 13.5,14.1 C15.3,7.5 13.3,3.4 10.4,0.8 C10.1,0.5 9.9,0.6 9.5,0.6 C8.8550188,0.601837455 8.21416987,0.703024128 7.6,0.9 C7.4,0.9 7.4,1 7.5,1.1 C9.35871629,2.67563206 10.7146481,4.76168106 11.4,7.1 C11.4,7.2 11.4,7.2 11.3,7.2 C10.7743574,7.20887821 10.2819325,6.94372632 10,6.5 C8.58790687,4.75637597 6.85717507,3.2971315 4.9,2.2 C4.86400438,2.15370101 4.80864539,2.12661904 4.75,2.12661904 C4.69135461,2.12661904 4.63599562,2.15370101 4.6,2.2 C3.98357677,2.51966102 3.43907718,2.96206693 3,3.5 C2.95370101,3.53599562 2.92661904,3.59135461 2.92661904,3.65 C2.92661904,3.70864539 2.95370101,3.76400438 3,3.8 C5.00197943,4.87509052 6.74308518,6.37722096 8.1,8.2 C8.17654029,8.28000117 8.21323153,8.39007489 8.2,8.5 C7.61799145,8.67805672 6.98590808,8.5665126 6.5,8.2 C4.93879219,7.31557426 3.29832141,6.57903636 1.6,6 C1.4,5.9 1.3,6 1.3,6.1 C0.914691196,6.85544046 0.645017236,7.66446235 0.5,8.5 C0.5,8.6 0.5,8.6 0.6,8.6 C4.4,9.4 6.3,11.1 6.8,14.1 C6.88608111,14.4031462 6.79306249,14.7288928 6.55988441,14.9408729 C6.32670633,15.1528529 5.99359483,15.2144974 5.7,15.1 L3.9,14.5 L1.3,14.5 C1.2,14.5 1.1,14.6 1.2,14.7 C1.7,15.5 2.1,16 2.5,16.7 C2.5,16.8 2.6,16.8 2.7,16.8 L3.6,16.8 C3.70992511,16.8132315 3.81999883,16.7765403 3.9,16.7 C4.2,16.5 4.6,16.3 4.9,16.1 C4.98000117,16.0234597 5.09007489,15.9867685 5.2,16 L14.5,16 C14.7146136,16.0145168 14.8854832,16.1853864 14.9,16.4 L14.9,16.5 C14.9,16.6 14.9,16.6 15,16.6 C15.7371403,16.4316722 16.4230536,16.0887156 17,15.6 C17.3,15.5 17.3,15.4 17.2,15.4 Z M11.2,14.2 C10.2058875,14.2 9.4,13.3941125 9.4,12.4 C9.4,11.4058875 10.2058875,10.6 11.2,10.6 C12.1941125,10.6 13,11.4058875 13,12.4 C12.9688365,13.3809143 12.1809143,14.1688365 11.2,14.2 L11.2,14.2 Z" id="Shape"></path>
                <path d="M17.2,15.4 C16.6107263,14.9302744 15.9293447,14.5895836 15.2,14.4 C15.1,14.4 15.1,14.4 15.1,14.5 L15.1,14.6 C15.0854832,14.8146136 14.9146136,14.9854832 14.7,15 L14.2,15 C13.9809443,14.9898592 13.7772997,14.8843551 13.6426685,14.7112578 C13.5080373,14.5381605 13.4559073,14.3148117 13.5,14.1 C15.3,7.5 13.3,3.4 10.4,0.8 C10.1,0.5 9.9,0.6 9.5,0.6 C8.8550188,0.601837455 8.21416987,0.703024128 7.6,0.9 C7.4,0.9 7.4,1 7.5,1.1 C9.35871629,2.67563206 10.7146481,4.76168106 11.4,7.1 C11.4,7.2 11.4,7.2 11.3,7.2 C10.7743574,7.20887821 10.2819325,6.94372632 10,6.5 C8.58790687,4.75637597 6.85717507,3.2971315 4.9,2.2 C4.86400438,2.15370101 4.80864539,2.12661904 4.75,2.12661904 C4.69135461,2.12661904 4.63599562,2.15370101 4.6,2.2 C3.98357677,2.51966102 3.43907718,2.96206693 3,3.5 C2.95370101,3.53599562 2.92661904,3.59135461 2.92661904,3.65 C2.92661904,3.70864539 2.95370101,3.76400438 3,3.8 C5.00197943,4.87509052 6.74308518,6.37722096 8.1,8.2 C8.17654029,8.28000117 8.21323153,8.39007489 8.2,8.5 C7.61799145,8.67805672 6.98590808,8.5665126 6.5,8.2 C4.93879219,7.31557426 3.29832141,6.57903636 1.6,6 C1.4,5.9 1.3,6 1.3,6.1 C0.914691196,6.85544046 0.645017236,7.66446235 0.5,8.5 C0.5,8.6 0.5,8.6 0.6,8.6 C4.4,9.4 6.3,11.1 6.8,14.1 C6.88608111,14.4031462 6.79306249,14.7288928 6.55988441,14.9408729 C6.32670633,15.1528529 5.99359483,15.2144974 5.7,15.1 L3.9,14.5 L1.3,14.5 C1.2,14.5 1.1,14.6 1.2,14.7 C1.7,15.5 2.1,16 2.5,16.7 C2.5,16.8 2.6,16.8 2.7,16.8 L3.6,16.8 C3.70992511,16.8132315 3.81999883,16.7765403 3.9,16.7 C4.2,16.5 4.6,16.3 4.9,16.1 C4.98000117,16.0234597 5.09007489,15.9867685 5.2,16 L14.5,16 C14.7146136,16.0145168 14.8854832,16.1853864 14.9,16.4 L14.9,16.5 C14.9,16.6 14.9,16.6 15,16.6 C15.7371403,16.4316722 16.4230536,16.0887156 17,15.6 C17.3,15.5 17.3,15.4 17.2,15.4 Z M11.2,14.2 C10.2058875,14.2 9.4,13.3941125 9.4,12.4 C9.4,11.4058875 10.2058875,10.6 11.2,10.6 C12.1941125,10.6 13,11.4058875 13,12.4 C12.9688365,13.3809143 12.1809143,14.1688365 11.2,14.2 L11.2,14.2 Z" id="Shape"></path>
            </g>
            <g id="Outline_Black" transform="translate(5.000000, 5.000000)">
                <path d="M18.1,15.1 C17.2471754,14.2906909 16.1638586,13.7665054 15,13.6 C14.7853864,13.6145168 14.6145168,13.7853864 14.6,14 L14.6,14.4 C14.6,14.5 14.6,14.5 14.5,14.5 L14.3,14.5 C14.2,14.5 14.2,14.5 14.1,14.4 L14.1,14.1 L14.2,13.9 C15.4,9.9 15.8,4.4 11.1,0.4 C10.9,0.2 10.7,0.2 10.5,0.1 L9.8,0.1 C8.8510199,0.07843814 7.90498357,0.213586187 7,0.5 C6.8,0.6 6.7,0.7 6.7,0.8 C6.67894273,0.96162858 6.75806277,1.11986867 6.9,1.2 C7.94237046,2.10014956 8.85146721,3.14392731 9.6,4.3 C9.2,4.3 9,4.1 8.7,3.8 C7.65983354,2.9208065 6.55690565,2.11867712 5.4,1.4 C5.3,1.4 5.2,1.3 5.1,1.3 C4.99007489,1.28676847 4.88000117,1.32345971 4.8,1.4 C3.85724853,1.95831417 3.01266055,2.66776807 2.3,3.5 C2.22345971,3.58000117 2.18676847,3.69007489 2.2,3.8 C2.2,4 2.4,4.1 2.7,4.2 C3.79695232,4.83929616 4.83443168,5.57557184 5.8,6.4 L5.6,6.4 C5.28241204,6.36362947 4.97589268,6.26145635 4.7,6.1 C3.72143986,5.64835436 2.72009227,5.24781532 1.7,4.9 L1.5,4.9 C1.2,4.9 1.1,5.1 1.1,5.2 C0.586298019,6.17511691 0.215822612,7.21918396 0,8.3 C0,8.6 0.1,8.9 0.4,8.9 C4,9.5 5.9,11.1 6.3,14 C6.3,14.1 6.3,14.3 6.2,14.3 C6.14809533,14.3570536 6.07678568,14.3927084 6,14.4 C5.89007489,14.4132315 5.78000117,14.3765403 5.7,14.3 L4.1,13.5 C4.02419236,13.4894321 3.95393887,13.4543054 3.9,13.4 L1.1,13.4 C0.7,13.4 0.6,13.6 0.6,13.9 C0.6,14.2 0.8,14.3 1,14.6 C1.1,14.7 1.2,14.9 1.3,15 L1.6,15.4 C1.85581055,15.7518693 2.08959106,16.1192387 2.3,16.5 L2.4,16.7 C2.5,16.9 2.6,16.9 2.8,16.9 L4,16.9 C4.10992511,16.9132315 4.21999883,16.8765403 4.3,16.8 L5.4,16.2 L14.6,16.2 C14.6552285,16.2 14.7,16.2447715 14.7,16.3 L14.7,16.6 C14.7,16.8 14.8,17 15,17 L15.1,17 C16.2638586,16.8334946 17.3471754,16.3093091 18.2,15.5 C18.2765403,15.4199988 18.3132315,15.3099251 18.3,15.2 C18.3,15.3 18.2,15.2 18.1,15.1 Z M18,15.6 C17.1907906,16.3978298 16.1312595,16.8922776 15,17 L15,17 C14.9,17 14.9,16.9 14.9,16.8 L14.9,16.5 C14.9097741,16.4178255 14.8813244,16.335707 14.8228087,16.2771913 C14.764293,16.2186756 14.6821745,16.1902259 14.6,16.2 L5.5,16.2 C5.39007489,16.1867685 5.28000117,16.2234597 5.2,16.3 C4.8,16.5 4.5,16.7 4.1,16.9 C4.02419236,16.9105679 3.95393887,16.9456946 3.9,17 L2.7,17 C2.6,17 2.5,17 2.5,16.9 L2.4,16.7 C1.9,15.9 1.9,15.8 1.4,15.1 C1.1,14.6 0.7,14.3 0.7,14.1 C0.690225902,14.0178255 0.718675568,13.935707 0.777191287,13.8771913 C0.835707006,13.8186756 0.917825517,13.7902259 1,13.8 L4,13.8 C4,13.8 5.1,14.3 5.6,14.6 C6.1,14.9 6.6,14.6 6.5,14.1 C6,10.7 3.6,9.4 0.4,8.8 C0.2,8.8 0.2,8.6 0.2,8.4 C0.381043269,7.32359272 0.717913048,6.27929641 1.2,5.3 C1.29639239,5.17647482 1.44334442,5.10299881 1.6,5.1 C2.62643309,5.43045914 3.628818,5.83141311 4.6,6.3 C5.4,6.7 5.7,6.6 6,6.4 L6,6.2 C4.96079255,5.31958488 3.85777235,4.51738838 2.7,3.8 C2.4,3.7 2.3,3.6 2.5,3.4 C3.20162046,2.62342691 4.0096359,1.95008072 4.9,1.4 C5.01388026,1.2981424 5.18611974,1.2981424 5.3,1.4 C6.45690565,2.11867712 7.55983354,2.9208065 8.6,3.8 C8.9263421,4.10634693 9.35268437,4.28398954 9.8,4.3 C9.9,4.3 10,4.3 10,4.2 C9.21870496,2.92080927 8.23993799,1.77328939 7.1,0.8 C7,0.7 7,0.7 7,0.6 C7,0.5 7.1,0.5 7.2,0.5 C8.10498357,0.213586187 9.0510199,0.07843814 10,0.1 L10.6,0.1 C10.8,0.1 10.9,0.2 11.1,0.3 C16,4.4 15.1,10.3 14.1,13.6 L14.1,13.6 C14.1,13.7 14.1,13.7 14,13.8 C13.9842383,14.0051477 14.0185559,14.2110533 14.1,14.4 C14.2,14.5 14.3,14.6 14.4,14.6 L14.6,14.6 C14.761447,14.5901888 14.8901888,14.461447 14.9,14.3 L14.9,13.9 C14.9093007,13.7936333 14.9936333,13.7093007 15.1,13.7 L15.1,13.7 C16.1752372,13.8965855 17.177285,14.3803328 18,15.1 C18.0543054,15.1539389 18.0894321,15.2241924 18.1,15.3 C18.1,15.5 18,15.5 18,15.6 Z" id="Shape" fill="#222221"></path>
                <path d="M11.5,11 C10.7820298,11 10.2,11.5820298 10.2,12.3 C10.2,13.0179702 10.7820298,13.6 11.5,13.6 C12.2179702,13.6 12.8,13.0179702 12.8,12.3 C12.7517615,11.6029875 12.1970125,11.0482385 11.5,11 L11.5,11 Z M11.5,13.3 C11.0550915,13.3 10.6539916,13.0319936 10.4837325,12.6209518 C10.3134734,12.2099099 10.4075847,11.7367803 10.7221825,11.4221825 C11.0367803,11.1075847 11.5099099,11.0134734 11.9209518,11.1837325 C12.3319936,11.3539916 12.6,11.7550915 12.6,12.2 C12.6318964,12.500388 12.5262975,12.7990966 12.3126971,13.0126971 C12.0990966,13.2262975 11.800388,13.3318964 11.5,13.3 Z" id="Shape" fill="#222221"></path>
                <path d="M11.5,13.3 C11.0550915,13.3 10.6539916,13.0319936 10.4837325,12.6209518 C10.3134734,12.2099099 10.4075847,11.7367803 10.7221825,11.4221825 C11.0367803,11.1075847 11.5099099,11.0134734 11.9209518,11.1837325 C12.3319936,11.3539916 12.6,11.7550915 12.6,12.2 C12.6318964,12.500388 12.5262975,12.7990966 12.3126971,13.0126971 C12.0990966,13.2262975 11.800388,13.3318964 11.5,13.3 Z" id="Path" fill="#FFFFFF"></path>
            </g>
            <g id="Lettering" transform="translate(38.000000, 4.000000)" fill="#222221">
                <path d="M0.6,18 C2.7,18.1 6.1,18.2 8.1,18.2 C16.7,18.2 17.7,18.2 17.7,13.5 C17.7,9.8 16.6,9.5 12.1,9.4 L6.8,9.3 C4.4,9.2 4.3,9 4.3,7.9 C4.3,6.8 4.6,6.8 10.4,6.8 C11.5,6.8 15,6.9 16.9,6.9 C16.9821745,6.9097741 17.064293,6.88132443 17.1228087,6.82280871 C17.1813244,6.76429299 17.2097741,6.68217448 17.2,6.6 L17.2,4.2 C17.2097741,4.11782552 17.1813244,4.03570701 17.1228087,3.97719129 C17.064293,3.91867557 16.9821745,3.8902259 16.9,3.9 C15.1,3.8 12.1,3.7 9.9,3.7 C1.5,3.7 0.1,3.9 0.1,8.2 C0.1,11.9 0.9,12.4 6.3,12.6 L11.1,12.8 C13.4,12.9 13.4,13.2 13.4,14 C13.4,15.2 13.3,15.2 7.9,15.2 C5.4,15.2 2.8,15.1 0.5,15 C0.417825517,14.9902259 0.335707006,15.0186756 0.277191287,15.0771913 C0.218675568,15.135707 0.190225902,15.2178255 0.2,15.3 L0.2,17.8 C0.4,17.9 0.5,18 0.6,18 M91.5,12.8 L85.2,12.8 L88.1,7.1 L88.6,7.1 L91.5,12.8 Z M73.1,10.8 L73.1,11 C73.1,14.6 72.8,14.8 68.1,14.8 L64.2,14.8 L64.2,7.1 L68.1,7.1 C72.8,7.1 73.1,7.2 73.1,10.8 M52.7,10.8 L52.7,11 C52.7,15 52.5,15 47.9,15 C43.3,15 43.1,14.9 43.1,11 L43.1,10.8 C43.1,6.8 43.3,6.8 47.9,6.8 C52.5,6.8 52.7,6.8 52.7,10.8 M98.5,17.7 L91.7,4.1 C91.6,3.9 91.5,3.9 91.4,3.9 L85.4,3.9 C85.2,3.9 85.1,4 85.1,4.1 L78.3,17.7 C78.2,17.9 78.3,18.1 78.5,18.1 L82.4,18.1 C82.6,18.1 82.7,18 82.7,17.9 L83.7,15.9 L93,15.9 L94,17.9 C94.1,18.1 94.2,18.1 94.3,18.1 L98.2,18.1 C98.5,18 98.6,17.9 98.5,17.7 M68.1,3.8 L60.2,3.8 C60.1178255,3.7902259 60.035707,3.81867557 59.9771913,3.87719129 C59.9186756,3.93570701 59.8902259,4.01782552 59.9,4.1 L59.9,17.7 C59.8902259,17.7821745 59.9186756,17.864293 59.9771913,17.9228087 C60.035707,17.9813244 60.1178255,18.0097741 60.2,18 L68.1,18 C76.5,18 77.6,17.6 77.6,11 L77.6,10.9 C77.6,4.2 76.5,3.8 68.1,3.8 M37.6,17.7 L29.8,10 L37.2,4.2 C37.4,4 37.3,3.8 37.1,3.8 L32.3,3.8 C32.1599993,3.79583795 32.0215714,3.83044493 31.9,3.9 L24.4,9.9 L24.4,4.1 C24.4097741,4.01782552 24.3813244,3.93570701 24.3228087,3.87719129 C24.264293,3.81867557 24.1821745,3.7902259 24.1,3.8 L20.4,3.8 C20.3178255,3.7902259 20.235707,3.81867557 20.1771913,3.87719129 C20.1186756,3.93570701 20.0902259,4.01782552 20.1,4.1 L20.1,17.7 C20.0902259,17.7821745 20.1186756,17.864293 20.1771913,17.9228087 C20.235707,17.9813244 20.3178255,18.0097741 20.4,18 L24.1,18 C24.1821745,18.0097741 24.264293,17.9813244 24.3228087,17.9228087 C24.3813244,17.864293 24.4097741,17.7821745 24.4,17.7 L24.4,14.3 L26.6,12.5 L32,17.8 C32.0963924,17.9235252 32.2433444,17.9970012 32.4,18 L37.6,18 C37.8,18 37.8,17.8 37.6,17.7 M38.5,10.8 L38.5,11 C38.5,17.9 39.6,18.3 47.9,18.3 C56.2,18.3 57.3,17.9 57.3,11 L57.3,10.8 C57.3,3.9 56.2,3.5 47.9,3.5 C39.6,3.5 38.5,4 38.5,10.8 M5.3,0.5 L7.1,2.5 C7.19639239,2.62352518 7.34334442,2.69700119 7.5,2.7 L11.3,2.7 C11.5,2.7 11.6,2.7 11.7,2.5 L13.5,0.5 C13.7,0.3 13.6,0.1 13.3,0.1 L10.8,0.1 C10.6433444,0.102998809 10.4963924,0.176474822 10.4,0.3 L9.6,1.4 L9.1,1.4 L8.3,0.3 C8.20360761,0.176474822 8.05665558,0.102998809 7.9,0.1 L5.4,0.1 C5.2,0.2 5.1,0.4 5.3,0.5" id="Shape"></path>
            </g>
        </g>
    </g>
</svg>