<?xml version="1.0" encoding="UTF-8"?>
<svg width="877px" height="69px" viewBox="0 0 877 69" version="1.1" xmlns="http://www.w3.org/2000/svg" xmlns:xlink="http://www.w3.org/1999/xlink">
    <title>super-service-payments-logo</title>
    <g id="Page-1" stroke="none" stroke-width="1" fill="none" fill-rule="evenodd">
        <g id="super-service-payments-logo" fill-rule="nonzero">
            <g id="connect-logo">
                <path d="M37.6462102,14.0502765 C33.5566147,11.5190257 28.5906771,9.61143466 22.9127118,9.61143466 C17.0887078,9.61143466 12.9625615,11.9225768 12.9625615,15.8661922 C12.9625615,19.6997166 17.4538138,20.8552877 23.679511,21.9008043 L26.6189078,22.3777067 C35.8935264,23.9001257 43.1598614,27.8987683 43.1598614,36.9965975 C43.1598614,48.5156232 33.0636723,54 21.890313,54 C14.0215111,54 5.56842657,51.6888581 0,47.1766282 L5.38587359,38.7941525 C9.12858384,41.8206481 15.2629772,44.4252685 21.9268272,44.4252685 C27.677821,44.4252685 32.132559,42.1508112 32.132559,38.1154838 C32.132559,34.5020314 28.3533346,33.1630364 21.1052566,32.0074654 L17.8006991,31.4938782 C8.63562328,30.0448288 1.95353445,25.9728166 1.95353445,16.5448426 C1.95353445,5.66780084 11.5932772,0 22.6571121,0 C29.9234472,0 35.984812,1.63247338 42.502605,5.55774644 L37.6462102,14.0502765 Z" id="Path" fill="#005EA7"></path>
                <path d="M92.8192366,32.2275741 C92.8192366,46.663041 83.6541607,54 70.4360036,54 C57.2178461,54 48.0527704,46.663041 48.0527704,32.2275741 L48.0527704,0.880398396 L58.4410734,0.880398396 L58.4410734,31.713987 C58.4410734,40.2798867 63.2609539,44.0584206 70.4177462,44.0584206 C77.5745385,44.0584206 82.3944191,40.2982291 82.3944191,31.713987 L82.3944191,0.880398396 L92.7827222,0.880398396 L92.7827222,32.2275741 L92.8192366,32.2275741 Z" id="Path" fill="#005EA7"></path>
                <path d="M110.747731,33.9884443 L110.747731,53.0828802 L100.395943,53.0828802 L100.395943,0.898759139 L121.592463,0.898759139 C133.989049,0.898759139 140.598128,7.39194953 140.598128,17.4802865 C140.598128,27.513578 133.989049,33.9884443 121.665491,33.9884443 L110.747731,33.9884443 Z M110.747731,10.4551666 L110.747731,24.46874 L121.391634,24.46874 C127.033085,24.46874 129.972482,22.1575979 129.972482,17.4619441 C129.972482,12.8029751 127.033085,10.4551666 121.391634,10.4551666 L110.747731,10.4551666 Z" id="Shape" fill="#005EA7"></path>
                <polygon id="Path" fill="#005EA7" points="184.524766 53.0828802 145.710122 53.0828802 145.710122 0.898759139 184.232652 0.898759139 184.232652 10.4368059 156.061911 10.4368059 156.061911 21.9925163 182.918139 21.9925163 182.918139 31.530563 156.061911 31.530563 156.061911 43.526491 184.524766 43.526491"></polygon>
                <path d="M213.462306,0.880398396 C225.858893,0.880398396 232.504486,6.76828965 232.504486,16.7648963 C232.504486,25.3308327 226.570921,31.2003999 216.584274,32.1542045 L232.577514,53.064538 L220.034871,53.064538 L204.899716,32.3009437 L201.850776,32.3009437 L201.850776,53.064538 L191.498987,53.064538 L191.498987,0.880398396 L213.462306,0.880398396 L213.462306,0.880398396 Z M201.850776,10.4551299 L201.850776,23.2397994 L213.279735,23.2397994 C218.921186,23.2397994 221.860583,21.148766 221.860583,16.746554 C221.860583,12.4177481 218.775129,10.4551299 213.279735,10.4551299 L201.850776,10.4551299 Z" id="Shape" fill="#005EA7"></path>
                <path d="M273.546499,10.7670057 C269.347361,7.9055917 264.125823,5.88792796 257.881887,5.88792796 C250.049581,5.88792796 244.444645,9.4280107 244.444645,15.3159203 C244.444645,20.1582766 248.333412,22.8179242 256.439574,23.7717289 L261.368998,24.377028 C269.931589,25.4225446 277.581323,29.0726818 277.581323,38.0971414 C277.581323,48.4239112 268.233676,53.7982335 257.023802,53.7982335 C249.48361,53.7982335 241.505247,51.1202436 236.612339,47.0849162 L239.880364,42.3158928 C243.477017,45.3790732 250.232152,48.1304328 256.987288,48.1304328 C265.038679,48.1304328 271.392158,44.8471436 271.392158,38.6290709 C271.392158,33.5665692 267.046963,31.0169759 258.813,30.0998561 L253.573206,29.4945569 C244.700244,28.4857251 238.25548,24.3586856 238.25548,15.7011106 C238.25548,5.77787356 247.055413,0.238460339 257.918401,0.238460339 C265.823736,0.238460339 271.793815,2.58629639 276.577181,5.94295514 L273.546499,10.7670057 Z" id="Path" fill="#000000"></path>
                <polygon id="Path" fill="#000000" points="322.493846 53.0828802 285.943086 53.0828802 285.943086 0.898759139 322.165218 0.898759139 322.165218 6.52989353 291.931422 6.52989353 291.931422 24.01018 321.234104 24.01018 321.234104 29.6046113 291.913165 29.6046113 291.913165 47.4701065 322.493846 47.4701065"></polygon>
                <path d="M352.709385,0.880398396 C364.393943,0.880398396 370.856965,6.18135131 370.856965,15.6093436 C370.856965,24.6338215 363.882744,30.374992 352.782413,30.374992 L351.924328,30.374992 L370.583108,53.0828802 L363.152459,53.0828802 L344.858822,30.374992 L338.286258,30.374992 L338.286258,53.0828802 L332.316178,53.0828802 L332.316178,0.898722453 L352.709385,0.898722453 L352.709385,0.880398396 Z M338.304515,6.5114961 L338.304515,24.9272999 L352.636357,24.9272999 C360.541691,24.9272999 364.649543,21.6806956 364.649543,15.6093436 C364.649543,9.57469485 360.413891,6.5114961 352.636357,6.5114961 L338.304515,6.5114961 L338.304515,6.5114961 Z" id="Shape" fill="#000000"></path>
                <polygon id="Path" fill="#000000" points="400.90819 53.0828802 393.532312 53.0828802 372.682678 0.898759139 379.036157 0.898759139 397.29328 47.1216009 415.586917 0.898759139 421.739568 0.898759139"></polygon>
                <polygon id="Path" fill="#000000" points="432.89467 53.0828802 426.924591 53.0828802 426.924591 0.898759139 432.89467 0.898759139"></polygon>
                <path d="M489.199636,10.950393 L484.233698,14.3070518 C480.819618,9.11615324 474.886053,5.92459439 468.021375,5.92459439 C456.37333,5.92459439 447.463854,14.4171061 447.463854,26.9816484 C447.463854,39.5461908 456.37333,48.0387209 468.021375,48.0387209 C474.886053,48.0387209 480.74659,44.9021709 484.233698,39.69293 L489.053582,43.2696975 C484.744901,49.7995909 476.967365,53.8165762 468.021375,53.8165762 C452.575849,53.8165762 441.183404,42.6277136 441.183404,26.9816484 C441.183404,11.3172409 452.575849,0.146536745 468.021375,0.146536745 C477.058651,0.128376606 485.11004,4.23707549 489.199636,10.950393 Z" id="Path" fill="#000000"></path>
                <polygon id="Path" fill="#000000" points="533.874817 53.0828802 497.324059 53.0828802 497.324059 0.898759139 533.546189 0.898759139 533.546189 6.52989353 503.312392 6.52989353 503.312392 24.01018 532.633331 24.01018 532.633331 29.6046113 503.312392 29.6046113 503.312392 47.4701065 533.893075 47.4701065 533.893075 53.0828802"></polygon>
                <path d="M540.538669,6.51144109 L540.538669,1.8708145 L538.676443,1.8708145 L538.676443,0.843658576 L543.51458,0.843658576 L543.51458,1.8708145 L541.652354,1.8708145 L541.652354,6.51144109 L540.538669,6.51144109 Z M549.922831,6.51144109 L549.922831,2.31105038 L548.407486,5.9245027 L547.239032,5.9245027 L545.723692,2.31105038 L545.723692,6.49311704 L544.610007,6.49311704 L544.610007,0.825316175 L546.180121,0.825316175 L547.805004,4.65887727 L549.411628,0.825316175 L551,0.825316175 L551,6.49311704 L549.922831,6.49311704 L549.922831,6.51144109 Z" id="Shape" fill="#000000"></path>
            </g>
            <g id="Payments" transform="translate(568.7148, 1.8125)" fill="#808285">
                <path d="M4.18359375,29.9179688 L4.18359375,51.1875 L0,51.1875 L0,0 L17.6132812,0 C22.9804688,0 27.1347656,1.36523438 30.0761719,4.09570312 C33.0175781,6.82617188 34.4882812,10.4414062 34.4882812,14.9414063 C34.4882812,19.4882812 33.0175781,23.1210938 30.0761719,25.8398438 C27.1347656,28.5585938 22.9804688,29.9179688 17.6132812,29.9179688 L4.18359375,29.9179688 Z M4.18359375,26.3320312 L17.6132812,26.3320312 C21.8320312,26.3320312 25.0019531,25.2597656 27.1230469,23.1152344 C29.2441406,20.9707031 30.3046875,18.2695312 30.3046875,15.0117188 C30.3046875,11.7304688 29.25,9.00585938 27.140625,6.83789062 C25.03125,4.66992188 21.8554688,3.5859375 17.6132812,3.5859375 L4.18359375,3.5859375 L4.18359375,26.3320312 Z" id="Shape"></path>
                <path d="M67.078125,51.1875 C66.796875,49.8984375 66.5976562,48.7851562 66.4804688,47.8476562 C66.3632812,46.9101562 66.3046875,45.9609375 66.3046875,45 C64.8984375,46.9921875 63.0234375,48.6445312 60.6796875,49.9570312 C58.3359375,51.2695312 55.6992188,51.9257812 52.7695312,51.9257812 C49.0664062,51.9257812 46.1894531,50.9414062 44.1386719,48.9726562 C42.0878906,47.0039062 41.0625,44.3671875 41.0625,41.0625 C41.0625,37.546875 42.5800781,34.734375 45.6152344,32.625 C48.6503906,30.515625 52.7460938,29.4609375 57.9023438,29.4609375 L66.3046875,29.4609375 L66.3046875,24.75 C66.3046875,22.03125 65.4316406,19.8984375 63.6855469,18.3515625 C61.9394531,16.8046875 59.4960938,16.03125 56.3554688,16.03125 C53.4257812,16.03125 50.9941406,16.7695312 49.0605469,18.2460938 C47.1269531,19.7226562 46.1601562,21.5273438 46.1601562,23.6601562 L42.2929688,23.625 L42.2226562,23.4140625 C42.0820312,20.578125 43.3769531,18.0410156 46.1074219,15.8027344 C48.8378906,13.5644531 52.3125,12.4453125 56.53125,12.4453125 C60.7265625,12.4453125 64.1015625,13.5117188 66.65625,15.6445312 C69.2109375,17.7773438 70.4882812,20.8359375 70.4882812,24.8203125 L70.4882812,43.5234375 C70.4882812,44.859375 70.5644531,46.1601562 70.7167969,47.4257812 C70.8691406,48.6914062 71.1210938,49.9453125 71.4726562,51.1875 L67.078125,51.1875 Z M53.2617188,48.1992188 C56.2851562,48.1992188 58.9570312,47.4902344 61.2773438,46.0722656 C63.5976562,44.6542969 65.2734375,42.84375 66.3046875,40.640625 L66.3046875,32.6953125 L57.8320312,32.6953125 C54.0117188,32.6953125 50.9589844,33.5097656 48.6738281,35.1386719 C46.3886719,36.7675781 45.2460938,38.7890625 45.2460938,41.203125 C45.2460938,43.265625 45.9550781,44.9472656 47.3730469,46.2480469 C48.7910156,47.5488281 50.7539062,48.1992188 53.2617188,48.1992188 Z" id="Shape"></path>
                <path d="M91.96875,40.8867188 L93.3046875,45.421875 L93.515625,45.421875 L105.011719,13.1484375 L109.722656,13.1484375 L93.1992188,57.2695312 C92.2148438,59.8476562 90.9375,62.0390625 89.3671875,63.84375 C87.796875,65.6484375 85.5,66.5507812 82.4765625,66.5507812 C81.984375,66.5507812 81.3867188,66.4980469 80.6835938,66.3925781 C79.9804688,66.2871094 79.4648438,66.1757812 79.1367188,66.0585938 L79.6289062,62.5429688 C79.9101562,62.5898438 80.3613281,62.6425781 80.9824219,62.7011719 C81.6035156,62.7597656 82.0546875,62.7890625 82.3359375,62.7890625 C84.1640625,62.7890625 85.6289062,62.1386719 86.7304688,60.8378906 C87.8320312,59.5371094 88.7695312,57.8671875 89.5429688,55.828125 L91.546875,50.6953125 L76.8515625,13.1484375 L81.5273438,13.1484375 L91.96875,40.8867188 Z" id="Path"></path>
                <path d="M119.953125,13.1484375 L120.339844,19.4414062 C121.558594,17.2148438 123.181641,15.4921875 125.208984,14.2734375 C127.236328,13.0546875 129.65625,12.4453125 132.46875,12.4453125 C135.375,12.4453125 137.806641,13.1484375 139.763672,14.5546875 C141.720703,15.9609375 143.121094,18.1054688 143.964844,20.9882812 C145.113281,18.3164062 146.748047,16.2246094 148.869141,14.7128906 C150.990234,13.2011719 153.574219,12.4453125 156.621094,12.4453125 C160.675781,12.4453125 163.804688,13.7929688 166.007812,16.4882812 C168.210938,19.1835938 169.3125,23.3554688 169.3125,29.0039062 L169.3125,51.1875 L165.09375,51.1875 L165.09375,28.9335938 C165.09375,24.2460938 164.267578,20.9355469 162.615234,19.0019531 C160.962891,17.0683594 158.660156,16.1015625 155.707031,16.1015625 C152.449219,16.1015625 149.929688,17.1210938 148.148438,19.1601562 C146.367188,21.1992188 145.265625,23.8125 144.84375,27 C144.84375,27.1640625 144.849609,27.3984375 144.861328,27.703125 C144.873047,28.0078125 144.878906,28.2304688 144.878906,28.3710938 L144.878906,51.1875 L140.625,51.1875 L140.625,28.9335938 C140.625,24.3398438 139.787109,21.0527344 138.111328,19.0722656 C136.435547,17.0917969 134.132812,16.1015625 131.203125,16.1015625 C128.226562,16.1015625 125.865234,16.8574219 124.119141,18.3691406 C122.373047,19.8808594 121.148438,21.9140625 120.445312,24.46875 L120.445312,51.1875 L116.191406,51.1875 L116.191406,13.1484375 L119.953125,13.1484375 Z" id="Path"></path>
                <path d="M194.484375,51.9257812 C189.726562,51.9257812 185.771484,50.1679688 182.619141,46.6523438 C179.466797,43.1367188 177.890625,38.6835938 177.890625,33.2929688 L177.890625,31.359375 C177.890625,25.921875 179.455078,21.4101562 182.583984,17.8242188 C185.712891,14.2382812 189.503906,12.4453125 193.957031,12.4453125 C198.621094,12.4453125 202.289062,13.921875 204.960938,16.875 C207.632812,19.828125 208.96875,23.765625 208.96875,28.6875 L208.96875,32.2734375 L182.109375,32.2734375 L182.109375,33.2929688 C182.109375,37.5820312 183.246094,41.1679688 185.519531,44.0507812 C187.792969,46.9335938 190.78125,48.375 194.484375,48.375 C197.109375,48.375 199.347656,48.0117188 201.199219,47.2851562 C203.050781,46.5585938 204.632812,45.515625 205.945312,44.15625 L207.738281,47.0390625 C206.308594,48.5390625 204.498047,49.7285156 202.306641,50.6074219 C200.115234,51.4863281 197.507812,51.9257812 194.484375,51.9257812 Z M193.957031,16.03125 C190.839844,16.03125 188.226562,17.2207031 186.117188,19.5996094 C184.007812,21.9785156 182.777344,24.9609375 182.425781,28.546875 L182.496094,28.7226562 L204.785156,28.7226562 L204.785156,27.6679688 C204.785156,24.3632812 203.8125,21.5976562 201.867188,19.3710938 C199.921875,17.1445312 197.285156,16.03125 193.957031,16.03125 Z" id="Shape"></path>
                <path d="M221.027344,13.1484375 L221.414062,19.7929688 C222.632812,17.4492188 224.279297,15.6386719 226.353516,14.3613281 C228.427734,13.0839844 230.882812,12.4453125 233.71875,12.4453125 C237.84375,12.4453125 240.984375,13.7050781 243.140625,16.2246094 C245.296875,18.7441406 246.375,22.6757812 246.375,28.0195312 L246.375,51.1875 L242.15625,51.1875 L242.15625,28.0546875 C242.15625,23.6953125 241.341797,20.6132812 239.712891,18.8085938 C238.083984,17.0039062 235.769531,16.1015625 232.769531,16.1015625 C229.816406,16.1015625 227.408203,16.8808594 225.544922,18.4394531 C223.681641,19.9980469 222.339844,22.0664062 221.519531,24.6445312 L221.519531,51.1875 L217.300781,51.1875 L217.300781,13.1484375 L221.027344,13.1484375 Z" id="Path"></path>
                <path d="M263.988281,3.41015625 L263.988281,13.1484375 L272.355469,13.1484375 L272.355469,16.59375 L263.988281,16.59375 L263.988281,41.3789062 C263.988281,43.8632812 264.439453,45.6269531 265.341797,46.6699219 C266.244141,47.7128906 267.445312,48.234375 268.945312,48.234375 C269.625,48.234375 270.287109,48.2050781 270.931641,48.1464844 C271.576172,48.0878906 272.320312,47.9882812 273.164062,47.8476562 L273.796875,50.9765625 C273.09375,51.28125 272.238281,51.515625 271.230469,51.6796875 C270.222656,51.84375 269.214844,51.9257812 268.207031,51.9257812 C265.535156,51.9257812 263.455078,51.0820312 261.966797,49.3945312 C260.478516,47.7070312 259.734375,45.0351562 259.734375,41.3789062 L259.734375,16.59375 L253.160156,16.59375 L253.160156,13.1484375 L259.734375,13.1484375 L259.734375,3.41015625 L263.988281,3.41015625 Z" id="Path"></path>
                <path d="M304.066406,41.5195312 C304.066406,39.7382812 303.333984,38.1796875 301.869141,36.84375 C300.404297,35.5078125 297.761719,34.4179688 293.941406,33.5742188 C289.394531,32.5898438 286.037109,31.2890625 283.869141,29.671875 C281.701172,28.0546875 280.617188,25.7695312 280.617188,22.8164062 C280.617188,19.9101562 281.841797,17.4550781 284.291016,15.4511719 C286.740234,13.4472656 289.980469,12.4453125 294.011719,12.4453125 C298.300781,12.4453125 301.699219,13.5058594 304.207031,15.6269531 C306.714844,17.7480469 307.910156,20.4023438 307.792969,23.5898438 L307.722656,23.8007812 L303.820312,23.8007812 C303.820312,21.7148438 302.935547,19.8984375 301.166016,18.3515625 C299.396484,16.8046875 297.011719,16.03125 294.011719,16.03125 C290.941406,16.03125 288.638672,16.6933594 287.103516,18.0175781 C285.568359,19.3417969 284.800781,20.8945312 284.800781,22.6757812 C284.800781,24.4335938 285.462891,25.8867188 286.787109,27.0351562 C288.111328,28.1835938 290.753906,29.1914062 294.714844,30.0585938 C299.238281,31.0664062 302.625,32.4433594 304.875,34.1894531 C307.125,35.9355469 308.25,38.3085938 308.25,41.3085938 C308.25,44.4726562 306.966797,47.0332031 304.400391,48.9902344 C301.833984,50.9472656 298.441406,51.9257812 294.222656,51.9257812 C289.605469,51.9257812 285.978516,50.8242188 283.341797,48.6210938 C280.705078,46.4179688 279.457031,43.7929688 279.597656,40.7460938 L279.667969,40.5351562 L283.535156,40.5351562 C283.699219,43.2773438 284.818359,45.2695312 286.892578,46.5117188 C288.966797,47.7539062 291.410156,48.375 294.222656,48.375 C297.269531,48.375 299.671875,47.7070312 301.429688,46.3710938 C303.1875,45.0351562 304.066406,43.4179688 304.066406,41.5195312 Z" id="Path"></path>
            </g>
        </g>
    </g>
</svg>