<?xml version="1.0" encoding="UTF-8"?>
<svg width="881px" height="95px" viewBox="0 0 881 95" version="1.1" xmlns="http://www.w3.org/2000/svg" xmlns:xlink="http://www.w3.org/1999/xlink">
    <title>super-service-payments-logo</title>
    <g id="Logo" stroke="none" stroke-width="1" fill="none" fill-rule="evenodd">
        <g id="super-service-payments-logo">
            <g id="connect-logo" transform="translate(0.000000, 22.000000)" fill-rule="nonzero">
                <path d="M37.6462102,14.0502765 C33.5566147,11.5190257 28.5906771,9.61143466 22.9127118,9.61143466 C17.0887078,9.61143466 12.9625615,11.9225768 12.9625615,15.8661922 C12.9625615,19.6997166 17.4538138,20.8552877 23.679511,21.9008043 L26.6189078,22.3777067 C35.8935264,23.9001257 43.1598614,27.8987683 43.1598614,36.9965975 C43.1598614,48.5156232 33.0636723,54 21.890313,54 C14.0215111,54 5.56842657,51.6888581 0,47.1766282 L5.38587359,38.7941525 C9.12858384,41.8206481 15.2629772,44.4252685 21.9268272,44.4252685 C27.677821,44.4252685 32.132559,42.1508112 32.132559,38.1154838 C32.132559,34.5020314 28.3533346,33.1630364 21.1052566,32.0074654 L17.8006991,31.4938782 C8.63562328,30.0448288 1.95353445,25.9728166 1.95353445,16.5448426 C1.95353445,5.66780084 11.5932772,0 22.6571121,0 C29.9234472,0 35.984812,1.63247338 42.502605,5.55774644 L37.6462102,14.0502765 Z" id="Path" fill="#005EA7"></path>
                <path d="M92.8192366,32.2275741 C92.8192366,46.663041 83.6541607,54 70.4360036,54 C57.2178461,54 48.0527704,46.663041 48.0527704,32.2275741 L48.0527704,0.880398396 L58.4410734,0.880398396 L58.4410734,31.713987 C58.4410734,40.2798867 63.2609539,44.0584206 70.4177462,44.0584206 C77.5745385,44.0584206 82.3944191,40.2982291 82.3944191,31.713987 L82.3944191,0.880398396 L92.7827222,0.880398396 L92.7827222,32.2275741 L92.8192366,32.2275741 Z" id="Path" fill="#005EA7"></path>
                <path d="M110.747731,33.9884443 L110.747731,53.0828802 L100.395943,53.0828802 L100.395943,0.898759139 L121.592463,0.898759139 C133.989049,0.898759139 140.598128,7.39194953 140.598128,17.4802865 C140.598128,27.513578 133.989049,33.9884443 121.665491,33.9884443 L110.747731,33.9884443 Z M110.747731,10.4551666 L110.747731,24.46874 L121.391634,24.46874 C127.033085,24.46874 129.972482,22.1575979 129.972482,17.4619441 C129.972482,12.8029751 127.033085,10.4551666 121.391634,10.4551666 L110.747731,10.4551666 Z" id="Shape" fill="#005EA7"></path>
                <polygon id="Path" fill="#005EA7" points="184.524766 53.0828802 145.710122 53.0828802 145.710122 0.898759139 184.232652 0.898759139 184.232652 10.4368059 156.061911 10.4368059 156.061911 21.9925163 182.918139 21.9925163 182.918139 31.530563 156.061911 31.530563 156.061911 43.526491 184.524766 43.526491"></polygon>
                <path d="M213.462306,0.880398396 C225.858893,0.880398396 232.504486,6.76828965 232.504486,16.7648963 C232.504486,25.3308327 226.570921,31.2003999 216.584274,32.1542045 L232.577514,53.064538 L220.034871,53.064538 L204.899716,32.3009437 L201.850776,32.3009437 L201.850776,53.064538 L191.498987,53.064538 L191.498987,0.880398396 L213.462306,0.880398396 L213.462306,0.880398396 Z M201.850776,10.4551299 L201.850776,23.2397994 L213.279735,23.2397994 C218.921186,23.2397994 221.860583,21.148766 221.860583,16.746554 C221.860583,12.4177481 218.775129,10.4551299 213.279735,10.4551299 L201.850776,10.4551299 Z" id="Shape" fill="#005EA7"></path>
                <path d="M273.546499,10.7670057 C269.347361,7.9055917 264.125823,5.88792796 257.881887,5.88792796 C250.049581,5.88792796 244.444645,9.4280107 244.444645,15.3159203 C244.444645,20.1582766 248.333412,22.8179242 256.439574,23.7717289 L261.368998,24.377028 C269.931589,25.4225446 277.581323,29.0726818 277.581323,38.0971414 C277.581323,48.4239112 268.233676,53.7982335 257.023802,53.7982335 C249.48361,53.7982335 241.505247,51.1202436 236.612339,47.0849162 L239.880364,42.3158928 C243.477017,45.3790732 250.232152,48.1304328 256.987288,48.1304328 C265.038679,48.1304328 271.392158,44.8471436 271.392158,38.6290709 C271.392158,33.5665692 267.046963,31.0169759 258.813,30.0998561 L253.573206,29.4945569 C244.700244,28.4857251 238.25548,24.3586856 238.25548,15.7011106 C238.25548,5.77787356 247.055413,0.238460339 257.918401,0.238460339 C265.823736,0.238460339 271.793815,2.58629639 276.577181,5.94295514 L273.546499,10.7670057 Z" id="Path" fill="#000000"></path>
                <polygon id="Path" fill="#000000" points="322.493846 53.0828802 285.943086 53.0828802 285.943086 0.898759139 322.165218 0.898759139 322.165218 6.52989353 291.931422 6.52989353 291.931422 24.01018 321.234104 24.01018 321.234104 29.6046113 291.913165 29.6046113 291.913165 47.4701065 322.493846 47.4701065"></polygon>
                <path d="M352.709385,0.880398396 C364.393943,0.880398396 370.856965,6.18135131 370.856965,15.6093436 C370.856965,24.6338215 363.882744,30.374992 352.782413,30.374992 L351.924328,30.374992 L370.583108,53.0828802 L363.152459,53.0828802 L344.858822,30.374992 L338.286258,30.374992 L338.286258,53.0828802 L332.316178,53.0828802 L332.316178,0.898722453 L352.709385,0.898722453 L352.709385,0.880398396 Z M338.304515,6.5114961 L338.304515,24.9272999 L352.636357,24.9272999 C360.541691,24.9272999 364.649543,21.6806956 364.649543,15.6093436 C364.649543,9.57469485 360.413891,6.5114961 352.636357,6.5114961 L338.304515,6.5114961 L338.304515,6.5114961 Z" id="Shape" fill="#000000"></path>
                <polygon id="Path" fill="#000000" points="400.90819 53.0828802 393.532312 53.0828802 372.682678 0.898759139 379.036157 0.898759139 397.29328 47.1216009 415.586917 0.898759139 421.739568 0.898759139"></polygon>
                <polygon id="Path" fill="#000000" points="432.89467 53.0828802 426.924591 53.0828802 426.924591 0.898759139 432.89467 0.898759139"></polygon>
                <path d="M489.199636,10.950393 L484.233698,14.3070518 C480.819618,9.11615324 474.886053,5.92459439 468.021375,5.92459439 C456.37333,5.92459439 447.463854,14.4171061 447.463854,26.9816484 C447.463854,39.5461908 456.37333,48.0387209 468.021375,48.0387209 C474.886053,48.0387209 480.74659,44.9021709 484.233698,39.69293 L489.053582,43.2696975 C484.744901,49.7995909 476.967365,53.8165762 468.021375,53.8165762 C452.575849,53.8165762 441.183404,42.6277136 441.183404,26.9816484 C441.183404,11.3172409 452.575849,0.146597094 468.021375,0.146597094 C477.058651,0.128376606 485.11004,4.23707549 489.199636,10.950393 Z" id="Path" fill="#000000"></path>
                <polygon id="Path" fill="#000000" points="533.874817 53.0828802 497.324059 53.0828802 497.324059 0.898759139 533.546189 0.898759139 533.546189 6.52989353 503.312392 6.52989353 503.312392 24.01018 532.633331 24.01018 532.633331 29.6046113 503.312392 29.6046113 503.312392 47.4701065 533.893075 47.4701065 533.893075 53.0828802"></polygon>
                <path d="M540.538669,6.51144109 L540.538669,1.8708145 L538.676443,1.8708145 L538.676443,0.843658576 L543.51458,0.843658576 L543.51458,1.8708145 L541.652354,1.8708145 L541.652354,6.51144109 L540.538669,6.51144109 Z M549.922831,6.51144109 L549.922831,2.31105038 L548.407486,5.9245027 L547.239032,5.9245027 L545.723692,2.31105038 L545.723692,6.49311704 L544.610007,6.49311704 L544.610007,0.825316175 L546.180121,0.825316175 L547.805004,4.65887727 L549.411628,0.825316175 L551,0.825316175 L551,6.49311704 L549.922831,6.49311704 L549.922831,6.51144109 Z" id="Shape" fill="#000000"></path>
            </g>
            <text id="Payments" font-family="Roboto-Light, Roboto" font-size="72" font-weight="300" letter-spacing="-0.030911" fill="#808285">
                <tspan x="562" y="75">Payments</tspan>
            </text>
        </g>
    </g>
</svg>