<?xml version="1.0" encoding="UTF-8"?>
<svg width="455px" height="49px" viewBox="0 0 455 49" version="1.1" xmlns="http://www.w3.org/2000/svg" xmlns:xlink="http://www.w3.org/1999/xlink">
    <title>Group 3</title>
    <g id="Page-1" stroke="none" stroke-width="1" fill="none" fill-rule="evenodd">
        <g id="Group-3">
            <g id="triage-logo" transform="translate(0.000000, 9.107270)" fill-rule="nonzero">
                <path d="M20.59,7.64272289 C18.1788063,6.09819739 15.383221,5.25986823 12.52,5.22272289 C9.33,5.22272289 7.07,6.48272289 7.07,8.64272289 C7.07,10.8027229 9.53,11.3627229 12.98,11.8927229 L14.58,12.1527229 C19.66,12.9927229 23.65,15.1527229 23.65,20.1527229 C23.65,26.4327229 18.12,29.4227229 12,29.4227229 C7.69,29.4227229 3.06,28.1627229 0,25.7027229 L3,21.1327229 C5.58219122,23.1009608 8.73329825,24.1782324 11.98,24.2027229 C15.13,24.2027229 17.57,22.9627229 17.57,20.7727229 C17.57,18.7727229 15.5,18.0727229 11.57,17.4427229 L9.77,17.1527229 C4.77,16.3627229 1.09,14.1527229 1.09,9.00272289 C1.09,3.07272289 6.37,0.00272289019 12.43,0.00272289019 C16.2660779,-0.0605724663 20.0394121,0.980826127 23.3,3.00272289 L20.59,7.64272289 Z" id="Path" fill="#005EA7"></path>
                <path d="M50.81,17.5627229 C50.81,25.4227229 45.81,29.4327229 38.56,29.4327229 C31.31,29.4327229 26.3,25.4327229 26.3,17.5627229 L26.3,0.47272289 L31.98,0.47272289 L31.98,17.2727229 C31.98,21.9527229 34.63,24.0027229 38.55,24.0027229 C42.47,24.0027229 45.11,21.9527229 45.11,17.2727229 L45.11,0.47272289 L50.8,0.47272289 L50.81,17.5627229 Z" id="Path" fill="#005EA7"></path>
                <path d="M60.63,18.5127229 L60.63,28.8927229 L54.98,28.8927229 L54.98,0.47272289 L66.57,0.47272289 C73.36,0.47272289 76.97,4.00272289 76.97,9.47272289 C76.97,14.9427229 73.36,18.4727229 66.61,18.4727229 L60.63,18.5127229 Z M60.63,5.69272289 L60.63,13.3327229 L66.47,13.3327229 C69.56,13.3327229 71.16,12.0727229 71.16,9.51272289 C71.16,6.95272289 69.56,5.69272289 66.47,5.69272289 L60.63,5.69272289 Z" id="Shape" fill="#005EA7"></path>
                <polygon id="Path" fill="#005EA7" points="101.04 28.8927229 79.78 28.8927229 79.78 0.47272289 100.88 0.47272289 100.88 5.67272289 85.45 5.67272289 85.45 11.9727229 100.17 11.9727229 100.17 17.1727229 85.45 17.1727229 85.45 23.7227229 101.04 23.7227229"></polygon>
                <path d="M116.9,0.47272289 C123.68,0.47272289 127.32,3.68272289 127.32,9.12272289 C127.32,13.8027229 124.07,16.9927229 118.6,17.5227229 L127.36,28.8927229 L120.49,28.8927229 L112.2,17.5727229 L110.53,17.5727229 L110.53,28.8927229 L104.86,28.8927229 L104.86,0.47272289 L116.9,0.47272289 Z M110.53,5.69272289 L110.53,12.6927229 L116.79,12.6927229 C119.88,12.6927229 121.49,11.5527229 121.49,9.15272289 C121.49,6.75272289 119.8,5.72272289 116.79,5.72272289 L110.53,5.69272289 Z" id="Shape" fill="#005EA7"></path>
                <path d="M149.8,5.89272289 C147.281681,4.15235112 144.291168,3.22414047 141.23,3.23272289 C136.94,3.23272289 133.87,5.16272289 133.87,8.37272289 C133.87,11.0127229 136,12.4627229 140.44,12.9827229 L143.14,13.3127229 C147.83,13.8827229 152.02,15.8727229 152.02,20.7927229 C152.02,26.4227229 146.9,29.3528963 140.76,29.3528963 C136.736189,29.3700635 132.814568,28.0862412 129.58,25.6927229 L131.37,23.0927229 C134.067789,25.135914 137.355848,26.2483095 140.74,26.2627229 C145.15,26.2627229 148.63,24.4727229 148.63,21.0727229 C148.63,18.3127229 146.25,16.9327229 141.74,16.4227229 L138.87,16.0927229 C134.01,15.5527229 130.48,13.2927229 130.48,8.57272289 C130.48,3.17272289 135.29,0.14272289 141.25,0.14272289 C144.900024,0.0711526087 148.478547,1.16011611 151.47,3.25272289 L149.8,5.89272289 Z" id="Path" fill="#231F20"></path>
                <polygon id="Path" fill="#231F20" points="176.61 28.8927229 156.61 28.8927229 156.61 0.47272289 176.45 0.47272289 176.45 3.53272289 159.87 3.53272289 159.87 13.0727229 175.92 13.0727229 175.92 16.1227229 159.87 16.1227229 159.87 25.8927229 176.61 25.8927229"></polygon>
                <path d="M193.16,0.47272289 C199.56,0.47272289 203.1,3.35272289 203.1,8.47272289 C203.1,13.3927229 199.28,16.4727229 193.2,16.4727229 L192.73,16.4727229 L202.98,28.8927229 L198.91,28.8927229 L188.91,16.5127229 L185.31,16.5127229 L185.31,28.8927229 L181.98,28.8927229 L181.98,0.47272289 L193.16,0.47272289 Z M185.27,3.53272289 L185.27,13.5327229 L193.12,13.5327229 C197.45,13.5327229 199.71,11.7727229 199.71,8.45272289 C199.71,5.13272289 197.39,3.45272289 193.12,3.45272289 L185.27,3.53272289 Z" id="Shape" fill="#231F20"></path>
                <polygon id="Path" fill="#231F20" points="219.56 28.8927229 215.56 28.8927229 204.1 0.47272289 207.57 0.47272289 217.57 25.6727229 227.57 0.47272289 230.98 0.47272289"></polygon>
                <polygon id="Path" fill="#231F20" points="237.09 28.8927229 233.81 28.8927229 233.81 0.47272289 237.09 0.47272289"></polygon>
                <path d="M267.92,5.95272289 L265.2,7.78272289 C263.198344,4.85609986 259.854865,3.13734852 256.31,3.21272289 C249.93,3.21272289 245.05,7.84272289 245.05,14.6927229 C245.05,21.5427229 249.98,26.1827229 256.31,26.1827229 C259.853819,26.2640152 263.198554,24.5483809 265.2,21.6227229 L267.84,23.5727229 C265.207004,27.3061956 260.876482,29.4695789 256.31,29.3327229 C247.86,29.3327229 241.62,23.2327229 241.62,14.6927229 C241.62,6.15272289 247.86,0.0627228902 256.31,0.0627228902 C261.27,0.0627228902 265.68,2.29272289 267.92,5.95272289 Z" id="Path" fill="#231F20"></path>
                <polygon id="Path" fill="#231F20" points="292.39 28.8927229 272.39 28.8927229 272.39 0.47272289 292.23 0.47272289 292.23 3.53272289 275.65 3.53272289 275.65 13.0727229 291.7 13.0727229 291.7 16.1227229 275.65 16.1227229 275.65 25.8927229 292.39 25.8927229"></polygon>
                <path d="M297.57,4.89272289 L297.57,1.19272289 L296.09,1.19272289 L296.09,0.38272289 L299.98,0.38272289 L299.98,1.19272289 L298.5,1.19272289 L298.5,4.89272289 L297.57,4.89272289 Z M305.03,4.89272289 L305.03,1.54272289 L303.83,4.41272289 L302.91,4.41272289 L301.7,1.55272289 L301.7,4.89272289 L300.82,4.89272289 L300.82,0.38272289 L302.07,0.38272289 L303.37,3.38272289 L304.66,0.38272289 L305.92,0.38272289 L305.92,4.89272289 L305.03,4.89272289 Z" id="Shape" fill="#231F20"></path>
            </g>
            <g id="Group-2" transform="translate(396.099996, 0.000000)">
                <g id="Group" fill-rule="nonzero">
                    <path d="M24.4200038,48.8799928 C10.9247735,48.8689492 -0.00735344375,37.9219031 3.71126112e-06,24.4266703 C0.00736829629,10.9314375 10.9514307,-0.00367632103 24.446665,9.27163786e-07 C37.9418993,0.00368003062 48.8800038,10.944758 48.8800038,24.4399928 C48.8689754,37.9332613 37.9332723,48.8689643 24.4400038,48.8799928 M24.4400038,2.2399905 C15.460033,2.23594773 7.36203891,7.6422387 3.92274968,15.9374892 C0.48346045,24.2327397 2.38032908,33.7829952 8.72869732,40.1342243 C15.0770655,46.4854535 24.6264655,48.3866248 32.9232647,44.9510734 C41.2200639,41.5155219 46.6300038,33.4199644 46.6300038,24.4399928 C46.6134919,12.1900198 36.6899681,2.26202389 24.4400038,2.2399905" id="Shape" fill="#30C0F4"></path>
                    <path d="M49.9700038,12.1399928 L49.9700038,8.45999276 L48.4900038,8.45999276 L48.4900038,7.64999276 L52.3400038,7.64999276 L52.3400038,8.45999276 L50.8800038,8.45999276 L50.8800038,12.1399928 L49.9700038,12.1399928 Z M57.4300038,12.1399928 L57.4300038,8.81999276 L56.2300038,11.6799928 L55.3100038,11.6799928 L54.1000038,8.81999276 L54.1000038,12.1399928 L53.2200038,12.1399928 L53.2200038,7.64999276 L54.4700038,7.64999276 L55.7700038,10.6499928 L57.0600038,7.64999276 L58.3200038,7.64999276 L58.3200038,12.1399928 L57.4300038,12.1399928 Z" id="Shape" fill="#808285"></path>
                </g>
                <g id="chat_black_24dp-(3)" transform="translate(8.900004, 8.000000)">
                    <polygon id="Path" points="0 0 32 0 32 32 0 32"></polygon>
                    <path d="M5.86666667,5.86666667 L27.2,5.86666667 L27.2,21.8666667 L7.42666667,21.8666667 L5.86666667,23.4266667 L5.86666667,5.86666667 M5.86666667,3.2 C4.4,3.2 3.21333333,4.4 3.21333333,5.86666667 L3.2,29.8666667 L8.53333333,24.5333333 L27.2,24.5333333 C28.6666667,24.5333333 29.8666667,23.3333333 29.8666667,21.8666667 L29.8666667,5.86666667 C29.8666667,4.4 28.6666667,3.2 27.2,3.2 L5.86666667,3.2 Z M8.53333333,16.5333333 L19.2,16.5333333 L19.2,19.2 L8.53333333,19.2 L8.53333333,16.5333333 Z M8.53333333,12.5333333 L24.5333333,12.5333333 L24.5333333,15.2 L8.53333333,15.2 L8.53333333,12.5333333 Z M8.53333333,8.53333333 L24.5333333,8.53333333 L24.5333333,11.2 L8.53333333,11.2 L8.53333333,8.53333333 Z" id="Shape" fill="#30C0F4" fill-rule="nonzero"></path>
                </g>
            </g>
            <g id="Chat" transform="translate(308.304688, 8.531250)" fill="#808285" fill-rule="nonzero">
                <path d="M21.3085938,21.3671875 L21.3476562,21.484375 C21.3997396,24.1536458 20.4622396,26.3867188 18.5351562,28.1835938 C16.6080729,29.9804688 14.0625,30.8789062 10.8984375,30.8789062 C7.68229167,30.8789062 5.06184896,29.7395833 3.03710938,27.4609375 C1.01236979,25.1822917 0,22.2916667 0,18.7890625 L0,13.7304688 C0,10.2278646 1.01236979,7.33398438 3.03710938,5.04882812 C5.06184896,2.76367188 7.68229167,1.62109375 10.8984375,1.62109375 C14.1145833,1.62109375 16.6731771,2.47721354 18.5742188,4.18945312 C20.4752604,5.90169271 21.3997396,8.17057292 21.3476562,10.9960938 L21.3085938,11.1132812 L17.6171875,11.1132812 C17.6171875,9.12109375 17.03125,7.54557292 15.859375,6.38671875 C14.6875,5.22786458 13.0338542,4.6484375 10.8984375,4.6484375 C8.75,4.6484375 7.03776042,5.51432292 5.76171875,7.24609375 C4.48567708,8.97786458 3.84765625,11.1263021 3.84765625,13.6914062 L3.84765625,18.7890625 C3.84765625,21.3802083 4.48567708,23.5416667 5.76171875,25.2734375 C7.03776042,27.0052083 8.75,27.8710938 10.8984375,27.8710938 C13.0338542,27.8710938 14.6875,27.2949219 15.859375,26.1425781 C17.03125,24.9902344 17.6171875,23.3984375 17.6171875,21.3671875 L21.3085938,21.3671875 Z" id="Path"></path>
                <path d="M29.6679688,12.1679688 C30.3971354,11.1523438 31.2923177,10.3613281 32.3535156,9.79492188 C33.4147135,9.22851562 34.5898438,8.9453125 35.8789062,8.9453125 C38.1315104,8.9453125 39.8860677,9.62239583 41.1425781,10.9765625 C42.3990885,12.3307292 43.0273438,14.4140625 43.0273438,17.2265625 L43.0273438,30.46875 L39.1796875,30.46875 L39.1796875,17.1875 C39.1796875,15.4427083 38.8053385,14.1536458 38.0566406,13.3203125 C37.3079427,12.4869792 36.1914062,12.0703125 34.7070312,12.0703125 C33.6393229,12.0703125 32.672526,12.3209635 31.8066406,12.8222656 C30.9407552,13.3235677 30.2278646,14.0039062 29.6679688,14.8632812 L29.6679688,30.46875 L25.8203125,30.46875 L25.8203125,0 L29.6679688,0 L29.6679688,12.1679688 Z" id="Path"></path>
                <path d="M61.5429688,30.46875 C61.4127604,29.8307292 61.311849,29.2675781 61.2402344,28.7792969 C61.1686198,28.2910156 61.1263021,27.7994792 61.1132812,27.3046875 C60.3971354,28.3203125 59.4628906,29.1699219 58.3105469,29.8535156 C57.1582031,30.5371094 55.9179688,30.8789062 54.5898438,30.8789062 C52.3893229,30.8789062 50.7128906,30.3157552 49.5605469,29.1894531 C48.4082031,28.063151 47.8320312,26.5104167 47.8320312,24.53125 C47.8320312,22.5130208 48.6490885,20.9342448 50.2832031,19.7949219 C51.9173177,18.655599 54.1341146,18.0859375 56.9335938,18.0859375 L61.1132812,18.0859375 L61.1132812,15.9960938 C61.1132812,14.7591146 60.7356771,13.7792969 59.9804688,13.0566406 C59.2252604,12.3339844 58.1575521,11.9726562 56.7773438,11.9726562 C55.5403646,11.9726562 54.5345052,12.2884115 53.7597656,12.9199219 C52.985026,13.5514323 52.5976562,14.3098958 52.5976562,15.1953125 L48.9257812,15.1953125 L48.8867188,15.078125 C48.8085938,13.5416667 49.5345052,12.1354167 51.0644531,10.859375 C52.594401,9.58333333 54.5703125,8.9453125 56.9921875,8.9453125 C59.3880208,8.9453125 61.3151042,9.55403646 62.7734375,10.7714844 C64.2317708,11.9889323 64.9609375,13.7434896 64.9609375,16.0351562 L64.9609375,26.2109375 C64.9609375,26.9661458 65,27.6953125 65.078125,28.3984375 C65.15625,29.1015625 65.2994792,29.7916667 65.5078125,30.46875 L61.5429688,30.46875 Z M55.15625,27.65625 C56.5494792,27.65625 57.8059896,27.2981771 58.9257812,26.5820312 C60.0455729,25.8658854 60.7747396,25.0455729 61.1132812,24.1210938 L61.1132812,20.6835938 L56.796875,20.6835938 C55.2473958,20.6835938 54.0071615,21.0742188 53.0761719,21.8554688 C52.1451823,22.6367188 51.6796875,23.5546875 51.6796875,24.609375 C51.6796875,25.546875 51.9726562,26.2890625 52.5585938,26.8359375 C53.1445312,27.3828125 54.0104167,27.65625 55.15625,27.65625 Z" id="Shape"></path>
                <path d="M75.625,4.23828125 L75.625,9.3359375 L79.6289062,9.3359375 L79.6289062,12.1875 L75.625,12.1875 L75.625,25.0195312 C75.625,26.0091146 75.8300781,26.7057292 76.2402344,27.109375 C76.6503906,27.5130208 77.1940104,27.7148438 77.8710938,27.7148438 C78.0924479,27.7148438 78.3365885,27.6888021 78.6035156,27.6367188 C78.8704427,27.5846354 79.1080729,27.5195312 79.3164062,27.4414062 L79.8242188,30.078125 C79.5377604,30.3125 79.1178385,30.5045573 78.5644531,30.6542969 C78.0110677,30.8040365 77.4544271,30.8789062 76.8945312,30.8789062 C75.3320312,30.8789062 74.0885417,30.406901 73.1640625,29.4628906 C72.2395833,28.5188802 71.7773438,27.0377604 71.7773438,25.0195312 L71.7773438,12.1875 L68.4179688,12.1875 L68.4179688,9.3359375 L71.7773438,9.3359375 L71.7773438,4.23828125 L75.625,4.23828125 Z" id="Path"></path>
            </g>
        </g>
    </g>
</svg>