<?xml version="1.0" encoding="UTF-8"?>
<svg width="59px" height="40px" viewBox="0 0 59 40" version="1.1" xmlns="http://www.w3.org/2000/svg" xmlns:xlink="http://www.w3.org/1999/xlink">
    <title>Group-6</title>
    <g id="Marque-Logos-and-Skins" stroke="none" stroke-width="1" fill="none" fill-rule="evenodd">
        <g id="Skin--Suzuki" transform="translate(-36.000000, -99.000000)" fill-rule="nonzero">
            <g id="Group-6" transform="translate(36.000000, 99.000000)">
                <path d="M35.8674177,21.6613869 C31.6517204,24.2554866 30,26 30,26 L17,17.0137072 C17,17.0137072 22.4683921,12.9895064 27.0389768,16.0718561 L33.1704324,20.2772202 L33.9170219,19.7860003 L17.0009896,7.93118993 C17.0009896,7.93118993 19.4341352,7.22712803 24.1315925,4.3396031 C28.3482795,1.74332536 30,0 30,0 L43,8.9872828 C43,8.9872828 37.5316078,13.0114836 32.9598355,9.92913388 L26.8295675,5.72258181 L26.0827801,6.2139996 L42.9978228,18.0698001 C42.9978228,18.0698001 40.5668544,18.7728719 35.8674177,21.6613869 Z" id="Fill-3" fill="#E30613"></path>
                <polyline id="Fill-5" fill="#004F9E" points="32 31 22.166611 31 22.166611 33.2859819 26.9172847 33.2859819 22 38.0851458 22 40 31.9822963 40 31.9822963 37.7043544 27.0150481 37.7043544 32 32.9191721"></polyline>
                <path d="M16.9995022,40 C20.9811441,40 22,38.9762747 22,36.7185056 L22,31 L18.8464648,31 L18.8464648,36.376863 C18.8464648,37.2796899 18.0794855,37.8176168 16.9995022,37.8176168 C15.8763117,37.8176168 15.1545308,37.2776849 15.1545308,36.3630288 L15.1545308,31 L12,31 L12,36.7185056 C12,38.9762747 13.0210461,40 16.9995022,40" id="Fill-7" fill="#004F9E"></path>
                <path d="M38.0004978,40 C41.9799495,40 43,38.9762747 43,36.7185056 L43,31 L39.8454693,31 L39.8454693,36.376863 C39.8454693,37.2796899 39.0772953,37.8176168 38.0004978,37.8176168 C36.8773072,37.8176168 36.1535353,37.2776849 36.1535353,36.3630288 L36.1535353,31 L33,31 L33,36.7185056 C33,38.9762747 34.0198515,40 38.0004978,40" id="Fill-9" fill="#004F9E"></path>
                <polygon id="Fill-11" fill="#004F9E" points="56 40 59 40 59 31 56 31"></polygon>
                <polygon id="Fill-13" fill="#004F9E" points="55 31 50.7175708 31 47.2544729 34.1051357 47.2544729 31 44 31 44 40 47.2544729 40 47.2544729 36.808919 50.4705303 40 54.8435805 40 50.0848004 35.3825962"></polygon>
                <path d="M3.84095476,33.6107467 C3.84095476,32.9486773 4.8674468,32.9269797 5.21411297,32.9269797 C5.56159772,32.9269797 6.34354072,33.0604883 6.87520465,33.8932062 L10.6979462,33.8932062 C10.6979462,32.2826984 9.09742894,31 5.2259823,31 C0.924784192,31 0.192569579,32.8018765 0.192569579,33.8361279 C0.192569579,35.7466878 1.74131196,36.3053517 5.10790297,36.6486035 C5.39501787,36.6765561 7.14594807,36.5979758 7.14594807,37.4017636 C7.14594807,37.9985448 6.1616126,38.0390078 5.80000745,38.0390078 C5.43922087,38.0390078 4.76573896,37.9809522 4.21013172,37.0354459 L0,37.0354459 C0,38.9129708 1.32649948,40 5.79345886,40 C9.90740816,40 11,38.3957474 11,37.1752096 C11,35.9918118 10.1478642,34.7867165 6.64027386,34.3574563 C5.17727713,34.1776204 3.84095476,34.1009948 3.84095476,33.6107467" id="Fill-14" fill="#004F9E"></path>
            </g>
        </g>
    </g>
</svg>