<?xml version="1.0" encoding="UTF-8"?>
<svg width="160px" height="34px" viewBox="0 0 160 34" version="1.1" xmlns="http://www.w3.org/2000/svg" xmlns:xlink="http://www.w3.org/1999/xlink">
    <title>T2D MPI+ DK GREY BACK</title>
    <g id="Marques-and-logos" stroke="none" stroke-width="1" fill="none" fill-rule="evenodd">
        <g id="Skin-Text2Drive" transform="translate(-42.000000, -150.000000)">
            <g id="T2D-MPI+-DK-GREY-BACK" transform="translate(42.000000, 150.000000)">
                <polygon id="Fill-1" fill="#414241" points="67 34 160 34 160 0 67 0"></polygon>
                <polyline id="Fill-3" fill="#C1242D" points="6.51515152 10.71 0 10.71 0 6 19 6 19 10.71 12.5151515 10.71 12.5151515 27 6.51515152 27 6.51515152 10.71"></polyline>
                <path d="M38,22.3823529 L38,27 L21.1153184,27 L21.1153184,23.3529412 L29.232358,16.1470588 C30.0163511,15.4411765 30.5438898,14.8374183 30.8123924,14.3382353 C31.080895,13.8382353 31.2151463,13.3341503 31.2151463,12.8235294 C31.2151463,12.1568627 30.9776248,11.6372549 30.5025818,11.2647059 C30.0266781,10.8921569 29.3347676,10.7058824 28.4268503,10.7058824 C27.6213425,10.7058824 26.8829604,10.878268 26.211704,11.2205882 C25.5395869,11.5637255 24.9879518,12.0588235 24.5542169,12.7058824 L20,10.2941176 C20.8459552,8.96078431 22.0335628,7.91176471 23.5619621,7.14705882 C25.091222,6.38235294 26.8975904,6 28.9845095,6 C30.636833,6 32.0972461,6.25571895 33.3683305,6.76470588 C34.6385542,7.2753268 35.6299484,8.00490196 36.3425129,8.95588235 C37.0550775,9.90686275 37.4113597,11.0098039 37.4113597,12.2647059 C37.4113597,13.3823529 37.1574871,14.4362745 36.651463,15.4264706 C36.1454389,16.4166667 35.1703959,17.5392157 33.7246127,18.7941176 L29.6351119,22.3823529 L38,22.3823529" id="Fill-4" fill="#C1242D"></path>
                <path d="M51.8421053,22.26 C53.6703601,22.26 55.1371961,21.75 56.2451524,20.73 C57.3514158,19.71 57.9058172,18.3 57.9058172,16.5 C57.9058172,14.7 57.3514158,13.29 56.2451524,12.27 C55.1371961,11.25 53.6703601,10.7391667 51.8421053,10.7391667 L48.033241,10.7391667 L48.033241,22.26 L51.8421053,22.26 Z M42,6 L52.0858726,6 C54.4211296,6 56.4931517,6.43083333 58.3010926,7.29 C60.1090335,8.15 61.5106956,9.37 62.5060788,10.95 C63.501462,12.53 64,14.3808333 64,16.5 C64,18.62 63.501462,20.47 62.5060788,22.05 C61.5106956,23.63 60.1090335,24.85 58.3010926,25.71 C56.4931517,26.5708333 54.4211296,27 52.0858726,27 L42,27 L42,6 L42,6 Z" id="Fill-5" fill="#C1242D"></path>
                <polyline id="Fill-6" fill="#C1242D" points="91.4096571 27 91.3490872 15.87 85.8210203 24.93 83.1184098 24.93 77.6202013 16.17 77.6202013 27 72 27 72 6 77.0068248 6 84.5618495 18.12 91.9326054 6 96.938577 6 97 27 91.4096571 27"></polyline>
                <path d="M114.678288,16.035 C115.333333,15.505 115.660856,14.75 115.660856,13.77 C115.660856,12.79 115.333333,12.03 114.678288,11.49 C114.023244,10.95 113.051241,10.68 111.762282,10.68 L108.275753,10.68 L108.275753,16.83 L111.762282,16.83 C113.051241,16.83 114.023244,16.565 114.678288,16.035 Z M117.372425,6.945 C118.851558,7.575 119.992604,8.475 120.795563,9.645 C121.598521,10.815 122,12.1908333 122,13.77 C122,15.35 121.598521,16.72 120.795563,17.88 C119.992604,19.04 118.851558,19.935 117.372425,20.565 C115.893291,21.195 114.150026,21.51 112.142631,21.51 L108.275753,21.51 L108.275753,27 L102,27 L102,6 L112.142631,6 C114.150026,6 115.893291,6.315 117.372425,6.945 L117.372425,6.945 Z" id="Fill-7" fill="#C1242D"></path>
                <polygon id="Fill-8" fill="#C1242D" points="126 27 132 27 132 6 126 6"></polygon>
                <polyline id="Fill-9" fill="#C1242D" points="151 18.8004202 145.858012 18.8004202 145.858012 24 141.172414 24 141.172414 18.8004202 136 18.8004202 136 14.1995798 141.172414 14.1995798 141.172414 9 145.858012 9 145.858012 14.1995798 151 14.1995798 151 18.8004202"></polyline>
                <polyline id="Fill-10" fill="#C1242D" points="6.51515152 10.71 0 10.71 0 6 19 6 19 10.71 12.5151515 10.71 12.5151515 27 6.51515152 27 6.51515152 10.71"></polyline>
                <path d="M38,22.3823529 L38,27 L21.1153184,27 L21.1153184,23.3529412 L29.232358,16.1470588 C30.0163511,15.4411765 30.5438898,14.8374183 30.8123924,14.3382353 C31.080895,13.8382353 31.2151463,13.3341503 31.2151463,12.8235294 C31.2151463,12.1568627 30.9776248,11.6372549 30.5025818,11.2647059 C30.0266781,10.8921569 29.3347676,10.7058824 28.4268503,10.7058824 C27.6213425,10.7058824 26.8829604,10.878268 26.211704,11.2205882 C25.5395869,11.5637255 24.9879518,12.0588235 24.5542169,12.7058824 L20,10.2941176 C20.8459552,8.96078431 22.0335628,7.91176471 23.5619621,7.14705882 C25.091222,6.38235294 26.8975904,6 28.9845095,6 C30.636833,6 32.0972461,6.25571895 33.3683305,6.76470588 C34.6385542,7.2753268 35.6299484,8.00490196 36.3425129,8.95588235 C37.0550775,9.90686275 37.4113597,11.0098039 37.4113597,12.2647059 C37.4113597,13.3823529 37.1574871,14.4362745 36.651463,15.4264706 C36.1454389,16.4166667 35.1703959,17.5392157 33.7246127,18.7941176 L29.6351119,22.3823529 L38,22.3823529" id="Fill-11" fill="#C1242D"></path>
                <path d="M51.8421053,22.26 C53.6703601,22.26 55.1371961,21.75 56.2451524,20.73 C57.3514158,19.71 57.9058172,18.3 57.9058172,16.5 C57.9058172,14.7 57.3514158,13.29 56.2451524,12.27 C55.1371961,11.25 53.6703601,10.7391667 51.8421053,10.7391667 L48.033241,10.7391667 L48.033241,22.26 L51.8421053,22.26 Z M42,6 L52.0858726,6 C54.4211296,6 56.4931517,6.43083333 58.3010926,7.29 C60.1090335,8.15 61.5106956,9.37 62.5060788,10.95 C63.501462,12.53 64,14.3808333 64,16.5 C64,18.62 63.501462,20.47 62.5060788,22.05 C61.5106956,23.63 60.1090335,24.85 58.3010926,25.71 C56.4931517,26.5708333 54.4211296,27 52.0858726,27 L42,27 L42,6 L42,6 Z" id="Fill-12" fill="#C1242D"></path>
                <polyline id="Fill-13" fill="#FFFFFE" points="91.4096571 27 91.3490872 15.87 85.8210203 24.93 83.1184098 24.93 77.6202013 16.17 77.6202013 27 72 27 72 6 77.0068248 6 84.5618495 18.12 91.9326054 6 96.938577 6 97 27 91.4096571 27"></polyline>
                <path d="M114.678288,16.035 C115.333333,15.505 115.660856,14.75 115.660856,13.77 C115.660856,12.79 115.333333,12.03 114.678288,11.49 C114.023244,10.95 113.051241,10.68 111.762282,10.68 L108.275753,10.68 L108.275753,16.83 L111.762282,16.83 C113.051241,16.83 114.023244,16.565 114.678288,16.035 Z M117.372425,6.945 C118.851558,7.575 119.992604,8.475 120.795563,9.645 C121.598521,10.815 122,12.1908333 122,13.77 C122,15.35 121.598521,16.72 120.795563,17.88 C119.992604,19.04 118.851558,19.935 117.372425,20.565 C115.893291,21.195 114.150026,21.51 112.142631,21.51 L108.275753,21.51 L108.275753,27 L102,27 L102,6 L112.142631,6 C114.150026,6 115.893291,6.315 117.372425,6.945 L117.372425,6.945 Z" id="Fill-14" fill="#FFFFFE"></path>
                <polygon id="Fill-15" fill="#FFFFFE" points="126 27 132 27 132 6 126 6"></polygon>
                <polyline id="Fill-16" fill="#FFFFFE" points="151 18.8004202 145.858012 18.8004202 145.858012 24 141.172414 24 141.172414 18.8004202 136 18.8004202 136 14.1995798 141.172414 14.1995798 141.172414 9 145.858012 9 145.858012 14.1995798 151 14.1995798 151 18.8004202"></polyline>
            </g>
        </g>
    </g>
</svg>