<svg id="Layer_1" data-name="Layer 1" xmlns="http://www.w3.org/2000/svg" viewBox="0 0 838.452 224"><defs><style>.cls-1{fill:#eb0a1e;}.cls-2{fill:#fff;}</style></defs><title>VIS_toyota_logo_nav</title><path d="M773.6,119.06l13.13-34.423L799.84,119.06Zm26.757-53.97H773.093l-38.1,93.337h23.62l8.678-22.778H806.16l8.682,22.778h23.61ZM608.046,142.2c-15.387,0-27.838-13.878-27.838-31.006s12.451-31.016,27.838-31.016c15.361,0,27.833,13.887,27.833,31.016S623.407,142.2,608.046,142.2m0-80.309a49.3,49.3,0,1,0,49.312,49.3,49.313,49.313,0,0,0-49.312-49.3M413.463,142.2c-15.362,0-27.823-13.878-27.823-31.006S398.1,80.177,413.463,80.177c15.38,0,27.842,13.887,27.842,31.016S428.843,142.2,413.463,142.2m0-80.309a49.3,49.3,0,1,0,49.312,49.3,49.293,49.293,0,0,0-49.312-49.3m121.881,3.2-24.161,37.763L487,65.09H463.374l37.4,58.532v34.8h20.8v-34.8l37.4-58.54Zm204.618,0H660.148v17.9h29.561v75.44H710.53V82.987h29.432ZM280,82.987H309.57v75.44h20.81V82.987h29.441V65.09H280Z"/><rect class="cls-1" width="223.999" height="224"/><path class="cls-2" d="M112.345,56.1c-46.556,0-82.445,23.7-82.445,56s35.889,56,82.445,56,82.444-23.7,82.444-56S158.9,56.1,112.345,56.1Zm50.382,26.374c0,7.414-11.848,13.134-30.832,15.428-1.772-17.733-6.9-29.4-13.481-33.754C138.666,65.407,162.727,72.58,162.727,82.471Zm-50.382,59.854c-6.6,0-11.994-10.3-12.415-30.145q5.94.484,12.415.494t12.414-.494C124.339,132.028,118.943,142.325,112.345,142.325Zm0-43.331q-6.087,0-11.606-.366c1.8-11.872,6.317-21.636,11.606-21.636s9.8,9.764,11.605,21.636Q118.436,98.985,112.345,98.994Zm-6.056-34.859C99.7,68.486,94.568,80.154,92.8,97.9,73.81,95.605,61.962,89.885,61.962,82.471,61.962,72.551,86.025,65.366,106.289,64.135ZM43.9,109.9a36.152,36.152,0,0,1,7.2-21.734c1.843,10.628,17.346,19.8,41.027,23.148,0,.264-.007.522-.007.789,0,25.912,6.03,42.612,14.317,47.881C71.4,157.767,43.9,136.069,43.9,109.9Zm74.35,50.084c8.287-5.269,14.317-21.969,14.317-47.881,0-.267-.006-.525-.007-.789,23.681-3.353,39.184-12.52,41.027-23.148a36.152,36.152,0,0,1,7.2,21.734C180.789,136.069,153.285,157.767,118.25,159.979Z"/></svg>