<svg xmlns="http://www.w3.org/2000/svg" viewBox="0 0 491.44 48.88"><defs><style>.cls-1{fill:#ce181e;}.cls-2{fill:#005ea7;}.cls-3{fill:#231f20;}.cls-4{fill:#808285;}</style></defs><g id="Layer_2" data-name="Layer 2"><g id="Layer_1-2" data-name="Layer 1"><path class="cls-1" d="M457.54,48.88A24.44,24.44,0,1,1,482,24.44a24.46,24.46,0,0,1-24.44,24.44m0-46.64a22.2,22.2,0,1,0,22.19,22.2,22.23,22.23,0,0,0-22.19-22.2"/><polygon class="cls-1" points="457.17 41.1 453.94 18.61 450.87 29.79 438.19 29.79 438.19 27.55 449.16 27.55 454.63 7.63 457.91 30.48 461.17 19.21 464.97 27.55 473.23 27.55 473.23 29.79 463.53 29.79 461.64 25.64 457.17 41.1"/><path class="cls-1" d="M473.23,32a3.36,3.36,0,1,0-3.36-3.36A3.35,3.35,0,0,0,473.23,32"/><path class="cls-2" d="M20.61,14.75a15.33,15.33,0,0,0-8.07-2.42c-3.19,0-5.45,1.26-5.45,3.42S9.55,18.47,13,19l1.6.26c5.08.84,9.07,3,9.07,8,0,6.28-5.53,9.27-11.65,9.27-4.31,0-8.94-1.26-12-3.72l3-4.57A15,15,0,0,0,12,31.31c3.15,0,5.59-1.24,5.59-3.43,0-2-2.07-2.7-6-3.33l-1.8-.29c-5-.79-8.68-3-8.68-8.15,0-5.93,5.28-9,11.34-9a20,20,0,0,1,10.87,3Z"/><path class="cls-2" d="M50.83,24.67c0,7.86-5,11.87-12.25,11.87s-12.26-4-12.26-11.87V7.58H32v16.8c0,4.68,2.65,6.73,6.57,6.73s6.56-2.05,6.56-6.73V7.58h5.69Z"/><path class="cls-2" d="M60.65,25.62V36H55V7.58H66.59c6.79,0,10.4,3.53,10.4,9s-3.61,9-10.36,9Zm0-12.82v7.64h5.84c3.09,0,4.69-1.26,4.69-3.82s-1.6-3.82-4.69-3.82Z"/><path class="cls-2" d="M101.06,36H79.8V7.58h21.1v5.2H85.47v6.3h14.72v5.2H85.47v6.55h15.59Z"/><path class="cls-2" d="M116.92,7.58c6.78,0,10.42,3.21,10.42,8.65,0,4.68-3.25,7.87-8.72,8.4L127.38,36h-6.87l-8.29-11.32h-1.67V36h-5.67V7.58Zm-6.37,5.22v7h6.26c3.09,0,4.7-1.14,4.7-3.54s-1.69-3.43-4.7-3.43Z"/><path class="cls-3" d="M149.82,13a15,15,0,0,0-8.57-2.66c-4.29,0-7.36,1.93-7.36,5.14,0,2.64,2.13,4.09,6.57,4.61l2.7.33c4.69.57,8.88,2.56,8.88,7.48,0,5.63-5.12,8.56-11.26,8.56a18.66,18.66,0,0,1-11.18-3.66l1.79-2.6a15.63,15.63,0,0,0,9.37,3.17c4.41,0,7.89-1.79,7.89-5.19,0-2.76-2.38-4.14-6.89-4.65l-2.87-.33c-4.86-.54-8.39-2.8-8.39-7.52,0-5.4,4.81-8.43,10.77-8.43a17.24,17.24,0,0,1,10.22,3.11Z"/><path class="cls-3" d="M176.63,36h-20V7.58h19.84v3.06H159.89v9.54h16.05v3.05H159.89V33h16.74Z"/><path class="cls-3" d="M193.18,7.58c6.4,0,9.94,2.88,9.94,8,0,4.92-3.82,8-9.9,8h-.47L203,36h-4.07l-10-12.38h-3.6V36H182V7.58Zm-7.89,3.06v10h7.85c4.33,0,6.59-1.76,6.59-5.08s-2.32-5-6.59-5Z"/><path class="cls-3" d="M219.58,36h-4L204.12,7.58h3.47l10,25.2,10-25.2H231Z"/><path class="cls-3" d="M237.11,36h-3.28V7.58h3.28Z"/><path class="cls-3" d="M267.94,13.06l-2.72,1.83a10.5,10.5,0,0,0-8.89-4.57c-6.38,0-11.26,4.63-11.26,11.48S250,33.29,256.33,33.29a10.48,10.48,0,0,0,8.89-4.56l2.64,1.95a13.61,13.61,0,0,1-11.53,5.76c-8.45,0-14.69-6.1-14.69-14.64s6.24-14.63,14.69-14.63C261.29,7.17,265.7,9.4,267.94,13.06Z"/><path class="cls-3" d="M292.41,36h-20V7.58h19.84v3.06H275.67v9.54h16.05v3.05H275.67V33h16.74Z"/><path class="cls-3" d="M297.59,12V8.3h-1.48V7.49H300V8.3h-1.48V12Zm7.46,0V8.65l-1.2,2.87h-.92l-1.21-2.86V12h-.88V7.49h1.25l1.3,3,1.29-3h1.26V12Z"/><path class="cls-4" d="M332.07,10.6h-9.88V36h-3.25V10.6h-9.88V7.51h23Z"/><path class="cls-4" d="M346.68,17,346,20a7.39,7.39,0,0,0-3.34-.78c-3,0-5.16,2.36-5.16,6V36h-3V16.71h3v2.71a6.73,6.73,0,0,1,5.71-3.09A8.26,8.26,0,0,1,346.68,17Z"/><path class="cls-4" d="M354,9.88A2.12,2.12,0,0,1,351.8,12a2.08,2.08,0,0,1-2.13-2.14,2.1,2.1,0,0,1,2.13-2.15A2.14,2.14,0,0,1,354,9.88ZM353.33,36h-3.05V16.71h3.05Z"/><path class="cls-4" d="M377.63,36h-3V33.1a8.52,8.52,0,0,1-7,3.25c-5.4,0-9.61-4.23-9.61-10s4.21-10,9.61-10a8.57,8.57,0,0,1,7,3.25V16.71h3Zm-16.58-9.63a6.85,6.85,0,0,0,6.89,7.17c4,0,6.85-3.09,6.85-7.17a6.88,6.88,0,1,0-13.74,0Z"/><path class="cls-4" d="M398.67,19.6V16.71h3.05V34.64c0,6.28-4.23,9.76-10.18,9.76a13.08,13.08,0,0,1-8.11-2.59l1.34-2.43a11.21,11.21,0,0,0,6.77,2.25c4.17,0,7.13-2.38,7.13-6.87v-2a8.09,8.09,0,0,1-6.87,3.27c-5.4,0-9.53-4-9.53-9.88s4.13-9.85,9.53-9.85A8.14,8.14,0,0,1,398.67,19.6Zm-13.31,6.58a6.79,6.79,0,1,0,13.58,0,6.79,6.79,0,1,0-13.58,0Z"/><path class="cls-4" d="M425,26.27a10.15,10.15,0,0,1-.06,1.13H409.47a6.53,6.53,0,0,0,6.81,6.28,8.91,8.91,0,0,0,6.09-2.41L424,33.34a10.79,10.79,0,0,1-7.91,3c-5.69,0-9.73-4.05-9.73-10s4.06-10,9.55-10C421.13,16.33,424.91,20.41,425,26.27Zm-15.44-1.33h12.36c-.39-3.59-2.75-5.91-6-5.91C412.29,19,410,21.47,409.51,24.94Z"/><path class="cls-4" d="M483.09,12.14V8.46h-1.48V7.65h3.85v.81H484v3.68Zm7.46,0V8.82l-1.2,2.86h-.92l-1.21-2.86v3.32h-.88V7.65h1.25l1.3,3,1.29-3h1.26v4.49Z"/></g></g></svg>