<?xml version="1.0" encoding="UTF-8"?>
<svg width="236px" height="24px" viewBox="0 0 236 24" version="1.1" xmlns="http://www.w3.org/2000/svg" xmlns:xlink="http://www.w3.org/1999/xlink">
    <title>triage-logo</title>
    <g id="Marque-Logos-and-Skins" stroke="none" stroke-width="1" fill="none" fill-rule="evenodd">
        <g id="Skin-Colour-Options" transform="translate(-1421.000000, -1667.000000)" fill="#FFFFFF" fill-rule="nonzero">
            <g id="triage-logo" transform="translate(1421.000000, 1667.000000)">
                <path d="M219.6432,23.6016178 C214.897066,23.6074259 210.615028,20.7529074 208.794723,16.3697228 C206.974418,11.9865381 207.974532,6.93837976 211.328496,3.58029363 C214.68246,0.222207486 219.729386,-0.784106306 224.114804,1.03081358 C228.500221,2.84573347 231.36,7.12426286 231.36,11.8704 C231.349429,18.3449792 226.103379,23.5910292 219.6288,23.6016178 M219.6288,1.2144 C213.743654,1.2144 208.9728,5.98525371 208.9728,11.8704 C208.9728,17.7555463 213.743654,22.5264 219.6288,22.5264 C225.513946,22.5264 230.2848,17.7555463 230.2848,11.8704 C230.276868,5.98854254 225.510657,1.22233239 219.6288,1.2144" id="Shape"></path>
                <polygon id="Path" points="219.4656 19.8672 217.92 9.072 216.4464 14.4384 210.3552 14.4384 210.3552 13.3632 215.6256 13.3632 218.2512 3.8016 219.8208 14.7696 221.3856 9.36 223.2144 13.3632 227.1792 13.3632 227.1792 14.4384 222.5232 14.4384 221.616 12.4464"></polygon>
                <path d="M227.1792,15.5136 C228.069925,15.5136 228.792,14.7915248 228.792,13.9008 C228.792,13.0100752 228.069925,12.288 227.1792,12.288 C226.288475,12.288 225.5664,13.0100752 225.5664,13.9008 C225.5664,14.7915248 226.288475,15.5136 227.1792,15.5136" id="Path"></path>
                <path d="M9.9216,7.2 C8.76422701,6.45862776 7.42234608,6.05622976 6.048,6.0384 C4.5168,6.0384 3.432,6.6432 3.432,7.6752 C3.432,8.7072 4.6128,8.9856 6.2496,9.2592 L7.0224,9.384 C9.4608,9.7824 11.3712,10.824 11.3712,13.224 C11.3712,16.2384 8.7216,17.6736 5.784,17.6736 C3.7152,17.6736 1.464,17.0688 0.024,15.888 L1.4352,13.6896 C2.6864339,14.6432458 4.21558005,15.1608289 5.7888,15.1632 C7.3008,15.1632 8.472,14.568 8.472,13.5168 C8.472,12.5568 7.4736,12.2208 5.592,11.9184 L4.7232,11.7792 C2.3232,11.4 0.5568,10.3392 0.5568,7.8672 C0.5568,5.0208 3.096,3.5472 6,3.5472 C7.84273687,3.5175185 9.65528265,4.01730135 11.2224,4.9872 L9.9216,7.2 Z" id="Path"></path>
                <path d="M24.4272,12 C24.4272,15.7728 22.0272,17.6976 18.5424,17.6976 C15.0576,17.6976 12.6624,15.7776 12.6624,12 L12.6624,3.792 L15.3936,3.792 L15.3936,11.8608 C15.3936,14.1072 16.6608,15.0912 18.5424,15.0912 C20.424,15.0912 21.696,14.1312 21.696,11.8608 L21.696,3.7728 L24.4272,3.7728 L24.4272,12 Z" id="Path"></path>
                <path d="M29.1408,12.4368 L29.1408,17.4336 L26.4,17.4336 L26.4,3.7728 L31.968,3.7728 C35.2272,3.7728 36.9648,5.472 36.9648,8.1168 C36.9648,10.7616 35.2272,12.4368 31.9872,12.4368 L29.1408,12.4368 Z M29.1408,6.2832 L29.1408,9.9504 L31.9392,9.9504 C33.4224,9.9504 34.1952,9.3456 34.1952,8.1168 C34.1952,6.888 33.4224,6.2832 31.9392,6.2832 L29.1408,6.2832 Z" id="Shape"></path>
                <polygon id="Path" points="48.5376 17.4336 38.3328 17.4336 38.3328 3.7728 48.48 3.7728 48.48 6.2736 41.0544 6.2736 41.0544 9.2976 48.1152 9.2976 48.1152 11.7936 41.0544 11.7936 41.0544 14.9376 48.5376 14.9376"></polygon>
                <path d="M56.16,3.7728 C59.4192,3.7728 61.1664,5.3184 61.1664,7.9296 C61.1664,10.176 59.6064,11.7072 56.9808,11.9616 L61.1856,17.4336 L57.888,17.4336 L53.8944,12 L53.0928,12 L53.0928,17.4336 L50.3712,17.4336 L50.3712,3.7728 L56.16,3.7728 Z M53.1072,6.2832 L53.1072,9.6432 L56.112,9.6432 C57.5952,9.6432 58.3632,9.096 58.3632,7.944 C58.3632,6.792 57.5568,6.2976 56.112,6.2976 L53.1072,6.2832 Z" id="Shape"></path>
                <path d="M71.9424,6.36 C70.7313139,5.52563566 69.2946749,5.08024409 67.824,5.0832 C65.7648,5.0832 64.296,6.0096 64.296,7.5504 C64.296,8.8176 65.3184,9.5136 67.4448,9.7632 L68.7408,9.9216 C70.9968,10.1952 73.008,11.1504 73.008,13.512 C73.008,16.2144 70.5456,17.6162401 67.6032,17.6162401 C65.6722608,17.6260562 63.7898291,17.0114877 62.2368,15.864 L63.096,14.6112 C64.3893415,15.5955169 65.9683082,16.1313882 67.5936,16.1376 C69.7104,16.1376 71.376,15.2784 71.376,13.6464 C71.376,12.3216 70.2336,11.6592 68.0688,11.4144 L66.696,11.256 C64.3632,10.992 62.664,9.912 62.664,7.6464 C62.664,5.0544 64.9776,3.6 67.8336,3.6 C69.5869663,3.56661411 71.3058914,4.0891808 72.744,5.0928 L71.9424,6.36 Z" id="Path"></path>
                <polygon id="Path" points="84.8112 17.4336 75.2112 17.4336 75.2112 3.7728 84.7344 3.7728 84.7344 5.2464 76.7712 5.2464 76.7712 9.8256 84.48 9.8256 84.48 11.2656 76.7712 11.2656 76.7712 15.9408 84.8112 15.9408"></polygon>
                <path d="M92.7552,3.7728 C95.8272,3.7728 97.5264,5.16 97.5264,7.6128 C97.5264,9.9744 95.688,11.4768 92.7744,11.4768 L92.5488,11.4768 L97.44,17.4336 L95.52,17.4336 L90.72,11.4912 L88.992,11.4912 L88.992,17.4336 L87.4224,17.4336 L87.4224,3.7728 L92.7552,3.7728 Z M88.968,5.2464 L88.968,10.0464 L92.736,10.0464 C94.8144,10.0464 95.8944,9.2016 95.8944,7.608 C95.8944,6.0144 94.7808,5.208 92.736,5.208 L88.968,5.2464 Z" id="Shape"></path>
                <polygon id="Path" points="105.4272 17.4336 103.5072 17.4336 98.0208 3.7728 99.6912 3.7728 104.4912 15.8736 109.2912 3.7728 110.88 3.7728"></polygon>
                <polygon id="Path" points="113.8368 17.4336 112.2672 17.4336 112.2672 3.7728 113.8368 3.7728"></polygon>
                <path d="M128.64,6.408 L127.3296,7.2864 C126.370942,5.88170748 124.767455,5.05648971 123.0672,5.0928 C120.0048,5.0928 117.6624,7.3152 117.6624,10.6032 C117.6624,13.8912 120.0048,16.1136 123.0672,16.1136 C124.766247,16.1547143 126.370546,15.3326914 127.3296,13.9296 L128.5968,14.8896 C127.33566,16.6822556 125.258008,17.7210816 123.0672,17.6544 C119.0064,17.6544 116.0112,14.7264 116.0112,10.6272 C116.0112,6.528 119.0064,3.6048 123.0672,3.6048 C125.448,3.5808 127.5648,4.6512 128.64,6.408 Z" id="Path"></path>
                <polygon id="Path" points="140.3856 17.4336 130.7856 17.4336 130.7856 3.7728 140.3088 3.7728 140.3088 5.2464 132.3456 5.2464 132.3456 9.8256 140.0544 9.8256 140.0544 11.2656 132.3456 11.2656 132.3456 15.9408 140.3856 15.9408"></polygon>
                <path d="M142.872,5.8848 L142.872,4.1232 L142.1616,4.1232 L142.1616,3.7296 L144,3.7296 L144,4.1232 L143.2848,4.1232 L143.2848,5.8848 L142.872,5.8848 Z M146.4528,5.8848 L146.4528,4.2912 L145.8768,5.6688 L145.44,5.6688 L144.864,4.296 L144.864,5.8848 L144.4416,5.8848 L144.4416,3.7296 L145.0416,3.7296 L145.6656,5.1696 L146.28,3.7296 L146.88,3.7296 L146.88,5.8848 L146.4528,5.8848 Z" id="Shape"></path>
                <polygon id="Path" points="159.4176 5.2224 154.68 5.2224 154.68 17.4 153.12 17.4 153.12 5.2224 148.3824 5.2224 148.3824 3.7392 159.4224 3.7392"></polygon>
                <path d="M166.4304,8.2896 L166.08,9.7296 C165.583042,9.48419594 165.035843,9.35766646 164.4816,9.36 C163.0416,9.36 162.0048,10.4928 162.0048,12.24 L162.0048,17.4096 L160.5648,17.4096 L160.5648,8.16 L162.0048,8.16 L162.0048,9.4608 C162.601839,8.52720533 163.637477,7.96676388 164.7456,7.9776 C165.323309,7.95645728 165.898572,8.06298736 166.4304,8.2896 Z" id="Path"></path>
                <path d="M169.92,4.8816 C169.92,5.45155786 169.457958,5.9136 168.888,5.9136 C168.318042,5.9136 167.856,5.45155786 167.856,4.8816 C167.856,4.31164214 168.318042,3.8496 168.888,3.8496 C169.163285,3.84432993 169.428852,3.95136501 169.623543,4.14605671 C169.818235,4.34074841 169.92527,4.6063148 169.92,4.8816 L169.92,4.8816 Z M169.6176,17.4 L168.1776,17.4 L168.1776,8.16 L169.6176,8.16 L169.6176,17.4 Z" id="Shape"></path>
                <path d="M181.2912,17.4 L179.8512,17.4 L179.8512,16.0224 C179.04794,17.0538948 177.797649,17.6361734 176.4912,17.5872 C173.8944,17.5872 171.8784,15.5568 171.8784,12.7872 C171.8784,10.0176 173.8944,7.9872 176.4912,7.9872 C177.795531,7.94338341 179.042947,8.52254052 179.8512,9.5472 L179.8512,8.16 L181.2912,8.16 L181.2912,17.4 Z M173.3328,12.7776 C173.29061,13.6792722 173.620968,14.5586354 174.246409,15.2094935 C174.87185,15.8603515 175.737363,16.2254575 176.64,16.2192 C178.56,16.2192 179.9232,14.736 179.9232,12.7776 C179.9232,10.8192 178.56,9.3408 176.64,9.3408 C175.736939,9.33040445 174.869701,9.69354585 174.243486,10.3443009 C173.617271,10.9950559 173.287717,11.8756048 173.3328,12.7776 Z" id="Shape"></path>
                <path d="M191.3904,9.5472 L191.3904,8.16 L192.8304,8.16 L192.8304,16.7664 C192.8304,19.7808 190.8,21.4464 187.9392,21.4464 C186.541411,21.478379 185.172995,21.0425132 184.0512,20.208 L184.6944,19.0368 C185.627671,19.7446407 186.76787,20.1258316 187.9392,20.1216 C189.9408,20.1216 191.3664,18.9792 191.3664,16.824 L191.3664,15.864 C190.597169,16.9036977 189.360797,17.492189 188.0688,17.4336 C185.472,17.4336 183.4944,15.5136 183.4944,12.6912 C183.4944,9.8688 185.472,7.9632 188.0688,7.9632 C189.3709,7.90410492 190.616722,8.49821043 191.3904,9.5472 L191.3904,9.5472 Z M185.0016,12.7056 C185.056859,14.4914394 186.539607,15.8998749 188.325927,15.8633173 C190.112248,15.8267597 191.536131,14.3588391 191.518278,12.5722341 C191.500426,10.7856292 190.047494,9.34645472 188.2608,9.3456 C187.374844,9.33280505 186.52286,9.686101 185.905941,10.3220992 C185.289023,10.9580973 184.961834,11.8204444 185.0016,12.7056 L185.0016,12.7056 Z" id="Shape"></path>
                <path d="M204.000054,12.744 C204.000623,12.9267946 203.991008,13.1094807 203.9712,13.2912 L196.5696,13.2912 C196.60329,14.1244201 196.966619,14.9101244 197.579648,15.4754436 C198.192678,16.0407629 199.005184,16.3393822 199.8384,16.3056 C200.926826,16.3059894 201.974261,15.8904494 202.7664,15.144 L203.544,16.1424 C202.527744,17.117032 201.159027,17.6367981 199.752,17.5824 C197.0208,17.5824 195.0768,15.6384 195.0768,12.7824 C195.0768,9.9264 197.0304,7.98238243 199.6656,7.98238243 C202.1712,7.9776 204.000054,9.936 204.000054,12.744 Z M196.584,12.1104 L202.5168,12.1104 C202.3296,10.3872 201.2016,9.2736 199.6368,9.2736 C197.928,9.2736 196.824,10.4448 196.5888,12.1104 L196.584,12.1104 Z" id="Shape"></path>
                <path d="M231.912,5.9664 L231.912,4.2 L231.2016,4.2 L231.2016,3.8112 L233.0496,3.8112 L233.0496,4.2 L232.32,4.2 L232.32,5.9664 L231.912,5.9664 Z M235.4928,5.9664 L235.4928,4.368 L234.9168,5.7456 L234.4704,5.7456 L233.8944,4.3728 L233.8944,5.9664 L233.472,5.9664 L233.472,3.8112 L234.072,3.8112 L234.696,5.2512 L235.3104,3.8112 L235.9152,3.8112 L235.9152,5.9664 L235.4928,5.9664 Z" id="Shape"></path>
            </g>
        </g>
    </g>
</svg>