<?xml version="1.0" encoding="UTF-8"?>
<svg width="38px" height="38px" viewBox="0 0 38 38" version="1.1" xmlns="http://www.w3.org/2000/svg" xmlns:xlink="http://www.w3.org/1999/xlink">
    <title>Group</title>
    <g id="Marque-Logos-and-Skins" stroke="none" stroke-width="1" fill="none" fill-rule="evenodd">
        <g id="Skin-Vauxhall" transform="translate(-36.000000, -28.000000)">
            <g id="Group" transform="translate(36.000000, 28.000000)">
                <path d="M3,27.5566 L14,25 L14,31 L3.09919731,31 C3.06649488,29.8522 3.03270243,28.7044 3,27.5566 Z" id="Path" fill="#EB001D" transform="translate(8.500000, 28.000000) scale(-1, 1) rotate(-180.000000) translate(-8.500000, -28.000000) "></path>
                <path d="M34,28.3379971 C32.1027102,27.6163141 30.985321,26.9588773 29.4779204,26.2693174 C28.1228355,25.6584954 26.7353821,24.6782576 26.4362472,22.7340851 C26.2178506,21.1041394 26.1945207,20.2132666 26.1710687,18.7760596 C26.1023007,17.3287084 26.6832258,17.3111976 27.3292547,17.1811353 C28.2286138,17.1071072 29.1604636,17.0650815 30.0760681,17.007115 C30.381921,16.9902081 30.4604607,16.8287472 30.3276883,16.5869786 C30.1582722,16.1426895 29.8101568,15.9071764 29.0232939,15.768093 L27.8624208,15.5913797 C27.1674116,15.3781596 27.5933338,15.1970746 28.0355013,15.192703 C30.9464786,15.003382 31.7941701,14.8783071 32.2357269,16.2152684 C32.3195189,16.4436323 32.3870655,16.8970994 32.7145382,16.0651593 C32.8616017,15.5611405 33.0086652,15.1856262 33.0582563,14.6012514 C33.1713633,13.1111982 32.764618,12.3119487 31.2856773,11.9304084 L29.7593442,11.5235801 C30.0412565,10.0611335 28.9585567,9.67505236 27.9570838,9.43358564 C26.9882238,9.23816605 26.1005907,9.15518941 25.099362,9.15255677 L25.5539885,6 L21.8871733,9.40416763 C19.1410928,9.83570412 18.0820892,11.0423132 16.9168189,12.9451845 C16.676436,13.3504066 16.9808232,13.3221238 17.2054492,13.3595122 L17.6763211,13.4383346 C18.1995934,13.4354966 17.819598,13.7610993 17.5325555,13.8633498 L16.4857665,14.1881434 C16.0748683,14.4165918 15.929637,14.592496 15.7046445,14.939172 C14.9416001,15.8832169 14.576995,16.7484395 14.0130482,17.6530793 C13.7852463,18.0523236 14.0090173,18.1492967 14.3391773,18.1544896 L15.0324765,18.1686189 C15.3976923,18.1693435 15.3716752,18.4363517 15.0189183,18.590446 L13.9092243,19.0215719 C13.3769131,19.2414823 12.9700457,19.5222576 12.6740865,20.2094022 L11.1045138,23.526294 C10.8757348,24.1587328 11.0566326,24.0820479 11.3194903,24.1471395 L12.8890631,24.2247904 C12.0946272,26.4363334 11.3412322,30.4914528 14.1934574,32.9866694 L11.1489748,35.4192097 C19.6162397,39.5332618 31.7874521,35.0682708 34,28.3379971 Z" id="Path" fill="#EB001D"></path>
                <path d="M6,25.4717489 C4.1632,25.490583 2.52213333,24.6604036 2,24 L2.55946667,27 L6,25.4717489 Z" id="Path" fill="#EB001D"></path>
                <path d="M0,19 C0,8.50659221 8.506639,0 19,0 C29.493361,0 38,8.50659221 38,19 C38,29.4934078 29.493361,38 19,38 C8.506639,38 0,29.4934078 0,19 Z M1.81036706,19 C1.81036706,28.4939375 9.50642834,36.1902106 19,36.1902106 C28.4935717,36.1902106 36.1896329,28.4939375 36.1896329,19 C36.1896329,9.50607466 28.4935717,1.80974091 19,1.80974091 C9.50642834,1.80974091 1.81036706,9.50607466 1.81036706,19 Z" id="Shape" fill="#EB001D"></path>
                <path d="M8,19 L13.804125,9.01332925 L15.734,9 C16.006,9 16.0605,9.19990208 15.938,9.39979192 L10.63425,18.5149327 C10.3745,18.9471236 10.31125,18.9947368 9.7095,18.9947368 L8,19 Z" id="Path" fill="#EB001D"></path>
                <path d="M8.26236559,15 L7.31204301,10.590906 C7.25064516,10.3181766 7.26,10.2727294 7,10.2727294 L8.51774194,10 L11,10.2575688 C10.8723656,10.2474771 10.7305376,10.358578 10.6595699,10.5 L8.26236559,15 Z" id="Path" fill="#EB001D"></path>
                <rect id="Rectangle" fill="#EB001D" fill-rule="nonzero" x="3" y="9" width="11" height="1"></rect>
                <rect id="Rectangle" fill="#EB001D" fill-rule="nonzero" x="0" y="17" width="9" height="1"></rect>
                <polygon id="Path" fill="#EB001D" points="9 17 13.1283148 10 14 10 9.87168516 17"></polygon>
                <polygon id="Path" fill="#EB001D" points="4.34962963 10.0158038 6 16.921041 1 17 1.89864198 13.0812662 3.00975309 10"></polygon>
                <path d="M6,8.96091667 C5.61240741,9.01302778 5.40222222,8.45594444 5.71222222,8 L5,9 L6,8.96091667 Z" id="Path" fill="#EB001D"></path>
                <path d="M1.61,20 C1.5709434,19.5308333 1.60509434,19.1944444 2,19.0344444 L1,19 C1.25811321,19.2633333 1.16415094,19.7366667 1.61,20 Z" id="Path" fill="#EB001D"></path>
                <path d="M26.5705615,11.0854376 C26.7711842,10.9653106 26.8989505,10.9948636 27.1724295,11.0359272 L28.7297328,11.1925221 C29.0202205,11.2081071 29.0484791,11.2927768 28.945891,11.3774359 L28.4993784,11.8313269 C28.2517473,12.0202301 27.9604561,12.0364321 27.712825,11.9490071 L26.2460564,11.6127962 C26.0262821,11.5423286 25.8936944,11.4718609 26.1106562,11.3323085 L26.5705615,11.0854376 Z" id="Path" fill="#FFFFFF"></path>
            </g>
        </g>
    </g>
</svg>