<?xml version="1.0" encoding="UTF-8"?>
<svg class="custom-icon" width="20px" height="16px" viewBox="0 0 20 16" version="1.1" xmlns="http://www.w3.org/2000/svg" xmlns:xlink="http://www.w3.org/1999/xlink">
    <title>drive_file_move_outline_black_24dp</title>
    <g id="SSM-7103---Author-UI" stroke="none" stroke-width="1" fill="none" fill-rule="evenodd">
        <g id="drive_file_move_outline_black_24dp" transform="translate(-2.000000, -4.000000)">
            <polygon id="Path" points="0 0 24 0 24 24 0 24"></polygon>
            <path d="M20,6 L12,6 L10,4 L4,4 C2.9,4 2.01,4.9 2.01,6 L2,18 C2,19.1 2.9,20 4,20 L20,20 C21.1,20 22,19.1 22,18 L22,8 C22,6.9 21.1,6 20,6 Z M20,18 L4,18 L4,8 L20,8 L20,18 Z M8.50625,9 L9.3875,9.88125 L8.4,10.875 L11,10.875 L11,12.125 L8.4,12.125 L9.39375,13.11875 L8.50625,14 L6,11.50625 L8.50625,9 Z M15.49375,12 L14.6125,12.88125 L15.6,13.875 L13,13.875 L13,15.125 L15.6,15.125 L14.60625,16.11875 L15.49375,17 L18,14.50625 L15.49375,12 Z" id="Shape" fill="#000000" fill-rule="nonzero"></path>
        </g>
    </g>
</svg>
