<?xml version="1.0" encoding="UTF-8"?>
<svg width="24px" height="28px" viewBox="0 0 24 28" version="1.1" xmlns="http://www.w3.org/2000/svg" xmlns:xlink="http://www.w3.org/1999/xlink">
    <title>Group 15</title>
    <g id="NW-4529---inspection-file-attachments" stroke="none" stroke-width="1" fill="none" fill-rule="evenodd">
        <g id="inline---Delete" transform="translate(-429.000000, -410.000000)">
            <g id="Group-15" transform="translate(429.000000, 410.000000)">
                <g id="Group-14">
                    <path d="M1.5,0.5 L15.5808105,0.5 L15.5808105,7.5024128 L22.5,7.5024128 L22.5,27.5 L1.5,27.5 L1.5,0.5 Z" id="Rectangle" stroke="#979797" fill="#FFFFFF"></path>
                    <g id="Group-12" transform="translate(0.000000, 17.000000)">
                        <g id="Group-11" transform="translate(0.000000, 1.000000)" fill="#D65532">
                            <path d="M2,0 L6,0 L6,0 L6,6 L2,6 C0.8954305,6 1.3527075e-16,5.1045695 0,4 L0,2 C-1.3527075e-16,0.8954305 0.8954305,2.02906125e-16 2,0 Z" id="Rectangle"></path>
                            <path d="M18,0 L22,0 C23.1045695,-2.02906125e-16 24,0.8954305 24,2 L24,4 C24,5.1045695 23.1045695,6 22,6 L18,6 L18,6 L18,0 Z" id="Rectangle"></path>
                        </g>
                        <rect id="Rectangle" stroke="#D65532" x="7.5" y="0.5" width="9" height="7" rx="2"></rect>
                    </g>
                    <g id="Group-13" transform="translate(4.000000, 10.000000)" fill="#C8C6C4">
                        <rect id="Rectangle" x="0" y="0" width="16" height="1"></rect>
                        <rect id="Rectangle" x="0" y="2" width="16" height="1"></rect>
                        <rect id="Rectangle" x="0" y="4" width="16" height="1"></rect>
                    </g>
                </g>
                <line x1="22.4880888" y1="7.486826" x2="15.582165" y2="0.496666541" id="Path-2" stroke="#979797"></line>
            </g>
        </g>
    </g>
</svg>